<svg version="1.1" id="Layer_1" xmlns="http://www.w3.org/2000/svg" xmlns:xlink="http://www.w3.org/1999/xlink" x="0px" y="0px"
	 viewBox="0 0 141.2 141.2" enable-background="new 0 0 141.2 141.2" xml:space="preserve">
<g>
	<g>
		<g>
			<text transform="matrix(1 0 0 1 20.4554 130.3297)" fill="#D1D3D4" font-family="'HelveticaNeue'" font-size="7">0</text>
		</g>
		<g>
			<text transform="matrix(1 0 0 1 12.6713 109.8678)" fill="#D1D3D4" font-family="'HelveticaNeue'" font-size="7">200</text>
		</g>
		<g>
			<text transform="matrix(1 0 0 1 12.6713 89.4069)" fill="#D1D3D4" font-family="'HelveticaNeue'" font-size="7">400</text>
		</g>
		<g>
			<text transform="matrix(1 0 0 1 12.6713 68.946)" fill="#D1D3D4" font-family="'HelveticaNeue'" font-size="7">600</text>
		</g>
		<g>
			<text transform="matrix(1 0 0 1 12.6713 48.484)" fill="#D1D3D4" font-family="'HelveticaNeue'" font-size="7">800</text>
		</g>
		<g>
			<text transform="matrix(1 0 0 1 6.8334 28.0231)" fill="#D1D3D4" font-family="'HelveticaNeue'" font-size="7">1,000</text>
		</g>
		<g>
			<text transform="matrix(1 0 0 1 2.9408 7.5622)" fill="#D1D3D4" font-family="'HelveticaNeue'" font-size="7">$1,200</text>
		</g>
	</g>
	<g>
		<g>
			<line fill="none" stroke="#000000" stroke-miterlimit="10" x1="26.1" y1="128.3" x2="29" y2="128.3"/>
			<line fill="none" stroke="#808080" stroke-width="0.5" x1="26.1" y1="107.9" x2="140" y2="107.9"/>
			<line fill="none" stroke="#808080" stroke-width="0.5" x1="26.1" y1="87.4" x2="140" y2="87.4"/>
			<line fill="none" stroke="#808080" stroke-width="0.5" x1="26.1" y1="67" x2="140" y2="67"/>
			<line fill="none" stroke="#808080" stroke-width="0.5" x1="26.1" y1="46.5" x2="140" y2="46.5"/>
			<line fill="none" stroke="#808080" stroke-width="0.5" x1="26.1" y1="26" x2="140" y2="26"/>
			<line fill="none" stroke="#808080" stroke-width="0.5" x1="26.1" y1="5.6" x2="140" y2="5.6"/>
		</g>
		<g>
		</g>
	</g>
</g>
<g>
	<g>
		<g>
			<rect x="30.1" y="65.1" fill="#BD5E28" width="20.4" height="63.2"/>
			<rect x="58.5" y="25.9" fill="#BD5E28" width="20.4" height="102.5"/>
			<rect x="86.9" y="81.8" fill="#BD5E28" width="20.4" height="46.5"/>
			<rect x="115.3" y="22.1" fill="#BD5E28" width="20.4" height="106.3"/>
		</g>
	</g>
</g>
<g>
	<g>
		<text transform="matrix(1 0 0 1 117.6898 137.2428)" fill="#D1D3D4" font-family="'HelveticaNeue-Bold'" font-size="7">2014</text>
	</g>
	<g>
		<text transform="matrix(1 0 0 1 89.3031 137.2428)" fill="#D1D3D4" font-family="'HelveticaNeue-Bold'" font-size="7">2013</text>
	</g>
	<g>
		<text transform="matrix(1 0 0 1 60.9164 137.2428)" fill="#D1D3D4" font-family="'HelveticaNeue-Bold'" font-size="7">2012</text>
	</g>
	<g>
		<text transform="matrix(1 0 0 1 32.5297 137.2428)" fill="#D1D3D4" font-family="'HelveticaNeue-Bold'" font-size="7">2011</text>
	</g>
</g>
<text transform="matrix(1 0 0 1 110.8786 16.8903)" fill="#FFFFFF" font-family="'HelveticaNeue-Bold'" font-size="7.5">$1,038.6</text>
<g>
	<line fill="none" stroke="#000000" stroke-width="0.5" stroke-miterlimit="10" x1="26.1" y1="128.3" x2="139.7" y2="128.3"/>
</g>
</svg>
