<?xml version="1.0" encoding="utf-8"?>
<!-- Generator: Adobe Illustrator 17.1.0, SVG Export Plug-In . SVG Version: 6.00 Build 0)  -->
<!DOCTYPE svg PUBLIC "-//W3C//DTD SVG 1.1//EN" "http://www.w3.org/Graphics/SVG/1.1/DTD/svg11.dtd">
<svg version="1.1" id="Layer_1" xmlns="http://www.w3.org/2000/svg" xmlns:xlink="http://www.w3.org/1999/xlink" x="0px" y="0px"
	 viewBox="0 0 603 612" enable-background="new 0 0 603 612" xml:space="preserve">
<g>
	<g>
		<g>
			<g enable-background="new    ">
				<path fill="#D1D3D4" d="M80.2,551.9c0-0.8,0.1-1.7,0.3-2.5c0.2-0.8,0.4-1.6,0.7-2.3c0.3-0.7,0.7-1.4,1.2-1.9
					c0.5-0.5,1.2-1,2-1.3c0.8-0.3,1.8-0.5,2.9-0.5c1.1,0,2.1,0.2,2.9,0.5c0.8,0.3,1.5,0.8,2,1.3c0.5,0.5,0.9,1.2,1.2,1.9
					c0.3,0.7,0.5,1.5,0.7,2.3c0.2,0.8,0.3,1.6,0.3,2.5c0,0.8,0.1,1.7,0.1,2.5c0,0.8,0,1.6-0.1,2.5c0,0.8-0.1,1.7-0.3,2.5
					c-0.2,0.8-0.4,1.6-0.7,2.3c-0.3,0.7-0.7,1.4-1.2,1.9c-0.5,0.5-1.2,1-2,1.3c-0.8,0.3-1.8,0.5-2.9,0.5c-1.1,0-2.1-0.2-2.9-0.5
					c-0.8-0.3-1.5-0.7-2-1.3c-0.5-0.5-0.9-1.2-1.2-1.9c-0.3-0.7-0.5-1.5-0.7-2.3c-0.2-0.8-0.3-1.6-0.3-2.5c0-0.8-0.1-1.7-0.1-2.5
					C80.1,553.5,80.2,552.7,80.2,551.9z M82.9,557c0.1,1,0.2,1.9,0.5,2.8c0.3,0.9,0.7,1.6,1.3,2.2c0.6,0.6,1.5,0.9,2.5,0.9
					s1.9-0.3,2.5-0.9c0.6-0.6,1-1.4,1.3-2.2s0.4-1.8,0.5-2.8c0.1-1,0.1-1.9,0.1-2.7c0-0.5,0-1.1,0-1.7c0-0.6-0.1-1.3-0.2-1.9
					c-0.1-0.6-0.2-1.3-0.4-1.9s-0.4-1.1-0.8-1.6c-0.3-0.5-0.8-0.8-1.3-1.1c-0.5-0.3-1.1-0.4-1.9-0.4s-1.3,0.1-1.9,0.4
					c-0.5,0.3-0.9,0.7-1.3,1.1c-0.3,0.5-0.6,1-0.8,1.6s-0.3,1.2-0.4,1.9c-0.1,0.6-0.1,1.3-0.2,1.9c0,0.6,0,1.2,0,1.7
					C82.9,555.1,82.9,556,82.9,557z"/>
			</g>
		</g>
		<g>
			<g enable-background="new    ">
				<path fill="#D1D3D4" d="M46.8,459.3c0.3-0.9,0.7-1.7,1.3-2.4s1.3-1.2,2.2-1.6c0.9-0.4,1.9-0.6,3-0.6c0.9,0,1.8,0.1,2.6,0.4
					c0.8,0.3,1.5,0.7,2.1,1.2c0.6,0.5,1.1,1.2,1.4,1.9c0.4,0.8,0.5,1.7,0.5,2.7c0,1-0.1,1.8-0.4,2.5c-0.3,0.7-0.7,1.4-1.2,2
					s-1,1.1-1.7,1.6c-0.6,0.5-1.3,0.9-1.9,1.3c-0.7,0.4-1.3,0.8-2,1.2s-1.3,0.8-1.8,1.3c-0.6,0.4-1,0.9-1.4,1.4
					c-0.4,0.5-0.7,1.1-0.8,1.8h11v2.3h-14c0.1-1.3,0.3-2.4,0.7-3.3c0.4-0.9,0.8-1.7,1.4-2.4c0.5-0.7,1.2-1.3,1.9-1.8
					c0.7-0.5,1.4-1,2.2-1.4c0.9-0.6,1.7-1.1,2.4-1.6c0.7-0.5,1.3-1,1.7-1.4c0.5-0.5,0.8-1,1-1.6s0.3-1.2,0.3-2
					c0-0.6-0.1-1.1-0.3-1.6c-0.2-0.5-0.5-0.9-0.9-1.2c-0.4-0.3-0.8-0.6-1.3-0.8c-0.5-0.2-1-0.3-1.6-0.3c-0.7,0-1.4,0.2-1.9,0.5
					c-0.5,0.3-1,0.7-1.3,1.2c-0.3,0.5-0.6,1.1-0.7,1.7c-0.2,0.6-0.2,1.3-0.2,1.9h-2.6C46.4,461.2,46.5,460.2,46.8,459.3z"/>
				<path fill="#D1D3D4" d="M63.3,463.2c0-0.8,0.1-1.7,0.3-2.5c0.2-0.8,0.4-1.6,0.7-2.3c0.3-0.7,0.7-1.4,1.2-1.9
					c0.5-0.5,1.2-1,2-1.3c0.8-0.3,1.8-0.5,2.9-0.5c1.1,0,2.1,0.2,2.9,0.5c0.8,0.3,1.5,0.8,2,1.3c0.5,0.5,0.9,1.2,1.2,1.9
					c0.3,0.7,0.5,1.5,0.7,2.3c0.2,0.8,0.3,1.6,0.3,2.5c0,0.8,0.1,1.7,0.1,2.5c0,0.8,0,1.6-0.1,2.5c0,0.8-0.1,1.7-0.3,2.5
					c-0.2,0.8-0.4,1.6-0.7,2.3c-0.3,0.7-0.7,1.4-1.2,1.9c-0.5,0.5-1.2,1-2,1.3c-0.8,0.3-1.8,0.5-2.9,0.5c-1.1,0-2.1-0.2-2.9-0.5
					c-0.8-0.3-1.5-0.7-2-1.3c-0.5-0.5-0.9-1.2-1.2-1.9c-0.3-0.7-0.5-1.5-0.7-2.3c-0.2-0.8-0.3-1.6-0.3-2.5c0-0.8-0.1-1.7-0.1-2.5
					C63.3,464.9,63.3,464,63.3,463.2z M66.1,468.3c0.1,1,0.2,1.9,0.5,2.8c0.3,0.9,0.7,1.6,1.3,2.2c0.6,0.6,1.5,0.9,2.5,0.9
					s1.9-0.3,2.5-0.9c0.6-0.6,1-1.4,1.3-2.2s0.4-1.8,0.5-2.8c0.1-1,0.1-1.9,0.1-2.7c0-0.5,0-1.1,0-1.7c0-0.6-0.1-1.3-0.2-1.9
					c-0.1-0.6-0.2-1.3-0.4-1.9s-0.4-1.1-0.8-1.6c-0.3-0.5-0.8-0.8-1.3-1.1c-0.5-0.3-1.1-0.4-1.9-0.4s-1.3,0.1-1.9,0.4
					c-0.5,0.3-0.9,0.7-1.3,1.1c-0.3,0.5-0.6,1-0.8,1.6s-0.3,1.2-0.4,1.9c-0.1,0.6-0.1,1.3-0.2,1.9c0,0.6,0,1.2,0,1.7
					C66,466.4,66,467.3,66.1,468.3z"/>
				<path fill="#D1D3D4" d="M80.2,463.2c0-0.8,0.1-1.7,0.3-2.5c0.2-0.8,0.4-1.6,0.7-2.3c0.3-0.7,0.7-1.4,1.2-1.9
					c0.5-0.5,1.2-1,2-1.3c0.8-0.3,1.8-0.5,2.9-0.5c1.1,0,2.1,0.2,2.9,0.5c0.8,0.3,1.5,0.8,2,1.3c0.5,0.5,0.9,1.2,1.2,1.9
					c0.3,0.7,0.5,1.5,0.7,2.3c0.2,0.8,0.3,1.6,0.3,2.5c0,0.8,0.1,1.7,0.1,2.5c0,0.8,0,1.6-0.1,2.5c0,0.8-0.1,1.7-0.3,2.5
					c-0.2,0.8-0.4,1.6-0.7,2.3c-0.3,0.7-0.7,1.4-1.2,1.9c-0.5,0.5-1.2,1-2,1.3c-0.8,0.3-1.8,0.5-2.9,0.5c-1.1,0-2.1-0.2-2.9-0.5
					c-0.8-0.3-1.5-0.7-2-1.3c-0.5-0.5-0.9-1.2-1.2-1.9c-0.3-0.7-0.5-1.5-0.7-2.3c-0.2-0.8-0.3-1.6-0.3-2.5c0-0.8-0.1-1.7-0.1-2.5
					C80.1,464.9,80.2,464,80.2,463.2z M82.9,468.3c0.1,1,0.2,1.9,0.5,2.8c0.3,0.9,0.7,1.6,1.3,2.2c0.6,0.6,1.5,0.9,2.5,0.9
					s1.9-0.3,2.5-0.9c0.6-0.6,1-1.4,1.3-2.2s0.4-1.8,0.5-2.8c0.1-1,0.1-1.9,0.1-2.7c0-0.5,0-1.1,0-1.7c0-0.6-0.1-1.3-0.2-1.9
					c-0.1-0.6-0.2-1.3-0.4-1.9s-0.4-1.1-0.8-1.6c-0.3-0.5-0.8-0.8-1.3-1.1c-0.5-0.3-1.1-0.4-1.9-0.4s-1.3,0.1-1.9,0.4
					c-0.5,0.3-0.9,0.7-1.3,1.1c-0.3,0.5-0.6,1-0.8,1.6s-0.3,1.2-0.4,1.9c-0.1,0.6-0.1,1.3-0.2,1.9c0,0.6,0,1.2,0,1.7
					C82.9,466.4,82.9,467.3,82.9,468.3z"/>
			</g>
		</g>
		<g>
			<g enable-background="new    ">
				<path fill="#D1D3D4" d="M60.7,380.2v2.3h-2.9v5h-2.4v-5H46V380l9.8-14h2.1v14.2H60.7z M55.4,369.7L55.4,369.7l-7.2,10.5h7.2
					V369.7z"/>
				<path fill="#D1D3D4" d="M63.3,374.5c0-0.8,0.1-1.7,0.3-2.5c0.2-0.8,0.4-1.6,0.7-2.3c0.3-0.7,0.7-1.4,1.2-1.9
					c0.5-0.5,1.2-1,2-1.3c0.8-0.3,1.8-0.5,2.9-0.5c1.1,0,2.1,0.2,2.9,0.5c0.8,0.3,1.5,0.8,2,1.3c0.5,0.5,0.9,1.2,1.2,1.9
					c0.3,0.7,0.5,1.5,0.7,2.3c0.2,0.8,0.3,1.6,0.3,2.5c0,0.8,0.1,1.7,0.1,2.5c0,0.8,0,1.6-0.1,2.5c0,0.8-0.1,1.7-0.3,2.5
					c-0.2,0.8-0.4,1.6-0.7,2.3c-0.3,0.7-0.7,1.4-1.2,1.9c-0.5,0.5-1.2,1-2,1.3c-0.8,0.3-1.8,0.5-2.9,0.5c-1.1,0-2.1-0.2-2.9-0.5
					c-0.8-0.3-1.5-0.7-2-1.3c-0.5-0.5-0.9-1.2-1.2-1.9c-0.3-0.7-0.5-1.5-0.7-2.3c-0.2-0.8-0.3-1.6-0.3-2.5c0-0.8-0.1-1.7-0.1-2.5
					C63.3,376.2,63.3,375.3,63.3,374.5z M66.1,379.6c0.1,1,0.2,1.9,0.5,2.8c0.3,0.9,0.7,1.6,1.3,2.2c0.6,0.6,1.5,0.9,2.5,0.9
					s1.9-0.3,2.5-0.9c0.6-0.6,1-1.4,1.3-2.2s0.4-1.8,0.5-2.8c0.1-1,0.1-1.9,0.1-2.7c0-0.5,0-1.1,0-1.7c0-0.6-0.1-1.3-0.2-1.9
					c-0.1-0.6-0.2-1.3-0.4-1.9s-0.4-1.1-0.8-1.6c-0.3-0.5-0.8-0.8-1.3-1.1c-0.5-0.3-1.1-0.4-1.9-0.4s-1.3,0.1-1.9,0.4
					c-0.5,0.3-0.9,0.7-1.3,1.1c-0.3,0.5-0.6,1-0.8,1.6s-0.3,1.2-0.4,1.9c-0.1,0.6-0.1,1.3-0.2,1.9c0,0.6,0,1.2,0,1.7
					C66,377.7,66,378.6,66.1,379.6z"/>
				<path fill="#D1D3D4" d="M80.2,374.5c0-0.8,0.1-1.7,0.3-2.5c0.2-0.8,0.4-1.6,0.7-2.3c0.3-0.7,0.7-1.4,1.2-1.9
					c0.5-0.5,1.2-1,2-1.3c0.8-0.3,1.8-0.5,2.9-0.5c1.1,0,2.1,0.2,2.9,0.5c0.8,0.3,1.5,0.8,2,1.3c0.5,0.5,0.9,1.2,1.2,1.9
					c0.3,0.7,0.5,1.5,0.7,2.3c0.2,0.8,0.3,1.6,0.3,2.5c0,0.8,0.1,1.7,0.1,2.5c0,0.8,0,1.6-0.1,2.5c0,0.8-0.1,1.7-0.3,2.5
					c-0.2,0.8-0.4,1.6-0.7,2.3c-0.3,0.7-0.7,1.4-1.2,1.9c-0.5,0.5-1.2,1-2,1.3c-0.8,0.3-1.8,0.5-2.9,0.5c-1.1,0-2.1-0.2-2.9-0.5
					c-0.8-0.3-1.5-0.7-2-1.3c-0.5-0.5-0.9-1.2-1.2-1.9c-0.3-0.7-0.5-1.5-0.7-2.3c-0.2-0.8-0.3-1.6-0.3-2.5c0-0.8-0.1-1.7-0.1-2.5
					C80.1,376.2,80.2,375.3,80.2,374.5z M82.9,379.6c0.1,1,0.2,1.9,0.5,2.8c0.3,0.9,0.7,1.6,1.3,2.2c0.6,0.6,1.5,0.9,2.5,0.9
					s1.9-0.3,2.5-0.9c0.6-0.6,1-1.4,1.3-2.2s0.4-1.8,0.5-2.8c0.1-1,0.1-1.9,0.1-2.7c0-0.5,0-1.1,0-1.7c0-0.6-0.1-1.3-0.2-1.9
					c-0.1-0.6-0.2-1.3-0.4-1.9s-0.4-1.1-0.8-1.6c-0.3-0.5-0.8-0.8-1.3-1.1c-0.5-0.3-1.1-0.4-1.9-0.4s-1.3,0.1-1.9,0.4
					c-0.5,0.3-0.9,0.7-1.3,1.1c-0.3,0.5-0.6,1-0.8,1.6s-0.3,1.2-0.4,1.9c-0.1,0.6-0.1,1.3-0.2,1.9c0,0.6,0,1.2,0,1.7
					C82.9,377.7,82.9,378.6,82.9,379.6z"/>
			</g>
		</g>
		<g>
			<g enable-background="new    ">
				<path fill="#D1D3D4" d="M56.6,280.5c-0.6-0.6-1.5-0.9-2.5-0.9c-1.1,0-2,0.3-2.6,0.8c-0.7,0.5-1.2,1.2-1.6,2
					c-0.4,0.8-0.6,1.7-0.8,2.7c-0.1,1-0.2,1.8-0.2,2.7l0.1,0.1c0.6-1,1.4-1.7,2.3-2.2c0.9-0.4,1.9-0.7,3.1-0.7c1,0,2,0.2,2.8,0.5
					c0.8,0.4,1.5,0.8,2.1,1.5c0.6,0.6,1,1.4,1.3,2.2c0.3,0.8,0.5,1.8,0.5,2.8c0,0.8-0.1,1.6-0.4,2.5s-0.6,1.6-1.2,2.3
					c-0.6,0.7-1.3,1.3-2.2,1.7c-0.9,0.5-2.1,0.7-3.4,0.7c-1.6,0-2.9-0.3-3.9-1c-1-0.6-1.7-1.5-2.2-2.5c-0.5-1-0.9-2.1-1-3.3
					c-0.2-1.2-0.3-2.4-0.3-3.5c0-1.5,0.1-2.9,0.4-4.3c0.3-1.4,0.7-2.6,1.3-3.7c0.6-1.1,1.4-1.9,2.4-2.6c1-0.6,2.3-1,3.8-1
					c1.8,0,3.2,0.5,4.2,1.4c1.1,0.9,1.7,2.3,1.8,4.1h-2.6C57.6,281.8,57.2,281.1,56.6,280.5z M51.9,287.7c-0.5,0.3-1,0.6-1.4,1
					s-0.7,1-0.9,1.5c-0.2,0.6-0.3,1.2-0.3,1.9c0,0.7,0.1,1.3,0.3,1.9c0.2,0.6,0.5,1.1,0.9,1.5c0.4,0.4,0.8,0.8,1.4,1
					c0.6,0.3,1.2,0.4,1.9,0.4c0.7,0,1.3-0.1,1.9-0.4c0.5-0.3,1-0.6,1.4-1c0.4-0.4,0.6-1,0.8-1.5c0.2-0.6,0.3-1.2,0.3-1.8
					c0-0.7-0.1-1.3-0.3-1.9c-0.2-0.6-0.4-1.1-0.8-1.5c-0.4-0.4-0.8-0.8-1.4-1c-0.5-0.3-1.2-0.4-1.9-0.4S52.4,287.4,51.9,287.7z"/>
				<path fill="#D1D3D4" d="M63.3,285.8c0-0.8,0.1-1.7,0.3-2.5c0.2-0.8,0.4-1.6,0.7-2.3c0.3-0.7,0.7-1.4,1.2-1.9
					c0.5-0.5,1.2-1,2-1.3c0.8-0.3,1.8-0.5,2.9-0.5c1.1,0,2.1,0.2,2.9,0.5c0.8,0.3,1.5,0.8,2,1.3c0.5,0.5,0.9,1.2,1.2,1.9
					c0.3,0.7,0.5,1.5,0.7,2.3c0.2,0.8,0.3,1.6,0.3,2.5c0,0.8,0.1,1.7,0.1,2.5c0,0.8,0,1.6-0.1,2.5c0,0.8-0.1,1.7-0.3,2.5
					c-0.2,0.8-0.4,1.6-0.7,2.3c-0.3,0.7-0.7,1.4-1.2,1.9c-0.5,0.5-1.2,1-2,1.3c-0.8,0.3-1.8,0.5-2.9,0.5c-1.1,0-2.1-0.2-2.9-0.5
					c-0.8-0.3-1.5-0.7-2-1.3c-0.5-0.5-0.9-1.2-1.2-1.9c-0.3-0.7-0.5-1.5-0.7-2.3c-0.2-0.8-0.3-1.6-0.3-2.5c0-0.8-0.1-1.7-0.1-2.5
					C63.3,287.5,63.3,286.7,63.3,285.8z M66.1,291c0.1,1,0.2,1.9,0.5,2.8c0.3,0.9,0.7,1.6,1.3,2.2c0.6,0.6,1.5,0.9,2.5,0.9
					s1.9-0.3,2.5-0.9c0.6-0.6,1-1.4,1.3-2.2s0.4-1.8,0.5-2.8c0.1-1,0.1-1.9,0.1-2.7c0-0.5,0-1.1,0-1.7c0-0.6-0.1-1.3-0.2-1.9
					c-0.1-0.6-0.2-1.3-0.4-1.9s-0.4-1.1-0.8-1.6c-0.3-0.5-0.8-0.8-1.3-1.1c-0.5-0.3-1.1-0.4-1.9-0.4s-1.3,0.1-1.9,0.4
					c-0.5,0.3-0.9,0.7-1.3,1.1c-0.3,0.5-0.6,1-0.8,1.6s-0.3,1.2-0.4,1.9c-0.1,0.6-0.1,1.3-0.2,1.9c0,0.6,0,1.2,0,1.7
					C66,289.1,66,290,66.1,291z"/>
				<path fill="#D1D3D4" d="M80.2,285.8c0-0.8,0.1-1.7,0.3-2.5c0.2-0.8,0.4-1.6,0.7-2.3c0.3-0.7,0.7-1.4,1.2-1.9
					c0.5-0.5,1.2-1,2-1.3c0.8-0.3,1.8-0.5,2.9-0.5c1.1,0,2.1,0.2,2.9,0.5c0.8,0.3,1.5,0.8,2,1.3c0.5,0.5,0.9,1.2,1.2,1.9
					c0.3,0.7,0.5,1.5,0.7,2.3c0.2,0.8,0.3,1.6,0.3,2.5c0,0.8,0.1,1.7,0.1,2.5c0,0.8,0,1.6-0.1,2.5c0,0.8-0.1,1.7-0.3,2.5
					c-0.2,0.8-0.4,1.6-0.7,2.3c-0.3,0.7-0.7,1.4-1.2,1.9c-0.5,0.5-1.2,1-2,1.3c-0.8,0.3-1.8,0.5-2.9,0.5c-1.1,0-2.1-0.2-2.9-0.5
					c-0.8-0.3-1.5-0.7-2-1.3c-0.5-0.5-0.9-1.2-1.2-1.9c-0.3-0.7-0.5-1.5-0.7-2.3c-0.2-0.8-0.3-1.6-0.3-2.5c0-0.8-0.1-1.7-0.1-2.5
					C80.1,287.5,80.2,286.7,80.2,285.8z M82.9,291c0.1,1,0.2,1.9,0.5,2.8c0.3,0.9,0.7,1.6,1.3,2.2c0.6,0.6,1.5,0.9,2.5,0.9
					s1.9-0.3,2.5-0.9c0.6-0.6,1-1.4,1.3-2.2s0.4-1.8,0.5-2.8c0.1-1,0.1-1.9,0.1-2.7c0-0.5,0-1.1,0-1.7c0-0.6-0.1-1.3-0.2-1.9
					c-0.1-0.6-0.2-1.3-0.4-1.9s-0.4-1.1-0.8-1.6c-0.3-0.5-0.8-0.8-1.3-1.1c-0.5-0.3-1.1-0.4-1.9-0.4s-1.3,0.1-1.9,0.4
					c-0.5,0.3-0.9,0.7-1.3,1.1c-0.3,0.5-0.6,1-0.8,1.6s-0.3,1.2-0.4,1.9c-0.1,0.6-0.1,1.3-0.2,1.9c0,0.6,0,1.2,0,1.7
					C82.9,289.1,82.9,290,82.9,291z"/>
			</g>
		</g>
		<g>
			<g enable-background="new    ">
				<path fill="#D1D3D4" d="M47.6,191.8c0.3-0.7,0.8-1.2,1.4-1.7c0.6-0.5,1.3-0.8,2-1.1c0.8-0.2,1.6-0.4,2.4-0.4
					c1.2,0,2.2,0.2,3,0.5c0.8,0.3,1.5,0.7,2,1.2c0.5,0.5,0.9,1.1,1.1,1.8s0.4,1.3,0.4,2c0,1-0.3,1.9-0.8,2.7
					c-0.5,0.8-1.3,1.4-2.2,1.8c1.3,0.4,2.3,1.1,2.9,2c0.6,0.9,0.9,2,0.9,3.4c0,1.1-0.2,2-0.6,2.8c-0.4,0.8-0.9,1.5-1.5,2
					c-0.6,0.6-1.4,1-2.3,1.3c-0.9,0.3-1.8,0.4-2.8,0.4c-1,0-2-0.1-2.9-0.4s-1.7-0.7-2.3-1.2c-0.7-0.5-1.2-1.2-1.5-2
					c-0.4-0.8-0.6-1.8-0.6-2.9c0-1.3,0.3-2.4,1-3.3c0.6-0.9,1.6-1.6,2.8-2c-0.9-0.4-1.6-1-2.2-1.8c-0.5-0.8-0.8-1.7-0.8-2.7
					C47.1,193.2,47.3,192.4,47.6,191.8z M50.4,207.1c0.9,0.7,2,1.1,3.3,1.1c0.6,0,1.2-0.1,1.8-0.3c0.5-0.2,1-0.5,1.4-0.9
					c0.4-0.4,0.7-0.8,0.9-1.3c0.2-0.5,0.3-1.1,0.3-1.7c0-0.6-0.1-1.1-0.3-1.6c-0.2-0.5-0.6-0.9-1-1.3c-0.4-0.4-0.9-0.7-1.4-0.9
					c-0.5-0.2-1.1-0.3-1.7-0.3c-0.6,0-1.2,0.1-1.8,0.3c-0.6,0.2-1,0.5-1.5,0.8c-0.4,0.4-0.7,0.8-1,1.3s-0.3,1.1-0.3,1.7
					C49.1,205.4,49.5,206.4,50.4,207.1z M50.1,195.7c0.2,0.4,0.5,0.8,0.8,1.1c0.3,0.3,0.7,0.5,1.2,0.6c0.5,0.1,1,0.2,1.5,0.2
					c1,0,1.9-0.3,2.5-0.9s1-1.5,1-2.5c0-1.1-0.3-1.9-1-2.5c-0.7-0.6-1.5-0.8-2.6-0.8c-0.5,0-1,0.1-1.5,0.2c-0.5,0.1-0.9,0.4-1.2,0.6
					c-0.3,0.3-0.6,0.6-0.8,1c-0.2,0.4-0.3,0.9-0.3,1.4C49.8,194.8,49.9,195.3,50.1,195.7z"/>
				<path fill="#D1D3D4" d="M63.3,197.1c0-0.8,0.1-1.7,0.3-2.5c0.2-0.8,0.4-1.6,0.7-2.3c0.3-0.7,0.7-1.4,1.2-1.9
					c0.5-0.5,1.2-1,2-1.3c0.8-0.3,1.8-0.5,2.9-0.5c1.1,0,2.1,0.2,2.9,0.5c0.8,0.3,1.5,0.8,2,1.3c0.5,0.5,0.9,1.2,1.2,1.9
					c0.3,0.7,0.5,1.5,0.7,2.3c0.2,0.8,0.3,1.6,0.3,2.5c0,0.8,0.1,1.7,0.1,2.5c0,0.8,0,1.6-0.1,2.5c0,0.8-0.1,1.7-0.3,2.5
					c-0.2,0.8-0.4,1.6-0.7,2.3c-0.3,0.7-0.7,1.4-1.2,1.9c-0.5,0.5-1.2,1-2,1.3c-0.8,0.3-1.8,0.5-2.9,0.5c-1.1,0-2.1-0.2-2.9-0.5
					c-0.8-0.3-1.5-0.7-2-1.3c-0.5-0.5-0.9-1.2-1.2-1.9c-0.3-0.7-0.5-1.5-0.7-2.3c-0.2-0.8-0.3-1.6-0.3-2.5c0-0.8-0.1-1.7-0.1-2.5
					C63.3,198.8,63.3,198,63.3,197.1z M66.1,202.3c0.1,1,0.2,1.9,0.5,2.8c0.3,0.9,0.7,1.6,1.3,2.2c0.6,0.6,1.5,0.9,2.5,0.9
					s1.9-0.3,2.5-0.9c0.6-0.6,1-1.4,1.3-2.2s0.4-1.8,0.5-2.8c0.1-1,0.1-1.9,0.1-2.7c0-0.5,0-1.1,0-1.7c0-0.6-0.1-1.3-0.2-1.9
					c-0.1-0.6-0.2-1.3-0.4-1.9s-0.4-1.1-0.8-1.6c-0.3-0.5-0.8-0.8-1.3-1.1c-0.5-0.3-1.1-0.4-1.9-0.4s-1.3,0.1-1.9,0.4
					c-0.5,0.3-0.9,0.7-1.3,1.1c-0.3,0.5-0.6,1-0.8,1.6s-0.3,1.2-0.4,1.9c-0.1,0.6-0.1,1.3-0.2,1.9c0,0.6,0,1.2,0,1.7
					C66,200.4,66,201.3,66.1,202.3z"/>
				<path fill="#D1D3D4" d="M80.2,197.1c0-0.8,0.1-1.7,0.3-2.5c0.2-0.8,0.4-1.6,0.7-2.3c0.3-0.7,0.7-1.4,1.2-1.9
					c0.5-0.5,1.2-1,2-1.3c0.8-0.3,1.8-0.5,2.9-0.5c1.1,0,2.1,0.2,2.9,0.5c0.8,0.3,1.5,0.8,2,1.3c0.5,0.5,0.9,1.2,1.2,1.9
					c0.3,0.7,0.5,1.5,0.7,2.3c0.2,0.8,0.3,1.6,0.3,2.5c0,0.8,0.1,1.7,0.1,2.5c0,0.8,0,1.6-0.1,2.5c0,0.8-0.1,1.7-0.3,2.5
					c-0.2,0.8-0.4,1.6-0.7,2.3c-0.3,0.7-0.7,1.4-1.2,1.9c-0.5,0.5-1.2,1-2,1.3c-0.8,0.3-1.8,0.5-2.9,0.5c-1.1,0-2.1-0.2-2.9-0.5
					c-0.8-0.3-1.5-0.7-2-1.3c-0.5-0.5-0.9-1.2-1.2-1.9c-0.3-0.7-0.5-1.5-0.7-2.3c-0.2-0.8-0.3-1.6-0.3-2.5c0-0.8-0.1-1.7-0.1-2.5
					C80.1,198.8,80.2,198,80.2,197.1z M82.9,202.3c0.1,1,0.2,1.9,0.5,2.8c0.3,0.9,0.7,1.6,1.3,2.2c0.6,0.6,1.5,0.9,2.5,0.9
					s1.9-0.3,2.5-0.9c0.6-0.6,1-1.4,1.3-2.2s0.4-1.8,0.5-2.8c0.1-1,0.1-1.9,0.1-2.7c0-0.5,0-1.1,0-1.7c0-0.6-0.1-1.3-0.2-1.9
					c-0.1-0.6-0.2-1.3-0.4-1.9s-0.4-1.1-0.8-1.6c-0.3-0.5-0.8-0.8-1.3-1.1c-0.5-0.3-1.1-0.4-1.9-0.4s-1.3,0.1-1.9,0.4
					c-0.5,0.3-0.9,0.7-1.3,1.1c-0.3,0.5-0.6,1-0.8,1.6s-0.3,1.2-0.4,1.9c-0.1,0.6-0.1,1.3-0.2,1.9c0,0.6,0,1.2,0,1.7
					C82.9,200.4,82.9,201.3,82.9,202.3z"/>
			</g>
		</g>
		<g>
			<g enable-background="new    ">
				<path fill="#D1D3D4" d="M28,121.5V106h-5.6V104c0.7,0,1.4-0.1,2.1-0.2s1.3-0.3,1.9-0.6c0.6-0.3,1-0.7,1.4-1.2
					c0.4-0.5,0.6-1.2,0.8-2h2v21.5H28z"/>
				<path fill="#D1D3D4" d="M42.6,118.1v3.1c0,1.2-0.3,2.1-0.8,3c-0.5,0.8-1.4,1.4-2.5,1.8v-1.5c0.3-0.1,0.6-0.3,0.9-0.5
					c0.2-0.2,0.4-0.5,0.6-0.8c0.1-0.3,0.2-0.6,0.3-0.8c0.1-0.3,0.1-0.5,0-0.8h-1.8v-3.4H42.6z"/>
				<path fill="#D1D3D4" d="M46.5,108.4c0-0.8,0.1-1.7,0.3-2.5c0.2-0.8,0.4-1.6,0.7-2.3c0.3-0.7,0.7-1.4,1.2-1.9
					c0.5-0.5,1.2-1,2-1.3c0.8-0.3,1.8-0.5,2.9-0.5c1.1,0,2.1,0.2,2.9,0.5c0.8,0.3,1.5,0.8,2,1.3c0.5,0.5,0.9,1.2,1.2,1.9
					c0.3,0.7,0.5,1.5,0.7,2.3c0.2,0.8,0.3,1.6,0.3,2.5c0,0.8,0.1,1.7,0.1,2.5c0,0.8,0,1.6-0.1,2.5c0,0.8-0.1,1.7-0.3,2.5
					c-0.2,0.8-0.4,1.6-0.7,2.3c-0.3,0.7-0.7,1.4-1.2,1.9c-0.5,0.5-1.2,1-2,1.3c-0.8,0.3-1.8,0.5-2.9,0.5c-1.1,0-2.1-0.2-2.9-0.5
					c-0.8-0.3-1.5-0.7-2-1.3c-0.5-0.5-0.9-1.2-1.2-1.9c-0.3-0.7-0.5-1.5-0.7-2.3c-0.2-0.8-0.3-1.6-0.3-2.5c0-0.8-0.1-1.7-0.1-2.5
					C46.4,110.1,46.4,109.3,46.5,108.4z M49.2,113.6c0.1,1,0.2,1.9,0.5,2.8c0.3,0.9,0.7,1.6,1.3,2.2c0.6,0.6,1.5,0.9,2.5,0.9
					s1.9-0.3,2.5-0.9c0.6-0.6,1-1.4,1.3-2.2s0.4-1.8,0.5-2.8c0.1-1,0.1-1.9,0.1-2.7c0-0.5,0-1.1,0-1.7c0-0.6-0.1-1.3-0.2-1.9
					c-0.1-0.6-0.2-1.3-0.4-1.9s-0.4-1.1-0.8-1.6c-0.3-0.5-0.8-0.8-1.3-1.1c-0.5-0.3-1.1-0.4-1.9-0.4s-1.3,0.1-1.9,0.4
					c-0.5,0.3-0.9,0.7-1.3,1.1c-0.3,0.5-0.6,1-0.8,1.6s-0.3,1.2-0.4,1.9c-0.1,0.6-0.1,1.3-0.2,1.9c0,0.6,0,1.2,0,1.7
					C49.1,111.7,49.1,112.6,49.2,113.6z"/>
				<path fill="#D1D3D4" d="M63.3,108.4c0-0.8,0.1-1.7,0.3-2.5c0.2-0.8,0.4-1.6,0.7-2.3c0.3-0.7,0.7-1.4,1.2-1.9
					c0.5-0.5,1.2-1,2-1.3c0.8-0.3,1.8-0.5,2.9-0.5c1.1,0,2.1,0.2,2.9,0.5c0.8,0.3,1.5,0.8,2,1.3c0.5,0.5,0.9,1.2,1.2,1.9
					c0.3,0.7,0.5,1.5,0.7,2.3c0.2,0.8,0.3,1.6,0.3,2.5c0,0.8,0.1,1.7,0.1,2.5c0,0.8,0,1.6-0.1,2.5c0,0.8-0.1,1.7-0.3,2.5
					c-0.2,0.8-0.4,1.6-0.7,2.3c-0.3,0.7-0.7,1.4-1.2,1.9c-0.5,0.5-1.2,1-2,1.3c-0.8,0.3-1.8,0.5-2.9,0.5c-1.1,0-2.1-0.2-2.9-0.5
					c-0.8-0.3-1.5-0.7-2-1.3c-0.5-0.5-0.9-1.2-1.2-1.9c-0.3-0.7-0.5-1.5-0.7-2.3c-0.2-0.8-0.3-1.6-0.3-2.5c0-0.8-0.1-1.7-0.1-2.5
					C63.3,110.1,63.3,109.3,63.3,108.4z M66.1,113.6c0.1,1,0.2,1.9,0.5,2.8c0.3,0.9,0.7,1.6,1.3,2.2c0.6,0.6,1.5,0.9,2.5,0.9
					s1.9-0.3,2.5-0.9c0.6-0.6,1-1.4,1.3-2.2s0.4-1.8,0.5-2.8c0.1-1,0.1-1.9,0.1-2.7c0-0.5,0-1.1,0-1.7c0-0.6-0.1-1.3-0.2-1.9
					c-0.1-0.6-0.2-1.3-0.4-1.9s-0.4-1.1-0.8-1.6c-0.3-0.5-0.8-0.8-1.3-1.1c-0.5-0.3-1.1-0.4-1.9-0.4s-1.3,0.1-1.9,0.4
					c-0.5,0.3-0.9,0.7-1.3,1.1c-0.3,0.5-0.6,1-0.8,1.6s-0.3,1.2-0.4,1.9c-0.1,0.6-0.1,1.3-0.2,1.9c0,0.6,0,1.2,0,1.7
					C66,111.7,66,112.6,66.1,113.6z"/>
				<path fill="#D1D3D4" d="M80.2,108.4c0-0.8,0.1-1.7,0.3-2.5c0.2-0.8,0.4-1.6,0.7-2.3c0.3-0.7,0.7-1.4,1.2-1.9
					c0.5-0.5,1.2-1,2-1.3c0.8-0.3,1.8-0.5,2.9-0.5c1.1,0,2.1,0.2,2.9,0.5c0.8,0.3,1.5,0.8,2,1.3c0.5,0.5,0.9,1.2,1.2,1.9
					c0.3,0.7,0.5,1.5,0.7,2.3c0.2,0.8,0.3,1.6,0.3,2.5c0,0.8,0.1,1.7,0.1,2.5c0,0.8,0,1.6-0.1,2.5c0,0.8-0.1,1.7-0.3,2.5
					c-0.2,0.8-0.4,1.6-0.7,2.3c-0.3,0.7-0.7,1.4-1.2,1.9c-0.5,0.5-1.2,1-2,1.3c-0.8,0.3-1.8,0.5-2.9,0.5c-1.1,0-2.1-0.2-2.9-0.5
					c-0.8-0.3-1.5-0.7-2-1.3c-0.5-0.5-0.9-1.2-1.2-1.9c-0.3-0.7-0.5-1.5-0.7-2.3c-0.2-0.8-0.3-1.6-0.3-2.5c0-0.8-0.1-1.7-0.1-2.5
					C80.1,110.1,80.2,109.3,80.2,108.4z M82.9,113.6c0.1,1,0.2,1.9,0.5,2.8c0.3,0.9,0.7,1.6,1.3,2.2c0.6,0.6,1.5,0.9,2.5,0.9
					s1.9-0.3,2.5-0.9c0.6-0.6,1-1.4,1.3-2.2s0.4-1.8,0.5-2.8c0.1-1,0.1-1.9,0.1-2.7c0-0.5,0-1.1,0-1.7c0-0.6-0.1-1.3-0.2-1.9
					c-0.1-0.6-0.2-1.3-0.4-1.9s-0.4-1.1-0.8-1.6c-0.3-0.5-0.8-0.8-1.3-1.1c-0.5-0.3-1.1-0.4-1.9-0.4s-1.3,0.1-1.9,0.4
					c-0.5,0.3-0.9,0.7-1.3,1.1c-0.3,0.5-0.6,1-0.8,1.6s-0.3,1.2-0.4,1.9c-0.1,0.6-0.1,1.3-0.2,1.9c0,0.6,0,1.2,0,1.7
					C82.9,111.7,82.9,112.6,82.9,113.6z"/>
			</g>
		</g>
		<g>
			<g enable-background="new    ">
				<path fill="#D1D3D4" d="M7.5,29.4c0.8,0.8,1.8,1.3,3,1.5v-8c-1.1-0.3-2-0.6-2.8-0.9c-0.8-0.3-1.4-0.7-1.9-1.1s-0.9-1-1.1-1.6
					S4.3,17.9,4.3,17c0-0.9,0.2-1.7,0.5-2.5c0.3-0.8,0.8-1.4,1.3-2c0.6-0.6,1.2-1,2-1.3c0.8-0.3,1.6-0.5,2.4-0.6v-2h1.7v2
					c1.6,0.2,2.9,0.8,3.9,1.8c1,1,1.7,2.4,2.1,4.2h-2.6c-0.4-2-1.5-3.2-3.4-3.5v7.5l1.8,0.5c0.4,0.1,0.9,0.3,1.4,0.5
					c0.5,0.3,1.1,0.6,1.6,1c0.5,0.4,0.9,1,1.3,1.7c0.4,0.7,0.5,1.5,0.5,2.4c0,1-0.2,1.9-0.5,2.6c-0.3,0.8-0.8,1.4-1.4,2
					c-0.6,0.6-1.3,1-2.1,1.3c-0.8,0.3-1.7,0.5-2.7,0.6v2.5h-1.7v-2.5c-2-0.2-3.6-0.9-4.8-2.1c-1.2-1.2-1.9-2.9-2-5h2.6
					C6.3,27.5,6.7,28.6,7.5,29.4z M8.1,14.1c-0.7,0.6-1,1.5-1,2.6c0,0.5,0.1,1,0.3,1.3c0.2,0.4,0.4,0.7,0.7,0.9
					c0.3,0.3,0.7,0.5,1.1,0.7c0.4,0.2,0.9,0.3,1.4,0.5V13C9.6,13.1,8.8,13.5,8.1,14.1z M13.8,30.6c0.5-0.2,0.9-0.4,1.2-0.7
					s0.6-0.7,0.8-1.2c0.2-0.5,0.3-1,0.3-1.7c0-0.6-0.1-1.1-0.3-1.5c-0.2-0.4-0.5-0.7-0.8-1c-0.3-0.3-0.8-0.5-1.2-0.7
					c-0.5-0.2-1-0.4-1.5-0.5v7.6C12.8,30.8,13.3,30.7,13.8,30.6z"/>
				<path fill="#D1D3D4" d="M28,32.8V17.4h-5.6v-2.1c0.7,0,1.4-0.1,2.1-0.2s1.3-0.3,1.9-0.6c0.6-0.3,1-0.7,1.4-1.2
					c0.4-0.5,0.6-1.2,0.8-2h2v21.5H28z"/>
				<path fill="#D1D3D4" d="M42.6,29.4v3.1c0,1.2-0.3,2.1-0.8,3c-0.5,0.8-1.4,1.4-2.5,1.8v-1.5c0.3-0.1,0.6-0.3,0.9-0.5
					c0.2-0.2,0.4-0.5,0.6-0.8c0.1-0.3,0.2-0.6,0.3-0.8c0.1-0.3,0.1-0.5,0-0.8h-1.8v-3.4H42.6z"/>
				<path fill="#D1D3D4" d="M46.8,15.8c0.3-0.9,0.7-1.7,1.3-2.4s1.3-1.2,2.2-1.6c0.9-0.4,1.9-0.6,3-0.6c0.9,0,1.8,0.1,2.6,0.4
					c0.8,0.3,1.5,0.7,2.1,1.2c0.6,0.5,1.1,1.2,1.4,1.9c0.4,0.8,0.5,1.7,0.5,2.7c0,1-0.1,1.8-0.4,2.5c-0.3,0.7-0.7,1.4-1.2,2
					s-1,1.1-1.7,1.6c-0.6,0.5-1.3,0.9-1.9,1.3c-0.7,0.4-1.3,0.8-2,1.2s-1.3,0.8-1.8,1.3c-0.6,0.4-1,0.9-1.4,1.4
					c-0.4,0.5-0.7,1.1-0.8,1.8h11v2.3h-14c0.1-1.3,0.3-2.4,0.7-3.3c0.4-0.9,0.8-1.7,1.4-2.4c0.5-0.7,1.2-1.3,1.9-1.8
					c0.7-0.5,1.4-1,2.2-1.4c0.9-0.6,1.7-1.1,2.4-1.6c0.7-0.5,1.3-1,1.7-1.4c0.5-0.5,0.8-1,1-1.6s0.3-1.2,0.3-2
					c0-0.6-0.1-1.1-0.3-1.6c-0.2-0.5-0.5-0.9-0.9-1.2c-0.4-0.3-0.8-0.6-1.3-0.8c-0.5-0.2-1-0.3-1.6-0.3c-0.7,0-1.4,0.2-1.9,0.5
					c-0.5,0.3-1,0.7-1.3,1.2c-0.3,0.5-0.6,1.1-0.7,1.7c-0.2,0.6-0.2,1.3-0.2,1.9h-2.6C46.4,17.8,46.5,16.8,46.8,15.8z"/>
				<path fill="#D1D3D4" d="M63.3,19.8c0-0.8,0.1-1.7,0.3-2.5c0.2-0.8,0.4-1.6,0.7-2.3c0.3-0.7,0.7-1.4,1.2-1.9c0.5-0.5,1.2-1,2-1.3
					c0.8-0.3,1.8-0.5,2.9-0.5c1.1,0,2.1,0.2,2.9,0.5c0.8,0.3,1.5,0.8,2,1.3c0.5,0.5,0.9,1.2,1.2,1.9c0.3,0.7,0.5,1.5,0.7,2.3
					c0.2,0.8,0.3,1.6,0.3,2.5c0,0.8,0.1,1.7,0.1,2.5c0,0.8,0,1.6-0.1,2.5c0,0.8-0.1,1.7-0.3,2.5c-0.2,0.8-0.4,1.6-0.7,2.3
					c-0.3,0.7-0.7,1.4-1.2,1.9c-0.5,0.5-1.2,1-2,1.3c-0.8,0.3-1.8,0.5-2.9,0.5c-1.1,0-2.1-0.2-2.9-0.5c-0.8-0.3-1.5-0.7-2-1.3
					c-0.5-0.5-0.9-1.2-1.2-1.9c-0.3-0.7-0.5-1.5-0.7-2.3c-0.2-0.8-0.3-1.6-0.3-2.5c0-0.8-0.1-1.7-0.1-2.5
					C63.3,21.4,63.3,20.6,63.3,19.8z M66.1,24.9c0.1,1,0.2,1.9,0.5,2.8c0.3,0.9,0.7,1.6,1.3,2.2c0.6,0.6,1.5,0.9,2.5,0.9
					s1.9-0.3,2.5-0.9c0.6-0.6,1-1.4,1.3-2.2s0.4-1.8,0.5-2.8c0.1-1,0.1-1.9,0.1-2.7c0-0.5,0-1.1,0-1.7c0-0.6-0.1-1.3-0.2-1.9
					c-0.1-0.6-0.2-1.3-0.4-1.9s-0.4-1.1-0.8-1.6c-0.3-0.5-0.8-0.8-1.3-1.1c-0.5-0.3-1.1-0.4-1.9-0.4s-1.3,0.1-1.9,0.4
					c-0.5,0.3-0.9,0.7-1.3,1.1c-0.3,0.5-0.6,1-0.8,1.6s-0.3,1.2-0.4,1.9c-0.1,0.6-0.1,1.3-0.2,1.9c0,0.6,0,1.2,0,1.7
					C66,23,66,23.9,66.1,24.9z"/>
				<path fill="#D1D3D4" d="M80.2,19.8c0-0.8,0.1-1.7,0.3-2.5c0.2-0.8,0.4-1.6,0.7-2.3c0.3-0.7,0.7-1.4,1.2-1.9c0.5-0.5,1.2-1,2-1.3
					c0.8-0.3,1.8-0.5,2.9-0.5c1.1,0,2.1,0.2,2.9,0.5c0.8,0.3,1.5,0.8,2,1.3c0.5,0.5,0.9,1.2,1.2,1.9c0.3,0.7,0.5,1.5,0.7,2.3
					c0.2,0.8,0.3,1.6,0.3,2.5c0,0.8,0.1,1.7,0.1,2.5c0,0.8,0,1.6-0.1,2.5c0,0.8-0.1,1.7-0.3,2.5c-0.2,0.8-0.4,1.6-0.7,2.3
					c-0.3,0.7-0.7,1.4-1.2,1.9c-0.5,0.5-1.2,1-2,1.3c-0.8,0.3-1.8,0.5-2.9,0.5c-1.1,0-2.1-0.2-2.9-0.5c-0.8-0.3-1.5-0.7-2-1.3
					c-0.5-0.5-0.9-1.2-1.2-1.9c-0.3-0.7-0.5-1.5-0.7-2.3c-0.2-0.8-0.3-1.6-0.3-2.5c0-0.8-0.1-1.7-0.1-2.5
					C80.1,21.4,80.2,20.6,80.2,19.8z M82.9,24.9c0.1,1,0.2,1.9,0.5,2.8c0.3,0.9,0.7,1.6,1.3,2.2c0.6,0.6,1.5,0.9,2.5,0.9
					s1.9-0.3,2.5-0.9c0.6-0.6,1-1.4,1.3-2.2s0.4-1.8,0.5-2.8c0.1-1,0.1-1.9,0.1-2.7c0-0.5,0-1.1,0-1.7c0-0.6-0.1-1.3-0.2-1.9
					c-0.1-0.6-0.2-1.3-0.4-1.9s-0.4-1.1-0.8-1.6c-0.3-0.5-0.8-0.8-1.3-1.1c-0.5-0.3-1.1-0.4-1.9-0.4s-1.3,0.1-1.9,0.4
					c-0.5,0.3-0.9,0.7-1.3,1.1c-0.3,0.5-0.6,1-0.8,1.6s-0.3,1.2-0.4,1.9c-0.1,0.6-0.1,1.3-0.2,1.9c0,0.6,0,1.2,0,1.7
					C82.9,23,82.9,23.9,82.9,24.9z"/>
			</g>
		</g>
	</g>
	<g>
		<g>
			<line fill="none" stroke="#808080" stroke-width="0.5" x1="103.3" y1="467.7" x2="597" y2="467.7"/>
			<line fill="none" stroke="#808080" stroke-width="0.5" x1="103.3" y1="378.8" x2="597" y2="378.8"/>
			<line fill="none" stroke="#808080" stroke-width="0.5" x1="103.3" y1="290.4" x2="597" y2="290.4"/>
			<line fill="none" stroke="#808080" stroke-width="0.5" x1="103.3" y1="201.5" x2="597" y2="201.5"/>
			<line fill="none" stroke="#808080" stroke-width="0.5" x1="103.3" y1="112.7" x2="597" y2="112.7"/>
			<line fill="none" stroke="#808080" stroke-width="0.5" x1="103.3" y1="24.3" x2="597" y2="24.3"/>
		</g>
	</g>
</g>
<g>
	<g>
		<g>
			<rect x="120.7" y="282.2" fill="#BD5E28" width="88.4" height="273.9"/>
			<rect x="243.8" y="112.3" fill="#BD5E28" width="88.4" height="444.3"/>
			<rect x="366.8" y="354.5" fill="#BD5E28" width="88.4" height="201.5"/>
			<rect x="489.9" y="95.8" fill="#BD5E28" width="88.4" height="460.7"/>
		</g>
	</g>
</g>
<g>
	<g>
		<g enable-background="new    ">
			<path fill="#D1D3D4" d="M501.8,578.4c0.3-1,0.8-2,1.5-2.7c0.6-0.8,1.5-1.4,2.4-1.8c1-0.4,2.1-0.7,3.4-0.7c1,0,1.9,0.2,2.8,0.5
				c0.9,0.3,1.7,0.7,2.3,1.3c0.7,0.6,1.2,1.3,1.6,2.1c0.4,0.8,0.6,1.8,0.6,2.8c0,1.1-0.2,2-0.5,2.8s-0.8,1.5-1.4,2s-1.2,1.1-1.9,1.6
				s-1.4,1-2.2,1.4c-0.7,0.5-1.4,1-2.1,1.5c-0.7,0.5-1.3,1.2-1.8,1.9h10v3.7h-15.6c0-1.2,0.2-2.3,0.5-3.2c0.4-0.9,0.8-1.7,1.4-2.4
				s1.3-1.4,2.1-2c0.8-0.6,1.7-1.2,2.6-1.9c0.5-0.3,1-0.7,1.5-1c0.5-0.3,1-0.7,1.4-1.1c0.4-0.4,0.8-0.9,1.1-1.4s0.4-1.1,0.4-1.7
				c0-1-0.3-1.8-0.9-2.4s-1.4-0.9-2.3-0.9c-0.6,0-1.2,0.1-1.6,0.4c-0.4,0.3-0.8,0.7-1,1.2c-0.3,0.5-0.5,1-0.6,1.6
				c-0.1,0.6-0.2,1.1-0.2,1.7h-4.1C501.4,580.6,501.5,579.4,501.8,578.4z"/>
			<path fill="#D1D3D4" d="M518.4,578.9c0.4-1.4,1-2.5,1.7-3.4s1.5-1.5,2.5-1.8c0.9-0.4,1.9-0.5,3-0.5c1.1,0,2.1,0.2,3,0.5
				c0.9,0.4,1.8,1,2.5,1.8s1.3,2,1.7,3.4c0.4,1.4,0.6,3.1,0.6,5.2c0,2.1-0.2,3.9-0.6,5.3c-0.4,1.4-1,2.6-1.7,3.4
				c-0.7,0.8-1.5,1.5-2.5,1.8c-0.9,0.4-1.9,0.5-3,0.5c-1.1,0-2-0.2-3-0.5c-0.9-0.4-1.8-1-2.5-1.8c-0.7-0.8-1.3-2-1.7-3.4
				c-0.4-1.4-0.6-3.2-0.6-5.3C517.8,582.1,518,580.3,518.4,578.9z M522.2,586.3c0,0.9,0.2,1.7,0.4,2.5c0.2,0.8,0.6,1.5,1,2
				c0.5,0.6,1.1,0.8,2,0.8c0.9,0,1.6-0.3,2-0.8s0.8-1.2,1-2c0.2-0.8,0.3-1.6,0.4-2.5c0-0.9,0.1-1.6,0.1-2.2c0-0.4,0-0.8,0-1.3
				c0-0.5,0-1-0.1-1.6c-0.1-0.5-0.2-1.1-0.3-1.6c-0.1-0.5-0.3-1-0.6-1.4c-0.3-0.4-0.6-0.8-1-1c-0.4-0.3-0.9-0.4-1.5-0.4
				s-1.1,0.1-1.5,0.4c-0.4,0.3-0.7,0.6-1,1s-0.5,0.9-0.6,1.4c-0.1,0.5-0.2,1.1-0.3,1.6c-0.1,0.5-0.1,1.1-0.1,1.6c0,0.5,0,1,0,1.3
				C522.1,584.7,522.1,585.5,522.2,586.3z"/>
			<path fill="#D1D3D4" d="M541.6,594.8v-13.8h-5.3v-3.2c0.7,0,1.5,0,2.2-0.2c0.7-0.1,1.3-0.4,1.9-0.7c0.6-0.3,1-0.8,1.4-1.3
				c0.4-0.5,0.6-1.2,0.8-2h3.4v21.2H541.6z"/>
			<path fill="#D1D3D4" d="M551.4,589.9V586l9.2-12.4h3.9v12.8h2.8v3.5h-2.8v4.9h-4.1v-4.9H551.4z M560.3,579l-5.5,7.4h5.6
				L560.3,579L560.3,579z"/>
		</g>
	</g>
	<g>
		<g enable-background="new    ">
			<path fill="#D1D3D4" d="M378.8,578.4c0.3-1,0.8-2,1.5-2.7c0.6-0.8,1.5-1.4,2.4-1.8c1-0.4,2.1-0.7,3.4-0.7c1,0,1.9,0.2,2.8,0.5
				c0.9,0.3,1.7,0.7,2.3,1.3c0.7,0.6,1.2,1.3,1.6,2.1c0.4,0.8,0.6,1.8,0.6,2.8c0,1.1-0.2,2-0.5,2.8c-0.3,0.8-0.8,1.5-1.4,2
				c-0.6,0.6-1.2,1.1-1.9,1.6c-0.7,0.5-1.4,1-2.2,1.4c-0.7,0.5-1.4,1-2.1,1.5c-0.7,0.5-1.3,1.2-1.8,1.9h10v3.7h-15.6
				c0-1.2,0.2-2.3,0.5-3.2s0.8-1.7,1.4-2.4c0.6-0.7,1.3-1.4,2.1-2c0.8-0.6,1.7-1.2,2.6-1.9c0.5-0.3,1-0.7,1.5-1
				c0.5-0.3,1-0.7,1.4-1.1c0.4-0.4,0.8-0.9,1.1-1.4c0.3-0.5,0.4-1.1,0.4-1.7c0-1-0.3-1.8-0.9-2.4c-0.6-0.6-1.4-0.9-2.3-0.9
				c-0.6,0-1.2,0.1-1.6,0.4c-0.4,0.3-0.8,0.7-1,1.2c-0.3,0.5-0.5,1-0.6,1.6c-0.1,0.6-0.2,1.1-0.2,1.7h-4.1
				C378.3,580.6,378.5,579.4,378.8,578.4z"/>
			<path fill="#D1D3D4" d="M395.4,578.9c0.4-1.4,1-2.5,1.7-3.4s1.5-1.5,2.5-1.8c0.9-0.4,1.9-0.5,3-0.5c1.1,0,2.1,0.2,3,0.5
				c0.9,0.4,1.8,1,2.5,1.8s1.3,2,1.7,3.4c0.4,1.4,0.6,3.1,0.6,5.2c0,2.1-0.2,3.9-0.6,5.3c-0.4,1.4-1,2.6-1.7,3.4
				c-0.7,0.8-1.5,1.5-2.5,1.8c-0.9,0.4-1.9,0.5-3,0.5c-1.1,0-2-0.2-3-0.5c-0.9-0.4-1.8-1-2.5-1.8c-0.7-0.8-1.3-2-1.7-3.4
				c-0.4-1.4-0.6-3.2-0.6-5.3C394.8,582.1,395,580.3,395.4,578.9z M399.1,586.3c0,0.9,0.2,1.7,0.4,2.5c0.2,0.8,0.6,1.5,1,2
				c0.5,0.6,1.1,0.8,2,0.8c0.9,0,1.6-0.3,2-0.8s0.8-1.2,1-2c0.2-0.8,0.3-1.6,0.4-2.5c0-0.9,0.1-1.6,0.1-2.2c0-0.4,0-0.8,0-1.3
				c0-0.5,0-1-0.1-1.6c-0.1-0.5-0.2-1.1-0.3-1.6c-0.1-0.5-0.3-1-0.6-1.4c-0.3-0.4-0.6-0.8-1-1c-0.4-0.3-0.9-0.4-1.5-0.4
				s-1.1,0.1-1.5,0.4c-0.4,0.3-0.7,0.6-1,1s-0.5,0.9-0.6,1.4c-0.1,0.5-0.2,1.1-0.3,1.6c-0.1,0.5-0.1,1.1-0.1,1.6c0,0.5,0,1,0,1.3
				C399.1,584.7,399.1,585.5,399.1,586.3z"/>
			<path fill="#D1D3D4" d="M418.6,594.8v-13.8h-5.3v-3.2c0.7,0,1.5,0,2.2-0.2c0.7-0.1,1.3-0.4,1.9-0.7c0.6-0.3,1-0.8,1.4-1.3
				c0.4-0.5,0.6-1.2,0.8-2h3.4v21.2H418.6z"/>
			<path fill="#D1D3D4" d="M436.3,582.2c0.5,0,1-0.2,1.5-0.3c0.5-0.2,0.8-0.5,1.1-0.8c0.3-0.4,0.4-0.8,0.4-1.5
				c0-0.9-0.3-1.6-0.9-2.1c-0.6-0.5-1.3-0.7-2.1-0.7c-1.1,0-1.9,0.4-2.5,1.1c-0.6,0.7-0.8,1.6-0.8,2.7h-4.1c0-1.1,0.2-2.1,0.6-3
				c0.4-0.9,0.8-1.7,1.5-2.3c0.6-0.6,1.4-1.1,2.3-1.5c0.9-0.4,1.9-0.5,3-0.5c0.8,0,1.7,0.1,2.5,0.4s1.6,0.6,2.3,1.1s1.2,1.1,1.7,1.9
				s0.6,1.6,0.6,2.5c0,1-0.2,1.9-0.7,2.7c-0.5,0.8-1.2,1.3-2.2,1.6v0.1c1.2,0.3,2.1,0.8,2.8,1.7c0.7,0.9,1,1.9,1,3.1
				c0,1.1-0.2,2.1-0.7,3c-0.4,0.9-1,1.6-1.7,2.2s-1.6,1-2.5,1.3c-1,0.3-1.9,0.5-3,0.5c-1.2,0-2.3-0.2-3.3-0.5
				c-1-0.3-1.8-0.8-2.5-1.5c-0.7-0.7-1.2-1.5-1.6-2.4c-0.4-1-0.6-2-0.5-3.3h4.1c0,0.6,0.1,1.1,0.3,1.6c0.2,0.5,0.4,1,0.7,1.3
				c0.3,0.4,0.7,0.7,1.1,0.9c0.5,0.2,1,0.3,1.6,0.3c1,0,1.8-0.3,2.5-0.9c0.7-0.6,1-1.4,1-2.4c0-0.8-0.2-1.4-0.5-1.9
				c-0.3-0.4-0.7-0.7-1.2-0.9c-0.5-0.2-1-0.3-1.6-0.3c-0.6,0-1.1,0-1.7,0v-3C435.3,582.2,435.7,582.2,436.3,582.2z"/>
		</g>
	</g>
	<g>
		<g enable-background="new    ">
			<path fill="#D1D3D4" d="M255.8,578.4c0.3-1,0.8-2,1.5-2.7c0.6-0.8,1.5-1.4,2.4-1.8c1-0.4,2.1-0.7,3.4-0.7c1,0,1.9,0.2,2.8,0.5
				c0.9,0.3,1.7,0.7,2.3,1.3c0.7,0.6,1.2,1.3,1.6,2.1c0.4,0.8,0.6,1.8,0.6,2.8c0,1.1-0.2,2-0.5,2.8c-0.3,0.8-0.8,1.5-1.4,2
				c-0.6,0.6-1.2,1.1-1.9,1.6c-0.7,0.5-1.4,1-2.2,1.4c-0.7,0.5-1.4,1-2.1,1.5c-0.7,0.5-1.3,1.2-1.8,1.9h10v3.7h-15.6
				c0-1.2,0.2-2.3,0.5-3.2s0.8-1.7,1.4-2.4c0.6-0.7,1.3-1.4,2.1-2c0.8-0.6,1.7-1.2,2.6-1.9c0.5-0.3,1-0.7,1.5-1
				c0.5-0.3,1-0.7,1.4-1.1c0.4-0.4,0.8-0.9,1.1-1.4c0.3-0.5,0.4-1.1,0.4-1.7c0-1-0.3-1.8-0.9-2.4c-0.6-0.6-1.4-0.9-2.3-0.9
				c-0.6,0-1.2,0.1-1.6,0.4c-0.4,0.3-0.8,0.7-1,1.2c-0.3,0.5-0.5,1-0.6,1.6c-0.1,0.6-0.2,1.1-0.2,1.7h-4.1
				C255.3,580.6,255.5,579.4,255.8,578.4z"/>
			<path fill="#D1D3D4" d="M272.4,578.9c0.4-1.4,1-2.5,1.7-3.4s1.5-1.5,2.5-1.8c0.9-0.4,1.9-0.5,3-0.5c1.1,0,2.1,0.2,3,0.5
				c0.9,0.4,1.8,1,2.5,1.8s1.3,2,1.7,3.4s0.6,3.1,0.6,5.2c0,2.1-0.2,3.9-0.6,5.3c-0.4,1.4-1,2.6-1.7,3.4c-0.7,0.8-1.5,1.5-2.5,1.8
				c-0.9,0.4-1.9,0.5-3,0.5c-1.1,0-2-0.2-3-0.5c-0.9-0.4-1.8-1-2.5-1.8c-0.7-0.8-1.3-2-1.7-3.4c-0.4-1.4-0.6-3.2-0.6-5.3
				C271.7,582.1,271.9,580.3,272.4,578.9z M276.1,586.3c0,0.9,0.2,1.7,0.4,2.5s0.6,1.5,1,2c0.5,0.6,1.1,0.8,2,0.8
				c0.9,0,1.6-0.3,2-0.8c0.5-0.6,0.8-1.2,1-2c0.2-0.8,0.3-1.6,0.4-2.5c0-0.9,0.1-1.6,0.1-2.2c0-0.4,0-0.8,0-1.3c0-0.5-0.1-1-0.1-1.6
				c-0.1-0.5-0.2-1.1-0.3-1.6c-0.1-0.5-0.3-1-0.6-1.4c-0.3-0.4-0.6-0.8-1-1c-0.4-0.3-0.9-0.4-1.5-0.4c-0.6,0-1.1,0.1-1.5,0.4
				c-0.4,0.3-0.7,0.6-1,1c-0.3,0.4-0.5,0.9-0.6,1.4c-0.1,0.5-0.2,1.1-0.3,1.6c-0.1,0.5-0.1,1.1-0.1,1.6c0,0.5,0,1,0,1.3
				C276,584.7,276.1,585.5,276.1,586.3z"/>
			<path fill="#D1D3D4" d="M295.5,594.8v-13.8h-5.3v-3.2c0.7,0,1.5,0,2.2-0.2s1.3-0.4,1.9-0.7c0.6-0.3,1-0.8,1.4-1.3
				c0.4-0.5,0.6-1.2,0.8-2h3.4v21.2H295.5z"/>
			<path fill="#D1D3D4" d="M306.4,578.4c0.3-1,0.8-2,1.5-2.7c0.6-0.8,1.5-1.4,2.4-1.8c1-0.4,2.1-0.7,3.4-0.7c1,0,1.9,0.2,2.8,0.5
				c0.9,0.3,1.7,0.7,2.3,1.3c0.7,0.6,1.2,1.3,1.6,2.1c0.4,0.8,0.6,1.8,0.6,2.8c0,1.1-0.2,2-0.5,2.8c-0.3,0.8-0.8,1.5-1.4,2
				c-0.6,0.6-1.2,1.1-1.9,1.6c-0.7,0.5-1.4,1-2.2,1.4c-0.7,0.5-1.4,1-2.1,1.5c-0.7,0.5-1.3,1.2-1.8,1.9h10v3.7h-15.6
				c0-1.2,0.2-2.3,0.5-3.2s0.8-1.7,1.4-2.4c0.6-0.7,1.3-1.4,2.1-2c0.8-0.6,1.7-1.2,2.6-1.9c0.5-0.3,1-0.7,1.5-1
				c0.5-0.3,1-0.7,1.4-1.1c0.4-0.4,0.8-0.9,1.1-1.4c0.3-0.5,0.4-1.1,0.4-1.7c0-1-0.3-1.8-0.9-2.4c-0.6-0.6-1.4-0.9-2.3-0.9
				c-0.6,0-1.2,0.1-1.6,0.4c-0.4,0.3-0.8,0.7-1,1.2c-0.3,0.5-0.5,1-0.6,1.6c-0.1,0.6-0.2,1.1-0.2,1.7H306
				C305.9,580.6,306.1,579.4,306.4,578.4z"/>
		</g>
	</g>
	<g>
		<g enable-background="new    ">
			<path fill="#D1D3D4" d="M132.7,578.4c0.3-1,0.8-2,1.5-2.7c0.6-0.8,1.5-1.4,2.4-1.8c1-0.4,2.1-0.7,3.4-0.7c1,0,1.9,0.2,2.8,0.5
				c0.9,0.3,1.7,0.7,2.3,1.3c0.7,0.6,1.2,1.3,1.6,2.1c0.4,0.8,0.6,1.8,0.6,2.8c0,1.1-0.2,2-0.5,2.8c-0.3,0.8-0.8,1.5-1.4,2
				c-0.6,0.6-1.2,1.1-1.9,1.6c-0.7,0.5-1.4,1-2.2,1.4c-0.7,0.5-1.4,1-2.1,1.5c-0.7,0.5-1.3,1.2-1.8,1.9h10v3.7h-15.6
				c0-1.2,0.2-2.3,0.5-3.2s0.8-1.7,1.4-2.4c0.6-0.7,1.3-1.4,2.1-2c0.8-0.6,1.7-1.2,2.6-1.9c0.5-0.3,1-0.7,1.5-1
				c0.5-0.3,1-0.7,1.4-1.1c0.4-0.4,0.8-0.9,1.1-1.4c0.3-0.5,0.4-1.1,0.4-1.7c0-1-0.3-1.8-0.9-2.4c-0.6-0.6-1.4-0.9-2.3-0.9
				c-0.6,0-1.2,0.1-1.6,0.4c-0.4,0.3-0.8,0.7-1,1.2c-0.3,0.5-0.5,1-0.6,1.6c-0.1,0.6-0.2,1.1-0.2,1.7h-4.1
				C132.3,580.6,132.4,579.4,132.7,578.4z"/>
			<path fill="#D1D3D4" d="M149.3,578.9c0.4-1.4,1-2.5,1.7-3.4s1.5-1.5,2.5-1.8c0.9-0.4,1.9-0.5,3-0.5c1.1,0,2.1,0.2,3,0.5
				c0.9,0.4,1.8,1,2.5,1.8s1.3,2,1.7,3.4s0.6,3.1,0.6,5.2c0,2.1-0.2,3.9-0.6,5.3c-0.4,1.4-1,2.6-1.7,3.4c-0.7,0.8-1.5,1.5-2.5,1.8
				c-0.9,0.4-1.9,0.5-3,0.5c-1.1,0-2-0.2-3-0.5c-0.9-0.4-1.8-1-2.5-1.8c-0.7-0.8-1.3-2-1.7-3.4c-0.4-1.4-0.6-3.2-0.6-5.3
				C148.7,582.1,148.9,580.3,149.3,578.9z M153.1,586.3c0,0.9,0.2,1.7,0.4,2.5s0.6,1.5,1,2c0.5,0.6,1.1,0.8,2,0.8
				c0.9,0,1.6-0.3,2-0.8c0.5-0.6,0.8-1.2,1-2c0.2-0.8,0.3-1.6,0.4-2.5c0-0.9,0.1-1.6,0.1-2.2c0-0.4,0-0.8,0-1.3c0-0.5-0.1-1-0.1-1.6
				c-0.1-0.5-0.2-1.1-0.3-1.6c-0.1-0.5-0.3-1-0.6-1.4c-0.3-0.4-0.6-0.8-1-1c-0.4-0.3-0.9-0.4-1.5-0.4c-0.6,0-1.1,0.1-1.5,0.4
				c-0.4,0.3-0.7,0.6-1,1c-0.3,0.4-0.5,0.9-0.6,1.4c-0.1,0.5-0.2,1.1-0.3,1.6c-0.1,0.5-0.1,1.1-0.1,1.6c0,0.5,0,1,0,1.3
				C153,584.7,153,585.5,153.1,586.3z"/>
			<path fill="#D1D3D4" d="M172.5,594.8v-13.8h-5.3v-3.2c0.7,0,1.5,0,2.2-0.2s1.3-0.4,1.9-0.7c0.6-0.3,1-0.8,1.4-1.3
				c0.4-0.5,0.6-1.2,0.8-2h3.4v21.2H172.5z"/>
			<path fill="#D1D3D4" d="M189.4,594.8v-13.8H184v-3.2c0.7,0,1.5,0,2.2-0.2s1.3-0.4,1.9-0.7c0.6-0.3,1-0.8,1.4-1.3
				c0.4-0.5,0.6-1.2,0.8-2h3.4v21.2H189.4z"/>
		</g>
	</g>
</g>
<g enable-background="new    ">
	<path fill="#FFFFFF" d="M476.3,68.6c0.7,0.7,1.5,1.2,2.5,1.4v-6.8c-0.1,0-0.3-0.1-0.4-0.1c-0.2-0.1-0.4-0.1-0.6-0.1
		c-0.8-0.2-1.6-0.5-2.4-0.8c-0.8-0.3-1.5-0.7-2.1-1.2c-0.6-0.5-1.1-1.1-1.5-1.8c-0.4-0.7-0.6-1.6-0.6-2.7c0-1.1,0.2-2.1,0.6-2.9
		c0.4-0.8,1-1.6,1.7-2.1c0.7-0.6,1.5-1,2.4-1.3c0.9-0.3,1.9-0.5,2.8-0.6v-2.5h1.9v2.5c1,0.1,1.9,0.3,2.7,0.6
		c0.9,0.3,1.6,0.7,2.3,1.3c0.7,0.6,1.2,1.2,1.6,2.1c0.4,0.8,0.7,1.8,0.7,2.9h-4.6c0-0.9-0.3-1.6-0.8-2.2c-0.5-0.6-1.1-0.9-1.9-0.9
		V59c0.3,0.1,0.5,0.1,0.8,0.2c0.3,0.1,0.6,0.1,0.9,0.2c1.6,0.4,2.8,1,3.7,1.6c0.9,0.6,1.5,1.3,1.9,2c0.4,0.7,0.7,1.4,0.7,2.1
		c0.1,0.7,0.1,1.3,0.1,1.9c0,0.5-0.1,1.1-0.4,1.8c-0.2,0.7-0.7,1.4-1.3,2.1c-0.6,0.7-1.4,1.3-2.5,1.9s-2.4,0.9-4,1v2.8h-1.9v-2.8
		c-2.4-0.2-4.3-0.9-5.7-2.2s-2.2-3.3-2.4-5.8h4.6C475.3,66.9,475.7,67.9,476.3,68.6z M477.8,53.4c-0.3,0.1-0.7,0.3-0.9,0.5
		s-0.5,0.5-0.7,0.8c-0.2,0.3-0.2,0.7-0.2,1.2c0,0.7,0.2,1.3,0.7,1.7c0.5,0.4,1.2,0.7,2.2,0.9v-5.3C478.5,53.2,478.1,53.3,477.8,53.4
		z M482,69.7c0.4-0.1,0.8-0.3,1.1-0.6c0.3-0.3,0.6-0.6,0.8-1s0.3-0.8,0.3-1.3c0-0.8-0.3-1.5-0.8-1.9s-1.4-0.8-2.7-1.2V70
		C481.1,69.9,481.6,69.8,482,69.7z"/>
	<path fill="#FFFFFF" d="M497,73.2V58.4h-5.7V55c0.8,0,1.6,0,2.3-0.2c0.7-0.1,1.4-0.4,2-0.7s1.1-0.8,1.5-1.4s0.7-1.3,0.8-2.2h3.7
		v22.8H497z"/>
	<path fill="#FFFFFF" d="M514,68.2v5c0,0.7-0.1,1.4-0.4,2c-0.3,0.6-0.6,1.2-1.1,1.6s-1,0.8-1.6,1.1c-0.6,0.3-1.3,0.5-2,0.6v-2.3
		c0.3-0.1,0.6-0.2,0.9-0.4c0.3-0.2,0.5-0.4,0.8-0.7c0.2-0.3,0.4-0.6,0.5-0.9c0.1-0.3,0.2-0.7,0.1-1h-2.3v-5H514z"/>
	<path fill="#FFFFFF" d="M517.3,56.2c0.4-1.5,1-2.7,1.8-3.6c0.8-0.9,1.6-1.6,2.6-2c1-0.4,2.1-0.6,3.2-0.6c1.1,0,2.2,0.2,3.2,0.6
		c1,0.4,1.9,1,2.7,2c0.8,0.9,1.4,2.1,1.8,3.6s0.7,3.4,0.7,5.6c0,2.3-0.2,4.2-0.7,5.7c-0.4,1.5-1.1,2.7-1.8,3.7
		c-0.8,0.9-1.7,1.6-2.7,2c-1,0.4-2.1,0.6-3.2,0.6c-1.1,0-2.2-0.2-3.2-0.6c-1-0.4-1.9-1-2.6-2c-0.8-0.9-1.4-2.1-1.8-3.7
		c-0.4-1.5-0.7-3.4-0.7-5.7C516.6,59.5,516.9,57.7,517.3,56.2z M521.3,64.1c0,0.9,0.2,1.8,0.4,2.7c0.2,0.9,0.6,1.6,1.1,2.2
		c0.5,0.6,1.2,0.9,2.1,0.9c1,0,1.7-0.3,2.2-0.9c0.5-0.6,0.9-1.3,1.1-2.2c0.2-0.9,0.4-1.7,0.4-2.7c0-0.9,0.1-1.7,0.1-2.4
		c0-0.4,0-0.9,0-1.4c0-0.6-0.1-1.1-0.1-1.7c-0.1-0.6-0.2-1.2-0.3-1.7c-0.1-0.6-0.4-1.1-0.6-1.5c-0.3-0.5-0.6-0.8-1.1-1.1
		c-0.4-0.3-1-0.4-1.6-0.4s-1.2,0.1-1.6,0.4c-0.4,0.3-0.8,0.7-1,1.1c-0.3,0.5-0.5,1-0.6,1.5c-0.2,0.6-0.3,1.2-0.3,1.7
		c-0.1,0.6-0.1,1.2-0.1,1.7c0,0.6,0,1,0,1.4C521.3,62.4,521.3,63.2,521.3,64.1z"/>
	<path fill="#FFFFFF" d="M543,59.7c0.6,0,1.1-0.2,1.6-0.4c0.5-0.2,0.9-0.5,1.2-0.9s0.5-0.9,0.5-1.6c0-1-0.3-1.7-1-2.2
		c-0.6-0.5-1.4-0.8-2.2-0.8c-1.2,0-2.1,0.4-2.6,1.2c-0.6,0.8-0.9,1.7-0.9,2.9h-4.4c0-1.2,0.3-2.2,0.6-3.2c0.4-1,0.9-1.8,1.6-2.5
		c0.7-0.7,1.5-1.2,2.5-1.6c1-0.4,2-0.6,3.2-0.6c0.9,0,1.8,0.1,2.7,0.4c0.9,0.3,1.7,0.7,2.5,1.2c0.7,0.5,1.3,1.2,1.8,2
		s0.7,1.7,0.7,2.7c0,1.1-0.3,2.1-0.8,2.9c-0.5,0.8-1.3,1.4-2.4,1.7V61c1.3,0.3,2.2,0.9,3,1.8c0.7,0.9,1.1,2,1.1,3.3
		c0,1.2-0.2,2.3-0.7,3.2c-0.5,0.9-1.1,1.7-1.9,2.3s-1.7,1.1-2.7,1.4c-1,0.3-2.1,0.5-3.2,0.5c-1.3,0-2.4-0.2-3.5-0.6
		s-1.9-0.9-2.7-1.6c-0.7-0.7-1.3-1.6-1.7-2.6c-0.4-1-0.6-2.2-0.6-3.5h4.4c0,0.6,0.1,1.2,0.3,1.7s0.4,1,0.7,1.4
		c0.3,0.4,0.7,0.7,1.2,1c0.5,0.2,1.1,0.4,1.7,0.4c1,0,1.9-0.3,2.6-1c0.7-0.6,1.1-1.5,1.1-2.6c0-0.9-0.2-1.5-0.5-2s-0.8-0.8-1.3-1
		s-1.1-0.3-1.7-0.4c-0.6,0-1.2,0-1.8,0v-3.3C541.9,59.7,542.5,59.7,543,59.7z"/>
	<path fill="#FFFFFF" d="M554.2,53.5c0.5-0.8,1-1.4,1.8-2c0.7-0.5,1.5-0.9,2.5-1.2c0.9-0.3,1.8-0.4,2.8-0.4c1.4,0,2.6,0.2,3.6,0.7
		s1.8,1,2.4,1.6c0.6,0.6,1,1.3,1.3,2s0.4,1.3,0.4,1.9c0,1.1-0.3,2.1-0.8,3c-0.6,0.8-1.4,1.5-2.5,1.8V61c1.4,0.3,2.4,0.9,3.2,1.9
		c0.7,1,1.1,2.2,1.1,3.6c0,1.2-0.2,2.3-0.7,3.2s-1.1,1.6-1.9,2.2s-1.7,1-2.7,1.3c-1,0.3-2.1,0.4-3.1,0.4c-1.1,0-2.2-0.1-3.2-0.4
		c-1-0.3-2-0.7-2.8-1.3c-0.8-0.6-1.5-1.3-2-2.2c-0.5-0.9-0.7-2-0.7-3.2c0-1.5,0.4-2.7,1.1-3.6c0.7-1,1.8-1.6,3.2-2v-0.1
		c-1.1-0.3-1.9-0.9-2.5-1.7c-0.6-0.8-0.8-1.8-0.8-3C553.5,55.2,553.7,54.3,554.2,53.5z M557.5,67.9c0.2,0.5,0.5,0.9,0.9,1.2
		c0.4,0.3,0.8,0.6,1.3,0.8c0.5,0.2,1,0.3,1.6,0.3c0.6,0,1.1-0.1,1.5-0.3c0.5-0.2,0.9-0.4,1.2-0.8c0.4-0.3,0.6-0.7,0.8-1.2
		c0.2-0.5,0.3-1,0.3-1.6c0-0.5-0.1-1-0.3-1.5s-0.5-0.8-0.8-1.2c-0.4-0.3-0.8-0.6-1.2-0.7c-0.5-0.2-1-0.3-1.5-0.3
		c-1.1,0-2.1,0.3-2.9,0.9c-0.8,0.6-1.2,1.5-1.2,2.7C557.2,66.9,557.3,67.4,557.5,67.9z M558.7,58.9c0.7,0.5,1.5,0.8,2.4,0.8
		c1,0,1.8-0.3,2.4-0.8s1-1.3,1-2.2c0-0.3,0-0.6-0.1-1s-0.3-0.7-0.5-1s-0.6-0.6-1-0.8s-1-0.3-1.7-0.3c-0.5,0-0.9,0.1-1.3,0.2
		c-0.4,0.1-0.8,0.3-1.1,0.6s-0.6,0.6-0.8,1c-0.2,0.4-0.3,0.8-0.3,1.4C557.7,57.6,558,58.3,558.7,58.9z"/>
	<path fill="#FFFFFF" d="M577.2,68.2v5h-5.1v-5H577.2z"/>
	<path fill="#FFFFFF" d="M590.8,54.3c-0.5-0.6-1.2-0.8-2-0.8c-0.8,0-1.5,0.2-2.1,0.7c-0.6,0.5-1,1.1-1.3,1.8
		c-0.3,0.7-0.6,1.5-0.7,2.3c-0.2,0.8-0.2,1.5-0.3,2.1l0.1,0.1c0.6-0.9,1.4-1.6,2.2-2c0.8-0.4,1.8-0.6,2.9-0.6c1,0,1.9,0.2,2.9,0.6
		s1.7,1,2.4,1.7c0.6,0.7,1.1,1.5,1.3,2.4c0.3,0.9,0.4,1.8,0.4,2.7c0,1.2-0.2,2.3-0.6,3.3c-0.4,1-0.9,1.9-1.6,2.6
		c-0.7,0.7-1.5,1.3-2.5,1.8c-1,0.4-2.1,0.6-3.3,0.6c-1.7,0-3.1-0.3-4.3-1s-2-1.6-2.7-2.7c-0.7-1.1-1.1-2.4-1.4-3.8
		c-0.3-1.4-0.4-2.8-0.4-4.3c0-1.4,0.2-2.8,0.5-4.2c0.3-1.4,0.8-2.7,1.6-3.8s1.6-2.1,2.8-2.8c1.1-0.7,2.5-1.1,4.1-1.1
		c1,0,1.9,0.1,2.7,0.4c0.8,0.3,1.6,0.7,2.2,1.2c0.6,0.5,1.2,1.2,1.6,2c0.4,0.8,0.7,1.7,0.8,2.7h-4.4
		C591.7,55.5,591.3,54.9,590.8,54.3z M586.9,61.7c-0.5,0.2-0.9,0.5-1.2,0.9c-0.3,0.4-0.5,0.8-0.7,1.3c-0.2,0.5-0.2,1-0.2,1.6
		c0,0.5,0.1,1,0.2,1.5c0.2,0.5,0.4,1,0.7,1.4c0.3,0.4,0.7,0.7,1.2,1c0.5,0.2,1,0.4,1.6,0.4c0.6,0,1.1-0.1,1.5-0.4
		c0.4-0.2,0.8-0.6,1.1-0.9c0.3-0.4,0.5-0.8,0.7-1.3c0.2-0.5,0.2-1,0.2-1.5c0-0.5-0.1-1.1-0.2-1.6c-0.1-0.5-0.4-1-0.6-1.4
		c-0.3-0.4-0.6-0.7-1.1-1s-1-0.4-1.5-0.4C587.9,61.4,587.4,61.5,586.9,61.7z"/>
</g>
<g>
	<line fill="none" stroke="#808080" x1="103.3" y1="556.1" x2="595.7" y2="556.1"/>
</g>
</svg>
