<?xml version="1.0" encoding="utf-8"?>
<!-- Generator: Adobe Illustrator 17.1.0, SVG Export Plug-In . SVG Version: 6.00 Build 0)  -->
<!DOCTYPE svg PUBLIC "-//W3C//DTD SVG 1.1//EN" "http://www.w3.org/Graphics/SVG/1.1/DTD/svg11.dtd">
<svg version="1.1" id="Layer_1" xmlns="http://www.w3.org/2000/svg" xmlns:xlink="http://www.w3.org/1999/xlink" x="0px" y="0px"
	 viewBox="102 0 603 612" enable-background="new 102 0 603 612" xml:space="preserve">
<g enable-background="new    ">
	<path fill="#FFFFFF" d="M572.5,66.5c0.7,0.7,1.5,1.2,2.5,1.4v-6.8c-0.1,0-0.3-0.1-0.4-0.1s-0.4-0.1-0.6-0.1
		c-0.8-0.2-1.6-0.5-2.4-0.8s-1.5-0.7-2.1-1.2c-0.6-0.5-1.1-1.1-1.5-1.8s-0.6-1.6-0.6-2.7c0-1.1,0.2-2.1,0.6-2.9s1-1.6,1.7-2.1
		c0.7-0.6,1.5-1,2.4-1.3c0.9-0.3,1.9-0.5,2.8-0.6v-2.5h1.9v2.5c1,0.1,1.9,0.3,2.8,0.6c0.9,0.3,1.6,0.8,2.3,1.3s1.2,1.3,1.6,2.1
		c0.4,0.8,0.7,1.8,0.7,2.9h-4.7c0-0.9-0.3-1.6-0.8-2.2c-0.5-0.6-1.2-0.9-1.9-0.9v5.8c0.3,0.1,0.5,0.1,0.8,0.2
		c0.3,0.1,0.6,0.1,0.9,0.2c1.6,0.4,2.9,1,3.7,1.6c0.9,0.6,1.5,1.3,1.9,2c0.4,0.7,0.7,1.4,0.7,2.1c0.1,0.7,0.1,1.3,0.1,1.9
		c0,0.5-0.1,1.1-0.4,1.8c-0.2,0.7-0.7,1.4-1.3,2.1c-0.6,0.7-1.5,1.3-2.5,1.9c-1,0.5-2.4,0.9-4,1v2.8h-1.9v-2.8
		c-2.4-0.2-4.4-0.9-5.7-2.3s-2.2-3.3-2.4-5.9h4.6C571.5,64.8,571.9,65.8,572.5,66.5z M574,51.2c-0.3,0.1-0.7,0.3-1,0.5
		s-0.5,0.5-0.7,0.9c-0.2,0.3-0.2,0.7-0.2,1.2c0,0.7,0.2,1.3,0.7,1.7c0.5,0.4,1.2,0.7,2.3,1v-5.3C574.7,51.1,574.3,51.1,574,51.2z
		 M578.2,67.6c0.4-0.1,0.8-0.3,1.1-0.6c0.3-0.3,0.6-0.6,0.8-1c0.2-0.4,0.3-0.8,0.3-1.4c0-0.9-0.3-1.5-0.8-1.9s-1.4-0.8-2.7-1.2v6.3
		C577.4,67.9,577.8,67.8,578.2,67.6z"/>
	<path fill="#FFFFFF" d="M592.1,52.1l-0.9,5.2l0.1,0.1c0.6-0.6,1.3-1.1,2-1.4c0.7-0.3,1.5-0.4,2.5-0.4c1.1,0,2.1,0.2,3,0.6
		c0.9,0.4,1.6,1,2.2,1.7c0.6,0.7,1.1,1.5,1.4,2.5c0.3,1,0.5,2,0.5,3c0,1.2-0.2,2.3-0.7,3.3s-1.1,1.9-1.9,2.6s-1.7,1.3-2.7,1.7
		c-1,0.4-2.1,0.6-3.3,0.6c-1.1,0-2.2-0.1-3.2-0.4s-1.9-0.7-2.7-1.4s-1.4-1.4-1.9-2.3c-0.5-0.9-0.7-2-0.7-3.2h4.7
		c0.1,1,0.5,1.9,1.2,2.5c0.7,0.6,1.5,0.9,2.6,0.9c0.6,0,1.2-0.1,1.7-0.4c0.5-0.3,0.9-0.6,1.2-1c0.3-0.4,0.6-0.9,0.8-1.4
		s0.3-1.1,0.3-1.7c0-0.6-0.1-1.1-0.3-1.7c-0.2-0.5-0.4-1-0.8-1.4c-0.3-0.4-0.8-0.7-1.2-0.9c-0.5-0.2-1-0.3-1.7-0.3
		c-0.8,0-1.5,0.1-2,0.4c-0.5,0.3-1,0.8-1.5,1.4h-4.2l2.3-12.7h12.8v3.8H592.1z"/>
	<path fill="#FFFFFF" d="M605,53.4c0.3-1.1,0.9-2.1,1.6-2.9c0.7-0.8,1.6-1.5,2.6-2s2.3-0.7,3.7-0.7c1,0,2,0.2,3,0.5
		c0.9,0.3,1.8,0.8,2.5,1.4c0.7,0.6,1.3,1.4,1.7,2.3s0.6,1.9,0.6,3c0,1.2-0.2,2.2-0.6,3c-0.4,0.8-0.9,1.6-1.5,2.2
		c-0.6,0.6-1.3,1.2-2.1,1.8s-1.6,1-2.3,1.6c-0.8,0.5-1.6,1.1-2.3,1.7c-0.7,0.6-1.4,1.3-2,2.1h10.8v4h-16.8c0-1.3,0.2-2.5,0.6-3.5
		c0.4-1,0.9-1.9,1.6-2.6c0.7-0.8,1.4-1.5,2.3-2.1c0.9-0.7,1.8-1.3,2.8-2c0.5-0.3,1-0.7,1.6-1.1c0.6-0.4,1.1-0.8,1.6-1.2
		c0.5-0.4,0.9-0.9,1.2-1.5s0.5-1.2,0.5-1.9c0-1.1-0.3-2-1-2.6c-0.6-0.6-1.5-0.9-2.5-0.9c-0.7,0-1.3,0.2-1.7,0.5
		c-0.5,0.3-0.8,0.7-1.1,1.2c-0.3,0.5-0.5,1.1-0.6,1.7c-0.1,0.6-0.2,1.2-0.2,1.9h-4.5C604.5,55.8,604.7,54.5,605,53.4z"/>
	<path fill="#FFFFFF" d="M633.2,52.2c-0.5-0.6-1.2-0.9-2-0.9c-0.8,0-1.5,0.2-2.1,0.7c-0.6,0.5-1,1.1-1.3,1.8
		c-0.3,0.7-0.6,1.5-0.7,2.3c-0.2,0.8-0.2,1.5-0.3,2.2l0.1,0.1c0.6-0.9,1.4-1.6,2.2-2c0.9-0.4,1.8-0.6,2.9-0.6c1,0,1.9,0.2,2.9,0.6
		c0.9,0.4,1.7,1,2.4,1.7c0.6,0.7,1.1,1.5,1.3,2.4c0.3,0.9,0.4,1.8,0.4,2.7c0,1.2-0.2,2.3-0.6,3.3c-0.4,1-0.9,1.9-1.6,2.7
		c-0.7,0.8-1.6,1.3-2.5,1.8c-1,0.4-2.1,0.6-3.3,0.6c-1.7,0-3.2-0.3-4.3-1c-1.1-0.7-2-1.6-2.7-2.7c-0.7-1.1-1.1-2.4-1.4-3.8
		c-0.3-1.4-0.4-2.8-0.4-4.3c0-1.4,0.2-2.8,0.5-4.3s0.9-2.7,1.6-3.8s1.6-2.1,2.8-2.8s2.5-1.1,4.2-1.1c1,0,1.9,0.1,2.8,0.4
		c0.9,0.3,1.6,0.7,2.3,1.2s1.2,1.2,1.6,2s0.7,1.7,0.8,2.7h-4.4C634.1,53.4,633.8,52.7,633.2,52.2z M629.3,59.6
		c-0.5,0.2-0.9,0.5-1.2,0.9c-0.3,0.4-0.5,0.8-0.7,1.4c-0.2,0.5-0.2,1.1-0.2,1.6c0,0.5,0.1,1,0.2,1.6s0.4,1,0.7,1.4
		c0.3,0.4,0.7,0.7,1.2,1c0.5,0.2,1,0.4,1.6,0.4c0.6,0,1.1-0.1,1.5-0.4c0.4-0.2,0.8-0.6,1.1-0.9c0.3-0.4,0.5-0.8,0.7-1.3
		c0.2-0.5,0.2-1,0.2-1.5c0-0.5-0.1-1.1-0.2-1.6c-0.1-0.5-0.4-1-0.6-1.4c-0.3-0.4-0.7-0.7-1.1-1c-0.4-0.3-1-0.4-1.6-0.4
		C630.3,59.3,629.8,59.4,629.3,59.6z"/>
	<path fill="#FFFFFF" d="M646.9,66.1v5h-5.1v-5H646.9z"/>
	<path fill="#FFFFFF" d="M658,57.5c0.6,0,1.1-0.2,1.6-0.4c0.5-0.2,0.9-0.5,1.2-0.9c0.3-0.4,0.5-0.9,0.5-1.6c0-1-0.3-1.7-1-2.3
		c-0.7-0.5-1.4-0.8-2.3-0.8c-1.2,0-2.1,0.4-2.7,1.2c-0.6,0.8-0.9,1.8-0.9,2.9H650c0-1.2,0.3-2.3,0.6-3.2s0.9-1.8,1.6-2.5
		c0.7-0.7,1.5-1.2,2.5-1.6c1-0.4,2-0.6,3.2-0.6c0.9,0,1.8,0.1,2.8,0.4c0.9,0.3,1.7,0.7,2.5,1.2c0.7,0.5,1.3,1.2,1.8,2
		s0.7,1.7,0.7,2.7c0,1.1-0.3,2.1-0.8,2.9c-0.5,0.9-1.3,1.4-2.4,1.7v0.1c1.3,0.3,2.3,0.9,3,1.8c0.7,0.9,1.1,2.1,1.1,3.4
		c0,1.2-0.2,2.3-0.7,3.2c-0.5,0.9-1.1,1.7-1.9,2.4c-0.8,0.6-1.7,1.1-2.7,1.4c-1,0.3-2.1,0.5-3.2,0.5c-1.3,0-2.5-0.2-3.5-0.6
		c-1.1-0.4-2-0.9-2.7-1.6c-0.7-0.7-1.3-1.6-1.7-2.6c-0.4-1-0.6-2.2-0.6-3.5h4.4c0,0.6,0.1,1.2,0.3,1.8c0.2,0.6,0.4,1,0.8,1.4
		c0.3,0.4,0.7,0.7,1.2,1c0.5,0.2,1.1,0.4,1.8,0.4c1,0,1.9-0.3,2.7-1s1.1-1.5,1.1-2.6c0-0.9-0.2-1.5-0.5-2c-0.3-0.5-0.8-0.8-1.3-1
		c-0.5-0.2-1.1-0.3-1.7-0.4c-0.6,0-1.2,0-1.8,0v-3.3C656.9,57.6,657.4,57.6,658,57.5z"/>
</g>
<g>
	<g>
		<g>
			<text transform="matrix(1 0 0 1 161.5668 569.3227)" fill="#D1D3D4" font-family="'HelveticaNeue'" font-size="30.5782">0</text>
		</g>
		<g>
			<g enable-background="new    ">
				<path fill="#D1D3D4" d="M135.9,479.9v-15.5h-5.6v-2.1c0.7,0,1.4-0.1,2.1-0.2c0.7-0.1,1.3-0.3,1.9-0.6s1-0.7,1.4-1.3
					c0.4-0.5,0.7-1.2,0.8-2h2v21.7H135.9z"/>
				<path fill="#D1D3D4" d="M145.9,466.8c0-0.9,0.1-1.7,0.3-2.5c0.2-0.8,0.4-1.6,0.7-2.3c0.3-0.7,0.7-1.4,1.3-1.9
					c0.5-0.5,1.2-1,2-1.3c0.8-0.3,1.8-0.5,2.9-0.5c1.1,0,2.1,0.2,2.9,0.5s1.5,0.8,2,1.3c0.5,0.6,0.9,1.2,1.3,1.9
					c0.3,0.7,0.5,1.5,0.7,2.3s0.3,1.7,0.3,2.5c0,0.9,0.1,1.7,0.1,2.5c0,0.8,0,1.6-0.1,2.5c0,0.9-0.1,1.7-0.3,2.5
					c-0.2,0.8-0.4,1.6-0.7,2.3c-0.3,0.7-0.7,1.4-1.3,1.9c-0.5,0.6-1.2,1-2,1.3s-1.8,0.5-2.9,0.5c-1.1,0-2.1-0.2-2.9-0.5
					c-0.8-0.3-1.5-0.7-2-1.3c-0.5-0.5-0.9-1.2-1.3-1.9c-0.3-0.7-0.5-1.5-0.7-2.3c-0.2-0.8-0.3-1.7-0.3-2.5c0-0.9-0.1-1.7-0.1-2.5
					C145.9,468.5,145.9,467.7,145.9,466.8z M148.7,472c0.1,1,0.2,2,0.5,2.8c0.3,0.9,0.7,1.6,1.3,2.2c0.6,0.6,1.5,0.9,2.6,0.9
					c1.1,0,2-0.3,2.6-0.9c0.6-0.6,1.1-1.4,1.3-2.2c0.3-0.9,0.4-1.8,0.5-2.8c0.1-1,0.1-1.9,0.1-2.7c0-0.5,0-1.1,0-1.8
					c0-0.6-0.1-1.3-0.2-1.9s-0.2-1.3-0.4-1.9c-0.2-0.6-0.4-1.1-0.8-1.6c-0.3-0.5-0.8-0.8-1.3-1.1c-0.5-0.3-1.1-0.4-1.9-0.4
					c-0.7,0-1.4,0.1-1.9,0.4c-0.5,0.3-0.9,0.7-1.3,1.1c-0.3,0.5-0.6,1-0.8,1.6c-0.2,0.6-0.3,1.2-0.4,1.9s-0.1,1.3-0.2,1.9
					c0,0.6,0,1.2,0,1.8C148.6,470.1,148.6,471,148.7,472z"/>
				<path fill="#D1D3D4" d="M162.9,466.8c0-0.9,0.1-1.7,0.3-2.5c0.2-0.8,0.4-1.6,0.7-2.3c0.3-0.7,0.7-1.4,1.3-1.9
					c0.5-0.5,1.2-1,2-1.3c0.8-0.3,1.8-0.5,2.9-0.5c1.1,0,2.1,0.2,2.9,0.5s1.5,0.8,2,1.3c0.5,0.6,0.9,1.2,1.3,1.9
					c0.3,0.7,0.5,1.5,0.7,2.3s0.3,1.7,0.3,2.5c0,0.9,0.1,1.7,0.1,2.5c0,0.8,0,1.6-0.1,2.5c0,0.9-0.1,1.7-0.3,2.5
					c-0.2,0.8-0.4,1.6-0.7,2.3c-0.3,0.7-0.7,1.4-1.3,1.9c-0.5,0.6-1.2,1-2,1.3s-1.8,0.5-2.9,0.5c-1.1,0-2.1-0.2-2.9-0.5
					c-0.8-0.3-1.5-0.7-2-1.3c-0.5-0.5-0.9-1.2-1.3-1.9c-0.3-0.7-0.5-1.5-0.7-2.3c-0.2-0.8-0.3-1.7-0.3-2.5c0-0.9-0.1-1.7-0.1-2.5
					C162.9,468.5,162.9,467.7,162.9,466.8z M165.7,472c0.1,1,0.2,2,0.5,2.8c0.3,0.9,0.7,1.6,1.3,2.2c0.6,0.6,1.5,0.9,2.6,0.9
					c1.1,0,2-0.3,2.6-0.9c0.6-0.6,1.1-1.4,1.3-2.2c0.3-0.9,0.4-1.8,0.5-2.8c0.1-1,0.1-1.9,0.1-2.7c0-0.5,0-1.1,0-1.8
					c0-0.6-0.1-1.3-0.2-1.9s-0.2-1.3-0.4-1.9c-0.2-0.6-0.4-1.1-0.8-1.6c-0.3-0.5-0.8-0.8-1.3-1.1c-0.5-0.3-1.1-0.4-1.9-0.4
					c-0.7,0-1.4,0.1-1.9,0.4c-0.5,0.3-0.9,0.7-1.3,1.1c-0.3,0.5-0.6,1-0.8,1.6c-0.2,0.6-0.3,1.2-0.4,1.9s-0.1,1.3-0.2,1.9
					c0,0.6,0,1.2,0,1.8C165.6,470.1,165.6,471,165.7,472z"/>
			</g>
		</g>
		<g>
			<g enable-background="new    ">
				<path fill="#D1D3D4" d="M129.2,373.5c0.3-0.9,0.7-1.7,1.3-2.4c0.6-0.7,1.4-1.2,2.2-1.6c0.9-0.4,1.9-0.6,3.1-0.6
					c0.9,0,1.8,0.1,2.6,0.4c0.8,0.3,1.5,0.7,2.2,1.2c0.6,0.5,1.1,1.2,1.5,1.9c0.4,0.8,0.5,1.7,0.5,2.7c0,1-0.1,1.8-0.4,2.5
					c-0.3,0.7-0.7,1.4-1.2,2s-1,1.1-1.7,1.6c-0.6,0.5-1.3,0.9-2,1.3c-0.7,0.4-1.3,0.8-2,1.2s-1.3,0.8-1.9,1.3
					c-0.6,0.4-1,0.9-1.4,1.5s-0.7,1.1-0.8,1.8h11.1v2.3h-14.2c0.1-1.3,0.3-2.4,0.7-3.3c0.4-0.9,0.8-1.7,1.4-2.4s1.2-1.3,1.9-1.8
					c0.7-0.5,1.4-1,2.2-1.4c0.9-0.6,1.7-1.1,2.4-1.6c0.7-0.5,1.3-1,1.7-1.5c0.5-0.5,0.8-1,1-1.6c0.2-0.6,0.4-1.2,0.4-2
					c0-0.6-0.1-1.1-0.3-1.6c-0.2-0.5-0.5-0.9-0.9-1.2c-0.4-0.3-0.8-0.6-1.3-0.8c-0.5-0.2-1.1-0.3-1.6-0.3c-0.8,0-1.4,0.2-1.9,0.5
					c-0.5,0.3-1,0.7-1.3,1.2c-0.3,0.5-0.6,1.1-0.7,1.7c-0.2,0.6-0.2,1.3-0.2,1.9h-2.6C128.8,375.5,129,374.4,129.2,373.5z"/>
				<path fill="#D1D3D4" d="M145.9,377.4c0-0.9,0.1-1.7,0.3-2.5c0.2-0.8,0.4-1.6,0.7-2.3c0.3-0.7,0.7-1.4,1.3-1.9
					c0.5-0.5,1.2-1,2-1.3c0.8-0.3,1.8-0.5,2.9-0.5c1.1,0,2.1,0.2,2.9,0.5s1.5,0.8,2,1.3c0.5,0.6,0.9,1.2,1.3,1.9
					c0.3,0.7,0.5,1.5,0.7,2.3s0.3,1.7,0.3,2.5c0,0.9,0.1,1.7,0.1,2.5c0,0.8,0,1.6-0.1,2.5c0,0.9-0.1,1.7-0.3,2.5
					c-0.2,0.8-0.4,1.6-0.7,2.3c-0.3,0.7-0.7,1.4-1.3,1.9c-0.5,0.6-1.2,1-2,1.3s-1.8,0.5-2.9,0.5c-1.1,0-2.1-0.2-2.9-0.5
					c-0.8-0.3-1.5-0.7-2-1.3c-0.5-0.5-0.9-1.2-1.3-1.9c-0.3-0.7-0.5-1.5-0.7-2.3c-0.2-0.8-0.3-1.7-0.3-2.5c0-0.9-0.1-1.7-0.1-2.5
					C145.9,379.1,145.9,378.3,145.9,377.4z M148.7,382.6c0.1,1,0.2,2,0.5,2.8c0.3,0.9,0.7,1.6,1.3,2.2c0.6,0.6,1.5,0.9,2.6,0.9
					c1.1,0,2-0.3,2.6-0.9c0.6-0.6,1.1-1.4,1.3-2.2c0.3-0.9,0.4-1.8,0.5-2.8c0.1-1,0.1-1.9,0.1-2.7c0-0.5,0-1.1,0-1.8
					c0-0.6-0.1-1.3-0.2-1.9s-0.2-1.3-0.4-1.9c-0.2-0.6-0.4-1.1-0.8-1.6c-0.3-0.5-0.8-0.8-1.3-1.1c-0.5-0.3-1.1-0.4-1.9-0.4
					c-0.7,0-1.4,0.1-1.9,0.4c-0.5,0.3-0.9,0.7-1.3,1.1c-0.3,0.5-0.6,1-0.8,1.6c-0.2,0.6-0.3,1.2-0.4,1.9s-0.1,1.3-0.2,1.9
					c0,0.6,0,1.2,0,1.8C148.6,380.7,148.6,381.6,148.7,382.6z"/>
				<path fill="#D1D3D4" d="M162.9,377.4c0-0.9,0.1-1.7,0.3-2.5c0.2-0.8,0.4-1.6,0.7-2.3c0.3-0.7,0.7-1.4,1.3-1.9
					c0.5-0.5,1.2-1,2-1.3c0.8-0.3,1.8-0.5,2.9-0.5c1.1,0,2.1,0.2,2.9,0.5s1.5,0.8,2,1.3c0.5,0.6,0.9,1.2,1.3,1.9
					c0.3,0.7,0.5,1.5,0.7,2.3s0.3,1.7,0.3,2.5c0,0.9,0.1,1.7,0.1,2.5c0,0.8,0,1.6-0.1,2.5c0,0.9-0.1,1.7-0.3,2.5
					c-0.2,0.8-0.4,1.6-0.7,2.3c-0.3,0.7-0.7,1.4-1.3,1.9c-0.5,0.6-1.2,1-2,1.3s-1.8,0.5-2.9,0.5c-1.1,0-2.1-0.2-2.9-0.5
					c-0.8-0.3-1.5-0.7-2-1.3c-0.5-0.5-0.9-1.2-1.3-1.9c-0.3-0.7-0.5-1.5-0.7-2.3c-0.2-0.8-0.3-1.7-0.3-2.5c0-0.9-0.1-1.7-0.1-2.5
					C162.9,379.1,162.9,378.3,162.9,377.4z M165.7,382.6c0.1,1,0.2,2,0.5,2.8c0.3,0.9,0.7,1.6,1.3,2.2c0.6,0.6,1.5,0.9,2.6,0.9
					c1.1,0,2-0.3,2.6-0.9c0.6-0.6,1.1-1.4,1.3-2.2c0.3-0.9,0.4-1.8,0.5-2.8c0.1-1,0.1-1.9,0.1-2.7c0-0.5,0-1.1,0-1.8
					c0-0.6-0.1-1.3-0.2-1.9s-0.2-1.3-0.4-1.9c-0.2-0.6-0.4-1.1-0.8-1.6c-0.3-0.5-0.8-0.8-1.3-1.1c-0.5-0.3-1.1-0.4-1.9-0.4
					c-0.7,0-1.4,0.1-1.9,0.4c-0.5,0.3-0.9,0.7-1.3,1.1c-0.3,0.5-0.6,1-0.8,1.6c-0.2,0.6-0.3,1.2-0.4,1.9s-0.1,1.3-0.2,1.9
					c0,0.6,0,1.2,0,1.8C165.6,380.7,165.6,381.6,165.7,382.6z"/>
			</g>
		</g>
		<g>
			<g enable-background="new    ">
				<path fill="#D1D3D4" d="M134.5,288.8c0.1,0,0.2,0,0.3,0h0.6c0.6,0,1.1-0.1,1.6-0.2c0.5-0.2,0.9-0.4,1.3-0.7
					c0.4-0.3,0.7-0.7,0.9-1.1c0.2-0.4,0.3-1,0.3-1.5c0-1.2-0.4-2-1.1-2.6c-0.7-0.6-1.7-0.9-2.8-0.9c-0.7,0-1.3,0.1-1.8,0.4
					c-0.5,0.3-0.9,0.6-1.3,1c-0.3,0.4-0.6,0.9-0.7,1.5c-0.2,0.6-0.2,1.2-0.2,1.8h-2.6c0-1,0.2-2,0.5-2.8s0.7-1.6,1.3-2.2
					c0.6-0.6,1.2-1.1,2.1-1.4c0.8-0.3,1.8-0.5,2.9-0.5c0.9,0,1.8,0.1,2.6,0.4c0.8,0.2,1.5,0.6,2.1,1.1c0.6,0.5,1.1,1.1,1.4,1.8
					c0.3,0.7,0.5,1.6,0.5,2.6c0,1-0.3,1.8-0.9,2.6c-0.6,0.8-1.3,1.3-2.1,1.7v0.1c1.3,0.3,2.3,0.9,3,1.9s1,2.1,1,3.4
					c0,1.1-0.2,2-0.6,2.9s-0.9,1.5-1.6,2.1c-0.7,0.5-1.5,1-2.4,1.2c-0.9,0.3-1.9,0.4-2.9,0.4c-1.1,0-2.1-0.2-3-0.5
					c-0.9-0.3-1.7-0.8-2.3-1.4c-0.6-0.6-1.1-1.3-1.5-2.2c-0.3-0.9-0.5-1.9-0.5-3h2.6c0,1.4,0.4,2.6,1.2,3.4c0.8,0.9,1.9,1.3,3.4,1.3
					c0.6,0,1.2-0.1,1.8-0.3c0.6-0.2,1.1-0.5,1.5-0.8c0.4-0.4,0.8-0.8,1-1.3s0.4-1.1,0.4-1.8c0-0.7-0.1-1.3-0.4-1.8s-0.6-1-1-1.3
					c-0.4-0.4-0.9-0.6-1.5-0.8c-0.6-0.2-1.2-0.3-1.8-0.3c-0.6,0-1.1,0-1.6,0.1v-2.2C134.3,288.8,134.4,288.8,134.5,288.8z"/>
				<path fill="#D1D3D4" d="M145.9,288.1c0-0.9,0.1-1.7,0.3-2.5c0.2-0.8,0.4-1.6,0.7-2.3c0.3-0.7,0.7-1.4,1.3-1.9
					c0.5-0.5,1.2-1,2-1.3c0.8-0.3,1.8-0.5,2.9-0.5c1.1,0,2.1,0.2,2.9,0.5s1.5,0.8,2,1.3c0.5,0.6,0.9,1.2,1.3,1.9
					c0.3,0.7,0.5,1.5,0.7,2.3s0.3,1.7,0.3,2.5c0,0.9,0.1,1.7,0.1,2.5c0,0.8,0,1.6-0.1,2.5c0,0.9-0.1,1.7-0.3,2.5
					c-0.2,0.8-0.4,1.6-0.7,2.3c-0.3,0.7-0.7,1.4-1.3,1.9c-0.5,0.6-1.2,1-2,1.3s-1.8,0.5-2.9,0.5c-1.1,0-2.1-0.2-2.9-0.5
					c-0.8-0.3-1.5-0.7-2-1.3c-0.5-0.5-0.9-1.2-1.3-1.9c-0.3-0.7-0.5-1.5-0.7-2.3c-0.2-0.8-0.3-1.7-0.3-2.5c0-0.9-0.1-1.7-0.1-2.5
					C145.9,289.7,145.9,288.9,145.9,288.1z M148.7,293.2c0.1,1,0.2,2,0.5,2.8c0.3,0.9,0.7,1.6,1.3,2.2c0.6,0.6,1.5,0.9,2.6,0.9
					c1.1,0,2-0.3,2.6-0.9c0.6-0.6,1.1-1.4,1.3-2.2c0.3-0.9,0.4-1.8,0.5-2.8c0.1-1,0.1-1.9,0.1-2.7c0-0.5,0-1.1,0-1.8
					c0-0.6-0.1-1.3-0.2-1.9s-0.2-1.3-0.4-1.9c-0.2-0.6-0.4-1.1-0.8-1.6c-0.3-0.5-0.8-0.8-1.3-1.1c-0.5-0.3-1.1-0.4-1.9-0.4
					c-0.7,0-1.4,0.1-1.9,0.4c-0.5,0.3-0.9,0.7-1.3,1.1c-0.3,0.5-0.6,1-0.8,1.6c-0.2,0.6-0.3,1.2-0.4,1.9s-0.1,1.3-0.2,1.9
					c0,0.6,0,1.2,0,1.8C148.6,291.3,148.6,292.2,148.7,293.2z"/>
				<path fill="#D1D3D4" d="M162.9,288.1c0-0.9,0.1-1.7,0.3-2.5c0.2-0.8,0.4-1.6,0.7-2.3c0.3-0.7,0.7-1.4,1.3-1.9
					c0.5-0.5,1.2-1,2-1.3c0.8-0.3,1.8-0.5,2.9-0.5c1.1,0,2.1,0.2,2.9,0.5s1.5,0.8,2,1.3c0.5,0.6,0.9,1.2,1.3,1.9
					c0.3,0.7,0.5,1.5,0.7,2.3s0.3,1.7,0.3,2.5c0,0.9,0.1,1.7,0.1,2.5c0,0.8,0,1.6-0.1,2.5c0,0.9-0.1,1.7-0.3,2.5
					c-0.2,0.8-0.4,1.6-0.7,2.3c-0.3,0.7-0.7,1.4-1.3,1.9c-0.5,0.6-1.2,1-2,1.3s-1.8,0.5-2.9,0.5c-1.1,0-2.1-0.2-2.9-0.5
					c-0.8-0.3-1.5-0.7-2-1.3c-0.5-0.5-0.9-1.2-1.3-1.9c-0.3-0.7-0.5-1.5-0.7-2.3c-0.2-0.8-0.3-1.7-0.3-2.5c0-0.9-0.1-1.7-0.1-2.5
					C162.9,289.7,162.9,288.9,162.9,288.1z M165.7,293.2c0.1,1,0.2,2,0.5,2.8c0.3,0.9,0.7,1.6,1.3,2.2c0.6,0.6,1.5,0.9,2.6,0.9
					c1.1,0,2-0.3,2.6-0.9c0.6-0.6,1.1-1.4,1.3-2.2c0.3-0.9,0.4-1.8,0.5-2.8c0.1-1,0.1-1.9,0.1-2.7c0-0.5,0-1.1,0-1.8
					c0-0.6-0.1-1.3-0.2-1.9s-0.2-1.3-0.4-1.9c-0.2-0.6-0.4-1.1-0.8-1.6c-0.3-0.5-0.8-0.8-1.3-1.1c-0.5-0.3-1.1-0.4-1.9-0.4
					c-0.7,0-1.4,0.1-1.9,0.4c-0.5,0.3-0.9,0.7-1.3,1.1c-0.3,0.5-0.6,1-0.8,1.6c-0.2,0.6-0.3,1.2-0.4,1.9s-0.1,1.3-0.2,1.9
					c0,0.6,0,1.2,0,1.8C165.6,291.3,165.6,292.2,165.7,293.2z"/>
			</g>
		</g>
		<g>
			<g enable-background="new    ">
				<path fill="#D1D3D4" d="M143.3,204.4v2.3h-2.9v5.1h-2.4v-5.1h-9.5v-2.5l9.9-14.1h2.1v14.3H143.3z M137.9,193.8L137.9,193.8
					l-7.3,10.6h7.3V193.8z"/>
				<path fill="#D1D3D4" d="M145.9,198.7c0-0.9,0.1-1.7,0.3-2.5c0.2-0.8,0.4-1.6,0.7-2.3c0.3-0.7,0.7-1.4,1.3-1.9
					c0.5-0.5,1.2-1,2-1.3c0.8-0.3,1.8-0.5,2.9-0.5c1.1,0,2.1,0.2,2.9,0.5s1.5,0.8,2,1.3c0.5,0.6,0.9,1.2,1.3,1.9
					c0.3,0.7,0.5,1.5,0.7,2.3s0.3,1.7,0.3,2.5c0,0.9,0.1,1.7,0.1,2.5c0,0.8,0,1.6-0.1,2.5c0,0.9-0.1,1.7-0.3,2.5
					c-0.2,0.8-0.4,1.6-0.7,2.3c-0.3,0.7-0.7,1.4-1.3,1.9c-0.5,0.6-1.2,1-2,1.3s-1.8,0.5-2.9,0.5c-1.1,0-2.1-0.2-2.9-0.5
					c-0.8-0.3-1.5-0.7-2-1.3c-0.5-0.5-0.9-1.2-1.3-1.9c-0.3-0.7-0.5-1.5-0.7-2.3c-0.2-0.8-0.3-1.7-0.3-2.5c0-0.9-0.1-1.7-0.1-2.5
					C145.9,200.4,145.9,199.5,145.9,198.7z M148.7,203.9c0.1,1,0.2,2,0.5,2.8c0.3,0.9,0.7,1.6,1.3,2.2c0.6,0.6,1.5,0.9,2.6,0.9
					c1.1,0,2-0.3,2.6-0.9c0.6-0.6,1.1-1.4,1.3-2.2c0.3-0.9,0.4-1.8,0.5-2.8c0.1-1,0.1-1.9,0.1-2.7c0-0.5,0-1.1,0-1.8
					c0-0.6-0.1-1.3-0.2-1.9s-0.2-1.3-0.4-1.9c-0.2-0.6-0.4-1.1-0.8-1.6c-0.3-0.5-0.8-0.8-1.3-1.1c-0.5-0.3-1.1-0.4-1.9-0.4
					c-0.7,0-1.4,0.1-1.9,0.4c-0.5,0.3-0.9,0.7-1.3,1.1c-0.3,0.5-0.6,1-0.8,1.6c-0.2,0.6-0.3,1.2-0.4,1.9s-0.1,1.3-0.2,1.9
					c0,0.6,0,1.2,0,1.8C148.6,201.9,148.6,202.9,148.7,203.9z"/>
				<path fill="#D1D3D4" d="M162.9,198.7c0-0.9,0.1-1.7,0.3-2.5c0.2-0.8,0.4-1.6,0.7-2.3c0.3-0.7,0.7-1.4,1.3-1.9
					c0.5-0.5,1.2-1,2-1.3c0.8-0.3,1.8-0.5,2.9-0.5c1.1,0,2.1,0.2,2.9,0.5s1.5,0.8,2,1.3c0.5,0.6,0.9,1.2,1.3,1.9
					c0.3,0.7,0.5,1.5,0.7,2.3s0.3,1.7,0.3,2.5c0,0.9,0.1,1.7,0.1,2.5c0,0.8,0,1.6-0.1,2.5c0,0.9-0.1,1.7-0.3,2.5
					c-0.2,0.8-0.4,1.6-0.7,2.3c-0.3,0.7-0.7,1.4-1.3,1.9c-0.5,0.6-1.2,1-2,1.3s-1.8,0.5-2.9,0.5c-1.1,0-2.1-0.2-2.9-0.5
					c-0.8-0.3-1.5-0.7-2-1.3c-0.5-0.5-0.9-1.2-1.3-1.9c-0.3-0.7-0.5-1.5-0.7-2.3c-0.2-0.8-0.3-1.7-0.3-2.5c0-0.9-0.1-1.7-0.1-2.5
					C162.9,200.4,162.9,199.5,162.9,198.7z M165.7,203.9c0.1,1,0.2,2,0.5,2.8c0.3,0.9,0.7,1.6,1.3,2.2c0.6,0.6,1.5,0.9,2.6,0.9
					c1.1,0,2-0.3,2.6-0.9c0.6-0.6,1.1-1.4,1.3-2.2c0.3-0.9,0.4-1.8,0.5-2.8c0.1-1,0.1-1.9,0.1-2.7c0-0.5,0-1.1,0-1.8
					c0-0.6-0.1-1.3-0.2-1.9s-0.2-1.3-0.4-1.9c-0.2-0.6-0.4-1.1-0.8-1.6c-0.3-0.5-0.8-0.8-1.3-1.1c-0.5-0.3-1.1-0.4-1.9-0.4
					c-0.7,0-1.4,0.1-1.9,0.4c-0.5,0.3-0.9,0.7-1.3,1.1c-0.3,0.5-0.6,1-0.8,1.6c-0.2,0.6-0.3,1.2-0.4,1.9s-0.1,1.3-0.2,1.9
					c0,0.6,0,1.2,0,1.8C165.6,201.9,165.6,202.9,165.7,203.9z"/>
			</g>
		</g>
		<g>
			<g enable-background="new    ">
				<path fill="#D1D3D4" d="M133.2,103.4l-1.2,6.2l0.1,0.1c0.5-0.5,1.1-0.9,1.8-1.2c0.7-0.3,1.5-0.4,2.2-0.4c1,0,1.9,0.2,2.7,0.5
					c0.9,0.3,1.6,0.8,2.2,1.4c0.6,0.6,1.1,1.4,1.5,2.3c0.4,0.9,0.6,2,0.6,3.3c0,0.9-0.2,1.8-0.5,2.7c-0.3,0.9-0.8,1.6-1.4,2.3
					c-0.6,0.7-1.4,1.2-2.4,1.6c-0.9,0.4-2.1,0.6-3.3,0.6c-0.9,0-1.8-0.1-2.6-0.4s-1.6-0.7-2.2-1.2c-0.6-0.5-1.1-1.2-1.5-1.9
					c-0.4-0.8-0.6-1.7-0.6-2.6h2.6c0,0.6,0.2,1.1,0.4,1.5c0.2,0.5,0.6,0.9,0.9,1.3c0.4,0.4,0.9,0.6,1.4,0.8c0.5,0.2,1.1,0.3,1.8,0.3
					c0.6,0,1.2-0.1,1.8-0.3c0.6-0.2,1-0.5,1.5-1c0.4-0.4,0.7-1,1-1.6c0.2-0.6,0.4-1.4,0.4-2.2c0-0.7-0.1-1.4-0.4-2
					c-0.2-0.6-0.6-1.1-1-1.6c-0.4-0.4-0.9-0.8-1.5-1c-0.6-0.2-1.3-0.4-2-0.4c-0.9,0-1.6,0.2-2.3,0.6c-0.7,0.4-1.2,0.9-1.8,1.5
					l-2.2-0.1l2-11.3h10.7v2.3H133.2z"/>
				<path fill="#D1D3D4" d="M145.9,109.3c0-0.9,0.1-1.7,0.3-2.5c0.2-0.8,0.4-1.6,0.7-2.3c0.3-0.7,0.7-1.4,1.3-1.9
					c0.5-0.5,1.2-1,2-1.3c0.8-0.3,1.8-0.5,2.9-0.5c1.1,0,2.1,0.2,2.9,0.5s1.5,0.8,2,1.3c0.5,0.6,0.9,1.2,1.3,1.9
					c0.3,0.7,0.5,1.5,0.7,2.3s0.3,1.7,0.3,2.5c0,0.9,0.1,1.7,0.1,2.5c0,0.8,0,1.6-0.1,2.5c0,0.9-0.1,1.7-0.3,2.5
					c-0.2,0.8-0.4,1.6-0.7,2.3c-0.3,0.7-0.7,1.4-1.3,1.9c-0.5,0.6-1.2,1-2,1.3s-1.8,0.5-2.9,0.5c-1.1,0-2.1-0.2-2.9-0.5
					c-0.8-0.3-1.5-0.7-2-1.3c-0.5-0.5-0.9-1.2-1.3-1.9c-0.3-0.7-0.5-1.5-0.7-2.3c-0.2-0.8-0.3-1.7-0.3-2.5c0-0.9-0.1-1.7-0.1-2.5
					C145.9,111,145.9,110.2,145.9,109.3z M148.7,114.5c0.1,1,0.2,2,0.5,2.8c0.3,0.9,0.7,1.6,1.3,2.2c0.6,0.6,1.5,0.9,2.6,0.9
					c1.1,0,2-0.3,2.6-0.9c0.6-0.6,1.1-1.4,1.3-2.2c0.3-0.9,0.4-1.8,0.5-2.8c0.1-1,0.1-1.9,0.1-2.7c0-0.5,0-1.1,0-1.8
					c0-0.6-0.1-1.3-0.2-1.9s-0.2-1.3-0.4-1.9c-0.2-0.6-0.4-1.1-0.8-1.6c-0.3-0.5-0.8-0.8-1.3-1.1c-0.5-0.3-1.1-0.4-1.9-0.4
					c-0.7,0-1.4,0.1-1.9,0.4c-0.5,0.3-0.9,0.7-1.3,1.1c-0.3,0.5-0.6,1-0.8,1.6c-0.2,0.6-0.3,1.2-0.4,1.9s-0.1,1.3-0.2,1.9
					c0,0.6,0,1.2,0,1.8C148.6,112.6,148.6,113.5,148.7,114.5z"/>
				<path fill="#D1D3D4" d="M162.9,109.3c0-0.9,0.1-1.7,0.3-2.5c0.2-0.8,0.4-1.6,0.7-2.3c0.3-0.7,0.7-1.4,1.3-1.9
					c0.5-0.5,1.2-1,2-1.3c0.8-0.3,1.8-0.5,2.9-0.5c1.1,0,2.1,0.2,2.9,0.5s1.5,0.8,2,1.3c0.5,0.6,0.9,1.2,1.3,1.9
					c0.3,0.7,0.5,1.5,0.7,2.3s0.3,1.7,0.3,2.5c0,0.9,0.1,1.7,0.1,2.5c0,0.8,0,1.6-0.1,2.5c0,0.9-0.1,1.7-0.3,2.5
					c-0.2,0.8-0.4,1.6-0.7,2.3c-0.3,0.7-0.7,1.4-1.3,1.9c-0.5,0.6-1.2,1-2,1.3s-1.8,0.5-2.9,0.5c-1.1,0-2.1-0.2-2.9-0.5
					c-0.8-0.3-1.5-0.7-2-1.3c-0.5-0.5-0.9-1.2-1.3-1.9c-0.3-0.7-0.5-1.5-0.7-2.3c-0.2-0.8-0.3-1.7-0.3-2.5c0-0.9-0.1-1.7-0.1-2.5
					C162.9,111,162.9,110.2,162.9,109.3z M165.7,114.5c0.1,1,0.2,2,0.5,2.8c0.3,0.9,0.7,1.6,1.3,2.2c0.6,0.6,1.5,0.9,2.6,0.9
					c1.1,0,2-0.3,2.6-0.9c0.6-0.6,1.1-1.4,1.3-2.2c0.3-0.9,0.4-1.8,0.5-2.8c0.1-1,0.1-1.9,0.1-2.7c0-0.5,0-1.1,0-1.8
					c0-0.6-0.1-1.3-0.2-1.9s-0.2-1.3-0.4-1.9c-0.2-0.6-0.4-1.1-0.8-1.6c-0.3-0.5-0.8-0.8-1.3-1.1c-0.5-0.3-1.1-0.4-1.9-0.4
					c-0.7,0-1.4,0.1-1.9,0.4c-0.5,0.3-0.9,0.7-1.3,1.1c-0.3,0.5-0.6,1-0.8,1.6c-0.2,0.6-0.3,1.2-0.4,1.9s-0.1,1.3-0.2,1.9
					c0,0.6,0,1.2,0,1.8C165.6,112.6,165.6,113.5,165.7,114.5z"/>
			</g>
		</g>
		<g>
			<g enable-background="new    ">
				<path fill="#D1D3D4" d="M115.2,29.6c0.8,0.8,1.8,1.3,3,1.5V23c-1.1-0.3-2-0.6-2.8-0.9c-0.8-0.3-1.4-0.7-2-1.1
					c-0.5-0.4-0.9-1-1.1-1.6S112,18,112,17.1c0-0.9,0.2-1.8,0.5-2.5c0.3-0.8,0.8-1.4,1.3-2c0.6-0.6,1.2-1,2-1.3
					c0.8-0.3,1.6-0.5,2.5-0.6v-2h1.7v2c1.7,0.2,3,0.8,3.9,1.8c1,1,1.7,2.4,2.1,4.2h-2.6c-0.4-2-1.5-3.2-3.4-3.5v7.5l1.8,0.5
					c0.4,0.1,0.9,0.3,1.4,0.5s1.1,0.6,1.6,1.1c0.5,0.4,0.9,1,1.3,1.7c0.4,0.7,0.5,1.5,0.5,2.4c0,1-0.2,1.9-0.5,2.7
					c-0.3,0.8-0.8,1.4-1.4,2c-0.6,0.6-1.3,1-2.1,1.3c-0.8,0.3-1.7,0.5-2.7,0.6V36h-1.7v-2.5c-2-0.2-3.7-0.9-4.9-2.1s-1.9-2.9-2-5
					h2.6C114,27.7,114.4,28.8,115.2,29.6z M115.7,14.2c-0.7,0.6-1,1.5-1,2.6c0,0.5,0.1,1,0.3,1.4c0.2,0.4,0.4,0.7,0.7,0.9
					c0.3,0.3,0.7,0.5,1.1,0.7s0.9,0.3,1.4,0.5v-7.2C117.3,13.2,116.4,13.6,115.7,14.2z M121.5,30.8c0.5-0.2,0.9-0.4,1.3-0.7
					c0.4-0.3,0.6-0.7,0.8-1.2c0.2-0.5,0.3-1,0.3-1.7c0-0.6-0.1-1.1-0.3-1.5c-0.2-0.4-0.5-0.7-0.8-1s-0.8-0.5-1.3-0.7
					c-0.5-0.2-1-0.4-1.6-0.5v7.7C120.5,31.1,121,31,121.5,30.8z"/>
				<path fill="#D1D3D4" d="M139.1,14.5c-0.6-0.6-1.5-0.9-2.5-0.9c-1.1,0-2,0.3-2.7,0.8s-1.2,1.2-1.6,2c-0.4,0.8-0.6,1.7-0.8,2.7
					c-0.1,1-0.2,1.9-0.2,2.7l0.1,0.1c0.6-1,1.4-1.7,2.3-2.2c0.9-0.4,2-0.7,3.1-0.7c1,0,2,0.2,2.8,0.5c0.8,0.4,1.5,0.9,2.1,1.5
					c0.6,0.6,1,1.4,1.3,2.2c0.3,0.9,0.5,1.8,0.5,2.8c0,0.8-0.1,1.6-0.4,2.5c-0.2,0.9-0.6,1.6-1.2,2.3c-0.6,0.7-1.3,1.3-2.2,1.7
					s-2.1,0.7-3.4,0.7c-1.6,0-2.9-0.3-3.9-1c-1-0.7-1.7-1.5-2.3-2.5c-0.5-1-0.9-2.1-1.1-3.4c-0.2-1.2-0.3-2.4-0.3-3.5
					c0-1.5,0.1-2.9,0.4-4.3c0.3-1.4,0.7-2.6,1.3-3.7c0.6-1.1,1.4-1.9,2.4-2.6c1-0.7,2.3-1,3.9-1c1.8,0,3.2,0.5,4.3,1.4
					c1.1,0.9,1.7,2.3,1.8,4.1h-2.6C140.1,15.9,139.7,15.1,139.1,14.5z M134.4,21.8c-0.6,0.3-1,0.6-1.4,1s-0.7,1-0.9,1.6
					c-0.2,0.6-0.3,1.2-0.3,1.9s0.1,1.3,0.3,1.9c0.2,0.6,0.5,1.1,0.9,1.5c0.4,0.4,0.8,0.8,1.4,1s1.2,0.4,1.9,0.4
					c0.7,0,1.3-0.1,1.9-0.4c0.5-0.3,1-0.6,1.4-1.1c0.4-0.4,0.6-1,0.8-1.5c0.2-0.6,0.3-1.2,0.3-1.8c0-0.7-0.1-1.3-0.3-1.9
					c-0.2-0.6-0.4-1.1-0.8-1.6c-0.4-0.4-0.8-0.8-1.4-1.1c-0.6-0.3-1.2-0.4-1.9-0.4C135.6,21.4,134.9,21.5,134.4,21.8z"/>
				<path fill="#D1D3D4" d="M145.9,19.9c0-0.9,0.1-1.7,0.3-2.5c0.2-0.8,0.4-1.6,0.7-2.3c0.3-0.7,0.7-1.4,1.3-1.9
					c0.5-0.5,1.2-1,2-1.3c0.8-0.3,1.8-0.5,2.9-0.5c1.1,0,2.1,0.2,2.9,0.5s1.5,0.8,2,1.3c0.5,0.6,0.9,1.2,1.3,1.9
					c0.3,0.7,0.5,1.5,0.7,2.3s0.3,1.7,0.3,2.5c0,0.9,0.1,1.7,0.1,2.5c0,0.8,0,1.6-0.1,2.5c0,0.9-0.1,1.7-0.3,2.5
					c-0.2,0.8-0.4,1.6-0.7,2.3c-0.3,0.7-0.7,1.4-1.3,1.9c-0.5,0.6-1.2,1-2,1.3s-1.8,0.5-2.9,0.5c-1.1,0-2.1-0.2-2.9-0.5
					c-0.8-0.3-1.5-0.7-2-1.3c-0.5-0.5-0.9-1.2-1.3-1.9c-0.3-0.7-0.5-1.5-0.7-2.3c-0.2-0.8-0.3-1.7-0.3-2.5c0-0.9-0.1-1.7-0.1-2.5
					C145.8,21.6,145.9,20.8,145.9,19.9z M148.7,25.1c0.1,1,0.2,2,0.5,2.8c0.3,0.9,0.7,1.6,1.3,2.2c0.6,0.6,1.5,0.9,2.6,0.9
					c1.1,0,2-0.3,2.6-0.9c0.6-0.6,1.1-1.4,1.3-2.2c0.3-0.9,0.4-1.8,0.5-2.8c0.1-1,0.1-1.9,0.1-2.7c0-0.5,0-1.1,0-1.8
					c0-0.6-0.1-1.3-0.2-1.9s-0.2-1.3-0.4-1.9c-0.2-0.6-0.4-1.1-0.8-1.6c-0.3-0.5-0.8-0.8-1.3-1.1c-0.5-0.3-1.1-0.4-1.9-0.4
					c-0.7,0-1.4,0.1-1.9,0.4c-0.5,0.3-0.9,0.7-1.3,1.1c-0.3,0.5-0.6,1-0.8,1.6c-0.2,0.6-0.3,1.2-0.4,1.9s-0.1,1.3-0.2,1.9
					c0,0.6,0,1.2,0,1.8C148.6,23.2,148.6,24.1,148.7,25.1z"/>
				<path fill="#D1D3D4" d="M162.9,19.9c0-0.9,0.1-1.7,0.3-2.5c0.2-0.8,0.4-1.6,0.7-2.3c0.3-0.7,0.7-1.4,1.3-1.9
					c0.5-0.5,1.2-1,2-1.3c0.8-0.3,1.8-0.5,2.9-0.5c1.1,0,2.1,0.2,2.9,0.5s1.5,0.8,2,1.3c0.5,0.6,0.9,1.2,1.3,1.9
					c0.3,0.7,0.5,1.5,0.7,2.3s0.3,1.7,0.3,2.5c0,0.9,0.1,1.7,0.1,2.5c0,0.8,0,1.6-0.1,2.5c0,0.9-0.1,1.7-0.3,2.5
					c-0.2,0.8-0.4,1.6-0.7,2.3c-0.3,0.7-0.7,1.4-1.3,1.9c-0.5,0.6-1.2,1-2,1.3s-1.8,0.5-2.9,0.5c-1.1,0-2.1-0.2-2.9-0.5
					c-0.8-0.3-1.5-0.7-2-1.3c-0.5-0.5-0.9-1.2-1.3-1.9c-0.3-0.7-0.5-1.5-0.7-2.3c-0.2-0.8-0.3-1.7-0.3-2.5c0-0.9-0.1-1.7-0.1-2.5
					C162.9,21.6,162.9,20.8,162.9,19.9z M165.7,25.1c0.1,1,0.2,2,0.5,2.8c0.3,0.9,0.7,1.6,1.3,2.2c0.6,0.6,1.5,0.9,2.6,0.9
					c1.1,0,2-0.3,2.6-0.9c0.6-0.6,1.1-1.4,1.3-2.2c0.3-0.9,0.4-1.8,0.5-2.8c0.1-1,0.1-1.9,0.1-2.7c0-0.5,0-1.1,0-1.8
					c0-0.6-0.1-1.3-0.2-1.9s-0.2-1.3-0.4-1.9c-0.2-0.6-0.4-1.1-0.8-1.6c-0.3-0.5-0.8-0.8-1.3-1.1c-0.5-0.3-1.1-0.4-1.9-0.4
					c-0.7,0-1.4,0.1-1.9,0.4c-0.5,0.3-0.9,0.7-1.3,1.1c-0.3,0.5-0.6,1-0.8,1.6c-0.2,0.6-0.3,1.2-0.4,1.9s-0.1,1.3-0.2,1.9
					c0,0.6,0,1.2,0,1.8C165.6,23.2,165.6,24.1,165.7,25.1z"/>
			</g>
		</g>
	</g>
	<g>
		<g>
			<line fill="none" stroke="#000000" stroke-miterlimit="10" x1="186.1" y1="560.5" x2="198.8" y2="560.5"/>
			<line fill="none" stroke="#808080" stroke-width="0.5" x1="186.1" y1="471.3" x2="683.7" y2="471.3"/>
			<line fill="none" stroke="#808080" stroke-width="0.5" x1="186.1" y1="381.8" x2="683.7" y2="381.8"/>
			<line fill="none" stroke="#808080" stroke-width="0.5" x1="186.1" y1="292.7" x2="683.7" y2="292.7"/>
			<line fill="none" stroke="#808080" stroke-width="0.5" x1="186.1" y1="203.1" x2="683.7" y2="203.1"/>
			<line fill="none" stroke="#808080" stroke-width="0.5" x1="186.1" y1="113.6" x2="683.7" y2="113.6"/>
			<line fill="none" stroke="#808080" stroke-width="0.5" x1="186.1" y1="24.5" x2="683.7" y2="24.5"/>
		</g>
	</g>
</g>
<g>
	<g>
		<g>
			<rect x="203.6" y="215.4" fill="#BD5E28" width="89.1" height="345.5"/>
			<rect x="327.7" y="144.6" fill="#BD5E28" width="89.1" height="416.3"/>
			<rect x="451.7" y="137.6" fill="#BD5E28" width="89.1" height="422.9"/>
			<rect x="575.8" y="90" fill="#BD5E28" width="89.1" height="470.5"/>
		</g>
	</g>
</g>
<g>
	<g>
		<g enable-background="new    ">
			<path fill="#D1D3D4" d="M587.9,582.9c0.3-1,0.8-2,1.5-2.8c0.7-0.8,1.5-1.4,2.5-1.8c1-0.4,2.1-0.7,3.4-0.7c1,0,1.9,0.2,2.8,0.5
				s1.7,0.7,2.3,1.3c0.7,0.6,1.2,1.3,1.6,2.1s0.6,1.8,0.6,2.8c0,1.1-0.2,2-0.5,2.8s-0.8,1.5-1.4,2.1c-0.6,0.6-1.2,1.1-1.9,1.6
				s-1.5,1-2.2,1.5c-0.7,0.5-1.4,1-2.1,1.5c-0.7,0.6-1.3,1.2-1.8,1.9h10.1v3.7H587c0-1.2,0.2-2.3,0.5-3.2s0.8-1.7,1.5-2.5
				c0.6-0.7,1.3-1.4,2.2-2c0.8-0.6,1.7-1.2,2.6-1.9c0.5-0.3,1-0.7,1.5-1c0.5-0.3,1-0.7,1.5-1.1s0.8-0.9,1.1-1.4
				c0.3-0.5,0.4-1.1,0.4-1.7c0-1-0.3-1.8-0.9-2.4s-1.4-0.9-2.3-0.9c-0.6,0-1.2,0.1-1.6,0.4c-0.4,0.3-0.8,0.7-1.1,1.2
				c-0.3,0.5-0.5,1-0.6,1.6c-0.1,0.6-0.2,1.2-0.2,1.7h-4.2C587.4,585.1,587.6,584,587.9,582.9z"/>
			<path fill="#D1D3D4" d="M604.6,583.5c0.4-1.4,1-2.6,1.7-3.4c0.7-0.9,1.5-1.5,2.5-1.8c0.9-0.4,2-0.6,3-0.6c1.1,0,2.1,0.2,3,0.6
				c0.9,0.4,1.8,1,2.5,1.8c0.7,0.9,1.3,2,1.7,3.4s0.6,3.2,0.6,5.2c0,2.1-0.2,3.9-0.6,5.4s-1,2.6-1.7,3.4c-0.7,0.9-1.6,1.5-2.5,1.8
				c-0.9,0.4-2,0.6-3,0.6c-1.1,0-2.1-0.2-3-0.6c-0.9-0.4-1.8-1-2.5-1.8c-0.7-0.9-1.3-2-1.7-3.4c-0.4-1.4-0.6-3.2-0.6-5.4
				C604,586.6,604.2,584.9,604.6,583.5z M608.4,590.9c0,0.9,0.2,1.7,0.4,2.5c0.2,0.8,0.6,1.5,1,2.1c0.5,0.6,1.1,0.9,2,0.9
				c0.9,0,1.6-0.3,2.1-0.9c0.5-0.6,0.8-1.3,1-2.1c0.2-0.8,0.3-1.6,0.4-2.5s0.1-1.6,0.1-2.2c0-0.4,0-0.8,0-1.3c0-0.5-0.1-1.1-0.1-1.6
				c-0.1-0.6-0.2-1.1-0.3-1.6c-0.1-0.5-0.3-1-0.6-1.5c-0.3-0.4-0.6-0.8-1-1c-0.4-0.3-0.9-0.4-1.5-0.4c-0.6,0-1.1,0.1-1.5,0.4
				s-0.7,0.6-1,1c-0.3,0.4-0.5,0.9-0.6,1.5s-0.2,1.1-0.3,1.6c-0.1,0.5-0.1,1.1-0.1,1.6c0,0.5,0,1,0,1.3
				C608.3,589.3,608.3,590.1,608.4,590.9z"/>
			<path fill="#D1D3D4" d="M628,599.5v-13.9h-5.4v-3.3c0.8,0,1.5,0,2.2-0.2c0.7-0.1,1.3-0.4,1.9-0.7c0.6-0.3,1-0.8,1.4-1.3
				c0.4-0.5,0.6-1.2,0.8-2h3.5v21.4H628z"/>
			<path fill="#D1D3D4" d="M637.8,594.6v-4l9.3-12.5h3.9V591h2.8v3.6H651v5h-4.1v-5H637.8z M646.8,583.6l-5.5,7.4h5.6L646.8,583.6
				L646.8,583.6z"/>
		</g>
	</g>
	<g>
		<g enable-background="new    ">
			<path fill="#D1D3D4" d="M463.9,582.9c0.3-1,0.8-2,1.5-2.8c0.7-0.8,1.5-1.4,2.5-1.8c1-0.4,2.1-0.7,3.4-0.7c1,0,1.9,0.2,2.8,0.5
				s1.7,0.7,2.3,1.3c0.7,0.6,1.2,1.3,1.6,2.1s0.6,1.8,0.6,2.8c0,1.1-0.2,2-0.5,2.8s-0.8,1.5-1.4,2.1c-0.6,0.6-1.2,1.1-1.9,1.6
				s-1.5,1-2.2,1.5c-0.7,0.5-1.4,1-2.1,1.5c-0.7,0.6-1.3,1.2-1.8,1.9h10.1v3.7H463c0-1.2,0.2-2.3,0.5-3.2s0.8-1.7,1.5-2.5
				c0.6-0.7,1.3-1.4,2.2-2c0.8-0.6,1.7-1.2,2.6-1.9c0.5-0.3,1-0.7,1.5-1c0.5-0.3,1-0.7,1.5-1.1s0.8-0.9,1.1-1.4
				c0.3-0.5,0.4-1.1,0.4-1.7c0-1-0.3-1.8-0.9-2.4s-1.4-0.9-2.3-0.9c-0.6,0-1.2,0.1-1.6,0.4c-0.4,0.3-0.8,0.7-1.1,1.2
				c-0.3,0.5-0.5,1-0.6,1.6c-0.1,0.6-0.2,1.2-0.2,1.7h-4.2C463.4,585.1,463.5,584,463.9,582.9z"/>
			<path fill="#D1D3D4" d="M480.6,583.5c0.4-1.4,1-2.6,1.7-3.4c0.7-0.9,1.5-1.5,2.5-1.8c0.9-0.4,2-0.6,3-0.6c1.1,0,2.1,0.2,3,0.6
				c0.9,0.4,1.8,1,2.5,1.8c0.7,0.9,1.3,2,1.7,3.4s0.6,3.2,0.6,5.2c0,2.1-0.2,3.9-0.6,5.4s-1,2.6-1.7,3.4c-0.7,0.9-1.6,1.5-2.5,1.8
				c-0.9,0.4-2,0.6-3,0.6c-1.1,0-2.1-0.2-3-0.6c-0.9-0.4-1.8-1-2.5-1.8c-0.7-0.9-1.3-2-1.7-3.4c-0.4-1.4-0.6-3.2-0.6-5.4
				C480,586.6,480.2,584.9,480.6,583.5z M484.4,590.9c0,0.9,0.2,1.7,0.4,2.5c0.2,0.8,0.6,1.5,1,2.1c0.5,0.6,1.1,0.9,2,0.9
				c0.9,0,1.6-0.3,2.1-0.9c0.5-0.6,0.8-1.3,1-2.1c0.2-0.8,0.3-1.6,0.4-2.5s0.1-1.6,0.1-2.2c0-0.4,0-0.8,0-1.3c0-0.5-0.1-1.1-0.1-1.6
				c-0.1-0.6-0.2-1.1-0.3-1.6c-0.1-0.5-0.3-1-0.6-1.5c-0.3-0.4-0.6-0.8-1-1c-0.4-0.3-0.9-0.4-1.5-0.4c-0.6,0-1.1,0.1-1.5,0.4
				s-0.7,0.6-1,1c-0.3,0.4-0.5,0.9-0.6,1.5s-0.2,1.1-0.3,1.6c-0.1,0.5-0.1,1.1-0.1,1.6c0,0.5,0,1,0,1.3
				C484.3,589.3,484.3,590.1,484.4,590.9z"/>
			<path fill="#D1D3D4" d="M504,599.5v-13.9h-5.4v-3.3c0.8,0,1.5,0,2.2-0.2c0.7-0.1,1.3-0.4,1.9-0.7c0.6-0.3,1-0.8,1.4-1.3
				c0.4-0.5,0.6-1.2,0.8-2h3.5v21.4H504z"/>
			<path fill="#D1D3D4" d="M521.8,586.8c0.5,0,1-0.2,1.5-0.4c0.5-0.2,0.8-0.5,1.1-0.8c0.3-0.4,0.4-0.9,0.4-1.5
				c0-0.9-0.3-1.6-0.9-2.1c-0.6-0.5-1.3-0.7-2.1-0.7c-1.1,0-1.9,0.4-2.5,1.1c-0.6,0.7-0.8,1.6-0.8,2.7h-4.1c0-1.1,0.2-2.1,0.6-3
				c0.4-0.9,0.9-1.7,1.5-2.3s1.4-1.2,2.3-1.5c0.9-0.4,1.9-0.5,3-0.5c0.9,0,1.7,0.1,2.6,0.4s1.6,0.6,2.3,1.1c0.7,0.5,1.2,1.1,1.7,1.9
				c0.4,0.7,0.6,1.6,0.6,2.5c0,1-0.2,2-0.7,2.8c-0.5,0.8-1.2,1.3-2.2,1.6v0.1c1.2,0.3,2.1,0.8,2.8,1.7c0.7,0.9,1,1.9,1,3.2
				c0,1.1-0.2,2.1-0.7,3c-0.4,0.9-1,1.6-1.8,2.2c-0.7,0.6-1.6,1-2.5,1.3c-1,0.3-2,0.5-3,0.5c-1.2,0-2.3-0.2-3.3-0.5
				c-1-0.3-1.8-0.9-2.5-1.5c-0.7-0.7-1.2-1.5-1.6-2.4c-0.4-1-0.6-2.1-0.5-3.3h4.1c0,0.6,0.1,1.1,0.3,1.6c0.2,0.5,0.4,1,0.7,1.3
				s0.7,0.7,1.1,0.9c0.5,0.2,1,0.3,1.6,0.3c1,0,1.8-0.3,2.5-0.9c0.7-0.6,1-1.4,1-2.5c0-0.8-0.2-1.4-0.5-1.9
				c-0.3-0.4-0.7-0.7-1.2-0.9c-0.5-0.2-1-0.3-1.6-0.3s-1.1,0-1.7,0v-3.1C520.8,586.8,521.3,586.8,521.8,586.8z"/>
		</g>
	</g>
	<g>
		<g enable-background="new    ">
			<path fill="#D1D3D4" d="M339.9,582.9c0.3-1,0.8-2,1.5-2.8c0.7-0.8,1.5-1.4,2.5-1.8c1-0.4,2.1-0.7,3.4-0.7c1,0,1.9,0.2,2.8,0.5
				s1.7,0.7,2.3,1.3c0.7,0.6,1.2,1.3,1.6,2.1s0.6,1.8,0.6,2.8c0,1.1-0.2,2-0.5,2.8c-0.3,0.8-0.8,1.5-1.4,2.1
				c-0.6,0.6-1.2,1.1-1.9,1.6s-1.5,1-2.2,1.5c-0.7,0.5-1.4,1-2.1,1.5c-0.7,0.6-1.3,1.2-1.8,1.9h10.1v3.7H339c0-1.2,0.2-2.3,0.5-3.2
				c0.4-0.9,0.8-1.7,1.5-2.5c0.6-0.7,1.3-1.4,2.2-2c0.8-0.6,1.7-1.2,2.6-1.9c0.5-0.3,1-0.7,1.5-1c0.5-0.3,1-0.7,1.5-1.1
				s0.8-0.9,1.1-1.4c0.3-0.5,0.4-1.1,0.4-1.7c0-1-0.3-1.8-0.9-2.4c-0.6-0.6-1.4-0.9-2.3-0.9c-0.6,0-1.2,0.1-1.6,0.4
				c-0.4,0.3-0.8,0.7-1.1,1.2c-0.3,0.5-0.5,1-0.6,1.6c-0.1,0.6-0.2,1.2-0.2,1.7h-4.2C339.4,585.1,339.5,584,339.9,582.9z"/>
			<path fill="#D1D3D4" d="M356.6,583.5c0.4-1.4,1-2.6,1.7-3.4c0.7-0.9,1.5-1.5,2.5-1.8c0.9-0.4,2-0.6,3-0.6c1.1,0,2.1,0.2,3,0.6
				s1.8,1,2.5,1.8c0.7,0.9,1.3,2,1.7,3.4c0.4,1.4,0.6,3.2,0.6,5.2c0,2.1-0.2,3.9-0.6,5.4c-0.4,1.4-1,2.6-1.7,3.4
				c-0.7,0.9-1.6,1.5-2.5,1.8c-0.9,0.4-2,0.6-3,0.6c-1.1,0-2.1-0.2-3-0.6c-0.9-0.4-1.8-1-2.5-1.8c-0.7-0.9-1.3-2-1.7-3.4
				c-0.4-1.4-0.6-3.2-0.6-5.4C356,586.6,356.2,584.9,356.6,583.5z M360.4,590.9c0,0.9,0.2,1.7,0.4,2.5c0.2,0.8,0.6,1.5,1,2.1
				c0.5,0.6,1.1,0.9,2,0.9c0.9,0,1.6-0.3,2.1-0.9c0.5-0.6,0.8-1.3,1-2.1c0.2-0.8,0.3-1.6,0.4-2.5c0-0.9,0.1-1.6,0.1-2.2
				c0-0.4,0-0.8,0-1.3c0-0.5-0.1-1.1-0.1-1.6c-0.1-0.6-0.2-1.1-0.3-1.6c-0.1-0.5-0.3-1-0.6-1.5c-0.3-0.4-0.6-0.8-1-1
				s-0.9-0.4-1.5-0.4c-0.6,0-1.1,0.1-1.5,0.4s-0.7,0.6-1,1c-0.3,0.4-0.5,0.9-0.6,1.5s-0.2,1.1-0.3,1.6c-0.1,0.5-0.1,1.1-0.1,1.6
				c0,0.5,0,1,0,1.3C360.3,589.3,360.3,590.1,360.4,590.9z"/>
			<path fill="#D1D3D4" d="M380,599.5v-13.9h-5.4v-3.3c0.8,0,1.5,0,2.2-0.2c0.7-0.1,1.3-0.4,1.9-0.7c0.6-0.3,1-0.8,1.4-1.3
				c0.4-0.5,0.6-1.2,0.8-2h3.5v21.4H380z"/>
			<path fill="#D1D3D4" d="M390.9,582.9c0.3-1,0.8-2,1.5-2.8c0.7-0.8,1.5-1.4,2.5-1.8c1-0.4,2.1-0.7,3.4-0.7c1,0,1.9,0.2,2.8,0.5
				s1.7,0.7,2.3,1.3c0.7,0.6,1.2,1.3,1.6,2.1s0.6,1.8,0.6,2.8c0,1.1-0.2,2-0.5,2.8c-0.3,0.8-0.8,1.5-1.4,2.1
				c-0.6,0.6-1.2,1.1-1.9,1.6s-1.5,1-2.2,1.5c-0.7,0.5-1.4,1-2.1,1.5c-0.7,0.6-1.3,1.2-1.8,1.9h10.1v3.7H390c0-1.2,0.2-2.3,0.5-3.2
				c0.4-0.9,0.8-1.7,1.5-2.5c0.6-0.7,1.3-1.4,2.2-2c0.8-0.6,1.7-1.2,2.6-1.9c0.5-0.3,1-0.7,1.5-1c0.5-0.3,1-0.7,1.5-1.1
				s0.8-0.9,1.1-1.4c0.3-0.5,0.4-1.1,0.4-1.7c0-1-0.3-1.8-0.9-2.4c-0.6-0.6-1.4-0.9-2.3-0.9c-0.6,0-1.2,0.1-1.6,0.4
				c-0.4,0.3-0.8,0.7-1.1,1.2c-0.3,0.5-0.5,1-0.6,1.6c-0.1,0.6-0.2,1.2-0.2,1.7h-4.2C390.4,585.1,390.6,584,390.9,582.9z"/>
		</g>
	</g>
	<g>
		<g enable-background="new    ">
			<path fill="#D1D3D4" d="M215.9,582.9c0.3-1,0.8-2,1.5-2.8c0.7-0.8,1.5-1.4,2.5-1.8c1-0.4,2.1-0.7,3.4-0.7c1,0,1.9,0.2,2.8,0.5
				s1.7,0.7,2.3,1.3c0.7,0.6,1.2,1.3,1.6,2.1s0.6,1.8,0.6,2.8c0,1.1-0.2,2-0.5,2.8c-0.3,0.8-0.8,1.5-1.4,2.1
				c-0.6,0.6-1.2,1.1-1.9,1.6s-1.5,1-2.2,1.5c-0.7,0.5-1.4,1-2.1,1.5c-0.7,0.6-1.3,1.2-1.8,1.9h10.1v3.7H215c0-1.2,0.2-2.3,0.5-3.2
				c0.4-0.9,0.8-1.7,1.5-2.5c0.6-0.7,1.3-1.4,2.2-2c0.8-0.6,1.7-1.2,2.6-1.9c0.5-0.3,1-0.7,1.5-1c0.5-0.3,1-0.7,1.5-1.1
				s0.8-0.9,1.1-1.4c0.3-0.5,0.4-1.1,0.4-1.7c0-1-0.3-1.8-0.9-2.4c-0.6-0.6-1.4-0.9-2.3-0.9c-0.6,0-1.2,0.1-1.6,0.4
				c-0.4,0.3-0.8,0.7-1.1,1.2c-0.3,0.5-0.5,1-0.6,1.6c-0.1,0.6-0.2,1.2-0.2,1.7h-4.2C215.4,585.1,215.5,584,215.9,582.9z"/>
			<path fill="#D1D3D4" d="M232.6,583.5c0.4-1.4,1-2.6,1.7-3.4c0.7-0.9,1.5-1.5,2.5-1.8c0.9-0.4,2-0.6,3-0.6c1.1,0,2.1,0.2,3,0.6
				s1.8,1,2.5,1.8c0.7,0.9,1.3,2,1.7,3.4c0.4,1.4,0.6,3.2,0.6,5.2c0,2.1-0.2,3.9-0.6,5.4c-0.4,1.4-1,2.6-1.7,3.4
				c-0.7,0.9-1.6,1.5-2.5,1.8c-0.9,0.4-2,0.6-3,0.6c-1.1,0-2.1-0.2-3-0.6c-0.9-0.4-1.8-1-2.5-1.8c-0.7-0.9-1.3-2-1.7-3.4
				c-0.4-1.4-0.6-3.2-0.6-5.4C232,586.6,232.2,584.9,232.6,583.5z M236.4,590.9c0,0.9,0.2,1.7,0.4,2.5c0.2,0.8,0.6,1.5,1,2.1
				c0.5,0.6,1.1,0.9,2,0.9c0.9,0,1.6-0.3,2.1-0.9c0.5-0.6,0.8-1.3,1-2.1c0.2-0.8,0.3-1.6,0.4-2.5c0-0.9,0.1-1.6,0.1-2.2
				c0-0.4,0-0.8,0-1.3c0-0.5-0.1-1.1-0.1-1.6c-0.1-0.6-0.2-1.1-0.3-1.6c-0.1-0.5-0.3-1-0.6-1.5c-0.3-0.4-0.6-0.8-1-1
				s-0.9-0.4-1.5-0.4c-0.6,0-1.1,0.1-1.5,0.4s-0.7,0.6-1,1c-0.3,0.4-0.5,0.9-0.6,1.5s-0.2,1.1-0.3,1.6c-0.1,0.5-0.1,1.1-0.1,1.6
				c0,0.5,0,1,0,1.3C236.3,589.3,236.3,590.1,236.4,590.9z"/>
			<path fill="#D1D3D4" d="M256,599.5v-13.9h-5.4v-3.3c0.8,0,1.5,0,2.2-0.2c0.7-0.1,1.3-0.4,1.9-0.7c0.6-0.3,1-0.8,1.4-1.3
				c0.4-0.5,0.6-1.2,0.8-2h3.5v21.4H256z"/>
			<path fill="#D1D3D4" d="M273,599.5v-13.9h-5.4v-3.3c0.8,0,1.5,0,2.2-0.2c0.7-0.1,1.3-0.4,1.9-0.7c0.6-0.3,1-0.8,1.4-1.3
				c0.4-0.5,0.6-1.2,0.8-2h3.5v21.4H273z"/>
		</g>
	</g>
</g>
<g>
	<line fill="none" stroke="#808080" x1="186.1" y1="560.5" x2="682.4" y2="560.5"/>
</g>
</svg>
