<svg version="1.1" id="Layer_1" xmlns="http://www.w3.org/2000/svg" xmlns:xlink="http://www.w3.org/1999/xlink" x="0px" y="0px"
	 viewBox="0 0 132.8 140.1" enable-background="new 0 0 132.8 140.1" xml:space="preserve">
<text transform="matrix(1 0 0 1 104.2711 16.2961)" fill="#FFFFFF" font-family="'HelveticaNeue-Bold'" font-size="7.5">$526.3</text>
<g>
	<g>
		<g>
			<text transform="matrix(1 0 0 1 11.4742 130.3298)" fill="#D1D3D4" font-family="'HelveticaNeue'" font-size="7">0</text>
		</g>
		<g>
			<text transform="matrix(1 0 0 1 3.6905 109.8679)" fill="#D1D3D4" font-family="'HelveticaNeue'" font-size="7">100</text>
		</g>
		<g>
			<text transform="matrix(1 0 0 1 3.6905 89.4069)" fill="#D1D3D4" font-family="'HelveticaNeue'" font-size="7">200</text>
		</g>
		<g>
			<text transform="matrix(1 0 0 1 3.6905 68.946)" fill="#D1D3D4" font-family="'HelveticaNeue'" font-size="7">300</text>
		</g>
		<g>
			<text transform="matrix(1 0 0 1 3.6905 48.4841)" fill="#D1D3D4" font-family="'HelveticaNeue'" font-size="7">400</text>
		</g>
		<g>
			<text transform="matrix(1 0 0 1 3.6905 28.0231)" fill="#D1D3D4" font-family="'HelveticaNeue'" font-size="7">500</text>
		</g>
		<g>
			<text transform="matrix(1 0 0 1 -0.2016 7.5622)" fill="#D1D3D4" font-family="'HelveticaNeue'" font-size="7">$600</text>
		</g>
	</g>
	<g>
		<g>
			<line fill="none" stroke="#000000" stroke-miterlimit="10" x1="17.1" y1="128.3" x2="20" y2="128.3"/>
			<line fill="none" stroke="#808080" stroke-width="0.5" x1="17.1" y1="107.9" x2="131" y2="107.9"/>
			<line fill="none" stroke="#808080" stroke-width="0.5" x1="17.1" y1="87.4" x2="131" y2="87.4"/>
			<line fill="none" stroke="#808080" stroke-width="0.5" x1="17.1" y1="67" x2="131" y2="67"/>
			<line fill="none" stroke="#808080" stroke-width="0.5" x1="17.1" y1="46.5" x2="131" y2="46.5"/>
			<line fill="none" stroke="#808080" stroke-width="0.5" x1="17.1" y1="26" x2="131" y2="26"/>
			<line fill="none" stroke="#808080" stroke-width="0.5" x1="17.1" y1="5.6" x2="131" y2="5.6"/>
		</g>
		<g>
		</g>
	</g>
</g>
<g>
	<g>
		<g>
			<rect x="21.1" y="49.3" fill="#BD5E28" width="20.4" height="79.1"/>
			<rect x="49.5" y="33.1" fill="#BD5E28" width="20.4" height="95.3"/>
			<rect x="77.9" y="31.5" fill="#BD5E28" width="20.4" height="96.8"/>
			<rect x="106.3" y="20.6" fill="#BD5E28" width="20.4" height="107.7"/>
		</g>
	</g>
</g>
<g>
	<g>
		<text transform="matrix(1 0 0 1 108.709 137.2429)" fill="#D1D3D4" font-family="'HelveticaNeue-Bold'" font-size="7">2014</text>
	</g>
	<g>
		<text transform="matrix(1 0 0 1 80.3223 137.2429)" fill="#D1D3D4" font-family="'HelveticaNeue-Bold'" font-size="7">2013</text>
	</g>
	<g>
		<text transform="matrix(1 0 0 1 51.9356 137.2429)" fill="#D1D3D4" font-family="'HelveticaNeue-Bold'" font-size="7">2012</text>
	</g>
	<g>
		<text transform="matrix(1 0 0 1 23.5489 137.2429)" fill="#D1D3D4" font-family="'HelveticaNeue-Bold'" font-size="7">2011</text>
	</g>
</g>
<g>
	<line fill="none" stroke="#000000" stroke-width="0.5" stroke-miterlimit="10" x1="17.1" y1="128.3" x2="130.7" y2="128.3"/>
</g>
</svg>
