<?xml version="1.0" encoding="utf-8"?>
<!-- Generator: Adobe Illustrator 17.1.0, SVG Export Plug-In . SVG Version: 6.00 Build 0)  -->
<!DOCTYPE svg PUBLIC "-//W3C//DTD SVG 1.1//EN" "http://www.w3.org/Graphics/SVG/1.1/DTD/svg11.dtd">
<svg version="1.1" id="Layer_1" xmlns="http://www.w3.org/2000/svg" xmlns:xlink="http://www.w3.org/1999/xlink" x="0px" y="0px"
	 viewBox="0 0 603 612" enable-background="new 0 0 603 612" xml:space="preserve">
<text transform="matrix(1 0 0 1 469.3586 65.7501)" fill="#FFFFFF" font-family="'Helvetica-Bold'" font-size="32.3695">$26.7</text>
<g>
	<g>
		<text transform="matrix(1 0 0 1 59.5369 568.36)" fill="#CCCCCC" font-family="'HelveticaNeue'" font-size="30.2116">0</text>
		<text transform="matrix(1 0 0 1 58.7449 479.878)" fill="#CCCCCC" font-family="'HelveticaNeue'" font-size="30.2116">5</text>
		<text transform="matrix(1 0 0 1 41.949 391.4016)" fill="#CCCCCC" font-family="'HelveticaNeue'" font-size="30.2116">10</text>
		<text transform="matrix(1 0 0 1 41.949 302.9252)" fill="#CCCCCC" font-family="'HelveticaNeue'" font-size="30.2116">15</text>
		<text transform="matrix(1 0 0 1 41.949 214.4397)" fill="#CCCCCC" font-family="'HelveticaNeue'" font-size="30.2116">20</text>
		<text transform="matrix(1 0 0 1 41.949 125.9633)" fill="#CCCCCC" font-family="'HelveticaNeue'" font-size="30.2116">25</text>
		<text transform="matrix(1 0 0 1 25.1514 37.4869)" fill="#CCCCCC" font-family="'HelveticaNeue'" font-size="30.2116">$30</text>
	</g>
	<g>
		<g>
			<line fill="none" stroke="#808080" stroke-width="0.5" x1="84" y1="471.3" x2="575.6" y2="471.3"/>
			<line fill="none" stroke="#808080" stroke-width="0.5" x1="84" y1="382.8" x2="575.6" y2="382.8"/>
			<line fill="none" stroke="#808080" stroke-width="0.5" x1="84" y1="294.3" x2="575.6" y2="294.3"/>
			<line fill="none" stroke="#808080" stroke-width="0.5" x1="84" y1="205.9" x2="575.6" y2="205.9"/>
			<line fill="none" stroke="#808080" stroke-width="0.5" x1="84" y1="117.4" x2="575.6" y2="117.4"/>
			<line fill="none" stroke="#808080" stroke-width="0.5" x1="84" y1="28.9" x2="575.6" y2="28.9"/>
		</g>
	</g>
</g>
<g>
	<g>
		<g>
			<rect x="101.2" y="123.9" fill="#BD5E28" width="88.5" height="435.9"/>
			<rect x="223.8" y="41" fill="#BD5E28" width="88.5" height="518.8"/>
			<rect x="346.8" y="124.7" fill="#BD5E28" width="88.5" height="435"/>
			<rect x="469.4" y="86.3" fill="#BD5E28" width="88.5" height="473.5"/>
		</g>
	</g>
</g>
<g>
	<g>
		<text transform="matrix(1 0 0 1 480.0382 598.2283)" fill="#CCCCCC" font-family="'HelveticaNeue-Bold'" font-size="30.2116">2014</text>
		<text transform="matrix(1 0 0 1 357.2876 598.2283)" fill="#CCCCCC" font-family="'HelveticaNeue-Bold'" font-size="30.2116">2013</text>
		<text transform="matrix(1 0 0 1 234.5406 598.2283)" fill="#CCCCCC" font-family="'HelveticaNeue-Bold'" font-size="30.2116">2012</text>
		<text transform="matrix(1 0 0 1 111.79 598.2283)" fill="#CCCCCC" font-family="'HelveticaNeue-Bold'" font-size="30.2116">2011</text>
	</g>
</g>
<g>
	<line fill="none" stroke="#808080" x1="84" y1="559.8" x2="575.1" y2="559.8"/>
</g>
</svg>
