<?xml version="1.0" encoding="utf-8"?>
<!-- Generator: Adobe Illustrator 17.1.0, SVG Export Plug-In . SVG Version: 6.00 Build 0)  -->
<!DOCTYPE svg PUBLIC "-//W3C//DTD SVG 1.1//EN" "http://www.w3.org/Graphics/SVG/1.1/DTD/svg11.dtd">
<svg version="1.1" id="Layer_1" xmlns="http://www.w3.org/2000/svg" xmlns:xlink="http://www.w3.org/1999/xlink" x="0px" y="0px"
	 viewBox="0 0 603 612" enable-background="new 0 0 603 612" xml:space="preserve">
<g enable-background="new    ">
	<path fill="#FFFFFF" d="M474.6,69.5h-1.5v-3.1c-2.1-0.2-3.6-0.7-4.6-1.4c-1.8-1.2-2.7-3.3-2.7-6.2h4.3c0.1,1.3,0.4,2.2,0.6,2.7
		c0.4,0.7,1.2,1.2,2.4,1.4v-6.7l-1.3-0.4c-2-0.6-3.4-1.4-4.3-2.5s-1.2-2.3-1.2-3.8c0-1,0.2-1.9,0.5-2.7s0.8-1.5,1.4-2.1
		c0.7-0.7,1.6-1.3,2.5-1.5c0.6-0.2,1.4-0.3,2.5-0.4v-2.1h1.5v2.1c1.7,0.1,3.1,0.6,4,1.3c1.8,1.1,2.7,3,2.8,5.5h-4.2
		c-0.1-0.9-0.2-1.6-0.5-2.1c-0.4-0.7-1.1-1.2-2.2-1.2v6c2.5,0.9,4.2,1.6,5,2.3c1.4,1.1,2.1,2.7,2.1,4.7c0,2.7-1,4.6-2.9,5.8
		c-1.2,0.7-2.6,1.2-4.2,1.3V69.5z M473.1,46.3c-0.9,0-1.6,0.3-2,0.7c-0.4,0.5-0.7,1.1-0.7,1.9c0,0.9,0.3,1.6,1,2.1
		c0.4,0.3,0.9,0.5,1.7,0.8V46.3z M474.6,62.8c0.8-0.1,1.4-0.3,1.8-0.6c0.7-0.5,1-1.3,1-2.5c0-0.9-0.3-1.6-0.9-2.1
		c-0.4-0.3-1-0.6-1.9-0.9V62.8z"/>
	<path fill="#FFFFFF" d="M484.9,61.2c0.6-1.5,2.2-3.1,4.6-4.9c2.1-1.5,3.4-2.5,4-3.2c0.9-1,1.4-2.1,1.4-3.3c0-1-0.3-1.8-0.8-2.4
		c-0.5-0.6-1.3-1-2.3-1c-1.4,0-2.3,0.5-2.8,1.5c-0.3,0.6-0.5,1.5-0.5,2.8h-4.4c0.1-1.9,0.4-3.5,1.1-4.7c1.2-2.3,3.3-3.4,6.4-3.4
		c2.4,0,4.4,0.7,5.8,2c1.4,1.3,2.2,3.1,2.2,5.3c0,1.7-0.5,3.2-1.5,4.5c-0.7,0.9-1.8,1.8-3.3,2.9l-1.8,1.3c-1.1,0.8-1.9,1.4-2.3,1.7
		s-0.8,0.8-1.1,1.2h10v4h-15.7C483.9,64.1,484.3,62.6,484.9,61.2z"/>
	<path fill="#FFFFFF" d="M512.7,48.6c0-0.4-0.1-0.8-0.4-1.2c-0.5-0.7-1.2-1.1-2.2-1.1c-1.5,0-2.5,0.8-3.1,2.5
		c-0.3,0.9-0.6,2.2-0.7,4c0.6-0.7,1.2-1.1,1.9-1.5s1.6-0.5,2.5-0.5c2,0,3.7,0.7,5,2.1c1.3,1.4,2,3.1,2,5.3c0,2.1-0.6,4-1.9,5.7
		c-1.3,1.6-3.3,2.5-5.9,2.5c-2.9,0-5-1.2-6.4-3.6c-1.1-1.9-1.6-4.3-1.6-7.3c0-1.7,0.1-3.2,0.2-4.3c0.3-1.9,0.8-3.6,1.5-4.9
		c0.7-1.1,1.5-2,2.6-2.7c1.1-0.7,2.3-1,3.8-1c2.1,0,3.8,0.5,5.1,1.6c1.3,1.1,2,2.5,2.1,4.4H512.7z M507.4,61.5
		c0.7,0.8,1.5,1.2,2.5,1.2c1,0,1.8-0.4,2.4-1.1c0.6-0.8,0.9-1.7,0.9-2.9c0-1.3-0.3-2.4-1-3.1c-0.7-0.7-1.5-1.1-2.4-1.1
		c-0.8,0-1.4,0.2-2,0.7c-0.9,0.7-1.3,1.8-1.3,3.3C506.4,59.7,506.7,60.7,507.4,61.5z"/>
	<path fill="#FFFFFF" d="M520.9,61h4.8v4.7h-4.8V61z"/>
	<path fill="#FFFFFF" d="M544.9,46.7c-0.7,0.7-1.6,1.8-2.8,3.5c-1.2,1.7-2.2,3.5-3,5.3c-0.6,1.4-1.2,3.2-1.7,5.2s-0.8,3.7-0.8,5.1
		h-4.7c0.1-4.1,1.5-8.4,4-12.8c1.7-2.8,3-4.7,4.2-5.8h-11.4l0.1-4h16.2V46.7z"/>
</g>
<g>
	<g>
		<g enable-background="new    ">
			<path fill="#CCCCCC" d="M56.4,555.4c0-0.8,0.1-1.7,0.3-2.5c0.2-0.8,0.4-1.6,0.7-2.3c0.3-0.7,0.7-1.4,1.2-1.9c0.5-0.5,1.2-1,2-1.3
				c0.8-0.3,1.7-0.5,2.9-0.5c1.1,0,2.1,0.2,2.9,0.5c0.8,0.3,1.5,0.8,2,1.3c0.5,0.5,0.9,1.2,1.2,1.9c0.3,0.7,0.5,1.5,0.7,2.3
				c0.2,0.8,0.3,1.6,0.3,2.5c0,0.8,0.1,1.7,0.1,2.4s0,1.6-0.1,2.4c0,0.8-0.1,1.7-0.3,2.5s-0.4,1.6-0.7,2.3c-0.3,0.7-0.7,1.3-1.2,1.9
				c-0.5,0.5-1.2,1-2,1.3c-0.8,0.3-1.7,0.5-2.9,0.5c-1.1,0-2.1-0.2-2.9-0.5c-0.8-0.3-1.5-0.7-2-1.3c-0.5-0.5-0.9-1.2-1.2-1.9
				c-0.3-0.7-0.5-1.5-0.7-2.3s-0.3-1.6-0.3-2.5s-0.1-1.7-0.1-2.4S56.3,556.2,56.4,555.4z M59.1,560.5c0,1,0.2,1.9,0.5,2.8
				s0.7,1.6,1.3,2.2c0.6,0.6,1.5,0.9,2.5,0.9c1.1,0,1.9-0.3,2.5-0.9c0.6-0.6,1-1.3,1.3-2.2s0.4-1.8,0.5-2.8c0-1,0.1-1.9,0.1-2.7
				c0-0.5,0-1.1,0-1.7c0-0.6-0.1-1.3-0.2-1.9c-0.1-0.6-0.2-1.3-0.4-1.9c-0.2-0.6-0.4-1.1-0.8-1.6c-0.3-0.5-0.8-0.8-1.3-1.1
				c-0.5-0.3-1.1-0.4-1.8-0.4s-1.3,0.1-1.8,0.4c-0.5,0.3-0.9,0.6-1.3,1.1c-0.3,0.5-0.6,1-0.8,1.6c-0.2,0.6-0.3,1.2-0.4,1.9
				c-0.1,0.6-0.1,1.3-0.2,1.9c0,0.6,0,1.2,0,1.7C59,558.6,59.1,559.5,59.1,560.5z"/>
		</g>
		<g enable-background="new    ">
			<path fill="#CCCCCC" d="M59.8,461.1l-1.1,6.2l0.1,0.1c0.5-0.5,1.1-0.9,1.8-1.2c0.7-0.3,1.5-0.4,2.2-0.4c0.9,0,1.8,0.2,2.7,0.5
				c0.8,0.3,1.6,0.8,2.2,1.4c0.6,0.6,1.1,1.4,1.5,2.3c0.4,0.9,0.5,2,0.5,3.2c0,0.9-0.2,1.8-0.5,2.6c-0.3,0.9-0.8,1.6-1.4,2.3
				c-0.6,0.7-1.4,1.2-2.3,1.6s-2,0.6-3.3,0.6c-0.9,0-1.8-0.1-2.6-0.4c-0.8-0.3-1.5-0.7-2.2-1.2c-0.6-0.5-1.1-1.2-1.5-1.9
				c-0.4-0.8-0.6-1.6-0.6-2.6h2.6c0,0.5,0.2,1.1,0.4,1.5c0.2,0.5,0.5,0.9,0.9,1.2c0.4,0.4,0.9,0.6,1.4,0.8s1.1,0.3,1.8,0.3
				c0.6,0,1.2-0.1,1.7-0.3c0.6-0.2,1-0.5,1.5-1c0.4-0.4,0.7-1,1-1.6c0.2-0.6,0.4-1.4,0.4-2.2c0-0.7-0.1-1.4-0.3-1.9
				c-0.2-0.6-0.6-1.1-1-1.5c-0.4-0.4-0.9-0.8-1.5-1c-0.6-0.2-1.3-0.4-2-0.4c-0.8,0-1.6,0.2-2.3,0.6c-0.7,0.4-1.2,0.9-1.7,1.5
				l-2.2-0.1l2-11.1h10.6v2.3H59.8z"/>
		</g>
		<g enable-background="new    ">
			<path fill="#CCCCCC" d="M45.6,391.4v-15.3h-5.6V374c0.7,0,1.4-0.1,2.1-0.2c0.7-0.1,1.3-0.3,1.9-0.6c0.6-0.3,1-0.7,1.4-1.2
				s0.6-1.2,0.8-2h2v21.4H45.6z"/>
			<path fill="#CCCCCC" d="M55.6,378.4c0-0.8,0.1-1.7,0.3-2.5c0.2-0.8,0.4-1.6,0.7-2.3c0.3-0.7,0.7-1.4,1.2-1.9c0.5-0.5,1.2-1,2-1.3
				c0.8-0.3,1.7-0.5,2.9-0.5c1.1,0,2.1,0.2,2.9,0.5c0.8,0.3,1.5,0.8,2,1.3c0.5,0.5,0.9,1.2,1.2,1.9c0.3,0.7,0.5,1.5,0.7,2.3
				c0.2,0.8,0.3,1.6,0.3,2.5c0,0.8,0.1,1.7,0.1,2.4s0,1.6-0.1,2.4c0,0.8-0.1,1.7-0.3,2.5s-0.4,1.6-0.7,2.3c-0.3,0.7-0.7,1.3-1.2,1.9
				c-0.5,0.5-1.2,1-2,1.3c-0.8,0.3-1.7,0.5-2.9,0.5c-1.1,0-2.1-0.2-2.9-0.5c-0.8-0.3-1.5-0.7-2-1.3c-0.5-0.5-0.9-1.2-1.2-1.9
				c-0.3-0.7-0.5-1.5-0.7-2.3s-0.3-1.6-0.3-2.5s-0.1-1.7-0.1-2.4S55.5,379.3,55.6,378.4z M58.3,383.6c0,1,0.2,1.9,0.5,2.8
				s0.7,1.6,1.3,2.2c0.6,0.6,1.5,0.9,2.5,0.9c1.1,0,1.9-0.3,2.5-0.9c0.6-0.6,1-1.3,1.3-2.2s0.4-1.8,0.5-2.8c0-1,0.1-1.9,0.1-2.7
				c0-0.5,0-1.1,0-1.7c0-0.6-0.1-1.3-0.2-1.9c-0.1-0.6-0.2-1.3-0.4-1.9c-0.2-0.6-0.4-1.1-0.8-1.6c-0.3-0.5-0.8-0.8-1.3-1.1
				c-0.5-0.3-1.1-0.4-1.8-0.4s-1.3,0.1-1.8,0.4c-0.5,0.3-0.9,0.6-1.3,1.1c-0.3,0.5-0.6,1-0.8,1.6c-0.2,0.6-0.3,1.2-0.4,1.9
				c-0.1,0.6-0.1,1.3-0.2,1.9c0,0.6,0,1.2,0,1.7C58.2,381.7,58.3,382.6,58.3,383.6z"/>
		</g>
		<g enable-background="new    ">
			<path fill="#CCCCCC" d="M45.6,302.9v-15.3h-5.6v-2.1c0.7,0,1.4-0.1,2.1-0.2c0.7-0.1,1.3-0.3,1.9-0.6c0.6-0.3,1-0.7,1.4-1.2
				s0.6-1.2,0.8-2h2v21.4H45.6z"/>
			<path fill="#CCCCCC" d="M59.8,284.1l-1.1,6.2l0.1,0.1c0.5-0.5,1.1-0.9,1.8-1.2c0.7-0.3,1.5-0.4,2.2-0.4c0.9,0,1.8,0.2,2.7,0.5
				c0.8,0.3,1.6,0.8,2.2,1.4c0.6,0.6,1.1,1.4,1.5,2.3c0.4,0.9,0.5,2,0.5,3.2c0,0.9-0.2,1.8-0.5,2.6c-0.3,0.9-0.8,1.6-1.4,2.3
				c-0.6,0.7-1.4,1.2-2.3,1.6s-2,0.6-3.3,0.6c-0.9,0-1.8-0.1-2.6-0.4c-0.8-0.3-1.5-0.7-2.2-1.2c-0.6-0.5-1.1-1.2-1.5-1.9
				c-0.4-0.8-0.6-1.6-0.6-2.6h2.6c0,0.5,0.2,1.1,0.4,1.5c0.2,0.5,0.5,0.9,0.9,1.2c0.4,0.4,0.9,0.6,1.4,0.8s1.1,0.3,1.8,0.3
				c0.6,0,1.2-0.1,1.7-0.3c0.6-0.2,1-0.5,1.5-1c0.4-0.4,0.7-1,1-1.6c0.2-0.6,0.4-1.4,0.4-2.2c0-0.7-0.1-1.4-0.3-1.9
				c-0.2-0.6-0.6-1.1-1-1.5c-0.4-0.4-0.9-0.8-1.5-1c-0.6-0.2-1.3-0.4-2-0.4c-0.8,0-1.6,0.2-2.3,0.6c-0.7,0.4-1.2,0.9-1.7,1.5
				l-2.2-0.1l2-11.1h10.6v2.3H59.8z"/>
		</g>
		<g enable-background="new    ">
			<path fill="#CCCCCC" d="M39.1,197.6c0.3-0.9,0.7-1.7,1.3-2.4c0.6-0.7,1.3-1.2,2.2-1.6s1.9-0.6,3-0.6c0.9,0,1.8,0.1,2.6,0.4
				c0.8,0.3,1.5,0.7,2.1,1.2c0.6,0.5,1.1,1.2,1.4,1.9c0.4,0.8,0.5,1.7,0.5,2.7c0,0.9-0.1,1.8-0.4,2.5c-0.3,0.7-0.7,1.4-1.2,1.9
				s-1,1.1-1.7,1.6c-0.6,0.5-1.3,0.9-1.9,1.3c-0.7,0.4-1.3,0.8-2,1.2c-0.7,0.4-1.3,0.8-1.8,1.3c-0.6,0.4-1,0.9-1.4,1.4
				c-0.4,0.5-0.6,1.1-0.8,1.8h11v2.3h-14c0.1-1.3,0.3-2.4,0.7-3.2c0.4-0.9,0.8-1.7,1.3-2.3c0.5-0.7,1.2-1.2,1.8-1.8
				c0.7-0.5,1.4-1,2.1-1.4c0.9-0.6,1.7-1.1,2.4-1.6c0.7-0.5,1.3-1,1.7-1.4c0.5-0.5,0.8-1,1-1.6c0.2-0.6,0.3-1.2,0.3-2
				c0-0.6-0.1-1.1-0.3-1.6c-0.2-0.5-0.5-0.9-0.9-1.2c-0.4-0.3-0.8-0.6-1.3-0.8c-0.5-0.2-1-0.3-1.6-0.3c-0.7,0-1.4,0.2-1.9,0.5
				s-1,0.7-1.3,1.2c-0.3,0.5-0.6,1.1-0.7,1.7c-0.2,0.6-0.2,1.3-0.2,1.9h-2.6C38.7,199.5,38.8,198.5,39.1,197.6z"/>
			<path fill="#CCCCCC" d="M55.6,201.5c0-0.8,0.1-1.7,0.3-2.5c0.2-0.8,0.4-1.6,0.7-2.3c0.3-0.7,0.7-1.4,1.2-1.9c0.5-0.5,1.2-1,2-1.3
				c0.8-0.3,1.7-0.5,2.9-0.5c1.1,0,2.1,0.2,2.9,0.5c0.8,0.3,1.5,0.8,2,1.3c0.5,0.5,0.9,1.2,1.2,1.9c0.3,0.7,0.5,1.5,0.7,2.3
				c0.2,0.8,0.3,1.6,0.3,2.5c0,0.8,0.1,1.7,0.1,2.4s0,1.6-0.1,2.4c0,0.8-0.1,1.7-0.3,2.5s-0.4,1.6-0.7,2.3c-0.3,0.7-0.7,1.3-1.2,1.9
				c-0.5,0.5-1.2,1-2,1.3c-0.8,0.3-1.7,0.5-2.9,0.5c-1.1,0-2.1-0.2-2.9-0.5c-0.8-0.3-1.5-0.7-2-1.3c-0.5-0.5-0.9-1.2-1.2-1.9
				c-0.3-0.7-0.5-1.5-0.7-2.3s-0.3-1.6-0.3-2.5s-0.1-1.7-0.1-2.4S55.5,202.3,55.6,201.5z M58.3,206.6c0,1,0.2,1.9,0.5,2.8
				s0.7,1.6,1.3,2.2c0.6,0.6,1.5,0.9,2.5,0.9c1.1,0,1.9-0.3,2.5-0.9c0.6-0.6,1-1.3,1.3-2.2s0.4-1.8,0.5-2.8c0-1,0.1-1.9,0.1-2.7
				c0-0.5,0-1.1,0-1.7c0-0.6-0.1-1.3-0.2-1.9c-0.1-0.6-0.2-1.3-0.4-1.9c-0.2-0.6-0.4-1.1-0.8-1.6c-0.3-0.5-0.8-0.8-1.3-1.1
				c-0.5-0.3-1.1-0.4-1.8-0.4s-1.3,0.1-1.8,0.4c-0.5,0.3-0.9,0.6-1.3,1.1c-0.3,0.5-0.6,1-0.8,1.6c-0.2,0.6-0.3,1.2-0.4,1.9
				c-0.1,0.6-0.1,1.3-0.2,1.9c0,0.6,0,1.2,0,1.7C58.2,204.7,58.3,205.6,58.3,206.6z"/>
		</g>
		<g enable-background="new    ">
			<path fill="#CCCCCC" d="M39.1,109.1c0.3-0.9,0.7-1.7,1.3-2.4c0.6-0.7,1.3-1.2,2.2-1.6s1.9-0.6,3-0.6c0.9,0,1.8,0.1,2.6,0.4
				c0.8,0.3,1.5,0.7,2.1,1.2c0.6,0.5,1.1,1.2,1.4,1.9c0.4,0.8,0.5,1.7,0.5,2.7c0,0.9-0.1,1.8-0.4,2.5c-0.3,0.7-0.7,1.4-1.2,1.9
				s-1,1.1-1.7,1.6c-0.6,0.5-1.3,0.9-1.9,1.3c-0.7,0.4-1.3,0.8-2,1.2c-0.7,0.4-1.3,0.8-1.8,1.3c-0.6,0.4-1,0.9-1.4,1.4
				c-0.4,0.5-0.6,1.1-0.8,1.8h11v2.3h-14c0.1-1.3,0.3-2.4,0.7-3.2c0.4-0.9,0.8-1.7,1.3-2.3c0.5-0.7,1.2-1.2,1.8-1.8
				c0.7-0.5,1.4-1,2.1-1.4c0.9-0.6,1.7-1.1,2.4-1.6c0.7-0.5,1.3-1,1.7-1.4c0.5-0.5,0.8-1,1-1.6c0.2-0.6,0.3-1.2,0.3-2
				c0-0.6-0.1-1.1-0.3-1.6c-0.2-0.5-0.5-0.9-0.9-1.2c-0.4-0.3-0.8-0.6-1.3-0.8c-0.5-0.2-1-0.3-1.6-0.3c-0.7,0-1.4,0.2-1.9,0.5
				s-1,0.7-1.3,1.2c-0.3,0.5-0.6,1.1-0.7,1.7c-0.2,0.6-0.2,1.3-0.2,1.9h-2.6C38.7,111,38.8,110,39.1,109.1z"/>
			<path fill="#CCCCCC" d="M59.8,107.2l-1.1,6.2l0.1,0.1c0.5-0.5,1.1-0.9,1.8-1.2c0.7-0.3,1.5-0.4,2.2-0.4c0.9,0,1.8,0.2,2.7,0.5
				c0.8,0.3,1.6,0.8,2.2,1.4c0.6,0.6,1.1,1.4,1.5,2.3c0.4,0.9,0.5,2,0.5,3.2c0,0.9-0.2,1.8-0.5,2.6c-0.3,0.9-0.8,1.6-1.4,2.3
				c-0.6,0.7-1.4,1.2-2.3,1.6s-2,0.6-3.3,0.6c-0.9,0-1.8-0.1-2.6-0.4c-0.8-0.3-1.5-0.7-2.2-1.2c-0.6-0.5-1.1-1.2-1.5-1.9
				c-0.4-0.8-0.6-1.6-0.6-2.6h2.6c0,0.5,0.2,1.1,0.4,1.5c0.2,0.5,0.5,0.9,0.9,1.2c0.4,0.4,0.9,0.6,1.4,0.8s1.1,0.3,1.8,0.3
				c0.6,0,1.2-0.1,1.7-0.3c0.6-0.2,1-0.5,1.5-1c0.4-0.4,0.7-1,1-1.6c0.2-0.6,0.4-1.4,0.4-2.2c0-0.7-0.1-1.4-0.3-1.9
				c-0.2-0.6-0.6-1.1-1-1.5c-0.4-0.4-0.9-0.8-1.5-1c-0.6-0.2-1.3-0.4-2-0.4c-0.8,0-1.6,0.2-2.3,0.6c-0.7,0.4-1.2,0.9-1.7,1.5
				l-2.2-0.1l2-11.1h10.6v2.3H59.8z"/>
		</g>
		<g enable-background="new    ">
			<path fill="#CCCCCC" d="M25.2,34.1c0.8,0.8,1.8,1.3,3,1.5v-8c-1.1-0.3-2-0.5-2.8-0.9c-0.8-0.3-1.4-0.7-1.9-1.1
				c-0.5-0.4-0.9-1-1.1-1.6c-0.2-0.6-0.4-1.4-0.4-2.3c0-0.9,0.2-1.7,0.5-2.5c0.3-0.8,0.8-1.4,1.3-2c0.6-0.6,1.2-1,2-1.3
				c0.8-0.3,1.6-0.5,2.4-0.6v-2h1.7v2c1.6,0.2,2.9,0.8,3.9,1.8c1,1,1.7,2.4,2.1,4.2h-2.6c-0.4-2-1.5-3.2-3.4-3.5v7.4l1.8,0.5
				c0.4,0.1,0.9,0.3,1.4,0.5c0.5,0.3,1.1,0.6,1.6,1c0.5,0.4,0.9,1,1.3,1.7c0.4,0.7,0.5,1.5,0.5,2.4c0,1-0.2,1.9-0.5,2.6
				c-0.3,0.8-0.8,1.4-1.4,2c-0.6,0.6-1.3,1-2.1,1.3c-0.8,0.3-1.7,0.5-2.7,0.6v2.5h-1.7V38c-2-0.2-3.6-0.9-4.8-2.1s-1.9-2.9-2-5H24
				C24,32.3,24.4,33.3,25.2,34.1z M25.8,18.9c-0.7,0.6-1,1.5-1,2.6c0,0.5,0.1,1,0.3,1.3c0.2,0.4,0.4,0.7,0.7,0.9
				c0.3,0.3,0.7,0.5,1.1,0.6c0.4,0.2,0.9,0.3,1.4,0.5v-7.1C27.3,17.9,26.4,18.3,25.8,18.9z M31.5,35.3c0.5-0.2,0.9-0.4,1.2-0.7
				c0.4-0.3,0.6-0.7,0.8-1.2c0.2-0.5,0.3-1,0.3-1.7c0-0.6-0.1-1.1-0.3-1.5c-0.2-0.4-0.5-0.7-0.8-1c-0.3-0.3-0.8-0.5-1.2-0.7
				c-0.5-0.2-1-0.4-1.5-0.5v7.6C30.5,35.5,31,35.4,31.5,35.3z"/>
			<path fill="#CCCCCC" d="M44.3,25.3c0.1,0,0.2,0,0.3,0h0.5c0.5,0,1.1-0.1,1.6-0.2c0.5-0.2,0.9-0.4,1.3-0.7
				c0.4-0.3,0.7-0.7,0.9-1.1c0.2-0.4,0.3-0.9,0.3-1.5c0-1.1-0.4-2-1.1-2.6s-1.6-0.9-2.7-0.9c-0.7,0-1.3,0.1-1.8,0.4s-0.9,0.6-1.3,1
				c-0.3,0.4-0.6,0.9-0.7,1.5c-0.2,0.6-0.2,1.2-0.2,1.8h-2.6c0-1,0.2-2,0.5-2.8c0.3-0.8,0.7-1.6,1.3-2.2s1.2-1.1,2-1.4
				c0.8-0.3,1.8-0.5,2.8-0.5c0.9,0,1.8,0.1,2.6,0.3c0.8,0.2,1.5,0.6,2.1,1c0.6,0.5,1,1.1,1.4,1.8c0.3,0.7,0.5,1.6,0.5,2.6
				c0,1-0.3,1.8-0.8,2.6c-0.6,0.7-1.3,1.3-2.1,1.7v0.1c1.3,0.3,2.3,0.9,2.9,1.8c0.6,0.9,1,2.1,1,3.4c0,1.1-0.2,2-0.6,2.8
				c-0.4,0.8-0.9,1.5-1.6,2c-0.7,0.5-1.4,1-2.3,1.2c-0.9,0.3-1.8,0.4-2.9,0.4c-1.1,0-2.1-0.2-3-0.5c-0.9-0.3-1.6-0.8-2.3-1.3
				c-0.6-0.6-1.1-1.3-1.4-2.2c-0.3-0.9-0.5-1.9-0.5-3h2.6c0,1.4,0.4,2.5,1.2,3.4s1.9,1.3,3.4,1.3c0.6,0,1.2-0.1,1.8-0.3
				c0.6-0.2,1.1-0.5,1.5-0.8c0.4-0.4,0.8-0.8,1-1.3c0.3-0.5,0.4-1.1,0.4-1.7c0-0.7-0.1-1.3-0.4-1.8s-0.6-0.9-1-1.3s-0.9-0.6-1.4-0.8
				c-0.6-0.2-1.2-0.3-1.8-0.3c-0.5,0-1.1,0-1.5,0.1v-2.2C44.1,25.3,44.2,25.3,44.3,25.3z"/>
			<path fill="#CCCCCC" d="M55.6,24.5c0-0.8,0.1-1.7,0.3-2.5c0.2-0.8,0.4-1.6,0.7-2.3c0.3-0.7,0.7-1.4,1.2-1.9c0.5-0.5,1.2-1,2-1.3
				c0.8-0.3,1.7-0.5,2.9-0.5c1.1,0,2.1,0.2,2.9,0.5c0.8,0.3,1.5,0.8,2,1.3c0.5,0.5,0.9,1.2,1.2,1.9c0.3,0.7,0.5,1.5,0.7,2.3
				c0.2,0.8,0.3,1.6,0.3,2.5c0,0.8,0.1,1.7,0.1,2.4s0,1.6-0.1,2.4c0,0.8-0.1,1.7-0.3,2.5s-0.4,1.6-0.7,2.3c-0.3,0.7-0.7,1.3-1.2,1.9
				c-0.5,0.5-1.2,1-2,1.3c-0.8,0.3-1.7,0.5-2.9,0.5c-1.1,0-2.1-0.2-2.9-0.5c-0.8-0.3-1.5-0.7-2-1.3c-0.5-0.5-0.9-1.2-1.2-1.9
				c-0.3-0.7-0.5-1.5-0.7-2.3s-0.3-1.6-0.3-2.5s-0.1-1.7-0.1-2.4S55.5,25.4,55.6,24.5z M58.3,29.6c0,1,0.2,1.9,0.5,2.8
				s0.7,1.6,1.3,2.2c0.6,0.6,1.5,0.9,2.5,0.9c1.1,0,1.9-0.3,2.5-0.9c0.6-0.6,1-1.3,1.3-2.2s0.4-1.8,0.5-2.8c0-1,0.1-1.9,0.1-2.7
				c0-0.5,0-1.1,0-1.7c0-0.6-0.1-1.3-0.2-1.9c-0.1-0.6-0.2-1.3-0.4-1.9c-0.2-0.6-0.4-1.1-0.8-1.6c-0.3-0.5-0.8-0.8-1.3-1.1
				c-0.5-0.3-1.1-0.4-1.8-0.4s-1.3,0.1-1.8,0.4c-0.5,0.3-0.9,0.6-1.3,1.1c-0.3,0.5-0.6,1-0.8,1.6c-0.2,0.6-0.3,1.2-0.4,1.9
				c-0.1,0.6-0.1,1.3-0.2,1.9c0,0.6,0,1.2,0,1.7C58.2,27.7,58.3,28.6,58.3,29.6z"/>
		</g>
	</g>
	<g>
		<g>
			<line fill="none" stroke="#808080" stroke-width="0.5" x1="79.5" y1="471.3" x2="571.1" y2="471.3"/>
			<line fill="none" stroke="#808080" stroke-width="0.5" x1="79.5" y1="382.8" x2="571.1" y2="382.8"/>
			<line fill="none" stroke="#808080" stroke-width="0.5" x1="79.5" y1="294.3" x2="571.1" y2="294.3"/>
			<line fill="none" stroke="#808080" stroke-width="0.5" x1="79.5" y1="205.9" x2="571.1" y2="205.9"/>
			<line fill="none" stroke="#808080" stroke-width="0.5" x1="79.5" y1="117.4" x2="571.1" y2="117.4"/>
			<line fill="none" stroke="#808080" stroke-width="0.5" x1="79.5" y1="28.9" x2="571.1" y2="28.9"/>
		</g>
	</g>
</g>
<g>
	<g>
		<g>
			<rect x="96.7" y="123.9" fill="#BD5E28" width="88.5" height="435.9"/>
			<rect x="219.3" y="41" fill="#BD5E28" width="88.5" height="518.8"/>
			<rect x="342.3" y="124.7" fill="#BD5E28" width="88.5" height="435"/>
			<rect x="464.9" y="86.3" fill="#BD5E28" width="88.5" height="473.5"/>
		</g>
	</g>
</g>
<g>
	<g>
		<g enable-background="new    ">
			<path fill="#CCCCCC" d="M477.1,581.8c0.3-1,0.8-1.9,1.5-2.7s1.5-1.4,2.4-1.8c1-0.4,2.1-0.6,3.4-0.6c1,0,1.9,0.2,2.8,0.5
				c0.9,0.3,1.6,0.7,2.3,1.3c0.7,0.6,1.2,1.3,1.6,2.1c0.4,0.8,0.6,1.8,0.6,2.8c0,1.1-0.2,2-0.5,2.8c-0.3,0.8-0.8,1.4-1.4,2
				c-0.6,0.6-1.2,1.1-1.9,1.6s-1.4,1-2.2,1.4c-0.7,0.5-1.4,1-2.1,1.5c-0.7,0.5-1.3,1.2-1.8,1.9h10v3.7h-15.5c0-1.2,0.2-2.3,0.5-3.2
				s0.8-1.7,1.4-2.4c0.6-0.7,1.3-1.4,2.1-2s1.7-1.2,2.6-1.8c0.5-0.3,1-0.6,1.5-1c0.5-0.3,1-0.7,1.4-1.1c0.4-0.4,0.8-0.9,1.1-1.4
				c0.3-0.5,0.4-1.1,0.4-1.7c0-1-0.3-1.8-0.9-2.4c-0.6-0.6-1.4-0.9-2.3-0.9c-0.6,0-1.2,0.1-1.6,0.4c-0.4,0.3-0.8,0.7-1,1.1
				c-0.3,0.5-0.4,1-0.6,1.6c-0.1,0.6-0.2,1.1-0.2,1.7h-4.1C476.6,584,476.8,582.9,477.1,581.8z"/>
			<path fill="#CCCCCC" d="M493.6,582.4c0.4-1.4,1-2.5,1.7-3.4s1.5-1.5,2.5-1.8s1.9-0.5,3-0.5c1.1,0,2.1,0.2,3,0.5s1.8,1,2.5,1.8
				c0.7,0.8,1.3,2,1.7,3.4c0.4,1.4,0.6,3.1,0.6,5.2c0,2.1-0.2,3.9-0.6,5.3s-1,2.6-1.7,3.4c-0.7,0.8-1.5,1.5-2.5,1.8
				c-0.9,0.4-1.9,0.5-3,0.5c-1,0-2-0.2-3-0.5c-0.9-0.4-1.8-1-2.5-1.8s-1.3-2-1.7-3.4s-0.6-3.2-0.6-5.3
				C493,585.5,493.2,583.8,493.6,582.4z M497.3,589.8c0,0.9,0.2,1.7,0.4,2.5c0.2,0.8,0.5,1.5,1,2c0.5,0.6,1.1,0.8,2,0.8
				c0.9,0,1.6-0.3,2-0.8c0.5-0.6,0.8-1.2,1-2c0.2-0.8,0.3-1.6,0.4-2.5c0-0.9,0.1-1.6,0.1-2.2c0-0.4,0-0.8,0-1.3c0-0.5-0.1-1-0.1-1.6
				c-0.1-0.5-0.2-1.1-0.3-1.6c-0.1-0.5-0.3-1-0.6-1.4c-0.3-0.4-0.6-0.8-1-1c-0.4-0.3-0.9-0.4-1.5-0.4c-0.6,0-1.1,0.1-1.5,0.4
				s-0.7,0.6-1,1s-0.4,0.9-0.6,1.4c-0.1,0.5-0.2,1.1-0.3,1.6c-0.1,0.5-0.1,1.1-0.1,1.6c0,0.5,0,1,0,1.3
				C497.3,588.2,497.3,588.9,497.3,589.8z"/>
			<path fill="#CCCCCC" d="M516.7,598.2v-13.7h-5.3v-3.2c0.7,0,1.5,0,2.2-0.2c0.7-0.1,1.3-0.4,1.9-0.7s1-0.8,1.4-1.3
				c0.4-0.5,0.6-1.2,0.8-2h3.4v21.1H516.7z"/>
			<path fill="#CCCCCC" d="M526.4,593.3v-3.9l9.2-12.3h3.8v12.7h2.8v3.5h-2.8v4.9h-4.1v-4.9H526.4z M535.3,582.5l-5.5,7.3h5.6
				L535.3,582.5L535.3,582.5z"/>
		</g>
		<g enable-background="new    ">
			<path fill="#CCCCCC" d="M354.3,581.8c0.3-1,0.8-1.9,1.4-2.7s1.5-1.4,2.4-1.8c1-0.4,2.1-0.6,3.4-0.6c1,0,1.9,0.2,2.8,0.5
				c0.9,0.3,1.6,0.7,2.3,1.3c0.7,0.6,1.2,1.3,1.6,2.1c0.4,0.8,0.6,1.8,0.6,2.8c0,1.1-0.2,2-0.5,2.8c-0.3,0.8-0.8,1.4-1.4,2
				c-0.6,0.6-1.2,1.1-1.9,1.6c-0.7,0.5-1.4,1-2.2,1.4c-0.7,0.5-1.4,1-2.1,1.5c-0.7,0.5-1.3,1.2-1.8,1.9h10v3.7h-15.5
				c0-1.2,0.2-2.3,0.5-3.2c0.4-0.9,0.8-1.7,1.4-2.4c0.6-0.7,1.3-1.4,2.1-2c0.8-0.6,1.7-1.2,2.6-1.8c0.5-0.3,1-0.6,1.5-1
				c0.5-0.3,1-0.7,1.4-1.1c0.4-0.4,0.8-0.9,1.1-1.4c0.3-0.5,0.4-1.1,0.4-1.7c0-1-0.3-1.8-0.9-2.4s-1.4-0.9-2.3-0.9
				c-0.6,0-1.2,0.1-1.6,0.4c-0.4,0.3-0.8,0.7-1,1.1c-0.3,0.5-0.4,1-0.6,1.6c-0.1,0.6-0.2,1.1-0.2,1.7h-4.1
				C353.9,584,354,582.9,354.3,581.8z"/>
			<path fill="#CCCCCC" d="M370.8,582.4c0.4-1.4,1-2.5,1.7-3.4c0.7-0.8,1.5-1.5,2.5-1.8s1.9-0.5,3-0.5c1.1,0,2.1,0.2,3,0.5
				s1.8,1,2.5,1.8c0.7,0.8,1.3,2,1.7,3.4c0.4,1.4,0.6,3.1,0.6,5.2c0,2.1-0.2,3.9-0.6,5.3c-0.4,1.4-1,2.6-1.7,3.4
				c-0.7,0.8-1.5,1.5-2.5,1.8c-0.9,0.4-1.9,0.5-3,0.5c-1,0-2-0.2-3-0.5c-0.9-0.4-1.8-1-2.5-1.8c-0.7-0.8-1.3-2-1.7-3.4
				c-0.4-1.4-0.6-3.2-0.6-5.3C370.2,585.5,370.4,583.8,370.8,582.4z M374.6,589.8c0,0.9,0.2,1.7,0.4,2.5c0.2,0.8,0.5,1.5,1,2
				c0.5,0.6,1.1,0.8,2,0.8c0.9,0,1.6-0.3,2-0.8c0.5-0.6,0.8-1.2,1-2c0.2-0.8,0.3-1.6,0.4-2.5c0-0.9,0.1-1.6,0.1-2.2
				c0-0.4,0-0.8,0-1.3s-0.1-1-0.1-1.6c-0.1-0.5-0.2-1.1-0.3-1.6c-0.1-0.5-0.3-1-0.6-1.4c-0.3-0.4-0.6-0.8-1-1
				c-0.4-0.3-0.9-0.4-1.5-0.4c-0.6,0-1.1,0.1-1.5,0.4s-0.7,0.6-1,1c-0.3,0.4-0.4,0.9-0.6,1.4c-0.1,0.5-0.2,1.1-0.3,1.6
				c-0.1,0.5-0.1,1.1-0.1,1.6s0,1,0,1.3C374.5,588.2,374.5,588.9,374.6,589.8z"/>
			<path fill="#CCCCCC" d="M393.9,598.2v-13.7h-5.3v-3.2c0.7,0,1.5,0,2.2-0.2c0.7-0.1,1.3-0.4,1.9-0.7c0.6-0.3,1-0.8,1.4-1.3
				s0.6-1.2,0.8-2h3.4v21.1H393.9z"/>
			<path fill="#CCCCCC" d="M411.5,585.6c0.5,0,1-0.2,1.5-0.3s0.8-0.5,1.1-0.8c0.3-0.4,0.4-0.8,0.4-1.5c0-0.9-0.3-1.6-0.9-2.1
				c-0.6-0.5-1.3-0.7-2.1-0.7c-1.1,0-1.9,0.4-2.5,1.1c-0.6,0.7-0.8,1.6-0.8,2.7h-4.1c0-1.1,0.2-2.1,0.6-3s0.8-1.7,1.5-2.3
				s1.4-1.1,2.3-1.5c0.9-0.4,1.9-0.5,3-0.5c0.8,0,1.7,0.1,2.5,0.4c0.8,0.3,1.6,0.6,2.3,1.1c0.7,0.5,1.2,1.1,1.6,1.8
				c0.4,0.7,0.6,1.6,0.6,2.5c0,1-0.2,1.9-0.7,2.7c-0.5,0.8-1.2,1.3-2.2,1.6v0.1c1.2,0.3,2.1,0.8,2.7,1.7c0.7,0.9,1,1.9,1,3.1
				c0,1.1-0.2,2.1-0.6,3c-0.4,0.9-1,1.6-1.7,2.2s-1.6,1-2.5,1.3s-1.9,0.5-3,0.5c-1.2,0-2.3-0.2-3.2-0.5c-1-0.3-1.8-0.8-2.5-1.5
				c-0.7-0.7-1.2-1.5-1.6-2.4c-0.4-0.9-0.5-2-0.5-3.3h4.1c0,0.6,0.1,1.1,0.3,1.6c0.2,0.5,0.4,1,0.7,1.3c0.3,0.4,0.7,0.7,1.1,0.9
				c0.5,0.2,1,0.3,1.6,0.3c1,0,1.8-0.3,2.4-0.9c0.7-0.6,1-1.4,1-2.4c0-0.8-0.2-1.4-0.5-1.8c-0.3-0.4-0.7-0.7-1.2-0.9s-1-0.3-1.6-0.3
				c-0.6,0-1.1,0-1.6,0v-3C410.5,585.7,411,585.7,411.5,585.6z"/>
		</g>
		<g enable-background="new    ">
			<path fill="#CCCCCC" d="M231.6,581.8c0.3-1,0.8-1.9,1.4-2.7s1.5-1.4,2.4-1.8c1-0.4,2.1-0.6,3.4-0.6c1,0,1.9,0.2,2.8,0.5
				c0.9,0.3,1.6,0.7,2.3,1.3c0.7,0.6,1.2,1.3,1.6,2.1c0.4,0.8,0.6,1.8,0.6,2.8c0,1.1-0.2,2-0.5,2.8c-0.3,0.8-0.8,1.4-1.4,2
				c-0.6,0.6-1.2,1.1-1.9,1.6c-0.7,0.5-1.4,1-2.2,1.4c-0.7,0.5-1.4,1-2.1,1.5c-0.7,0.5-1.3,1.2-1.8,1.9h10v3.7h-15.5
				c0-1.2,0.2-2.3,0.5-3.2c0.4-0.9,0.8-1.7,1.4-2.4c0.6-0.7,1.3-1.4,2.1-2c0.8-0.6,1.7-1.2,2.6-1.8c0.5-0.3,1-0.6,1.5-1
				c0.5-0.3,1-0.7,1.4-1.1c0.4-0.4,0.8-0.9,1.1-1.4c0.3-0.5,0.4-1.1,0.4-1.7c0-1-0.3-1.8-0.9-2.4s-1.4-0.9-2.3-0.9
				c-0.6,0-1.2,0.1-1.6,0.4c-0.4,0.3-0.8,0.7-1,1.1c-0.3,0.5-0.4,1-0.6,1.6c-0.1,0.6-0.2,1.1-0.2,1.7h-4.1
				C231.1,584,231.3,582.9,231.6,581.8z"/>
			<path fill="#CCCCCC" d="M248.1,582.4c0.4-1.4,1-2.5,1.7-3.4c0.7-0.8,1.5-1.5,2.5-1.8s1.9-0.5,3-0.5c1.1,0,2.1,0.2,3,0.5
				s1.8,1,2.5,1.8c0.7,0.8,1.3,2,1.7,3.4c0.4,1.4,0.6,3.1,0.6,5.2c0,2.1-0.2,3.9-0.6,5.3c-0.4,1.4-1,2.6-1.7,3.4
				c-0.7,0.8-1.5,1.5-2.5,1.8c-0.9,0.4-1.9,0.5-3,0.5c-1,0-2-0.2-3-0.5c-0.9-0.4-1.8-1-2.5-1.8c-0.7-0.8-1.3-2-1.7-3.4
				c-0.4-1.4-0.6-3.2-0.6-5.3C247.5,585.5,247.7,583.8,248.1,582.4z M251.8,589.8c0,0.9,0.2,1.7,0.4,2.5c0.2,0.8,0.5,1.5,1,2
				c0.5,0.6,1.1,0.8,2,0.8c0.9,0,1.6-0.3,2-0.8c0.5-0.6,0.8-1.2,1-2c0.2-0.8,0.3-1.6,0.4-2.5c0-0.9,0.1-1.6,0.1-2.2
				c0-0.4,0-0.8,0-1.3s-0.1-1-0.1-1.6c-0.1-0.5-0.2-1.1-0.3-1.6c-0.1-0.5-0.3-1-0.6-1.4c-0.3-0.4-0.6-0.8-1-1
				c-0.4-0.3-0.9-0.4-1.5-0.4c-0.6,0-1.1,0.1-1.5,0.4s-0.7,0.6-1,1c-0.3,0.4-0.4,0.9-0.6,1.4c-0.1,0.5-0.2,1.1-0.3,1.6
				c-0.1,0.5-0.1,1.1-0.1,1.6s0,1,0,1.3C251.8,588.2,251.8,588.9,251.8,589.8z"/>
			<path fill="#CCCCCC" d="M271.2,598.2v-13.7h-5.3v-3.2c0.7,0,1.5,0,2.2-0.2c0.7-0.1,1.3-0.4,1.9-0.7c0.6-0.3,1-0.8,1.4-1.3
				c0.4-0.5,0.6-1.2,0.8-2h3.4v21.1H271.2z"/>
			<path fill="#CCCCCC" d="M282,581.8c0.3-1,0.8-1.9,1.4-2.7s1.5-1.4,2.4-1.8c1-0.4,2.1-0.6,3.4-0.6c1,0,1.9,0.2,2.8,0.5
				c0.9,0.3,1.6,0.7,2.3,1.3c0.7,0.6,1.2,1.3,1.6,2.1c0.4,0.8,0.6,1.8,0.6,2.8c0,1.1-0.2,2-0.5,2.8c-0.3,0.8-0.8,1.4-1.4,2
				c-0.6,0.6-1.2,1.1-1.9,1.6c-0.7,0.5-1.4,1-2.2,1.4c-0.7,0.5-1.4,1-2.1,1.5c-0.7,0.5-1.3,1.2-1.8,1.9h10v3.7h-15.5
				c0-1.2,0.2-2.3,0.5-3.2c0.4-0.9,0.8-1.7,1.4-2.4c0.6-0.7,1.3-1.4,2.1-2c0.8-0.6,1.7-1.2,2.6-1.8c0.5-0.3,1-0.6,1.5-1
				c0.5-0.3,1-0.7,1.4-1.1c0.4-0.4,0.8-0.9,1.1-1.4c0.3-0.5,0.4-1.1,0.4-1.7c0-1-0.3-1.8-0.9-2.4s-1.4-0.9-2.3-0.9
				c-0.6,0-1.2,0.1-1.6,0.4c-0.4,0.3-0.8,0.7-1,1.1c-0.3,0.5-0.4,1-0.6,1.6c-0.1,0.6-0.2,1.1-0.2,1.7h-4.1
				C281.5,584,281.7,582.9,282,581.8z"/>
		</g>
		<g enable-background="new    ">
			<path fill="#CCCCCC" d="M108.8,581.8c0.3-1,0.8-1.9,1.4-2.7s1.5-1.4,2.4-1.8c1-0.4,2.1-0.6,3.4-0.6c1,0,1.9,0.2,2.8,0.5
				c0.9,0.3,1.6,0.7,2.3,1.3c0.7,0.6,1.2,1.3,1.6,2.1c0.4,0.8,0.6,1.8,0.6,2.8c0,1.1-0.2,2-0.5,2.8c-0.3,0.8-0.8,1.4-1.4,2
				c-0.6,0.6-1.2,1.1-1.9,1.6c-0.7,0.5-1.4,1-2.2,1.4c-0.7,0.5-1.4,1-2.1,1.5c-0.7,0.5-1.3,1.2-1.8,1.9h10v3.7h-15.5
				c0-1.2,0.2-2.3,0.5-3.2c0.4-0.9,0.8-1.7,1.4-2.4c0.6-0.7,1.3-1.4,2.1-2c0.8-0.6,1.7-1.2,2.6-1.8c0.5-0.3,1-0.6,1.5-1
				c0.5-0.3,1-0.7,1.4-1.1c0.4-0.4,0.8-0.9,1.1-1.4c0.3-0.5,0.4-1.1,0.4-1.7c0-1-0.3-1.8-0.9-2.4s-1.4-0.9-2.3-0.9
				c-0.6,0-1.2,0.1-1.6,0.4c-0.4,0.3-0.8,0.7-1,1.1c-0.3,0.5-0.4,1-0.6,1.6c-0.1,0.6-0.2,1.1-0.2,1.7h-4.1
				C108.4,584,108.5,582.9,108.8,581.8z"/>
			<path fill="#CCCCCC" d="M125.3,582.4c0.4-1.4,1-2.5,1.7-3.4c0.7-0.8,1.5-1.5,2.5-1.8s1.9-0.5,3-0.5c1.1,0,2.1,0.2,3,0.5
				s1.8,1,2.5,1.8c0.7,0.8,1.3,2,1.7,3.4c0.4,1.4,0.6,3.1,0.6,5.2c0,2.1-0.2,3.9-0.6,5.3c-0.4,1.4-1,2.6-1.7,3.4
				c-0.7,0.8-1.5,1.5-2.5,1.8c-0.9,0.4-1.9,0.5-3,0.5c-1,0-2-0.2-3-0.5c-0.9-0.4-1.8-1-2.5-1.8c-0.7-0.8-1.3-2-1.7-3.4
				c-0.4-1.4-0.6-3.2-0.6-5.3C124.7,585.5,124.9,583.8,125.3,582.4z M129.1,589.8c0,0.9,0.2,1.7,0.4,2.5c0.2,0.8,0.5,1.5,1,2
				c0.5,0.6,1.1,0.8,2,0.8c0.9,0,1.6-0.3,2-0.8c0.5-0.6,0.8-1.2,1-2c0.2-0.8,0.3-1.6,0.4-2.5c0-0.9,0.1-1.6,0.1-2.2
				c0-0.4,0-0.8,0-1.3s-0.1-1-0.1-1.6c-0.1-0.5-0.2-1.1-0.3-1.6c-0.1-0.5-0.3-1-0.6-1.4c-0.3-0.4-0.6-0.8-1-1
				c-0.4-0.3-0.9-0.4-1.5-0.4c-0.6,0-1.1,0.1-1.5,0.4s-0.7,0.6-1,1c-0.3,0.4-0.4,0.9-0.6,1.4c-0.1,0.5-0.2,1.1-0.3,1.6
				c-0.1,0.5-0.1,1.1-0.1,1.6s0,1,0,1.3C129,588.2,129,588.9,129.1,589.8z"/>
			<path fill="#CCCCCC" d="M148.4,598.2v-13.7h-5.3v-3.2c0.7,0,1.5,0,2.2-0.2c0.7-0.1,1.3-0.4,1.9-0.7c0.6-0.3,1-0.8,1.4-1.3
				c0.4-0.5,0.6-1.2,0.8-2h3.4v21.1H148.4z"/>
			<path fill="#CCCCCC" d="M165.2,598.2v-13.7h-5.3v-3.2c0.7,0,1.5,0,2.2-0.2c0.7-0.1,1.3-0.4,1.9-0.7c0.6-0.3,1-0.8,1.4-1.3
				c0.4-0.5,0.6-1.2,0.8-2h3.4v21.1H165.2z"/>
		</g>
	</g>
</g>
<g>
	<line fill="none" stroke="#808080" x1="79.5" y1="559.8" x2="570.6" y2="559.8"/>
</g>
</svg>
