<?xml version="1.0" encoding="utf-8"?>
<!-- Generator: Adobe Illustrator 17.1.0, SVG Export Plug-In . SVG Version: 6.00 Build 0)  -->
<!DOCTYPE svg PUBLIC "-//W3C//DTD SVG 1.1//EN" "http://www.w3.org/Graphics/SVG/1.1/DTD/svg11.dtd">
<svg version="1.1" id="Layer_1" xmlns="http://www.w3.org/2000/svg" xmlns:xlink="http://www.w3.org/1999/xlink" x="0px" y="0px"
	 viewBox="0 0 142.7 141.8" enable-background="new 0 0 142.7 141.8" xml:space="preserve">
<g>
	<g>
		<g>
			<text transform="matrix(1 0 0 1 9.328 132.0247)" fill="#CCCCCC" font-family="'HelveticaNeue'" font-size="7">-500</text>
		</g>
		<g>
			<text transform="matrix(1 0 0 1 19.8358 116.679)" fill="#CCCCCC" font-family="'HelveticaNeue'" font-size="7">0</text>
		</g>
		<g>
			<text transform="matrix(1 0 0 1 12.0516 101.3333)" fill="#CCCCCC" font-family="'HelveticaNeue'" font-size="7">500</text>
		</g>
		<g>
			<text transform="matrix(1 0 0 1 6.2137 85.9876)" fill="#CCCCCC" font-family="'HelveticaNeue'" font-size="7">1,000</text>
		</g>
		<g>
			<text transform="matrix(1 0 0 1 6.2137 70.6409)" fill="#CCCCCC" font-family="'HelveticaNeue'" font-size="7">1,500</text>
		</g>
		<g>
			<text transform="matrix(1 0 0 1 6.2137 55.2952)" fill="#CCCCCC" font-family="'HelveticaNeue'" font-size="7">2,000</text>
		</g>
		<g>
			<text transform="matrix(1 0 0 1 6.2137 39.9495)" fill="#CCCCCC" font-family="'HelveticaNeue'" font-size="7">2,500</text>
		</g>
		<g>
			<text transform="matrix(1 0 0 1 6.2137 24.6028)" fill="#CCCCCC" font-family="'HelveticaNeue'" font-size="7">3,000</text>
		</g>
		<g>
			<text transform="matrix(1 0 0 1 2.3212 9.2571)" fill="#CCCCCC" font-family="'HelveticaNeue'" font-size="7">$3,500</text>
		</g>
	</g>
	<g>
		<g>
			<line fill="none" stroke="#808080" stroke-width="0.5" x1="25.5" y1="130" x2="138.8" y2="130"/>
			<line fill="none" stroke="#000000" stroke-miterlimit="10" x1="25.5" y1="114.7" x2="28.3" y2="114.7"/>
			<line fill="none" stroke="#808080" stroke-width="0.5" x1="25.5" y1="99.3" x2="139.3" y2="99.3"/>
			<line fill="none" stroke="#808080" stroke-width="0.5" x1="25.5" y1="84" x2="139.3" y2="84"/>
			<line fill="none" stroke="#808080" stroke-width="0.5" x1="25.5" y1="68.6" x2="139.3" y2="68.6"/>
			<line fill="none" stroke="#808080" stroke-width="0.5" x1="25.5" y1="53.3" x2="139.3" y2="53.3"/>
			<line fill="none" stroke="#808080" stroke-width="0.5" x1="25.5" y1="38" x2="139.3" y2="38"/>
			<line fill="none" stroke="#808080" stroke-width="0.5" x1="25.5" y1="22.6" x2="139.3" y2="22.6"/>
			<line fill="none" stroke="#808080" stroke-width="0.5" x1="25.5" y1="7.3" x2="139.3" y2="7.3"/>
		</g>
		<g>
		</g>
	</g>
</g>
<g>
	<g>
		<g>
			<rect x="29.5" y="114.7" fill="#BD5E28" width="20.4" height="2"/>
			<rect x="57.9" y="101.9" fill="#BD5E28" width="20.4" height="12.7"/>
			<rect x="86.2" y="97.3" fill="#BD5E28" width="20.4" height="17.4"/>
			<rect x="114.6" y="21.3" fill="#BD5E28" width="20.4" height="93.3"/>
		</g>
	</g>
</g>
<g>
	<g>
		<text transform="matrix(1 0 0 1 117.0702 138.9378)" fill="#CCCCCC" font-family="'HelveticaNeue-Bold'" font-size="7">2014</text>
	</g>
	<g>
		<text transform="matrix(1 0 0 1 88.6835 138.9378)" fill="#CCCCCC" font-family="'HelveticaNeue-Bold'" font-size="7">2013</text>
	</g>
	<g>
		<text transform="matrix(1 0 0 1 60.2967 138.9378)" fill="#CCCCCC" font-family="'HelveticaNeue-Bold'" font-size="7">2012</text>
	</g>
	<g>
		<text transform="matrix(1 0 0 1 31.91 138.9378)" fill="#CCCCCC" font-family="'HelveticaNeue-Bold'" font-size="7">2011</text>
	</g>
</g>
<text transform="matrix(1 0 0 1 113.3018 15.9131)" fill="#FFFFFF" font-family="'HelveticaNeue-Bold'" font-size="7.5">$3,041</text>
<g>
	<line fill="none" stroke="#000000" stroke-width="0.5" stroke-miterlimit="10" x1="25.5" y1="114.7" x2="139" y2="114.7"/>
</g>
</svg>
