<?xml version="1.0" encoding="utf-8"?>
<!-- Generator: Adobe Illustrator 17.1.0, SVG Export Plug-In . SVG Version: 6.00 Build 0)  -->
<!DOCTYPE svg PUBLIC "-//W3C//DTD SVG 1.1//EN" "http://www.w3.org/Graphics/SVG/1.1/DTD/svg11.dtd">
<svg version="1.1" id="Layer_1" xmlns="http://www.w3.org/2000/svg" xmlns:xlink="http://www.w3.org/1999/xlink" x="0px" y="0px"
	 viewBox="0 0 603 612" enable-background="new 0 0 603 612" xml:space="preserve">
<g>
	<g>
		<g>
			<g enable-background="new    ">
				<path fill="#CCCCCC" d="M47.1,560.2v2.4h-8.7v-2.4H47.1z"/>
				<path fill="#CCCCCC" d="M54.1,551l-1.1,6.2l0.1,0.1c0.5-0.5,1.1-0.9,1.8-1.2c0.7-0.3,1.5-0.4,2.2-0.4c0.9,0,1.8,0.2,2.7,0.5
					c0.8,0.3,1.6,0.8,2.2,1.4c0.6,0.6,1.1,1.4,1.5,2.3c0.4,0.9,0.5,2,0.5,3.2c0,0.9-0.2,1.8-0.5,2.6c-0.3,0.9-0.8,1.6-1.4,2.3
					c-0.6,0.7-1.4,1.2-2.3,1.6s-2,0.6-3.3,0.6c-0.9,0-1.8-0.1-2.6-0.4c-0.8-0.3-1.5-0.7-2.2-1.2c-0.6-0.5-1.1-1.2-1.5-1.9
					c-0.4-0.8-0.6-1.6-0.6-2.6h2.6c0,0.5,0.2,1.1,0.4,1.5c0.2,0.5,0.5,0.9,0.9,1.2c0.4,0.4,0.9,0.6,1.4,0.8s1.1,0.3,1.8,0.3
					c0.6,0,1.2-0.1,1.7-0.3c0.6-0.2,1-0.5,1.5-1c0.4-0.4,0.7-1,1-1.6c0.2-0.6,0.4-1.4,0.4-2.2c0-0.7-0.1-1.4-0.3-1.9
					c-0.2-0.6-0.6-1.1-1-1.5c-0.4-0.4-0.9-0.8-1.5-1c-0.6-0.2-1.3-0.4-2-0.4c-0.8,0-1.6,0.2-2.3,0.6c-0.7,0.4-1.2,0.9-1.7,1.5
					l-2.2-0.1l2-11.1h10.6v2.3H54.1z"/>
				<path fill="#CCCCCC" d="M66.7,556.8c0-0.8,0.1-1.7,0.3-2.5c0.2-0.8,0.4-1.6,0.7-2.3c0.3-0.7,0.7-1.4,1.2-1.9
					c0.5-0.5,1.2-1,2-1.3c0.8-0.3,1.7-0.5,2.9-0.5c1.1,0,2.1,0.2,2.9,0.5c0.8,0.3,1.5,0.8,2,1.3c0.5,0.5,0.9,1.2,1.2,1.9
					c0.3,0.7,0.5,1.5,0.7,2.3c0.2,0.8,0.3,1.6,0.3,2.5c0,0.8,0.1,1.7,0.1,2.4s0,1.6-0.1,2.4c0,0.8-0.1,1.7-0.3,2.5s-0.4,1.6-0.7,2.3
					c-0.3,0.7-0.7,1.3-1.2,1.9c-0.5,0.5-1.2,1-2,1.3c-0.8,0.3-1.7,0.5-2.9,0.5c-1.1,0-2.1-0.2-2.9-0.5c-0.8-0.3-1.5-0.7-2-1.3
					c-0.5-0.5-0.9-1.2-1.2-1.9c-0.3-0.7-0.5-1.5-0.7-2.3s-0.3-1.6-0.3-2.5s-0.1-1.7-0.1-2.4S66.7,557.7,66.7,556.8z M69.4,562
					c0,1,0.2,1.9,0.5,2.8s0.7,1.6,1.3,2.2c0.6,0.6,1.5,0.9,2.5,0.9c1.1,0,1.9-0.3,2.5-0.9c0.6-0.6,1-1.3,1.3-2.2s0.4-1.8,0.5-2.8
					c0-1,0.1-1.9,0.1-2.7c0-0.5,0-1.1,0-1.7c0-0.6-0.1-1.3-0.2-1.9c-0.1-0.6-0.2-1.3-0.4-1.9c-0.2-0.6-0.4-1.1-0.8-1.6
					c-0.3-0.5-0.8-0.8-1.3-1.1c-0.5-0.3-1.1-0.4-1.8-0.4s-1.3,0.1-1.8,0.4c-0.5,0.3-0.9,0.6-1.3,1.1c-0.3,0.5-0.6,1-0.8,1.6
					c-0.2,0.6-0.3,1.2-0.4,1.9c-0.1,0.6-0.1,1.3-0.2,1.9c0,0.6,0,1.2,0,1.7C69.4,560.1,69.4,561,69.4,562z"/>
				<path fill="#CCCCCC" d="M83.5,556.8c0-0.8,0.1-1.7,0.3-2.5c0.2-0.8,0.4-1.6,0.7-2.3c0.3-0.7,0.7-1.4,1.2-1.9
					c0.5-0.5,1.2-1,2-1.3c0.8-0.3,1.7-0.5,2.9-0.5c1.1,0,2.1,0.2,2.9,0.5c0.8,0.3,1.5,0.8,2,1.3c0.5,0.5,0.9,1.2,1.2,1.9
					c0.3,0.7,0.5,1.5,0.7,2.3c0.2,0.8,0.3,1.6,0.3,2.5c0,0.8,0.1,1.7,0.1,2.4s0,1.6-0.1,2.4c0,0.8-0.1,1.7-0.3,2.5s-0.4,1.6-0.7,2.3
					c-0.3,0.7-0.7,1.3-1.2,1.9c-0.5,0.5-1.2,1-2,1.3c-0.8,0.3-1.7,0.5-2.9,0.5c-1.1,0-2.1-0.2-2.9-0.5c-0.8-0.3-1.5-0.7-2-1.3
					c-0.5-0.5-0.9-1.2-1.2-1.9c-0.3-0.7-0.5-1.5-0.7-2.3s-0.3-1.6-0.3-2.5s-0.1-1.7-0.1-2.4S83.4,557.7,83.5,556.8z M86.2,562
					c0,1,0.2,1.9,0.5,2.8s0.7,1.6,1.3,2.2c0.6,0.6,1.5,0.9,2.5,0.9c1.1,0,1.9-0.3,2.5-0.9c0.6-0.6,1-1.3,1.3-2.2s0.4-1.8,0.5-2.8
					c0-1,0.1-1.9,0.1-2.7c0-0.5,0-1.1,0-1.7c0-0.6-0.1-1.3-0.2-1.9c-0.1-0.6-0.2-1.3-0.4-1.9c-0.2-0.6-0.4-1.1-0.8-1.6
					c-0.3-0.5-0.8-0.8-1.3-1.1c-0.5-0.3-1.1-0.4-1.8-0.4s-1.3,0.1-1.8,0.4c-0.5,0.3-0.9,0.6-1.3,1.1c-0.3,0.5-0.6,1-0.8,1.6
					c-0.2,0.6-0.3,1.2-0.4,1.9c-0.1,0.6-0.1,1.3-0.2,1.9c0,0.6,0,1.2,0,1.7C86.1,560.1,86.2,561,86.2,562z"/>
			</g>
		</g>
		<g>
			<g enable-background="new    ">
				<path fill="#CCCCCC" d="M83.5,490.6c0-0.8,0.1-1.7,0.3-2.5c0.2-0.8,0.4-1.6,0.7-2.3c0.3-0.7,0.7-1.4,1.2-1.9
					c0.5-0.5,1.2-1,2-1.3c0.8-0.3,1.7-0.5,2.9-0.5c1.1,0,2.1,0.2,2.9,0.5c0.8,0.3,1.5,0.8,2,1.3c0.5,0.5,0.9,1.2,1.2,1.9
					c0.3,0.7,0.5,1.5,0.7,2.3c0.2,0.8,0.3,1.6,0.3,2.5c0,0.8,0.1,1.7,0.1,2.4s0,1.6-0.1,2.4c0,0.8-0.1,1.7-0.3,2.5s-0.4,1.6-0.7,2.3
					c-0.3,0.7-0.7,1.3-1.2,1.9c-0.5,0.5-1.2,1-2,1.3c-0.8,0.3-1.7,0.5-2.9,0.5c-1.1,0-2.1-0.2-2.9-0.5c-0.8-0.3-1.5-0.7-2-1.3
					c-0.5-0.5-0.9-1.2-1.2-1.9c-0.3-0.7-0.5-1.5-0.7-2.3s-0.3-1.6-0.3-2.5s-0.1-1.7-0.1-2.4S83.5,491.5,83.5,490.6z M86.2,495.7
					c0,1,0.2,1.9,0.5,2.8s0.7,1.6,1.3,2.2c0.6,0.6,1.5,0.9,2.5,0.9c1.1,0,1.9-0.3,2.5-0.9c0.6-0.6,1-1.3,1.3-2.2s0.4-1.8,0.5-2.8
					c0-1,0.1-1.9,0.1-2.7c0-0.5,0-1.1,0-1.7c0-0.6-0.1-1.3-0.2-1.9c-0.1-0.6-0.2-1.3-0.4-1.9c-0.2-0.6-0.4-1.1-0.8-1.6
					c-0.3-0.5-0.8-0.8-1.3-1.1c-0.5-0.3-1.1-0.4-1.8-0.4s-1.3,0.1-1.8,0.4c-0.5,0.3-0.9,0.6-1.3,1.1c-0.3,0.5-0.6,1-0.8,1.6
					c-0.2,0.6-0.3,1.2-0.4,1.9c-0.1,0.6-0.1,1.3-0.2,1.9c0,0.6,0,1.2,0,1.7C86.2,493.8,86.2,494.7,86.2,495.7z"/>
			</g>
		</g>
		<g>
			<g enable-background="new    ">
				<path fill="#CCCCCC" d="M54.1,418.6l-1.1,6.2l0.1,0.1c0.5-0.5,1.1-0.9,1.8-1.2c0.7-0.3,1.5-0.4,2.2-0.4c0.9,0,1.8,0.2,2.7,0.5
					c0.8,0.3,1.6,0.8,2.2,1.4c0.6,0.6,1.1,1.4,1.5,2.3c0.4,0.9,0.5,2,0.5,3.2c0,0.9-0.2,1.8-0.5,2.6c-0.3,0.9-0.8,1.6-1.4,2.3
					c-0.6,0.7-1.4,1.2-2.3,1.6s-2,0.6-3.3,0.6c-0.9,0-1.8-0.1-2.6-0.4c-0.8-0.3-1.5-0.7-2.2-1.2c-0.6-0.5-1.1-1.2-1.5-1.9
					c-0.4-0.8-0.6-1.6-0.6-2.6h2.6c0,0.5,0.2,1.1,0.4,1.5c0.2,0.5,0.5,0.9,0.9,1.2c0.4,0.4,0.9,0.6,1.4,0.8s1.1,0.3,1.8,0.3
					c0.6,0,1.2-0.1,1.7-0.3c0.6-0.2,1-0.5,1.5-1c0.4-0.4,0.7-1,1-1.6c0.2-0.6,0.4-1.4,0.4-2.2c0-0.7-0.1-1.4-0.3-1.9
					c-0.2-0.6-0.6-1.1-1-1.5c-0.4-0.4-0.9-0.8-1.5-1c-0.6-0.2-1.3-0.4-2-0.4c-0.8,0-1.6,0.2-2.3,0.6c-0.7,0.4-1.2,0.9-1.7,1.5
					l-2.2-0.1l2-11.1h10.6v2.3H54.1z"/>
				<path fill="#CCCCCC" d="M66.7,424.4c0-0.8,0.1-1.7,0.3-2.5c0.2-0.8,0.4-1.6,0.7-2.3c0.3-0.7,0.7-1.4,1.2-1.9
					c0.5-0.5,1.2-1,2-1.3c0.8-0.3,1.7-0.5,2.9-0.5c1.1,0,2.1,0.2,2.9,0.5c0.8,0.3,1.5,0.8,2,1.3c0.5,0.5,0.9,1.2,1.2,1.9
					c0.3,0.7,0.5,1.5,0.7,2.3c0.2,0.8,0.3,1.6,0.3,2.5c0,0.8,0.1,1.7,0.1,2.4s0,1.6-0.1,2.4c0,0.8-0.1,1.7-0.3,2.5s-0.4,1.6-0.7,2.3
					c-0.3,0.7-0.7,1.3-1.2,1.9c-0.5,0.5-1.2,1-2,1.3c-0.8,0.3-1.7,0.5-2.9,0.5c-1.1,0-2.1-0.2-2.9-0.5c-0.8-0.3-1.5-0.7-2-1.3
					c-0.5-0.5-0.9-1.2-1.2-1.9c-0.3-0.7-0.5-1.5-0.7-2.3s-0.3-1.6-0.3-2.5s-0.1-1.7-0.1-2.4S66.7,425.2,66.7,424.4z M69.4,429.5
					c0,1,0.2,1.9,0.5,2.8s0.7,1.6,1.3,2.2c0.6,0.6,1.5,0.9,2.5,0.9c1.1,0,1.9-0.3,2.5-0.9c0.6-0.6,1-1.3,1.3-2.2s0.4-1.8,0.5-2.8
					c0-1,0.1-1.9,0.1-2.7c0-0.5,0-1.1,0-1.7c0-0.6-0.1-1.3-0.2-1.9c-0.1-0.6-0.2-1.3-0.4-1.9c-0.2-0.6-0.4-1.1-0.8-1.6
					c-0.3-0.5-0.8-0.8-1.3-1.1c-0.5-0.3-1.1-0.4-1.8-0.4s-1.3,0.1-1.8,0.4c-0.5,0.3-0.9,0.6-1.3,1.1c-0.3,0.5-0.6,1-0.8,1.6
					c-0.2,0.6-0.3,1.2-0.4,1.9c-0.1,0.6-0.1,1.3-0.2,1.9c0,0.6,0,1.2,0,1.7C69.4,427.6,69.4,428.5,69.4,429.5z"/>
				<path fill="#CCCCCC" d="M83.5,424.4c0-0.8,0.1-1.7,0.3-2.5c0.2-0.8,0.4-1.6,0.7-2.3c0.3-0.7,0.7-1.4,1.2-1.9
					c0.5-0.5,1.2-1,2-1.3c0.8-0.3,1.7-0.5,2.9-0.5c1.1,0,2.1,0.2,2.9,0.5c0.8,0.3,1.5,0.8,2,1.3c0.5,0.5,0.9,1.2,1.2,1.9
					c0.3,0.7,0.5,1.5,0.7,2.3c0.2,0.8,0.3,1.6,0.3,2.5c0,0.8,0.1,1.7,0.1,2.4s0,1.6-0.1,2.4c0,0.8-0.1,1.7-0.3,2.5s-0.4,1.6-0.7,2.3
					c-0.3,0.7-0.7,1.3-1.2,1.9c-0.5,0.5-1.2,1-2,1.3c-0.8,0.3-1.7,0.5-2.9,0.5c-1.1,0-2.1-0.2-2.9-0.5c-0.8-0.3-1.5-0.7-2-1.3
					c-0.5-0.5-0.9-1.2-1.2-1.9c-0.3-0.7-0.5-1.5-0.7-2.3s-0.3-1.6-0.3-2.5s-0.1-1.7-0.1-2.4S83.5,425.2,83.5,424.4z M86.2,429.5
					c0,1,0.2,1.9,0.5,2.8s0.7,1.6,1.3,2.2c0.6,0.6,1.5,0.9,2.5,0.9c1.1,0,1.9-0.3,2.5-0.9c0.6-0.6,1-1.3,1.3-2.2s0.4-1.8,0.5-2.8
					c0-1,0.1-1.9,0.1-2.7c0-0.5,0-1.1,0-1.7c0-0.6-0.1-1.3-0.2-1.9c-0.1-0.6-0.2-1.3-0.4-1.9c-0.2-0.6-0.4-1.1-0.8-1.6
					c-0.3-0.5-0.8-0.8-1.3-1.1c-0.5-0.3-1.1-0.4-1.8-0.4s-1.3,0.1-1.8,0.4c-0.5,0.3-0.9,0.6-1.3,1.1c-0.3,0.5-0.6,1-0.8,1.6
					c-0.2,0.6-0.3,1.2-0.4,1.9c-0.1,0.6-0.1,1.3-0.2,1.9c0,0.6,0,1.2,0,1.7C86.2,427.6,86.2,428.5,86.2,429.5z"/>
			</g>
		</g>
		<g>
			<g enable-background="new    ">
				<path fill="#CCCCCC" d="M31.6,371.1v-15.3H26v-2.1c0.7,0,1.4-0.1,2.1-0.2c0.7-0.1,1.3-0.3,1.9-0.6c0.6-0.3,1-0.7,1.4-1.2
					s0.6-1.2,0.8-2h2v21.4H31.6z"/>
				<path fill="#CCCCCC" d="M46,367.8v3.1c0,1.1-0.3,2.1-0.8,3c-0.5,0.8-1.4,1.4-2.5,1.8V374c0.3-0.1,0.6-0.3,0.9-0.5
					c0.2-0.2,0.4-0.5,0.6-0.8c0.1-0.3,0.2-0.5,0.3-0.8s0.1-0.5,0-0.8h-1.8v-3.4H46z"/>
				<path fill="#CCCCCC" d="M49.9,358.2c0-0.8,0.1-1.7,0.3-2.5c0.2-0.8,0.4-1.6,0.7-2.3c0.3-0.7,0.7-1.4,1.2-1.9
					c0.5-0.5,1.2-1,2-1.3c0.8-0.3,1.7-0.5,2.9-0.5c1.1,0,2.1,0.2,2.9,0.5c0.8,0.3,1.5,0.8,2,1.3c0.5,0.5,0.9,1.2,1.2,1.9
					c0.3,0.7,0.5,1.5,0.7,2.3c0.2,0.8,0.3,1.6,0.3,2.5c0,0.8,0.1,1.7,0.1,2.4s0,1.6-0.1,2.4c0,0.8-0.1,1.7-0.3,2.5s-0.4,1.6-0.7,2.3
					c-0.3,0.7-0.7,1.3-1.2,1.9c-0.5,0.5-1.2,1-2,1.3c-0.8,0.3-1.7,0.5-2.9,0.5c-1.1,0-2.1-0.2-2.9-0.5c-0.8-0.3-1.5-0.7-2-1.3
					c-0.5-0.5-0.9-1.2-1.2-1.9c-0.3-0.7-0.5-1.5-0.7-2.3s-0.3-1.6-0.3-2.5s-0.1-1.7-0.1-2.4S49.9,359,49.9,358.2z M52.6,363.3
					c0,1,0.2,1.9,0.5,2.8s0.7,1.6,1.3,2.2c0.6,0.6,1.5,0.9,2.5,0.9c1.1,0,1.9-0.3,2.5-0.9c0.6-0.6,1-1.3,1.3-2.2s0.4-1.8,0.5-2.8
					c0-1,0.1-1.9,0.1-2.7c0-0.5,0-1.1,0-1.7c0-0.6-0.1-1.3-0.2-1.9c-0.1-0.6-0.2-1.3-0.4-1.9c-0.2-0.6-0.4-1.1-0.8-1.6
					c-0.3-0.5-0.8-0.8-1.3-1.1c-0.5-0.3-1.1-0.4-1.8-0.4s-1.3,0.1-1.8,0.4c-0.5,0.3-0.9,0.6-1.3,1.1c-0.3,0.5-0.6,1-0.8,1.6
					c-0.2,0.6-0.3,1.2-0.4,1.9c-0.1,0.6-0.1,1.3-0.2,1.9c0,0.6,0,1.2,0,1.7C52.6,361.4,52.6,362.3,52.6,363.3z"/>
				<path fill="#CCCCCC" d="M66.7,358.2c0-0.8,0.1-1.7,0.3-2.5c0.2-0.8,0.4-1.6,0.7-2.3c0.3-0.7,0.7-1.4,1.2-1.9
					c0.5-0.5,1.2-1,2-1.3c0.8-0.3,1.7-0.5,2.9-0.5c1.1,0,2.1,0.2,2.9,0.5c0.8,0.3,1.5,0.8,2,1.3c0.5,0.5,0.9,1.2,1.2,1.9
					c0.3,0.7,0.5,1.5,0.7,2.3c0.2,0.8,0.3,1.6,0.3,2.5c0,0.8,0.1,1.7,0.1,2.4s0,1.6-0.1,2.4c0,0.8-0.1,1.7-0.3,2.5s-0.4,1.6-0.7,2.3
					c-0.3,0.7-0.7,1.3-1.2,1.9c-0.5,0.5-1.2,1-2,1.3c-0.8,0.3-1.7,0.5-2.9,0.5c-1.1,0-2.1-0.2-2.9-0.5c-0.8-0.3-1.5-0.7-2-1.3
					c-0.5-0.5-0.9-1.2-1.2-1.9c-0.3-0.7-0.5-1.5-0.7-2.3s-0.3-1.6-0.3-2.5s-0.1-1.7-0.1-2.4S66.7,359,66.7,358.2z M69.4,363.3
					c0,1,0.2,1.9,0.5,2.8s0.7,1.6,1.3,2.2c0.6,0.6,1.5,0.9,2.5,0.9c1.1,0,1.9-0.3,2.5-0.9c0.6-0.6,1-1.3,1.3-2.2s0.4-1.8,0.5-2.8
					c0-1,0.1-1.9,0.1-2.7c0-0.5,0-1.1,0-1.7c0-0.6-0.1-1.3-0.2-1.9c-0.1-0.6-0.2-1.3-0.4-1.9c-0.2-0.6-0.4-1.1-0.8-1.6
					c-0.3-0.5-0.8-0.8-1.3-1.1c-0.5-0.3-1.1-0.4-1.8-0.4s-1.3,0.1-1.8,0.4c-0.5,0.3-0.9,0.6-1.3,1.1c-0.3,0.5-0.6,1-0.8,1.6
					c-0.2,0.6-0.3,1.2-0.4,1.9c-0.1,0.6-0.1,1.3-0.2,1.9c0,0.6,0,1.2,0,1.7C69.4,361.4,69.4,362.3,69.4,363.3z"/>
				<path fill="#CCCCCC" d="M83.5,358.2c0-0.8,0.1-1.7,0.3-2.5c0.2-0.8,0.4-1.6,0.7-2.3c0.3-0.7,0.7-1.4,1.2-1.9
					c0.5-0.5,1.2-1,2-1.3c0.8-0.3,1.7-0.5,2.9-0.5c1.1,0,2.1,0.2,2.9,0.5c0.8,0.3,1.5,0.8,2,1.3c0.5,0.5,0.9,1.2,1.2,1.9
					c0.3,0.7,0.5,1.5,0.7,2.3c0.2,0.8,0.3,1.6,0.3,2.5c0,0.8,0.1,1.7,0.1,2.4s0,1.6-0.1,2.4c0,0.8-0.1,1.7-0.3,2.5s-0.4,1.6-0.7,2.3
					c-0.3,0.7-0.7,1.3-1.2,1.9c-0.5,0.5-1.2,1-2,1.3c-0.8,0.3-1.7,0.5-2.9,0.5c-1.1,0-2.1-0.2-2.9-0.5c-0.8-0.3-1.5-0.7-2-1.3
					c-0.5-0.5-0.9-1.2-1.2-1.9c-0.3-0.7-0.5-1.5-0.7-2.3s-0.3-1.6-0.3-2.5s-0.1-1.7-0.1-2.4S83.5,359,83.5,358.2z M86.2,363.3
					c0,1,0.2,1.9,0.5,2.8s0.7,1.6,1.3,2.2c0.6,0.6,1.5,0.9,2.5,0.9c1.1,0,1.9-0.3,2.5-0.9c0.6-0.6,1-1.3,1.3-2.2s0.4-1.8,0.5-2.8
					c0-1,0.1-1.9,0.1-2.7c0-0.5,0-1.1,0-1.7c0-0.6-0.1-1.3-0.2-1.9c-0.1-0.6-0.2-1.3-0.4-1.9c-0.2-0.6-0.4-1.1-0.8-1.6
					c-0.3-0.5-0.8-0.8-1.3-1.1c-0.5-0.3-1.1-0.4-1.8-0.4s-1.3,0.1-1.8,0.4c-0.5,0.3-0.9,0.6-1.3,1.1c-0.3,0.5-0.6,1-0.8,1.6
					c-0.2,0.6-0.3,1.2-0.4,1.9c-0.1,0.6-0.1,1.3-0.2,1.9c0,0.6,0,1.2,0,1.7C86.2,361.4,86.2,362.3,86.2,363.3z"/>
			</g>
		</g>
		<g>
			<g enable-background="new    ">
				<path fill="#CCCCCC" d="M31.6,304.9v-15.3H26v-2.1c0.7,0,1.4-0.1,2.1-0.2c0.7-0.1,1.3-0.3,1.9-0.6c0.6-0.3,1-0.7,1.4-1.2
					s0.6-1.2,0.8-2h2v21.4H31.6z"/>
				<path fill="#CCCCCC" d="M46,301.5v3.1c0,1.1-0.3,2.1-0.8,3c-0.5,0.8-1.4,1.4-2.5,1.8v-1.5c0.3-0.1,0.6-0.3,0.9-0.5
					c0.2-0.2,0.4-0.5,0.6-0.8c0.1-0.3,0.2-0.5,0.3-0.8s0.1-0.5,0-0.8h-1.8v-3.4H46z"/>
				<path fill="#CCCCCC" d="M54.1,286.1l-1.1,6.2l0.1,0.1c0.5-0.5,1.1-0.9,1.8-1.2c0.7-0.3,1.5-0.4,2.2-0.4c0.9,0,1.8,0.2,2.7,0.5
					c0.8,0.3,1.6,0.8,2.2,1.4c0.6,0.6,1.1,1.4,1.5,2.3c0.4,0.9,0.5,2,0.5,3.2c0,0.9-0.2,1.8-0.5,2.6c-0.3,0.9-0.8,1.6-1.4,2.3
					c-0.6,0.7-1.4,1.2-2.3,1.6s-2,0.6-3.3,0.6c-0.9,0-1.8-0.1-2.6-0.4c-0.8-0.3-1.5-0.7-2.2-1.2c-0.6-0.5-1.1-1.2-1.5-1.9
					c-0.4-0.8-0.6-1.6-0.6-2.6h2.6c0,0.5,0.2,1.1,0.4,1.5c0.2,0.5,0.5,0.9,0.9,1.2c0.4,0.4,0.9,0.6,1.4,0.8s1.1,0.3,1.8,0.3
					c0.6,0,1.2-0.1,1.7-0.3c0.6-0.2,1-0.5,1.5-1c0.4-0.4,0.7-1,1-1.6c0.2-0.6,0.4-1.4,0.4-2.2c0-0.7-0.1-1.4-0.3-1.9
					c-0.2-0.6-0.6-1.1-1-1.5c-0.4-0.4-0.9-0.8-1.5-1c-0.6-0.2-1.3-0.4-2-0.4c-0.8,0-1.6,0.2-2.3,0.6c-0.7,0.4-1.2,0.9-1.7,1.5
					l-2.2-0.1l2-11.1h10.6v2.3H54.1z"/>
				<path fill="#CCCCCC" d="M66.7,291.9c0-0.8,0.1-1.7,0.3-2.5c0.2-0.8,0.4-1.6,0.7-2.3c0.3-0.7,0.7-1.4,1.2-1.9
					c0.5-0.5,1.2-1,2-1.3c0.8-0.3,1.7-0.5,2.9-0.5c1.1,0,2.1,0.2,2.9,0.5c0.8,0.3,1.5,0.8,2,1.3c0.5,0.5,0.9,1.2,1.2,1.9
					c0.3,0.7,0.5,1.5,0.7,2.3c0.2,0.8,0.3,1.6,0.3,2.5c0,0.8,0.1,1.7,0.1,2.4s0,1.6-0.1,2.4c0,0.8-0.1,1.7-0.3,2.5s-0.4,1.6-0.7,2.3
					c-0.3,0.7-0.7,1.3-1.2,1.9c-0.5,0.5-1.2,1-2,1.3c-0.8,0.3-1.7,0.5-2.9,0.5c-1.1,0-2.1-0.2-2.9-0.5c-0.8-0.3-1.5-0.7-2-1.3
					c-0.5-0.5-0.9-1.2-1.2-1.9c-0.3-0.7-0.5-1.5-0.7-2.3s-0.3-1.6-0.3-2.5s-0.1-1.7-0.1-2.4S66.7,292.8,66.7,291.9z M69.4,297
					c0,1,0.2,1.9,0.5,2.8s0.7,1.6,1.3,2.2c0.6,0.6,1.5,0.9,2.5,0.9c1.1,0,1.9-0.3,2.5-0.9c0.6-0.6,1-1.3,1.3-2.2s0.4-1.8,0.5-2.8
					c0-1,0.1-1.9,0.1-2.7c0-0.5,0-1.1,0-1.7c0-0.6-0.1-1.3-0.2-1.9c-0.1-0.6-0.2-1.3-0.4-1.9c-0.2-0.6-0.4-1.1-0.8-1.6
					c-0.3-0.5-0.8-0.8-1.3-1.1c-0.5-0.3-1.1-0.4-1.8-0.4s-1.3,0.1-1.8,0.4c-0.5,0.3-0.9,0.6-1.3,1.1c-0.3,0.5-0.6,1-0.8,1.6
					c-0.2,0.6-0.3,1.2-0.4,1.9c-0.1,0.6-0.1,1.3-0.2,1.9c0,0.6,0,1.2,0,1.7C69.4,295.1,69.4,296,69.4,297z"/>
				<path fill="#CCCCCC" d="M83.5,291.9c0-0.8,0.1-1.7,0.3-2.5c0.2-0.8,0.4-1.6,0.7-2.3c0.3-0.7,0.7-1.4,1.2-1.9
					c0.5-0.5,1.2-1,2-1.3c0.8-0.3,1.7-0.5,2.9-0.5c1.1,0,2.1,0.2,2.9,0.5c0.8,0.3,1.5,0.8,2,1.3c0.5,0.5,0.9,1.2,1.2,1.9
					c0.3,0.7,0.5,1.5,0.7,2.3c0.2,0.8,0.3,1.6,0.3,2.5c0,0.8,0.1,1.7,0.1,2.4s0,1.6-0.1,2.4c0,0.8-0.1,1.7-0.3,2.5s-0.4,1.6-0.7,2.3
					c-0.3,0.7-0.7,1.3-1.2,1.9c-0.5,0.5-1.2,1-2,1.3c-0.8,0.3-1.7,0.5-2.9,0.5c-1.1,0-2.1-0.2-2.9-0.5c-0.8-0.3-1.5-0.7-2-1.3
					c-0.5-0.5-0.9-1.2-1.2-1.9c-0.3-0.7-0.5-1.5-0.7-2.3s-0.3-1.6-0.3-2.5s-0.1-1.7-0.1-2.4S83.5,292.8,83.5,291.9z M86.2,297
					c0,1,0.2,1.9,0.5,2.8s0.7,1.6,1.3,2.2c0.6,0.6,1.5,0.9,2.5,0.9c1.1,0,1.9-0.3,2.5-0.9c0.6-0.6,1-1.3,1.3-2.2s0.4-1.8,0.5-2.8
					c0-1,0.1-1.9,0.1-2.7c0-0.5,0-1.1,0-1.7c0-0.6-0.1-1.3-0.2-1.9c-0.1-0.6-0.2-1.3-0.4-1.9c-0.2-0.6-0.4-1.1-0.8-1.6
					c-0.3-0.5-0.8-0.8-1.3-1.1c-0.5-0.3-1.1-0.4-1.8-0.4s-1.3,0.1-1.8,0.4c-0.5,0.3-0.9,0.6-1.3,1.1c-0.3,0.5-0.6,1-0.8,1.6
					c-0.2,0.6-0.3,1.2-0.4,1.9c-0.1,0.6-0.1,1.3-0.2,1.9c0,0.6,0,1.2,0,1.7C86.2,295.1,86.2,296,86.2,297z"/>
			</g>
		</g>
		<g>
			<g enable-background="new    ">
				<path fill="#CCCCCC" d="M25,221.8c0.3-0.9,0.7-1.7,1.3-2.4c0.6-0.7,1.3-1.2,2.2-1.6s1.9-0.6,3-0.6c0.9,0,1.8,0.1,2.6,0.4
					c0.8,0.3,1.5,0.7,2.1,1.2c0.6,0.5,1.1,1.2,1.4,1.9c0.4,0.8,0.5,1.7,0.5,2.7c0,0.9-0.1,1.8-0.4,2.5c-0.3,0.7-0.7,1.4-1.2,1.9
					s-1,1.1-1.7,1.6c-0.6,0.5-1.3,0.9-1.9,1.3c-0.7,0.4-1.3,0.8-2,1.2c-0.7,0.4-1.3,0.8-1.8,1.3c-0.6,0.4-1,0.9-1.4,1.4
					c-0.4,0.5-0.6,1.1-0.8,1.8h11v2.3h-14c0.1-1.3,0.3-2.4,0.7-3.2c0.4-0.9,0.8-1.7,1.3-2.3c0.5-0.7,1.2-1.2,1.8-1.8
					c0.7-0.5,1.4-1,2.1-1.4c0.9-0.6,1.7-1.1,2.4-1.6c0.7-0.5,1.3-1,1.7-1.4c0.5-0.5,0.8-1,1-1.6c0.2-0.6,0.3-1.2,0.3-2
					c0-0.6-0.1-1.1-0.3-1.6c-0.2-0.5-0.5-0.9-0.9-1.2c-0.4-0.3-0.8-0.6-1.3-0.8c-0.5-0.2-1-0.3-1.6-0.3c-0.7,0-1.4,0.2-1.9,0.5
					s-1,0.7-1.3,1.2c-0.3,0.5-0.6,1.1-0.7,1.7c-0.2,0.6-0.2,1.3-0.2,1.9h-2.6C24.6,223.7,24.8,222.7,25,221.8z"/>
				<path fill="#CCCCCC" d="M46,235.3v3.1c0,1.1-0.3,2.1-0.8,3c-0.5,0.8-1.4,1.4-2.5,1.8v-1.5c0.3-0.1,0.6-0.3,0.9-0.5
					c0.2-0.2,0.4-0.5,0.6-0.8c0.1-0.3,0.2-0.5,0.3-0.8s0.1-0.5,0-0.8h-1.8v-3.4H46z"/>
				<path fill="#CCCCCC" d="M49.9,225.7c0-0.8,0.1-1.7,0.3-2.5c0.2-0.8,0.4-1.6,0.7-2.3c0.3-0.7,0.7-1.4,1.2-1.9
					c0.5-0.5,1.2-1,2-1.3c0.8-0.3,1.7-0.5,2.9-0.5c1.1,0,2.1,0.2,2.9,0.5c0.8,0.3,1.5,0.8,2,1.3c0.5,0.5,0.9,1.2,1.2,1.9
					c0.3,0.7,0.5,1.5,0.7,2.3c0.2,0.8,0.3,1.6,0.3,2.5c0,0.8,0.1,1.7,0.1,2.4s0,1.6-0.1,2.4c0,0.8-0.1,1.7-0.3,2.5s-0.4,1.6-0.7,2.3
					c-0.3,0.7-0.7,1.3-1.2,1.9c-0.5,0.5-1.2,1-2,1.3c-0.8,0.3-1.7,0.5-2.9,0.5c-1.1,0-2.1-0.2-2.9-0.5c-0.8-0.3-1.5-0.7-2-1.3
					c-0.5-0.5-0.9-1.2-1.2-1.9c-0.3-0.7-0.5-1.5-0.7-2.3s-0.3-1.6-0.3-2.5s-0.1-1.7-0.1-2.4S49.9,226.5,49.9,225.7z M52.6,230.8
					c0,1,0.2,1.9,0.5,2.8s0.7,1.6,1.3,2.2c0.6,0.6,1.5,0.9,2.5,0.9c1.1,0,1.9-0.3,2.5-0.9c0.6-0.6,1-1.3,1.3-2.2s0.4-1.8,0.5-2.8
					c0-1,0.1-1.9,0.1-2.7c0-0.5,0-1.1,0-1.7c0-0.6-0.1-1.3-0.2-1.9c-0.1-0.6-0.2-1.3-0.4-1.9c-0.2-0.6-0.4-1.1-0.8-1.6
					c-0.3-0.5-0.8-0.8-1.3-1.1c-0.5-0.3-1.1-0.4-1.8-0.4s-1.3,0.1-1.8,0.4c-0.5,0.3-0.9,0.6-1.3,1.1c-0.3,0.5-0.6,1-0.8,1.6
					c-0.2,0.6-0.3,1.2-0.4,1.9c-0.1,0.6-0.1,1.3-0.2,1.9c0,0.6,0,1.2,0,1.7C52.6,228.9,52.6,229.8,52.6,230.8z"/>
				<path fill="#CCCCCC" d="M66.7,225.7c0-0.8,0.1-1.7,0.3-2.5c0.2-0.8,0.4-1.6,0.7-2.3c0.3-0.7,0.7-1.4,1.2-1.9
					c0.5-0.5,1.2-1,2-1.3c0.8-0.3,1.7-0.5,2.9-0.5c1.1,0,2.1,0.2,2.9,0.5c0.8,0.3,1.5,0.8,2,1.3c0.5,0.5,0.9,1.2,1.2,1.9
					c0.3,0.7,0.5,1.5,0.7,2.3c0.2,0.8,0.3,1.6,0.3,2.5c0,0.8,0.1,1.7,0.1,2.4s0,1.6-0.1,2.4c0,0.8-0.1,1.7-0.3,2.5s-0.4,1.6-0.7,2.3
					c-0.3,0.7-0.7,1.3-1.2,1.9c-0.5,0.5-1.2,1-2,1.3c-0.8,0.3-1.7,0.5-2.9,0.5c-1.1,0-2.1-0.2-2.9-0.5c-0.8-0.3-1.5-0.7-2-1.3
					c-0.5-0.5-0.9-1.2-1.2-1.9c-0.3-0.7-0.5-1.5-0.7-2.3s-0.3-1.6-0.3-2.5s-0.1-1.7-0.1-2.4S66.7,226.5,66.7,225.7z M69.4,230.8
					c0,1,0.2,1.9,0.5,2.8s0.7,1.6,1.3,2.2c0.6,0.6,1.5,0.9,2.5,0.9c1.1,0,1.9-0.3,2.5-0.9c0.6-0.6,1-1.3,1.3-2.2s0.4-1.8,0.5-2.8
					c0-1,0.1-1.9,0.1-2.7c0-0.5,0-1.1,0-1.7c0-0.6-0.1-1.3-0.2-1.9c-0.1-0.6-0.2-1.3-0.4-1.9c-0.2-0.6-0.4-1.1-0.8-1.6
					c-0.3-0.5-0.8-0.8-1.3-1.1c-0.5-0.3-1.1-0.4-1.8-0.4s-1.3,0.1-1.8,0.4c-0.5,0.3-0.9,0.6-1.3,1.1c-0.3,0.5-0.6,1-0.8,1.6
					c-0.2,0.6-0.3,1.2-0.4,1.9c-0.1,0.6-0.1,1.3-0.2,1.9c0,0.6,0,1.2,0,1.7C69.4,228.9,69.4,229.8,69.4,230.8z"/>
				<path fill="#CCCCCC" d="M83.5,225.7c0-0.8,0.1-1.7,0.3-2.5c0.2-0.8,0.4-1.6,0.7-2.3c0.3-0.7,0.7-1.4,1.2-1.9
					c0.5-0.5,1.2-1,2-1.3c0.8-0.3,1.7-0.5,2.9-0.5c1.1,0,2.1,0.2,2.9,0.5c0.8,0.3,1.5,0.8,2,1.3c0.5,0.5,0.9,1.2,1.2,1.9
					c0.3,0.7,0.5,1.5,0.7,2.3c0.2,0.8,0.3,1.6,0.3,2.5c0,0.8,0.1,1.7,0.1,2.4s0,1.6-0.1,2.4c0,0.8-0.1,1.7-0.3,2.5s-0.4,1.6-0.7,2.3
					c-0.3,0.7-0.7,1.3-1.2,1.9c-0.5,0.5-1.2,1-2,1.3c-0.8,0.3-1.7,0.5-2.9,0.5c-1.1,0-2.1-0.2-2.9-0.5c-0.8-0.3-1.5-0.7-2-1.3
					c-0.5-0.5-0.9-1.2-1.2-1.9c-0.3-0.7-0.5-1.5-0.7-2.3s-0.3-1.6-0.3-2.5s-0.1-1.7-0.1-2.4S83.5,226.5,83.5,225.7z M86.2,230.8
					c0,1,0.2,1.9,0.5,2.8s0.7,1.6,1.3,2.2c0.6,0.6,1.5,0.9,2.5,0.9c1.1,0,1.9-0.3,2.5-0.9c0.6-0.6,1-1.3,1.3-2.2s0.4-1.8,0.5-2.8
					c0-1,0.1-1.9,0.1-2.7c0-0.5,0-1.1,0-1.7c0-0.6-0.1-1.3-0.2-1.9c-0.1-0.6-0.2-1.3-0.4-1.9c-0.2-0.6-0.4-1.1-0.8-1.6
					c-0.3-0.5-0.8-0.8-1.3-1.1c-0.5-0.3-1.1-0.4-1.8-0.4s-1.3,0.1-1.8,0.4c-0.5,0.3-0.9,0.6-1.3,1.1c-0.3,0.5-0.6,1-0.8,1.6
					c-0.2,0.6-0.3,1.2-0.4,1.9c-0.1,0.6-0.1,1.3-0.2,1.9c0,0.6,0,1.2,0,1.7C86.2,228.9,86.2,229.8,86.2,230.8z"/>
			</g>
		</g>
		<g>
			<g enable-background="new    ">
				<path fill="#CCCCCC" d="M25,155.6c0.3-0.9,0.7-1.7,1.3-2.4c0.6-0.7,1.3-1.2,2.2-1.6s1.9-0.6,3-0.6c0.9,0,1.8,0.1,2.6,0.4
					c0.8,0.3,1.5,0.7,2.1,1.2c0.6,0.5,1.1,1.2,1.4,1.9c0.4,0.8,0.5,1.7,0.5,2.7c0,0.9-0.1,1.8-0.4,2.5c-0.3,0.7-0.7,1.4-1.2,1.9
					s-1,1.1-1.7,1.6c-0.6,0.5-1.3,0.9-1.9,1.3c-0.7,0.4-1.3,0.8-2,1.2c-0.7,0.4-1.3,0.8-1.8,1.3c-0.6,0.4-1,0.9-1.4,1.4
					c-0.4,0.5-0.6,1.1-0.8,1.8h11v2.3h-14c0.1-1.3,0.3-2.4,0.7-3.2c0.4-0.9,0.8-1.7,1.3-2.3c0.5-0.7,1.2-1.2,1.8-1.8
					c0.7-0.5,1.4-1,2.1-1.4c0.9-0.6,1.7-1.1,2.4-1.6c0.7-0.5,1.3-1,1.7-1.4c0.5-0.5,0.8-1,1-1.6c0.2-0.6,0.3-1.2,0.3-2
					c0-0.6-0.1-1.1-0.3-1.6c-0.2-0.5-0.5-0.9-0.9-1.2c-0.4-0.3-0.8-0.6-1.3-0.8c-0.5-0.2-1-0.3-1.6-0.3c-0.7,0-1.4,0.2-1.9,0.5
					s-1,0.7-1.3,1.2c-0.3,0.5-0.6,1.1-0.7,1.7c-0.2,0.6-0.2,1.3-0.2,1.9h-2.6C24.6,157.5,24.8,156.5,25,155.6z"/>
				<path fill="#CCCCCC" d="M46,169.1v3.1c0,1.1-0.3,2.1-0.8,3c-0.5,0.8-1.4,1.4-2.5,1.8v-1.5c0.3-0.1,0.6-0.3,0.9-0.5
					c0.2-0.2,0.4-0.5,0.6-0.8c0.1-0.3,0.2-0.5,0.3-0.8s0.1-0.5,0-0.8h-1.8v-3.4H46z"/>
				<path fill="#CCCCCC" d="M54.1,153.6l-1.1,6.2l0.1,0.1c0.5-0.5,1.1-0.9,1.8-1.2c0.7-0.3,1.5-0.4,2.2-0.4c0.9,0,1.8,0.2,2.7,0.5
					c0.8,0.3,1.6,0.8,2.2,1.4c0.6,0.6,1.1,1.4,1.5,2.3c0.4,0.9,0.5,2,0.5,3.2c0,0.9-0.2,1.8-0.5,2.6c-0.3,0.9-0.8,1.6-1.4,2.3
					c-0.6,0.7-1.4,1.2-2.3,1.6s-2,0.6-3.3,0.6c-0.9,0-1.8-0.1-2.6-0.4c-0.8-0.3-1.5-0.7-2.2-1.2c-0.6-0.5-1.1-1.2-1.5-1.9
					c-0.4-0.8-0.6-1.6-0.6-2.6h2.6c0,0.5,0.2,1.1,0.4,1.5c0.2,0.5,0.5,0.9,0.9,1.2c0.4,0.4,0.9,0.6,1.4,0.8s1.1,0.3,1.8,0.3
					c0.6,0,1.2-0.1,1.7-0.3c0.6-0.2,1-0.5,1.5-1c0.4-0.4,0.7-1,1-1.6c0.2-0.6,0.4-1.4,0.4-2.2c0-0.7-0.1-1.4-0.3-1.9
					c-0.2-0.6-0.6-1.1-1-1.5c-0.4-0.4-0.9-0.8-1.5-1c-0.6-0.2-1.3-0.4-2-0.4c-0.8,0-1.6,0.2-2.3,0.6c-0.7,0.4-1.2,0.9-1.7,1.5
					l-2.2-0.1l2-11.1h10.6v2.3H54.1z"/>
				<path fill="#CCCCCC" d="M66.7,159.5c0-0.8,0.1-1.7,0.3-2.5c0.2-0.8,0.4-1.6,0.7-2.3c0.3-0.7,0.7-1.4,1.2-1.9
					c0.5-0.5,1.2-1,2-1.3c0.8-0.3,1.7-0.5,2.9-0.5c1.1,0,2.1,0.2,2.9,0.5c0.8,0.3,1.5,0.8,2,1.3c0.5,0.5,0.9,1.2,1.2,1.9
					c0.3,0.7,0.5,1.5,0.7,2.3c0.2,0.8,0.3,1.6,0.3,2.5c0,0.8,0.1,1.7,0.1,2.4s0,1.6-0.1,2.4c0,0.8-0.1,1.7-0.3,2.5s-0.4,1.6-0.7,2.3
					c-0.3,0.7-0.7,1.3-1.2,1.9c-0.5,0.5-1.2,1-2,1.3c-0.8,0.3-1.7,0.5-2.9,0.5c-1.1,0-2.1-0.2-2.9-0.5c-0.8-0.3-1.5-0.7-2-1.3
					c-0.5-0.5-0.9-1.2-1.2-1.9c-0.3-0.7-0.5-1.5-0.7-2.3s-0.3-1.6-0.3-2.5s-0.1-1.7-0.1-2.4S66.7,160.3,66.7,159.5z M69.4,164.6
					c0,1,0.2,1.9,0.5,2.8s0.7,1.6,1.3,2.2c0.6,0.6,1.5,0.9,2.5,0.9c1.1,0,1.9-0.3,2.5-0.9c0.6-0.6,1-1.3,1.3-2.2s0.4-1.8,0.5-2.8
					c0-1,0.1-1.9,0.1-2.7c0-0.5,0-1.1,0-1.7c0-0.6-0.1-1.3-0.2-1.9c-0.1-0.6-0.2-1.3-0.4-1.9c-0.2-0.6-0.4-1.1-0.8-1.6
					c-0.3-0.5-0.8-0.8-1.3-1.1c-0.5-0.3-1.1-0.4-1.8-0.4s-1.3,0.1-1.8,0.4c-0.5,0.3-0.9,0.6-1.3,1.1c-0.3,0.5-0.6,1-0.8,1.6
					c-0.2,0.6-0.3,1.2-0.4,1.9c-0.1,0.6-0.1,1.3-0.2,1.9c0,0.6,0,1.2,0,1.7C69.4,162.7,69.4,163.6,69.4,164.6z"/>
				<path fill="#CCCCCC" d="M83.5,159.5c0-0.8,0.1-1.7,0.3-2.5c0.2-0.8,0.4-1.6,0.7-2.3c0.3-0.7,0.7-1.4,1.2-1.9
					c0.5-0.5,1.2-1,2-1.3c0.8-0.3,1.7-0.5,2.9-0.5c1.1,0,2.1,0.2,2.9,0.5c0.8,0.3,1.5,0.8,2,1.3c0.5,0.5,0.9,1.2,1.2,1.9
					c0.3,0.7,0.5,1.5,0.7,2.3c0.2,0.8,0.3,1.6,0.3,2.5c0,0.8,0.1,1.7,0.1,2.4s0,1.6-0.1,2.4c0,0.8-0.1,1.7-0.3,2.5s-0.4,1.6-0.7,2.3
					c-0.3,0.7-0.7,1.3-1.2,1.9c-0.5,0.5-1.2,1-2,1.3c-0.8,0.3-1.7,0.5-2.9,0.5c-1.1,0-2.1-0.2-2.9-0.5c-0.8-0.3-1.5-0.7-2-1.3
					c-0.5-0.5-0.9-1.2-1.2-1.9c-0.3-0.7-0.5-1.5-0.7-2.3s-0.3-1.6-0.3-2.5s-0.1-1.7-0.1-2.4S83.5,160.3,83.5,159.5z M86.2,164.6
					c0,1,0.2,1.9,0.5,2.8s0.7,1.6,1.3,2.2c0.6,0.6,1.5,0.9,2.5,0.9c1.1,0,1.9-0.3,2.5-0.9c0.6-0.6,1-1.3,1.3-2.2s0.4-1.8,0.5-2.8
					c0-1,0.1-1.9,0.1-2.7c0-0.5,0-1.1,0-1.7c0-0.6-0.1-1.3-0.2-1.9c-0.1-0.6-0.2-1.3-0.4-1.9c-0.2-0.6-0.4-1.1-0.8-1.6
					c-0.3-0.5-0.8-0.8-1.3-1.1c-0.5-0.3-1.1-0.4-1.8-0.4s-1.3,0.1-1.8,0.4c-0.5,0.3-0.9,0.6-1.3,1.1c-0.3,0.5-0.6,1-0.8,1.6
					c-0.2,0.6-0.3,1.2-0.4,1.9c-0.1,0.6-0.1,1.3-0.2,1.9c0,0.6,0,1.2,0,1.7C86.2,162.7,86.2,163.6,86.2,164.6z"/>
			</g>
		</g>
		<g>
			<g enable-background="new    ">
				<path fill="#CCCCCC" d="M30.2,94c0.1,0,0.2,0,0.3,0h0.5c0.5,0,1.1-0.1,1.6-0.2c0.5-0.2,0.9-0.4,1.3-0.7c0.4-0.3,0.7-0.7,0.9-1.1
					c0.2-0.4,0.3-0.9,0.3-1.5c0-1.1-0.4-2-1.1-2.6S32.4,87,31.3,87c-0.7,0-1.3,0.1-1.8,0.4s-0.9,0.6-1.3,1c-0.3,0.4-0.6,0.9-0.7,1.5
					c-0.2,0.6-0.2,1.2-0.2,1.8h-2.6c0-1,0.2-2,0.5-2.8c0.3-0.8,0.7-1.6,1.3-2.2s1.2-1.1,2-1.4c0.8-0.3,1.8-0.5,2.8-0.5
					c0.9,0,1.8,0.1,2.6,0.3c0.8,0.2,1.5,0.6,2.1,1c0.6,0.5,1,1.1,1.4,1.8c0.3,0.7,0.5,1.6,0.5,2.6c0,1-0.3,1.8-0.8,2.6
					c-0.6,0.7-1.3,1.3-2.1,1.7v0.1c1.3,0.3,2.3,0.9,2.9,1.8c0.6,0.9,1,2.1,1,3.4c0,1.1-0.2,2-0.6,2.8c-0.4,0.8-0.9,1.5-1.6,2
					c-0.7,0.5-1.4,1-2.3,1.2c-0.9,0.3-1.8,0.4-2.9,0.4c-1.1,0-2.1-0.2-3-0.5c-0.9-0.3-1.6-0.8-2.3-1.3c-0.6-0.6-1.1-1.3-1.4-2.2
					c-0.3-0.9-0.5-1.9-0.5-3h2.6c0,1.4,0.4,2.5,1.2,3.4s1.9,1.3,3.4,1.3c0.6,0,1.2-0.1,1.8-0.3c0.6-0.2,1.1-0.5,1.5-0.8
					c0.4-0.4,0.8-0.8,1-1.3c0.3-0.5,0.4-1.1,0.4-1.7c0-0.7-0.1-1.3-0.4-1.8s-0.6-0.9-1-1.3s-0.9-0.6-1.4-0.8
					c-0.6-0.2-1.2-0.3-1.8-0.3c-0.5,0-1.1,0-1.5,0.1v-2.2C30.1,94,30.2,94,30.2,94z"/>
				<path fill="#CCCCCC" d="M46,102.8v3.1c0,1.1-0.3,2.1-0.8,3c-0.5,0.8-1.4,1.4-2.5,1.8v-1.5c0.3-0.1,0.6-0.3,0.9-0.5
					c0.2-0.2,0.4-0.5,0.6-0.8c0.1-0.3,0.2-0.5,0.3-0.8s0.1-0.5,0-0.8h-1.8v-3.4H46z"/>
				<path fill="#CCCCCC" d="M49.9,93.2c0-0.8,0.1-1.7,0.3-2.5c0.2-0.8,0.4-1.6,0.7-2.3c0.3-0.7,0.7-1.4,1.2-1.9c0.5-0.5,1.2-1,2-1.3
					c0.8-0.3,1.7-0.5,2.9-0.5c1.1,0,2.1,0.2,2.9,0.5c0.8,0.3,1.5,0.8,2,1.3c0.5,0.5,0.9,1.2,1.2,1.9c0.3,0.7,0.5,1.5,0.7,2.3
					c0.2,0.8,0.3,1.6,0.3,2.5c0,0.8,0.1,1.7,0.1,2.4s0,1.6-0.1,2.4c0,0.8-0.1,1.7-0.3,2.5s-0.4,1.6-0.7,2.3
					c-0.3,0.7-0.7,1.3-1.2,1.9c-0.5,0.5-1.2,1-2,1.3c-0.8,0.3-1.7,0.5-2.9,0.5c-1.1,0-2.1-0.2-2.9-0.5c-0.8-0.3-1.5-0.7-2-1.3
					c-0.5-0.5-0.9-1.2-1.2-1.9c-0.3-0.7-0.5-1.5-0.7-2.3s-0.3-1.6-0.3-2.5s-0.1-1.7-0.1-2.4S49.9,94.1,49.9,93.2z M52.6,98.3
					c0,1,0.2,1.9,0.5,2.8s0.7,1.6,1.3,2.2c0.6,0.6,1.5,0.9,2.5,0.9c1.1,0,1.9-0.3,2.5-0.9c0.6-0.6,1-1.3,1.3-2.2s0.4-1.8,0.5-2.8
					c0-1,0.1-1.9,0.1-2.7c0-0.5,0-1.1,0-1.7c0-0.6-0.1-1.3-0.2-1.9c-0.1-0.6-0.2-1.3-0.4-1.9c-0.2-0.6-0.4-1.1-0.8-1.6
					c-0.3-0.5-0.8-0.8-1.3-1.1C58.3,87.2,57.7,87,57,87s-1.3,0.1-1.8,0.4c-0.5,0.3-0.9,0.6-1.3,1.1c-0.3,0.5-0.6,1-0.8,1.6
					c-0.2,0.6-0.3,1.2-0.4,1.9c-0.1,0.6-0.1,1.3-0.2,1.9c0,0.6,0,1.2,0,1.7C52.6,96.4,52.6,97.3,52.6,98.3z"/>
				<path fill="#CCCCCC" d="M66.7,93.2c0-0.8,0.1-1.7,0.3-2.5c0.2-0.8,0.4-1.6,0.7-2.3c0.3-0.7,0.7-1.4,1.2-1.9c0.5-0.5,1.2-1,2-1.3
					c0.8-0.3,1.7-0.5,2.9-0.5c1.1,0,2.1,0.2,2.9,0.5c0.8,0.3,1.5,0.8,2,1.3c0.5,0.5,0.9,1.2,1.2,1.9c0.3,0.7,0.5,1.5,0.7,2.3
					c0.2,0.8,0.3,1.6,0.3,2.5c0,0.8,0.1,1.7,0.1,2.4s0,1.6-0.1,2.4c0,0.8-0.1,1.7-0.3,2.5s-0.4,1.6-0.7,2.3
					c-0.3,0.7-0.7,1.3-1.2,1.9c-0.5,0.5-1.2,1-2,1.3c-0.8,0.3-1.7,0.5-2.9,0.5c-1.1,0-2.1-0.2-2.9-0.5c-0.8-0.3-1.5-0.7-2-1.3
					c-0.5-0.5-0.9-1.2-1.2-1.9c-0.3-0.7-0.5-1.5-0.7-2.3s-0.3-1.6-0.3-2.5s-0.1-1.7-0.1-2.4S66.7,94.1,66.7,93.2z M69.4,98.3
					c0,1,0.2,1.9,0.5,2.8s0.7,1.6,1.3,2.2c0.6,0.6,1.5,0.9,2.5,0.9c1.1,0,1.9-0.3,2.5-0.9c0.6-0.6,1-1.3,1.3-2.2s0.4-1.8,0.5-2.8
					c0-1,0.1-1.9,0.1-2.7c0-0.5,0-1.1,0-1.7c0-0.6-0.1-1.3-0.2-1.9c-0.1-0.6-0.2-1.3-0.4-1.9c-0.2-0.6-0.4-1.1-0.8-1.6
					c-0.3-0.5-0.8-0.8-1.3-1.1c-0.5-0.3-1.1-0.4-1.8-0.4s-1.3,0.1-1.8,0.4c-0.5,0.3-0.9,0.6-1.3,1.1c-0.3,0.5-0.6,1-0.8,1.6
					c-0.2,0.6-0.3,1.2-0.4,1.9c-0.1,0.6-0.1,1.3-0.2,1.9c0,0.6,0,1.2,0,1.7C69.4,96.4,69.4,97.3,69.4,98.3z"/>
				<path fill="#CCCCCC" d="M83.5,93.2c0-0.8,0.1-1.7,0.3-2.5c0.2-0.8,0.4-1.6,0.7-2.3c0.3-0.7,0.7-1.4,1.2-1.9c0.5-0.5,1.2-1,2-1.3
					c0.8-0.3,1.7-0.5,2.9-0.5c1.1,0,2.1,0.2,2.9,0.5c0.8,0.3,1.5,0.8,2,1.3c0.5,0.5,0.9,1.2,1.2,1.9c0.3,0.7,0.5,1.5,0.7,2.3
					c0.2,0.8,0.3,1.6,0.3,2.5c0,0.8,0.1,1.7,0.1,2.4s0,1.6-0.1,2.4c0,0.8-0.1,1.7-0.3,2.5s-0.4,1.6-0.7,2.3
					c-0.3,0.7-0.7,1.3-1.2,1.9c-0.5,0.5-1.2,1-2,1.3c-0.8,0.3-1.7,0.5-2.9,0.5c-1.1,0-2.1-0.2-2.9-0.5c-0.8-0.3-1.5-0.7-2-1.3
					c-0.5-0.5-0.9-1.2-1.2-1.9c-0.3-0.7-0.5-1.5-0.7-2.3s-0.3-1.6-0.3-2.5s-0.1-1.7-0.1-2.4S83.5,94.1,83.5,93.2z M86.2,98.3
					c0,1,0.2,1.9,0.5,2.8s0.7,1.6,1.3,2.2c0.6,0.6,1.5,0.9,2.5,0.9c1.1,0,1.9-0.3,2.5-0.9c0.6-0.6,1-1.3,1.3-2.2s0.4-1.8,0.5-2.8
					c0-1,0.1-1.9,0.1-2.7c0-0.5,0-1.1,0-1.7c0-0.6-0.1-1.3-0.2-1.9c-0.1-0.6-0.2-1.3-0.4-1.9c-0.2-0.6-0.4-1.1-0.8-1.6
					c-0.3-0.5-0.8-0.8-1.3-1.1c-0.5-0.3-1.1-0.4-1.8-0.4s-1.3,0.1-1.8,0.4c-0.5,0.3-0.9,0.6-1.3,1.1c-0.3,0.5-0.6,1-0.8,1.6
					c-0.2,0.6-0.3,1.2-0.4,1.9c-0.1,0.6-0.1,1.3-0.2,1.9c0,0.6,0,1.2,0,1.7C86.2,96.4,86.2,97.3,86.2,98.3z"/>
			</g>
		</g>
		<g>
			<g enable-background="new    ">
				<path fill="#CCCCCC" d="M11.2,36.6c0.8,0.8,1.8,1.3,3,1.5v-8c-1.1-0.3-2-0.5-2.8-0.9c-0.8-0.3-1.4-0.7-1.9-1.1
					c-0.5-0.4-0.9-1-1.1-1.6C8.1,25.9,8,25.1,8,24.2c0-0.9,0.2-1.7,0.5-2.5c0.3-0.8,0.8-1.4,1.3-2c0.6-0.6,1.2-1,2-1.3
					c0.8-0.3,1.6-0.5,2.4-0.6v-2h1.7v2c1.6,0.2,2.9,0.8,3.9,1.8c1,1,1.7,2.4,2.1,4.2h-2.6c-0.4-2-1.5-3.2-3.4-3.5v7.4l1.8,0.5
					c0.4,0.1,0.9,0.3,1.4,0.5c0.5,0.3,1.1,0.6,1.6,1c0.5,0.4,0.9,1,1.3,1.7c0.4,0.7,0.5,1.5,0.5,2.4c0,1-0.2,1.9-0.5,2.6
					c-0.3,0.8-0.8,1.4-1.4,2c-0.6,0.6-1.3,1-2.1,1.3c-0.8,0.3-1.7,0.5-2.7,0.6v2.5h-1.7v-2.5c-2-0.2-3.6-0.9-4.8-2.1s-1.9-2.9-2-5
					h2.6C9.9,34.7,10.4,35.8,11.2,36.6z M11.7,21.3c-0.7,0.6-1,1.5-1,2.6c0,0.5,0.1,1,0.3,1.3c0.2,0.4,0.4,0.7,0.7,0.9
					c0.3,0.3,0.7,0.5,1.1,0.6c0.4,0.2,0.9,0.3,1.4,0.5v-7.1C13.2,20.4,12.4,20.7,11.7,21.3z M17.4,37.7c0.5-0.2,0.9-0.4,1.2-0.7
					c0.4-0.3,0.6-0.7,0.8-1.2c0.2-0.5,0.3-1,0.3-1.7c0-0.6-0.1-1.1-0.3-1.5c-0.2-0.4-0.5-0.7-0.8-1c-0.3-0.3-0.8-0.5-1.2-0.7
					c-0.5-0.2-1-0.4-1.5-0.5V38C16.4,38,16.9,37.9,17.4,37.7z"/>
				<path fill="#CCCCCC" d="M30.2,27.7c0.1,0,0.2,0,0.3,0h0.5c0.5,0,1.1-0.1,1.6-0.2c0.5-0.2,0.9-0.4,1.3-0.7
					c0.4-0.3,0.7-0.7,0.9-1.1c0.2-0.4,0.3-0.9,0.3-1.5c0-1.1-0.4-2-1.1-2.6s-1.6-0.9-2.7-0.9c-0.7,0-1.3,0.1-1.8,0.4s-0.9,0.6-1.3,1
					c-0.3,0.4-0.6,0.9-0.7,1.5c-0.2,0.6-0.2,1.2-0.2,1.8h-2.6c0-1,0.2-2,0.5-2.8c0.3-0.8,0.7-1.6,1.3-2.2s1.2-1.1,2-1.4
					c0.8-0.3,1.8-0.5,2.8-0.5c0.9,0,1.8,0.1,2.6,0.3c0.8,0.2,1.5,0.6,2.1,1c0.6,0.5,1,1.1,1.4,1.8c0.3,0.7,0.5,1.6,0.5,2.6
					c0,1-0.3,1.8-0.8,2.6c-0.6,0.7-1.3,1.3-2.1,1.7v0.1c1.3,0.3,2.3,0.9,2.9,1.8c0.6,0.9,1,2.1,1,3.4c0,1.1-0.2,2-0.6,2.8
					c-0.4,0.8-0.9,1.5-1.6,2c-0.7,0.5-1.4,1-2.3,1.2c-0.9,0.3-1.8,0.4-2.9,0.4c-1.1,0-2.1-0.2-3-0.5c-0.9-0.3-1.6-0.8-2.3-1.3
					c-0.6-0.6-1.1-1.3-1.4-2.2c-0.3-0.9-0.5-1.9-0.5-3h2.6c0,1.4,0.4,2.5,1.2,3.4s1.9,1.3,3.4,1.3c0.6,0,1.2-0.1,1.8-0.3
					c0.6-0.2,1.1-0.5,1.5-0.8c0.4-0.4,0.8-0.8,1-1.3c0.3-0.5,0.4-1.1,0.4-1.7c0-0.7-0.1-1.3-0.4-1.8s-0.6-0.9-1-1.3
					s-0.9-0.6-1.4-0.8c-0.6-0.2-1.2-0.3-1.8-0.3c-0.5,0-1.1,0-1.5,0.1v-2.2C30.1,27.7,30.1,27.7,30.2,27.7z"/>
				<path fill="#CCCCCC" d="M46,36.6v3.1c0,1.1-0.3,2.1-0.8,3c-0.5,0.8-1.4,1.4-2.5,1.8v-1.5c0.3-0.1,0.6-0.3,0.9-0.5
					c0.2-0.2,0.4-0.5,0.6-0.8c0.1-0.3,0.2-0.5,0.3-0.8s0.1-0.5,0-0.8h-1.8v-3.4H46z"/>
				<path fill="#CCCCCC" d="M54.1,21.2L53,27.3l0.1,0.1c0.5-0.5,1.1-0.9,1.8-1.2c0.7-0.3,1.5-0.4,2.2-0.4c0.9,0,1.8,0.2,2.7,0.5
					c0.8,0.3,1.6,0.8,2.2,1.4c0.6,0.6,1.1,1.4,1.5,2.3c0.4,0.9,0.5,2,0.5,3.2c0,0.9-0.2,1.8-0.5,2.6c-0.3,0.9-0.8,1.6-1.4,2.3
					c-0.6,0.7-1.4,1.2-2.3,1.6s-2,0.6-3.3,0.6c-0.9,0-1.8-0.1-2.6-0.4c-0.8-0.3-1.5-0.7-2.2-1.2c-0.6-0.5-1.1-1.2-1.5-1.9
					c-0.4-0.8-0.6-1.6-0.6-2.6h2.6c0,0.5,0.2,1.1,0.4,1.5c0.2,0.5,0.5,0.9,0.9,1.2c0.4,0.4,0.9,0.6,1.4,0.8s1.1,0.3,1.8,0.3
					c0.6,0,1.2-0.1,1.7-0.3c0.6-0.2,1-0.5,1.5-1c0.4-0.4,0.7-1,1-1.6c0.2-0.6,0.4-1.4,0.4-2.2c0-0.7-0.1-1.4-0.3-1.9
					c-0.2-0.6-0.6-1.1-1-1.5c-0.4-0.4-0.9-0.8-1.5-1c-0.6-0.2-1.3-0.4-2-0.4c-0.8,0-1.6,0.2-2.3,0.6c-0.7,0.4-1.2,0.9-1.7,1.5
					L50.2,30l2-11.1h10.6v2.3H54.1z"/>
				<path fill="#CCCCCC" d="M66.7,27c0-0.8,0.1-1.7,0.3-2.5c0.2-0.8,0.4-1.6,0.7-2.3c0.3-0.7,0.7-1.4,1.2-1.9c0.5-0.5,1.2-1,2-1.3
					c0.8-0.3,1.7-0.5,2.9-0.5c1.1,0,2.1,0.2,2.9,0.5c0.8,0.3,1.5,0.8,2,1.3c0.5,0.5,0.9,1.2,1.2,1.9c0.3,0.7,0.5,1.5,0.7,2.3
					c0.2,0.8,0.3,1.6,0.3,2.5c0,0.8,0.1,1.7,0.1,2.4s0,1.6-0.1,2.4c0,0.8-0.1,1.7-0.3,2.5s-0.4,1.6-0.7,2.3
					c-0.3,0.7-0.7,1.3-1.2,1.9c-0.5,0.5-1.2,1-2,1.3c-0.8,0.3-1.7,0.5-2.9,0.5c-1.1,0-2.1-0.2-2.9-0.5c-0.8-0.3-1.5-0.7-2-1.3
					c-0.5-0.5-0.9-1.2-1.2-1.9c-0.3-0.7-0.5-1.5-0.7-2.3s-0.3-1.6-0.3-2.5s-0.1-1.7-0.1-2.4S66.7,27.8,66.7,27z M69.4,32.1
					c0,1,0.2,1.9,0.5,2.8s0.7,1.6,1.3,2.2c0.6,0.6,1.5,0.9,2.5,0.9c1.1,0,1.9-0.3,2.5-0.9c0.6-0.6,1-1.3,1.3-2.2s0.4-1.8,0.5-2.8
					c0-1,0.1-1.9,0.1-2.7c0-0.5,0-1.1,0-1.7c0-0.6-0.1-1.3-0.2-1.9c-0.1-0.6-0.2-1.3-0.4-1.9c-0.2-0.6-0.4-1.1-0.8-1.6
					c-0.3-0.5-0.8-0.8-1.3-1.1c-0.5-0.3-1.1-0.4-1.8-0.4s-1.3,0.1-1.8,0.4c-0.5,0.3-0.9,0.6-1.3,1.1c-0.3,0.5-0.6,1-0.8,1.6
					c-0.2,0.6-0.3,1.2-0.4,1.9c-0.1,0.6-0.1,1.3-0.2,1.9c0,0.6,0,1.2,0,1.7C69.4,30.2,69.4,31.1,69.4,32.1z"/>
				<path fill="#CCCCCC" d="M83.5,27c0-0.8,0.1-1.7,0.3-2.5c0.2-0.8,0.4-1.6,0.7-2.3c0.3-0.7,0.7-1.4,1.2-1.9c0.5-0.5,1.2-1,2-1.3
					c0.8-0.3,1.7-0.5,2.9-0.5c1.1,0,2.1,0.2,2.9,0.5c0.8,0.3,1.5,0.8,2,1.3c0.5,0.5,0.9,1.2,1.2,1.9c0.3,0.7,0.5,1.5,0.7,2.3
					c0.2,0.8,0.3,1.6,0.3,2.5c0,0.8,0.1,1.7,0.1,2.4s0,1.6-0.1,2.4c0,0.8-0.1,1.7-0.3,2.5s-0.4,1.6-0.7,2.3
					c-0.3,0.7-0.7,1.3-1.2,1.9c-0.5,0.5-1.2,1-2,1.3c-0.8,0.3-1.7,0.5-2.9,0.5c-1.1,0-2.1-0.2-2.9-0.5c-0.8-0.3-1.5-0.7-2-1.3
					c-0.5-0.5-0.9-1.2-1.2-1.9c-0.3-0.7-0.5-1.5-0.7-2.3s-0.3-1.6-0.3-2.5s-0.1-1.7-0.1-2.4S83.5,27.8,83.5,27z M86.2,32.1
					c0,1,0.2,1.9,0.5,2.8s0.7,1.6,1.3,2.2c0.6,0.6,1.5,0.9,2.5,0.9c1.1,0,1.9-0.3,2.5-0.9c0.6-0.6,1-1.3,1.3-2.2s0.4-1.8,0.5-2.8
					c0-1,0.1-1.9,0.1-2.7c0-0.5,0-1.1,0-1.7c0-0.6-0.1-1.3-0.2-1.9c-0.1-0.6-0.2-1.3-0.4-1.9c-0.2-0.6-0.4-1.1-0.8-1.6
					c-0.3-0.5-0.8-0.8-1.3-1.1c-0.5-0.3-1.1-0.4-1.8-0.4s-1.3,0.1-1.8,0.4c-0.5,0.3-0.9,0.6-1.3,1.1c-0.3,0.5-0.6,1-0.8,1.6
					c-0.2,0.6-0.3,1.2-0.4,1.9c-0.1,0.6-0.1,1.3-0.2,1.9c0,0.6,0,1.2,0,1.7C86.2,30.2,86.2,31.1,86.2,32.1z"/>
			</g>
		</g>
	</g>
	<g>
		<g>
			<line fill="none" stroke="#808080" stroke-width="0.5" x1="106.6" y1="561.1" x2="595.6" y2="561.1"/>
			<line fill="none" stroke="#808080" stroke-width="0.5" x1="106.6" y1="428.6" x2="597.8" y2="428.6"/>
			<line fill="none" stroke="#808080" stroke-width="0.5" x1="106.6" y1="362.5" x2="597.8" y2="362.5"/>
			<line fill="none" stroke="#808080" stroke-width="0.5" x1="106.6" y1="296.1" x2="597.8" y2="296.1"/>
			<line fill="none" stroke="#808080" stroke-width="0.5" x1="106.6" y1="230" x2="597.8" y2="230"/>
			<line fill="none" stroke="#808080" stroke-width="0.5" x1="106.6" y1="164" x2="597.8" y2="164"/>
			<line fill="none" stroke="#808080" stroke-width="0.5" x1="106.6" y1="97.5" x2="597.8" y2="97.5"/>
			<line fill="none" stroke="#808080" stroke-width="0.5" x1="106.6" y1="31.5" x2="597.8" y2="31.5"/>
		</g>
	</g>
</g>
<g>
	<g>
		<g>
			<rect x="123.9" y="495" fill="#BD5E28" width="88" height="8.6"/>
			<rect x="246.5" y="439.8" fill="#BD5E28" width="88" height="54.8"/>
			<rect x="368.6" y="419.9" fill="#BD5E28" width="88" height="75.1"/>
			<rect x="491.2" y="91.9" fill="#BD5E28" width="88" height="402.7"/>
		</g>
	</g>
</g>
<g>
	<g>
		<g enable-background="new    ">
			<path fill="#CCCCCC" d="M503.4,583.3c0.3-1,0.8-1.9,1.5-2.7s1.5-1.4,2.4-1.8c1-0.4,2.1-0.6,3.4-0.6c1,0,1.9,0.2,2.8,0.5
				c0.9,0.3,1.6,0.7,2.3,1.3c0.7,0.6,1.2,1.3,1.6,2.1c0.4,0.8,0.6,1.8,0.6,2.8c0,1.1-0.2,2-0.5,2.8c-0.3,0.8-0.8,1.4-1.4,2
				c-0.6,0.6-1.2,1.1-1.9,1.6s-1.4,1-2.2,1.4c-0.7,0.5-1.4,1-2.1,1.5c-0.7,0.5-1.3,1.2-1.8,1.9h10v3.7h-15.5c0-1.2,0.2-2.3,0.5-3.2
				s0.8-1.7,1.4-2.4c0.6-0.7,1.3-1.4,2.1-2s1.7-1.2,2.6-1.8c0.5-0.3,1-0.6,1.5-1c0.5-0.3,1-0.7,1.4-1.1c0.4-0.4,0.8-0.9,1.1-1.4
				c0.3-0.5,0.4-1.1,0.4-1.7c0-1-0.3-1.8-0.9-2.4c-0.6-0.6-1.4-0.9-2.3-0.9c-0.6,0-1.2,0.1-1.6,0.4c-0.4,0.3-0.8,0.7-1,1.1
				c-0.3,0.5-0.4,1-0.6,1.6c-0.1,0.6-0.2,1.1-0.2,1.7h-4.1C502.9,585.4,503,584.3,503.4,583.3z"/>
			<path fill="#CCCCCC" d="M519.9,583.8c0.4-1.4,1-2.5,1.7-3.4s1.5-1.5,2.5-1.8s1.9-0.5,3-0.5c1.1,0,2.1,0.2,3,0.5s1.8,1,2.5,1.8
				c0.7,0.8,1.3,2,1.7,3.4c0.4,1.4,0.6,3.1,0.6,5.2c0,2.1-0.2,3.9-0.6,5.3s-1,2.6-1.7,3.4c-0.7,0.8-1.5,1.5-2.5,1.8
				c-0.9,0.4-1.9,0.5-3,0.5c-1,0-2-0.2-3-0.5c-0.9-0.4-1.8-1-2.5-1.8s-1.3-2-1.7-3.4s-0.6-3.2-0.6-5.3
				C519.3,586.9,519.5,585.2,519.9,583.8z M523.6,591.2c0,0.9,0.2,1.7,0.4,2.5c0.2,0.8,0.5,1.5,1,2c0.5,0.6,1.1,0.8,2,0.8
				c0.9,0,1.6-0.3,2-0.8c0.5-0.6,0.8-1.2,1-2c0.2-0.8,0.3-1.6,0.4-2.5c0-0.9,0.1-1.6,0.1-2.2c0-0.4,0-0.8,0-1.3c0-0.5-0.1-1-0.1-1.6
				c-0.1-0.5-0.2-1.1-0.3-1.6c-0.1-0.5-0.3-1-0.6-1.4c-0.3-0.4-0.6-0.8-1-1c-0.4-0.3-0.9-0.4-1.5-0.4c-0.6,0-1.1,0.1-1.5,0.4
				s-0.7,0.6-1,1s-0.4,0.9-0.6,1.4c-0.1,0.5-0.2,1.1-0.3,1.6c-0.1,0.5-0.1,1.1-0.1,1.6c0,0.5,0,1,0,1.3
				C523.5,589.6,523.6,590.3,523.6,591.2z"/>
			<path fill="#CCCCCC" d="M543,599.6v-13.7h-5.3v-3.2c0.7,0,1.5,0,2.2-0.2c0.7-0.1,1.3-0.4,1.9-0.7s1-0.8,1.4-1.3
				c0.4-0.5,0.6-1.2,0.8-2h3.4v21.1H543z"/>
			<path fill="#CCCCCC" d="M552.7,594.8v-3.9l9.2-12.3h3.8v12.7h2.8v3.5h-2.8v4.9h-4.1v-4.9H552.7z M561.6,583.9l-5.5,7.3h5.6
				L561.6,583.9L561.6,583.9z"/>
		</g>
	</g>
	<g>
		<g enable-background="new    ">
			<path fill="#CCCCCC" d="M380.8,583.3c0.3-1,0.8-1.9,1.4-2.7s1.5-1.4,2.4-1.8c1-0.4,2.1-0.6,3.4-0.6c1,0,1.9,0.2,2.8,0.5
				c0.9,0.3,1.6,0.7,2.3,1.3c0.7,0.6,1.2,1.3,1.6,2.1c0.4,0.8,0.6,1.8,0.6,2.8c0,1.1-0.2,2-0.5,2.8c-0.3,0.8-0.8,1.4-1.4,2
				c-0.6,0.6-1.2,1.1-1.9,1.6c-0.7,0.5-1.4,1-2.2,1.4c-0.7,0.5-1.4,1-2.1,1.5c-0.7,0.5-1.3,1.2-1.8,1.9h10v3.7h-15.5
				c0-1.2,0.2-2.3,0.5-3.2c0.4-0.9,0.8-1.7,1.4-2.4c0.6-0.7,1.3-1.4,2.1-2c0.8-0.6,1.7-1.2,2.6-1.8c0.5-0.3,1-0.6,1.5-1
				c0.5-0.3,1-0.7,1.4-1.1c0.4-0.4,0.8-0.9,1.1-1.4c0.3-0.5,0.4-1.1,0.4-1.7c0-1-0.3-1.8-0.9-2.4s-1.4-0.9-2.3-0.9
				c-0.6,0-1.2,0.1-1.6,0.4c-0.4,0.3-0.8,0.7-1,1.1c-0.3,0.5-0.4,1-0.6,1.6c-0.1,0.6-0.2,1.1-0.2,1.7h-4.1
				C380.4,585.4,380.5,584.3,380.8,583.3z"/>
			<path fill="#CCCCCC" d="M397.4,583.8c0.4-1.4,1-2.5,1.7-3.4s1.5-1.5,2.5-1.8s1.9-0.5,3-0.5c1.1,0,2.1,0.2,3,0.5
				c0.9,0.4,1.8,1,2.5,1.8c0.7,0.8,1.3,2,1.7,3.4c0.4,1.4,0.6,3.1,0.6,5.2c0,2.1-0.2,3.9-0.6,5.3c-0.4,1.4-1,2.6-1.7,3.4
				c-0.7,0.8-1.5,1.5-2.5,1.8c-0.9,0.4-1.9,0.5-3,0.5c-1,0-2-0.2-3-0.5c-0.9-0.4-1.8-1-2.5-1.8s-1.3-2-1.7-3.4s-0.6-3.2-0.6-5.3
				C396.7,586.9,396.9,585.2,397.4,583.8z M401.1,591.2c0,0.9,0.2,1.7,0.4,2.5c0.2,0.8,0.5,1.5,1,2c0.5,0.6,1.1,0.8,2,0.8
				c0.9,0,1.6-0.3,2-0.8c0.5-0.6,0.8-1.2,1-2c0.2-0.8,0.3-1.6,0.4-2.5c0-0.9,0.1-1.6,0.1-2.2c0-0.4,0-0.8,0-1.3c0-0.5-0.1-1-0.1-1.6
				c-0.1-0.5-0.2-1.1-0.3-1.6c-0.1-0.5-0.3-1-0.6-1.4c-0.3-0.4-0.6-0.8-1-1s-0.9-0.4-1.5-0.4s-1.1,0.1-1.5,0.4s-0.7,0.6-1,1
				s-0.4,0.9-0.6,1.4c-0.1,0.5-0.2,1.1-0.3,1.6c-0.1,0.5-0.1,1.1-0.1,1.6s0,1,0,1.3C401,589.6,401.1,590.3,401.1,591.2z"/>
			<path fill="#CCCCCC" d="M420.5,599.6v-13.7h-5.3v-3.2c0.7,0,1.5,0,2.2-0.2c0.7-0.1,1.3-0.4,1.9-0.7s1-0.8,1.4-1.3
				c0.4-0.5,0.6-1.2,0.8-2h3.4v21.1H420.5z"/>
			<path fill="#CCCCCC" d="M438.1,587c0.5,0,1-0.2,1.5-0.3s0.8-0.5,1.1-0.8s0.4-0.8,0.4-1.5c0-0.9-0.3-1.6-0.9-2.1
				c-0.6-0.5-1.3-0.7-2.1-0.7c-1.1,0-1.9,0.4-2.5,1.1c-0.6,0.7-0.8,1.6-0.8,2.7h-4.1c0-1.1,0.2-2.1,0.6-3c0.4-0.9,0.8-1.7,1.5-2.3
				c0.6-0.6,1.4-1.1,2.3-1.5s1.9-0.5,3-0.5c0.8,0,1.7,0.1,2.5,0.4c0.8,0.3,1.6,0.6,2.3,1.1c0.7,0.5,1.2,1.1,1.6,1.8
				c0.4,0.7,0.6,1.6,0.6,2.5c0,1-0.2,1.9-0.7,2.7c-0.5,0.8-1.2,1.3-2.2,1.6v0.1c1.2,0.3,2.1,0.8,2.8,1.7c0.7,0.9,1,1.9,1,3.1
				c0,1.1-0.2,2.1-0.6,3c-0.4,0.9-1,1.6-1.7,2.2c-0.7,0.6-1.6,1-2.5,1.3c-0.9,0.3-1.9,0.5-3,0.5c-1.2,0-2.3-0.2-3.2-0.5
				c-1-0.3-1.8-0.8-2.5-1.5s-1.2-1.5-1.6-2.4c-0.4-0.9-0.5-2-0.5-3.3h4.1c0,0.6,0.1,1.1,0.3,1.6s0.4,1,0.7,1.3
				c0.3,0.4,0.7,0.7,1.1,0.9c0.5,0.2,1,0.3,1.6,0.3c1,0,1.8-0.3,2.4-0.9s1-1.4,1-2.4c0-0.8-0.2-1.4-0.5-1.8s-0.7-0.7-1.2-0.9
				c-0.5-0.2-1-0.3-1.6-0.3c-0.6,0-1.1,0-1.6,0v-3C437.1,587.1,437.5,587.1,438.1,587z"/>
		</g>
	</g>
	<g>
		<g enable-background="new    ">
			<path fill="#CCCCCC" d="M258.3,583.3c0.3-1,0.8-1.9,1.4-2.7s1.5-1.4,2.4-1.8c1-0.4,2.1-0.6,3.4-0.6c1,0,1.9,0.2,2.8,0.5
				c0.9,0.3,1.6,0.7,2.3,1.3c0.7,0.6,1.2,1.3,1.6,2.1c0.4,0.8,0.6,1.8,0.6,2.8c0,1.1-0.2,2-0.5,2.8c-0.3,0.8-0.8,1.4-1.4,2
				c-0.6,0.6-1.2,1.1-1.9,1.6c-0.7,0.5-1.4,1-2.2,1.4c-0.7,0.5-1.4,1-2.1,1.5c-0.7,0.5-1.3,1.2-1.8,1.9h10v3.7h-15.5
				c0-1.2,0.2-2.3,0.5-3.2c0.4-0.9,0.8-1.7,1.4-2.4c0.6-0.7,1.3-1.4,2.1-2c0.8-0.6,1.7-1.2,2.6-1.8c0.5-0.3,1-0.6,1.5-1
				c0.5-0.3,1-0.7,1.4-1.1c0.4-0.4,0.8-0.9,1.1-1.4c0.3-0.5,0.4-1.1,0.4-1.7c0-1-0.3-1.8-0.9-2.4s-1.4-0.9-2.3-0.9
				c-0.6,0-1.2,0.1-1.6,0.4c-0.4,0.3-0.8,0.7-1,1.1c-0.3,0.5-0.4,1-0.6,1.6c-0.1,0.6-0.2,1.1-0.2,1.7h-4.1
				C257.9,585.4,258,584.3,258.3,583.3z"/>
			<path fill="#CCCCCC" d="M274.8,583.8c0.4-1.4,1-2.5,1.7-3.4c0.7-0.8,1.5-1.5,2.5-1.8s1.9-0.5,3-0.5c1.1,0,2.1,0.2,3,0.5
				s1.8,1,2.5,1.8c0.7,0.8,1.3,2,1.7,3.4c0.4,1.4,0.6,3.1,0.6,5.2c0,2.1-0.2,3.9-0.6,5.3c-0.4,1.4-1,2.6-1.7,3.4
				c-0.7,0.8-1.5,1.5-2.5,1.8c-0.9,0.4-1.9,0.5-3,0.5c-1,0-2-0.2-3-0.5c-0.9-0.4-1.8-1-2.5-1.8c-0.7-0.8-1.3-2-1.7-3.4
				c-0.4-1.4-0.6-3.2-0.6-5.3C274.2,586.9,274.4,585.2,274.8,583.8z M278.6,591.2c0,0.9,0.2,1.7,0.4,2.5c0.2,0.8,0.5,1.5,1,2
				c0.5,0.6,1.1,0.8,2,0.8c0.9,0,1.6-0.3,2-0.8c0.5-0.6,0.8-1.2,1-2c0.2-0.8,0.3-1.6,0.4-2.5c0-0.9,0.1-1.6,0.1-2.2
				c0-0.4,0-0.8,0-1.3s-0.1-1-0.1-1.6c-0.1-0.5-0.2-1.1-0.3-1.6c-0.1-0.5-0.3-1-0.6-1.4c-0.3-0.4-0.6-0.8-1-1
				c-0.4-0.3-0.9-0.4-1.5-0.4c-0.6,0-1.1,0.1-1.5,0.4s-0.7,0.6-1,1c-0.3,0.4-0.4,0.9-0.6,1.4c-0.1,0.5-0.2,1.1-0.3,1.6
				c-0.1,0.5-0.1,1.1-0.1,1.6s0,1,0,1.3C278.5,589.6,278.5,590.3,278.6,591.2z"/>
			<path fill="#CCCCCC" d="M297.9,599.6v-13.7h-5.3v-3.2c0.7,0,1.5,0,2.2-0.2c0.7-0.1,1.3-0.4,1.9-0.7c0.6-0.3,1-0.8,1.4-1.3
				c0.4-0.5,0.6-1.2,0.8-2h3.4v21.1H297.9z"/>
			<path fill="#CCCCCC" d="M308.7,583.3c0.3-1,0.8-1.9,1.4-2.7s1.5-1.4,2.4-1.8c1-0.4,2.1-0.6,3.4-0.6c1,0,1.9,0.2,2.8,0.5
				c0.9,0.3,1.6,0.7,2.3,1.3c0.7,0.6,1.2,1.3,1.6,2.1c0.4,0.8,0.6,1.8,0.6,2.8c0,1.1-0.2,2-0.5,2.8c-0.3,0.8-0.8,1.4-1.4,2
				c-0.6,0.6-1.2,1.1-1.9,1.6c-0.7,0.5-1.4,1-2.2,1.4c-0.7,0.5-1.4,1-2.1,1.5c-0.7,0.5-1.3,1.2-1.8,1.9h10v3.7h-15.5
				c0-1.2,0.2-2.3,0.5-3.2c0.4-0.9,0.8-1.7,1.4-2.4c0.6-0.7,1.3-1.4,2.1-2c0.8-0.6,1.7-1.2,2.6-1.8c0.5-0.3,1-0.6,1.5-1
				c0.5-0.3,1-0.7,1.4-1.1c0.4-0.4,0.8-0.9,1.1-1.4c0.3-0.5,0.4-1.1,0.4-1.7c0-1-0.3-1.8-0.9-2.4s-1.4-0.9-2.3-0.9
				c-0.6,0-1.2,0.1-1.6,0.4c-0.4,0.3-0.8,0.7-1,1.1c-0.3,0.5-0.4,1-0.6,1.6c-0.1,0.6-0.2,1.1-0.2,1.7h-4.1
				C308.3,585.4,308.4,584.3,308.7,583.3z"/>
		</g>
	</g>
	<g>
		<g enable-background="new    ">
			<path fill="#CCCCCC" d="M135.8,583.3c0.3-1,0.8-1.9,1.4-2.7s1.5-1.4,2.4-1.8c1-0.4,2.1-0.6,3.4-0.6c1,0,1.9,0.2,2.8,0.5
				c0.9,0.3,1.6,0.7,2.3,1.3c0.7,0.6,1.2,1.3,1.6,2.1c0.4,0.8,0.6,1.8,0.6,2.8c0,1.1-0.2,2-0.5,2.8c-0.3,0.8-0.8,1.4-1.4,2
				c-0.6,0.6-1.2,1.1-1.9,1.6c-0.7,0.5-1.4,1-2.2,1.4c-0.7,0.5-1.4,1-2.1,1.5c-0.7,0.5-1.3,1.2-1.8,1.9h10v3.7h-15.5
				c0-1.2,0.2-2.3,0.5-3.2c0.4-0.9,0.8-1.7,1.4-2.4c0.6-0.7,1.3-1.4,2.1-2c0.8-0.6,1.7-1.2,2.6-1.8c0.5-0.3,1-0.6,1.5-1
				c0.5-0.3,1-0.7,1.4-1.1c0.4-0.4,0.8-0.9,1.1-1.4c0.3-0.5,0.4-1.1,0.4-1.7c0-1-0.3-1.8-0.9-2.4s-1.4-0.9-2.3-0.9
				c-0.6,0-1.2,0.1-1.6,0.4c-0.4,0.3-0.8,0.7-1,1.1c-0.3,0.5-0.4,1-0.6,1.6c-0.1,0.6-0.2,1.1-0.2,1.7h-4.1
				C135.4,585.4,135.5,584.3,135.8,583.3z"/>
			<path fill="#CCCCCC" d="M152.3,583.8c0.4-1.4,1-2.5,1.7-3.4c0.7-0.8,1.5-1.5,2.5-1.8s1.9-0.5,3-0.5c1.1,0,2.1,0.2,3,0.5
				s1.8,1,2.5,1.8c0.7,0.8,1.3,2,1.7,3.4c0.4,1.4,0.6,3.1,0.6,5.2c0,2.1-0.2,3.9-0.6,5.3c-0.4,1.4-1,2.6-1.7,3.4
				c-0.7,0.8-1.5,1.5-2.5,1.8c-0.9,0.4-1.9,0.5-3,0.5c-1,0-2-0.2-3-0.5c-0.9-0.4-1.8-1-2.5-1.8c-0.7-0.8-1.3-2-1.7-3.4
				c-0.4-1.4-0.6-3.2-0.6-5.3C151.7,586.9,151.9,585.2,152.3,583.8z M156.1,591.2c0,0.9,0.2,1.7,0.4,2.5c0.2,0.8,0.5,1.5,1,2
				c0.5,0.6,1.1,0.8,2,0.8c0.9,0,1.6-0.3,2-0.8c0.5-0.6,0.8-1.2,1-2c0.2-0.8,0.3-1.6,0.4-2.5c0-0.9,0.1-1.6,0.1-2.2
				c0-0.4,0-0.8,0-1.3s-0.1-1-0.1-1.6c-0.1-0.5-0.2-1.1-0.3-1.6c-0.1-0.5-0.3-1-0.6-1.4c-0.3-0.4-0.6-0.8-1-1
				c-0.4-0.3-0.9-0.4-1.5-0.4c-0.6,0-1.1,0.1-1.5,0.4s-0.7,0.6-1,1c-0.3,0.4-0.4,0.9-0.6,1.4c-0.1,0.5-0.2,1.1-0.3,1.6
				c-0.1,0.5-0.1,1.1-0.1,1.6s0,1,0,1.3C156,589.6,156,590.3,156.1,591.2z"/>
			<path fill="#CCCCCC" d="M175.4,599.6v-13.7h-5.3v-3.2c0.7,0,1.5,0,2.2-0.2c0.7-0.1,1.3-0.4,1.9-0.7c0.6-0.3,1-0.8,1.4-1.3
				c0.4-0.5,0.6-1.2,0.8-2h3.4v21.1H175.4z"/>
			<path fill="#CCCCCC" d="M192.2,599.6v-13.7h-5.3v-3.2c0.7,0,1.5,0,2.2-0.2c0.7-0.1,1.3-0.4,1.9-0.7c0.6-0.3,1-0.8,1.4-1.3
				c0.4-0.5,0.6-1.2,0.8-2h3.4v21.1H192.2z"/>
		</g>
	</g>
</g>
<g enable-background="new    ">
	<path fill="#FFFFFF" d="M491.1,64.1c0.7,0.7,1.5,1.2,2.5,1.4v-6.8c-0.1,0-0.3-0.1-0.4-0.1s-0.4-0.1-0.6-0.1
		c-0.8-0.2-1.6-0.5-2.4-0.8c-0.8-0.3-1.5-0.7-2.1-1.2s-1.1-1.1-1.5-1.8c-0.4-0.7-0.6-1.6-0.6-2.7c0-1.1,0.2-2.1,0.6-2.9
		c0.4-0.8,1-1.5,1.7-2.1c0.7-0.6,1.5-1,2.4-1.3c0.9-0.3,1.8-0.5,2.8-0.6v-2.5h1.9V45c1,0.1,1.9,0.3,2.7,0.6c0.9,0.3,1.6,0.7,2.2,1.3
		c0.6,0.6,1.2,1.2,1.6,2.1s0.6,1.8,0.7,2.9h-4.6c0-0.9-0.3-1.6-0.8-2.2c-0.5-0.6-1.1-0.9-1.9-0.9v5.7c0.3,0.1,0.5,0.1,0.8,0.2
		c0.3,0.1,0.6,0.1,0.9,0.2c1.6,0.4,2.8,1,3.7,1.6s1.5,1.3,1.9,2c0.4,0.7,0.7,1.4,0.7,2.1c0.1,0.7,0.1,1.3,0.1,1.8
		c0,0.5-0.1,1.1-0.4,1.8c-0.2,0.7-0.7,1.4-1.3,2.1s-1.4,1.3-2.5,1.8c-1,0.5-2.4,0.9-4,1v2.8h-1.9v-2.8c-2.4-0.2-4.3-0.9-5.7-2.2
		c-1.4-1.3-2.1-3.2-2.4-5.8h4.6C490.1,62.4,490.4,63.4,491.1,64.1z M492.5,49c-0.3,0.1-0.7,0.3-0.9,0.5c-0.3,0.2-0.5,0.5-0.7,0.8
		c-0.2,0.3-0.2,0.7-0.2,1.2c0,0.7,0.2,1.3,0.7,1.7s1.2,0.7,2.2,0.9v-5.3C493.2,48.8,492.9,48.9,492.5,49z M496.7,65.2
		c0.4-0.1,0.8-0.3,1.1-0.6c0.3-0.3,0.6-0.6,0.8-1c0.2-0.4,0.3-0.8,0.3-1.3c0-0.8-0.3-1.5-0.8-1.9s-1.4-0.8-2.7-1.1v6.2
		C495.9,65.4,496.3,65.3,496.7,65.2z"/>
	<path fill="#FFFFFF" d="M512.5,55.2c0.6,0,1.1-0.2,1.6-0.4c0.5-0.2,0.9-0.5,1.2-0.9c0.3-0.4,0.5-0.9,0.5-1.6c0-1-0.3-1.7-1-2.2
		s-1.4-0.8-2.2-0.8c-1.2,0-2,0.4-2.6,1.1c-0.6,0.8-0.9,1.7-0.9,2.9h-4.4c0-1.2,0.3-2.2,0.6-3.2c0.4-1,0.9-1.8,1.6-2.5
		c0.7-0.7,1.5-1.2,2.4-1.6c0.9-0.4,2-0.6,3.2-0.6c0.9,0,1.8,0.1,2.7,0.4c0.9,0.3,1.7,0.7,2.4,1.2c0.7,0.5,1.3,1.2,1.8,2
		c0.5,0.8,0.7,1.7,0.7,2.7c0,1.1-0.3,2.1-0.8,2.9c-0.5,0.8-1.3,1.4-2.4,1.7v0.1c1.3,0.3,2.2,0.9,2.9,1.8c0.7,0.9,1.1,2,1.1,3.3
		c0,1.2-0.2,2.2-0.7,3.2s-1.1,1.7-1.9,2.3c-0.8,0.6-1.7,1.1-2.7,1.4c-1,0.3-2.1,0.5-3.2,0.5c-1.3,0-2.4-0.2-3.5-0.6
		c-1-0.4-1.9-0.9-2.7-1.6c-0.7-0.7-1.3-1.6-1.7-2.6c-0.4-1-0.6-2.2-0.6-3.5h4.4c0,0.6,0.1,1.2,0.3,1.7c0.2,0.6,0.4,1,0.7,1.4
		c0.3,0.4,0.7,0.7,1.2,1c0.5,0.2,1.1,0.4,1.7,0.4c1,0,1.9-0.3,2.6-1c0.7-0.6,1.1-1.5,1.1-2.6c0-0.9-0.2-1.5-0.5-2s-0.8-0.8-1.3-1
		s-1.1-0.3-1.7-0.4c-0.6,0-1.2,0-1.8,0v-3.2C511.4,55.2,512,55.2,512.5,55.2z"/>
	<path fill="#FFFFFF" d="M528.6,63.7v5c0,0.7-0.1,1.4-0.4,2c-0.3,0.6-0.6,1.1-1.1,1.6s-1,0.8-1.6,1.1c-0.6,0.3-1.3,0.5-2,0.6v-2.3
		c0.3-0.1,0.6-0.2,0.9-0.4s0.5-0.4,0.8-0.7s0.4-0.6,0.5-0.9c0.1-0.3,0.2-0.7,0.1-1h-2.3v-5H528.6z"/>
	<path fill="#FFFFFF" d="M531.9,51.7c0.4-1.5,1-2.7,1.8-3.6s1.6-1.6,2.6-1.9c1-0.4,2.1-0.6,3.2-0.6c1.1,0,2.2,0.2,3.2,0.6
		c1,0.4,1.9,1,2.7,1.9s1.4,2.1,1.8,3.6s0.7,3.3,0.7,5.6c0,2.3-0.2,4.2-0.7,5.7c-0.4,1.5-1,2.7-1.8,3.6c-0.8,0.9-1.7,1.6-2.7,1.9
		c-1,0.4-2.1,0.6-3.2,0.6c-1.1,0-2.2-0.2-3.2-0.6c-1-0.4-1.9-1-2.6-1.9c-0.8-0.9-1.4-2.1-1.8-3.6c-0.4-1.5-0.7-3.4-0.7-5.7
		C531.2,55.1,531.5,53.2,531.9,51.7z M535.9,59.6c0,0.9,0.2,1.8,0.4,2.7c0.2,0.9,0.6,1.6,1.1,2.2c0.5,0.6,1.2,0.9,2.1,0.9
		c0.9,0,1.7-0.3,2.2-0.9c0.5-0.6,0.9-1.3,1.1-2.2c0.2-0.9,0.4-1.7,0.4-2.7c0-0.9,0.1-1.7,0.1-2.3c0-0.4,0-0.9,0-1.4
		c0-0.5-0.1-1.1-0.1-1.7c-0.1-0.6-0.2-1.2-0.3-1.7c-0.1-0.6-0.4-1.1-0.6-1.5c-0.3-0.5-0.6-0.8-1.1-1.1s-1-0.4-1.6-0.4
		c-0.6,0-1.1,0.1-1.6,0.4s-0.8,0.6-1,1.1c-0.3,0.5-0.5,1-0.6,1.5c-0.2,0.6-0.3,1.1-0.3,1.7c-0.1,0.6-0.1,1.1-0.1,1.7
		c0,0.6,0,1,0,1.4C535.8,57.9,535.8,58.7,535.9,59.6z"/>
	<path fill="#FFFFFF" d="M549.1,63.4v-4.2l9.8-13.2h4.1v13.6h3v3.8h-3v5.2h-4.4v-5.2H549.1z M558.6,51.8l-5.9,7.9h6L558.6,51.8
		L558.6,51.8z"/>
	<path fill="#FFFFFF" d="M574.6,68.7V54h-5.7v-3.5c0.8,0,1.6,0,2.3-0.2s1.4-0.4,2-0.7c0.6-0.4,1.1-0.8,1.5-1.4
		c0.4-0.6,0.7-1.3,0.8-2.2h3.7v22.7H574.6z"/>
</g>
<g>
	<line fill="none" stroke="#808080" x1="106.6" y1="495" x2="596.5" y2="495"/>
</g>
</svg>
