<?xml version="1.0" encoding="utf-8"?>
<!-- Generator: Adobe Illustrator 17.1.0, SVG Export Plug-In . SVG Version: 6.00 Build 0)  -->
<!DOCTYPE svg PUBLIC "-//W3C//DTD SVG 1.1//EN" "http://www.w3.org/Graphics/SVG/1.1/DTD/svg11.dtd">
<svg version="1.1" id="Layer_1" xmlns="http://www.w3.org/2000/svg" xmlns:xlink="http://www.w3.org/1999/xlink" x="0px" y="0px"
	 viewBox="0 0 603 612" enable-background="new 0 0 603 612" xml:space="preserve">
<g enable-background="new    ">
	<path fill="#FFFFFF" d="M492.7,103.1c0.7,0.7,1.5,1.2,2.5,1.4v-6.8c-0.1,0-0.3-0.1-0.4-0.1c-0.2-0.1-0.4-0.1-0.6-0.1
		c-0.8-0.2-1.6-0.5-2.4-0.8s-1.5-0.7-2.1-1.2c-0.6-0.5-1.1-1.1-1.5-1.8c-0.4-0.7-0.6-1.6-0.6-2.7c0-1.1,0.2-2.1,0.6-2.9
		c0.4-0.8,1-1.6,1.7-2.1c0.7-0.6,1.5-1,2.4-1.3c0.9-0.3,1.9-0.5,2.8-0.6v-2.5h1.9v2.5c1,0.1,1.9,0.3,2.8,0.6
		c0.9,0.3,1.6,0.8,2.3,1.3s1.2,1.2,1.6,2.1c0.4,0.8,0.7,1.8,0.7,2.9h-4.6c0-0.9-0.3-1.6-0.8-2.2c-0.5-0.6-1.2-0.9-1.9-0.9v5.8
		c0.3,0.1,0.5,0.1,0.8,0.2c0.3,0.1,0.6,0.1,0.9,0.2c1.6,0.4,2.8,1,3.7,1.6c0.9,0.6,1.5,1.3,1.9,2c0.4,0.7,0.7,1.4,0.7,2.1
		c0.1,0.7,0.1,1.3,0.1,1.9c0,0.5-0.1,1.1-0.4,1.8c-0.2,0.7-0.7,1.4-1.3,2.1c-0.6,0.7-1.5,1.3-2.5,1.9c-1,0.5-2.4,0.9-4,1v2.8h-1.9
		v-2.8c-2.4-0.2-4.3-0.9-5.7-2.2c-1.4-1.3-2.2-3.3-2.4-5.8h4.6C491.7,101.4,492,102.4,492.7,103.1z M494.1,87.9
		c-0.3,0.1-0.7,0.3-0.9,0.5s-0.5,0.5-0.7,0.8c-0.2,0.3-0.2,0.7-0.2,1.2c0,0.7,0.2,1.3,0.7,1.7c0.5,0.4,1.2,0.7,2.3,0.9v-5.3
		C494.8,87.7,494.5,87.8,494.1,87.9z M498.3,104.2c0.4-0.1,0.8-0.3,1.1-0.6c0.3-0.3,0.6-0.6,0.8-1c0.2-0.4,0.3-0.8,0.3-1.4
		c0-0.8-0.3-1.5-0.8-1.9c-0.5-0.4-1.4-0.8-2.7-1.2v6.3C497.5,104.4,497.9,104.4,498.3,104.2z"/>
	<path fill="#FFFFFF" d="M511.8,103.9c0.5,0.6,1.2,0.8,2,0.8c0.8,0,1.5-0.2,2.1-0.7c0.5-0.5,1-1.1,1.3-1.8c0.3-0.7,0.6-1.5,0.7-2.3
		s0.2-1.5,0.3-2.2l-0.1-0.1c-0.6,0.9-1.4,1.6-2.2,2c-0.8,0.4-1.8,0.6-2.9,0.6c-1,0-1.9-0.2-2.9-0.6c-0.9-0.4-1.7-1-2.4-1.7
		c-0.6-0.7-1.1-1.5-1.3-2.4s-0.4-1.8-0.4-2.7c0-1.2,0.2-2.3,0.6-3.3s0.9-1.9,1.6-2.6c0.7-0.8,1.5-1.3,2.5-1.8c1-0.4,2.1-0.7,3.3-0.7
		c1.7,0,3.2,0.3,4.3,1c1.1,0.7,2,1.6,2.7,2.7c0.7,1.1,1.1,2.4,1.4,3.8c0.3,1.4,0.4,2.8,0.4,4.3c0,1.4-0.2,2.8-0.5,4.2
		c-0.3,1.4-0.8,2.7-1.6,3.8s-1.6,2.1-2.8,2.8c-1.1,0.7-2.5,1.1-4.1,1.1c-1,0-1.9-0.1-2.7-0.4c-0.8-0.3-1.6-0.7-2.3-1.2
		c-0.7-0.5-1.2-1.2-1.6-2c-0.4-0.8-0.7-1.7-0.8-2.7h4.4C510.9,102.6,511.2,103.3,511.8,103.9z M515.7,96.4c0.5-0.2,0.8-0.5,1.1-0.9
		c0.3-0.4,0.5-0.8,0.7-1.4c0.2-0.5,0.2-1,0.2-1.6c0-0.5-0.1-1-0.2-1.5c-0.2-0.5-0.4-1-0.7-1.4c-0.3-0.4-0.7-0.7-1.2-1
		c-0.5-0.2-1-0.4-1.6-0.4c-0.5,0-1,0.1-1.5,0.4c-0.4,0.2-0.8,0.6-1.1,0.9c-0.3,0.4-0.5,0.8-0.7,1.3c-0.2,0.5-0.2,1-0.2,1.5
		c0,0.5,0.1,1.1,0.2,1.6c0.1,0.5,0.4,1,0.6,1.4s0.6,0.7,1.1,1s1,0.4,1.5,0.4C514.7,96.8,515.2,96.6,515.7,96.4z"/>
	<path fill="#FFFFFF" d="M537.1,92.7c-0.9,1.5-1.7,3.1-2.3,4.9c-0.6,1.7-1.1,3.5-1.4,5.2c-0.3,1.8-0.5,3.4-0.5,4.9h-5
		c0.3-3.4,1.1-6.7,2.4-9.9c1.3-3.2,3.1-6,5.3-8.7h-10.8v-4.3h15.6v4C539,89.9,538,91.2,537.1,92.7z"/>
	<path fill="#FFFFFF" d="M543.6,88c0.5-0.8,1-1.4,1.8-2c0.7-0.5,1.5-0.9,2.5-1.2c0.9-0.3,1.8-0.4,2.8-0.4c1.4,0,2.6,0.2,3.6,0.7
		c1,0.4,1.8,1,2.4,1.6c0.6,0.6,1,1.3,1.3,2c0.3,0.7,0.4,1.3,0.4,1.9c0,1.1-0.3,2.1-0.8,3c-0.6,0.8-1.4,1.5-2.5,1.8v0.1
		c1.4,0.3,2.4,1,3.2,1.9c0.7,1,1.1,2.2,1.1,3.6c0,1.2-0.2,2.3-0.7,3.2c-0.5,0.9-1.1,1.6-1.9,2.2c-0.8,0.6-1.7,1-2.7,1.3
		c-1,0.3-2.1,0.4-3.1,0.4c-1.1,0-2.2-0.1-3.2-0.4c-1-0.3-2-0.7-2.8-1.3s-1.5-1.3-2-2.2s-0.7-2-0.7-3.2c0-1.5,0.4-2.7,1.1-3.7
		c0.8-1,1.8-1.6,3.2-2v-0.1c-1.1-0.3-1.9-0.9-2.5-1.7c-0.6-0.8-0.8-1.8-0.8-3C542.9,89.7,543.1,88.8,543.6,88z M546.9,102.4
		c0.2,0.5,0.5,0.9,0.9,1.2s0.8,0.6,1.3,0.8c0.5,0.2,1,0.3,1.6,0.3c0.6,0,1.1-0.1,1.5-0.3c0.5-0.2,0.9-0.4,1.2-0.8s0.6-0.7,0.8-1.2
		s0.3-1,0.3-1.6c0-0.5-0.1-1-0.3-1.5c-0.2-0.4-0.5-0.8-0.8-1.2s-0.8-0.6-1.2-0.8c-0.5-0.2-1-0.3-1.5-0.3c-1.1,0-2.1,0.3-2.9,0.9
		c-0.8,0.6-1.2,1.5-1.2,2.7C546.6,101.4,546.7,102,546.9,102.4z M548.2,93.3c0.7,0.5,1.5,0.8,2.4,0.8c1,0,1.8-0.3,2.4-0.8
		c0.7-0.5,1-1.3,1-2.2c0-0.3,0-0.6-0.1-1c-0.1-0.4-0.3-0.7-0.5-1s-0.6-0.6-1-0.8c-0.4-0.2-1-0.3-1.7-0.3c-0.5,0-0.9,0.1-1.3,0.2
		c-0.4,0.1-0.8,0.3-1.1,0.6s-0.6,0.6-0.8,1s-0.3,0.8-0.3,1.4C547.1,92.1,547.5,92.8,548.2,93.3z"/>
	<path fill="#FFFFFF" d="M566.7,102.7v5h-5.1v-5H566.7z"/>
	<path fill="#FFFFFF" d="M577.7,94.1c0.6,0,1.1-0.2,1.6-0.4s0.9-0.5,1.2-0.9s0.5-0.9,0.5-1.6c0-1-0.3-1.7-1-2.3
		c-0.7-0.5-1.4-0.8-2.3-0.8c-1.2,0-2.1,0.4-2.7,1.2c-0.6,0.8-0.9,1.7-0.9,2.9h-4.4c0-1.2,0.3-2.2,0.6-3.2s0.9-1.8,1.6-2.5
		s1.5-1.2,2.5-1.6c1-0.4,2-0.6,3.2-0.6c0.9,0,1.8,0.1,2.7,0.4c0.9,0.3,1.7,0.7,2.5,1.2c0.7,0.5,1.3,1.2,1.8,2
		c0.5,0.8,0.7,1.7,0.7,2.7c0,1.1-0.3,2.1-0.8,2.9c-0.5,0.8-1.3,1.4-2.4,1.7v0.1c1.3,0.3,2.2,0.9,3,1.8c0.7,0.9,1.1,2.1,1.1,3.4
		c0,1.2-0.2,2.3-0.7,3.2c-0.5,0.9-1.1,1.7-1.9,2.3c-0.8,0.6-1.7,1.1-2.7,1.4c-1,0.3-2.1,0.5-3.2,0.5c-1.3,0-2.5-0.2-3.5-0.6
		c-1.1-0.4-2-0.9-2.7-1.6s-1.3-1.6-1.7-2.6c-0.4-1-0.6-2.2-0.6-3.5h4.4c0,0.6,0.1,1.2,0.3,1.7c0.2,0.6,0.4,1,0.8,1.4
		c0.3,0.4,0.7,0.7,1.2,1c0.5,0.2,1.1,0.4,1.7,0.4c1,0,1.9-0.3,2.6-1c0.7-0.6,1.1-1.5,1.1-2.6c0-0.9-0.2-1.5-0.5-2
		c-0.3-0.5-0.8-0.8-1.3-1c-0.5-0.2-1.1-0.3-1.7-0.4c-0.6,0-1.2,0-1.8,0v-3.3C576.7,94.2,577.2,94.2,577.7,94.1z"/>
</g>
<g>
	<g>
		<g>
			<g enable-background="new    ">
				<path fill="#D1D3D4" d="M81.6,558.7c0-0.9,0.1-1.7,0.3-2.5s0.4-1.6,0.7-2.3c0.3-0.7,0.7-1.4,1.2-1.9s1.2-1,2-1.3
					c0.8-0.3,1.8-0.5,2.9-0.5s2.1,0.2,2.9,0.5c0.8,0.3,1.5,0.8,2,1.3s0.9,1.2,1.2,1.9s0.5,1.5,0.7,2.3s0.3,1.6,0.3,2.5
					c0,0.9,0.1,1.7,0.1,2.5s0,1.6-0.1,2.5c0,0.9-0.1,1.7-0.3,2.5c-0.2,0.8-0.4,1.6-0.7,2.3s-0.7,1.4-1.2,1.9c-0.5,0.5-1.2,1-2,1.3
					s-1.8,0.5-2.9,0.5c-1.1,0-2.1-0.2-2.9-0.5c-0.8-0.3-1.5-0.7-2-1.3c-0.5-0.5-0.9-1.2-1.2-1.9c-0.3-0.7-0.5-1.5-0.7-2.3
					c-0.2-0.8-0.3-1.6-0.3-2.5c0-0.9-0.1-1.7-0.1-2.5S81.5,559.6,81.6,558.7z M84.3,563.9c0.1,1,0.2,1.9,0.5,2.8s0.7,1.6,1.3,2.2
					c0.6,0.6,1.5,0.9,2.6,0.9s1.9-0.3,2.6-0.9c0.6-0.6,1.1-1.4,1.3-2.2s0.4-1.8,0.5-2.8c0.1-1,0.1-1.9,0.1-2.7c0-0.5,0-1.1,0-1.8
					s-0.1-1.3-0.2-1.9c-0.1-0.6-0.2-1.3-0.4-1.9c-0.2-0.6-0.4-1.1-0.8-1.6c-0.3-0.5-0.8-0.8-1.3-1.1c-0.5-0.3-1.1-0.4-1.9-0.4
					c-0.7,0-1.4,0.1-1.9,0.4c-0.5,0.3-0.9,0.7-1.3,1.1c-0.3,0.5-0.6,1-0.8,1.6c-0.2,0.6-0.3,1.2-0.4,1.9c-0.1,0.6-0.1,1.3-0.2,1.9
					s0,1.2,0,1.8C84.3,562,84.3,562.9,84.3,563.9z"/>
			</g>
		</g>
		<g>
			<g enable-background="new    ">
				<path fill="#D1D3D4" d="M48.1,465.8c0.3-0.9,0.7-1.7,1.3-2.4c0.6-0.7,1.3-1.2,2.2-1.6s1.9-0.6,3-0.6c0.9,0,1.8,0.1,2.6,0.4
					c0.8,0.3,1.5,0.7,2.1,1.2s1.1,1.2,1.4,1.9c0.4,0.8,0.5,1.7,0.5,2.7c0,1-0.1,1.8-0.4,2.5c-0.3,0.7-0.7,1.4-1.2,2
					c-0.5,0.6-1,1.1-1.7,1.6c-0.6,0.5-1.3,0.9-1.9,1.3c-0.7,0.4-1.3,0.8-2,1.2c-0.7,0.4-1.3,0.8-1.8,1.3c-0.6,0.4-1,0.9-1.4,1.4
					s-0.7,1.1-0.8,1.8h11.1v2.3H47.1c0.1-1.3,0.3-2.4,0.7-3.3c0.4-0.9,0.8-1.7,1.4-2.4c0.5-0.7,1.2-1.3,1.9-1.8
					c0.7-0.5,1.4-1,2.2-1.4c0.9-0.6,1.7-1.1,2.4-1.6c0.7-0.5,1.3-1,1.7-1.4c0.5-0.5,0.8-1,1-1.6c0.2-0.6,0.4-1.2,0.4-2
					c0-0.6-0.1-1.1-0.3-1.6c-0.2-0.5-0.5-0.9-0.9-1.2c-0.4-0.3-0.8-0.6-1.3-0.8s-1-0.3-1.6-0.3c-0.8,0-1.4,0.2-1.9,0.5
					c-0.5,0.3-1,0.7-1.3,1.2s-0.6,1.1-0.7,1.7c-0.2,0.6-0.2,1.3-0.2,1.9h-2.6C47.7,467.8,47.8,466.8,48.1,465.8z"/>
				<path fill="#D1D3D4" d="M64.7,469.7c0-0.9,0.1-1.7,0.3-2.5s0.4-1.6,0.7-2.3c0.3-0.7,0.7-1.4,1.2-1.9s1.2-1,2-1.3
					c0.8-0.3,1.8-0.5,2.9-0.5s2.1,0.2,2.9,0.5c0.8,0.3,1.5,0.8,2,1.3s0.9,1.2,1.2,1.9s0.5,1.5,0.7,2.3s0.3,1.6,0.3,2.5
					c0,0.9,0.1,1.7,0.1,2.5s0,1.6-0.1,2.5c0,0.9-0.1,1.7-0.3,2.5c-0.2,0.8-0.4,1.6-0.7,2.3s-0.7,1.4-1.2,1.9c-0.5,0.5-1.2,1-2,1.3
					s-1.8,0.5-2.9,0.5c-1.1,0-2.1-0.2-2.9-0.5c-0.8-0.3-1.5-0.7-2-1.3c-0.5-0.5-0.9-1.2-1.2-1.9c-0.3-0.7-0.5-1.5-0.7-2.3
					c-0.2-0.8-0.3-1.6-0.3-2.5c0-0.9-0.1-1.7-0.1-2.5S64.6,470.6,64.7,469.7z M67.4,474.9c0.1,1,0.2,1.9,0.5,2.8s0.7,1.6,1.3,2.2
					c0.6,0.6,1.5,0.9,2.6,0.9s1.9-0.3,2.6-0.9c0.6-0.6,1.1-1.4,1.3-2.2s0.4-1.8,0.5-2.8c0.1-1,0.1-1.9,0.1-2.7c0-0.5,0-1.1,0-1.8
					s-0.1-1.3-0.2-1.9c-0.1-0.6-0.2-1.3-0.4-1.9c-0.2-0.6-0.4-1.1-0.8-1.6c-0.3-0.5-0.8-0.8-1.3-1.1c-0.5-0.3-1.1-0.4-1.9-0.4
					c-0.7,0-1.4,0.1-1.9,0.4c-0.5,0.3-0.9,0.7-1.3,1.1c-0.3,0.5-0.6,1-0.8,1.6c-0.2,0.6-0.3,1.2-0.4,1.9c-0.1,0.6-0.1,1.3-0.2,1.9
					s0,1.2,0,1.8C67.3,473,67.4,473.9,67.4,474.9z"/>
				<path fill="#D1D3D4" d="M81.6,469.7c0-0.9,0.1-1.7,0.3-2.5s0.4-1.6,0.7-2.3c0.3-0.7,0.7-1.4,1.2-1.9s1.2-1,2-1.3
					c0.8-0.3,1.8-0.5,2.9-0.5s2.1,0.2,2.9,0.5c0.8,0.3,1.5,0.8,2,1.3s0.9,1.2,1.2,1.9s0.5,1.5,0.7,2.3s0.3,1.6,0.3,2.5
					c0,0.9,0.1,1.7,0.1,2.5s0,1.6-0.1,2.5c0,0.9-0.1,1.7-0.3,2.5c-0.2,0.8-0.4,1.6-0.7,2.3s-0.7,1.4-1.2,1.9c-0.5,0.5-1.2,1-2,1.3
					s-1.8,0.5-2.9,0.5c-1.1,0-2.1-0.2-2.9-0.5c-0.8-0.3-1.5-0.7-2-1.3c-0.5-0.5-0.9-1.2-1.2-1.9c-0.3-0.7-0.5-1.5-0.7-2.3
					c-0.2-0.8-0.3-1.6-0.3-2.5c0-0.9-0.1-1.7-0.1-2.5S81.5,470.6,81.6,469.7z M84.3,474.9c0.1,1,0.2,1.9,0.5,2.8s0.7,1.6,1.3,2.2
					c0.6,0.6,1.5,0.9,2.6,0.9s1.9-0.3,2.6-0.9c0.6-0.6,1.1-1.4,1.3-2.2s0.4-1.8,0.5-2.8c0.1-1,0.1-1.9,0.1-2.7c0-0.5,0-1.1,0-1.8
					s-0.1-1.3-0.2-1.9c-0.1-0.6-0.2-1.3-0.4-1.9c-0.2-0.6-0.4-1.1-0.8-1.6c-0.3-0.5-0.8-0.8-1.3-1.1c-0.5-0.3-1.1-0.4-1.9-0.4
					c-0.7,0-1.4,0.1-1.9,0.4c-0.5,0.3-0.9,0.7-1.3,1.1c-0.3,0.5-0.6,1-0.8,1.6c-0.2,0.6-0.3,1.2-0.4,1.9c-0.1,0.6-0.1,1.3-0.2,1.9
					s0,1.2,0,1.8C84.3,473,84.3,473.9,84.3,474.9z"/>
			</g>
		</g>
		<g>
			<g enable-background="new    ">
				<path fill="#D1D3D4" d="M62.1,386.5v2.3h-2.9v5.1h-2.4v-5.1h-9.5v-2.5l9.8-14h2.1v14.2H62.1z M56.7,375.9L56.7,375.9l-7.2,10.6
					h7.2V375.9z"/>
				<path fill="#D1D3D4" d="M64.7,380.7c0-0.9,0.1-1.7,0.3-2.5s0.4-1.6,0.7-2.3c0.3-0.7,0.7-1.4,1.2-1.9s1.2-1,2-1.3
					c0.8-0.3,1.8-0.5,2.9-0.5s2.1,0.2,2.9,0.5c0.8,0.3,1.5,0.8,2,1.3s0.9,1.2,1.2,1.9s0.5,1.5,0.7,2.3s0.3,1.6,0.3,2.5
					c0,0.9,0.1,1.7,0.1,2.5s0,1.6-0.1,2.5c0,0.9-0.1,1.7-0.3,2.5c-0.2,0.8-0.4,1.6-0.7,2.3s-0.7,1.4-1.2,1.9c-0.5,0.5-1.2,1-2,1.3
					s-1.8,0.5-2.9,0.5c-1.1,0-2.1-0.2-2.9-0.5c-0.8-0.3-1.5-0.7-2-1.3c-0.5-0.5-0.9-1.2-1.2-1.9c-0.3-0.7-0.5-1.5-0.7-2.3
					c-0.2-0.8-0.3-1.6-0.3-2.5c0-0.9-0.1-1.7-0.1-2.5S64.6,381.6,64.7,380.7z M67.4,385.9c0.1,1,0.2,1.9,0.5,2.8s0.7,1.6,1.3,2.2
					c0.6,0.6,1.5,0.9,2.6,0.9s1.9-0.3,2.6-0.9c0.6-0.6,1.1-1.4,1.3-2.2s0.4-1.8,0.5-2.8c0.1-1,0.1-1.9,0.1-2.7c0-0.5,0-1.1,0-1.8
					s-0.1-1.3-0.2-1.9c-0.1-0.6-0.2-1.3-0.4-1.9c-0.2-0.6-0.4-1.1-0.8-1.6c-0.3-0.5-0.8-0.8-1.3-1.1c-0.5-0.3-1.1-0.4-1.9-0.4
					c-0.7,0-1.4,0.1-1.9,0.4c-0.5,0.3-0.9,0.7-1.3,1.1c-0.3,0.5-0.6,1-0.8,1.6c-0.2,0.6-0.3,1.2-0.4,1.9c-0.1,0.6-0.1,1.3-0.2,1.9
					s0,1.2,0,1.8C67.3,384,67.4,384.9,67.4,385.9z"/>
				<path fill="#D1D3D4" d="M81.6,380.7c0-0.9,0.1-1.7,0.3-2.5s0.4-1.6,0.7-2.3c0.3-0.7,0.7-1.4,1.2-1.9s1.2-1,2-1.3
					c0.8-0.3,1.8-0.5,2.9-0.5s2.1,0.2,2.9,0.5c0.8,0.3,1.5,0.8,2,1.3s0.9,1.2,1.2,1.9s0.5,1.5,0.7,2.3s0.3,1.6,0.3,2.5
					c0,0.9,0.1,1.7,0.1,2.5s0,1.6-0.1,2.5c0,0.9-0.1,1.7-0.3,2.5c-0.2,0.8-0.4,1.6-0.7,2.3s-0.7,1.4-1.2,1.9c-0.5,0.5-1.2,1-2,1.3
					s-1.8,0.5-2.9,0.5c-1.1,0-2.1-0.2-2.9-0.5c-0.8-0.3-1.5-0.7-2-1.3c-0.5-0.5-0.9-1.2-1.2-1.9c-0.3-0.7-0.5-1.5-0.7-2.3
					c-0.2-0.8-0.3-1.6-0.3-2.5c0-0.9-0.1-1.7-0.1-2.5S81.5,381.6,81.6,380.7z M84.3,385.9c0.1,1,0.2,1.9,0.5,2.8s0.7,1.6,1.3,2.2
					c0.6,0.6,1.5,0.9,2.6,0.9s1.9-0.3,2.6-0.9c0.6-0.6,1.1-1.4,1.3-2.2s0.4-1.8,0.5-2.8c0.1-1,0.1-1.9,0.1-2.7c0-0.5,0-1.1,0-1.8
					s-0.1-1.3-0.2-1.9c-0.1-0.6-0.2-1.3-0.4-1.9c-0.2-0.6-0.4-1.1-0.8-1.6c-0.3-0.5-0.8-0.8-1.3-1.1c-0.5-0.3-1.1-0.4-1.9-0.4
					c-0.7,0-1.4,0.1-1.9,0.4c-0.5,0.3-0.9,0.7-1.3,1.1c-0.3,0.5-0.6,1-0.8,1.6c-0.2,0.6-0.3,1.2-0.4,1.9c-0.1,0.6-0.1,1.3-0.2,1.9
					s0,1.2,0,1.8C84.3,384,84.3,384.9,84.3,385.9z"/>
			</g>
		</g>
		<g>
			<g enable-background="new    ">
				<path fill="#D1D3D4" d="M57.9,286.4c-0.6-0.6-1.5-0.9-2.5-0.9c-1.1,0-2,0.3-2.6,0.8c-0.7,0.5-1.2,1.2-1.6,2
					c-0.4,0.8-0.6,1.7-0.8,2.7c-0.1,1-0.2,1.8-0.2,2.7l0.1,0.1c0.6-1,1.4-1.7,2.3-2.2s1.9-0.7,3.1-0.7c1,0,2,0.2,2.8,0.5
					c0.8,0.4,1.5,0.8,2.1,1.5c0.6,0.6,1,1.4,1.3,2.2s0.5,1.8,0.5,2.8c0,0.8-0.1,1.6-0.4,2.5s-0.6,1.6-1.2,2.3
					c-0.6,0.7-1.3,1.3-2.2,1.7c-0.9,0.5-2.1,0.7-3.4,0.7c-1.6,0-2.9-0.3-3.9-1c-1-0.6-1.7-1.5-2.3-2.5c-0.5-1-0.9-2.1-1.1-3.3
					c-0.2-1.2-0.3-2.4-0.3-3.5c0-1.5,0.1-2.9,0.4-4.3c0.3-1.4,0.7-2.6,1.3-3.7c0.6-1.1,1.4-1.9,2.4-2.6c1-0.6,2.3-1,3.8-1
					c1.8,0,3.2,0.5,4.3,1.4c1.1,0.9,1.7,2.3,1.8,4.1H59C58.9,287.8,58.5,287,57.9,286.4z M53.2,293.6c-0.5,0.3-1,0.6-1.4,1
					c-0.4,0.4-0.7,1-0.9,1.6c-0.2,0.6-0.3,1.2-0.3,1.9c0,0.7,0.1,1.3,0.3,1.9c0.2,0.6,0.5,1.1,0.9,1.5c0.4,0.4,0.8,0.8,1.4,1
					c0.6,0.3,1.2,0.4,1.9,0.4c0.7,0,1.3-0.1,1.9-0.4c0.5-0.3,1-0.6,1.4-1.1c0.4-0.4,0.6-1,0.8-1.5c0.2-0.6,0.3-1.2,0.3-1.8
					c0-0.7-0.1-1.3-0.3-1.9c-0.2-0.6-0.4-1.1-0.8-1.6c-0.4-0.4-0.8-0.8-1.4-1.1c-0.5-0.3-1.2-0.4-1.9-0.4
					C54.4,293.2,53.7,293.3,53.2,293.6z"/>
				<path fill="#D1D3D4" d="M64.7,291.7c0-0.9,0.1-1.7,0.3-2.5s0.4-1.6,0.7-2.3c0.3-0.7,0.7-1.4,1.2-1.9s1.2-1,2-1.3
					c0.8-0.3,1.8-0.5,2.9-0.5s2.1,0.2,2.9,0.5c0.8,0.3,1.5,0.8,2,1.3s0.9,1.2,1.2,1.9s0.5,1.5,0.7,2.3s0.3,1.6,0.3,2.5
					c0,0.9,0.1,1.7,0.1,2.5s0,1.6-0.1,2.5c0,0.9-0.1,1.7-0.3,2.5c-0.2,0.8-0.4,1.6-0.7,2.3s-0.7,1.4-1.2,1.9c-0.5,0.5-1.2,1-2,1.3
					s-1.8,0.5-2.9,0.5c-1.1,0-2.1-0.2-2.9-0.5c-0.8-0.3-1.5-0.7-2-1.3c-0.5-0.5-0.9-1.2-1.2-1.9c-0.3-0.7-0.5-1.5-0.7-2.3
					c-0.2-0.8-0.3-1.6-0.3-2.5c0-0.9-0.1-1.7-0.1-2.5S64.6,292.6,64.7,291.7z M67.4,296.9c0.1,1,0.2,1.9,0.5,2.8s0.7,1.6,1.3,2.2
					c0.6,0.6,1.5,0.9,2.6,0.9s1.9-0.3,2.6-0.9c0.6-0.6,1.1-1.4,1.3-2.2s0.4-1.8,0.5-2.8c0.1-1,0.1-1.9,0.1-2.7c0-0.5,0-1.1,0-1.8
					s-0.1-1.3-0.2-1.9c-0.1-0.6-0.2-1.3-0.4-1.9c-0.2-0.6-0.4-1.1-0.8-1.6c-0.3-0.5-0.8-0.8-1.3-1.1c-0.5-0.3-1.1-0.4-1.9-0.4
					c-0.7,0-1.4,0.1-1.9,0.4c-0.5,0.3-0.9,0.7-1.3,1.1c-0.3,0.5-0.6,1-0.8,1.6c-0.2,0.6-0.3,1.2-0.4,1.9c-0.1,0.6-0.1,1.3-0.2,1.9
					s0,1.2,0,1.8C67.3,295,67.4,295.9,67.4,296.9z"/>
				<path fill="#D1D3D4" d="M81.6,291.7c0-0.9,0.1-1.7,0.3-2.5s0.4-1.6,0.7-2.3c0.3-0.7,0.7-1.4,1.2-1.9s1.2-1,2-1.3
					c0.8-0.3,1.8-0.5,2.9-0.5s2.1,0.2,2.9,0.5c0.8,0.3,1.5,0.8,2,1.3s0.9,1.2,1.2,1.9s0.5,1.5,0.7,2.3s0.3,1.6,0.3,2.5
					c0,0.9,0.1,1.7,0.1,2.5s0,1.6-0.1,2.5c0,0.9-0.1,1.7-0.3,2.5c-0.2,0.8-0.4,1.6-0.7,2.3s-0.7,1.4-1.2,1.9c-0.5,0.5-1.2,1-2,1.3
					s-1.8,0.5-2.9,0.5c-1.1,0-2.1-0.2-2.9-0.5c-0.8-0.3-1.5-0.7-2-1.3c-0.5-0.5-0.9-1.2-1.2-1.9c-0.3-0.7-0.5-1.5-0.7-2.3
					c-0.2-0.8-0.3-1.6-0.3-2.5c0-0.9-0.1-1.7-0.1-2.5S81.5,292.6,81.6,291.7z M84.3,296.9c0.1,1,0.2,1.9,0.5,2.8s0.7,1.6,1.3,2.2
					c0.6,0.6,1.5,0.9,2.6,0.9s1.9-0.3,2.6-0.9c0.6-0.6,1.1-1.4,1.3-2.2s0.4-1.8,0.5-2.8c0.1-1,0.1-1.9,0.1-2.7c0-0.5,0-1.1,0-1.8
					s-0.1-1.3-0.2-1.9c-0.1-0.6-0.2-1.3-0.4-1.9c-0.2-0.6-0.4-1.1-0.8-1.6c-0.3-0.5-0.8-0.8-1.3-1.1c-0.5-0.3-1.1-0.4-1.9-0.4
					c-0.7,0-1.4,0.1-1.9,0.4c-0.5,0.3-0.9,0.7-1.3,1.1c-0.3,0.5-0.6,1-0.8,1.6c-0.2,0.6-0.3,1.2-0.4,1.9c-0.1,0.6-0.1,1.3-0.2,1.9
					s0,1.2,0,1.8C84.3,295,84.3,295.9,84.3,296.9z"/>
			</g>
		</g>
		<g>
			<g enable-background="new    ">
				<path fill="#D1D3D4" d="M48.9,197.4c0.3-0.7,0.8-1.3,1.4-1.7c0.6-0.5,1.3-0.8,2-1.1c0.8-0.2,1.6-0.4,2.4-0.4
					c1.2,0,2.2,0.2,3,0.5c0.8,0.3,1.5,0.7,2,1.2s0.9,1.1,1.1,1.8c0.2,0.7,0.4,1.3,0.4,2c0,1-0.3,1.9-0.8,2.7
					c-0.5,0.8-1.3,1.4-2.2,1.8c1.3,0.4,2.3,1.1,2.9,2c0.6,0.9,0.9,2.1,0.9,3.4c0,1.1-0.2,2-0.6,2.8c-0.4,0.8-0.9,1.5-1.5,2.1
					c-0.6,0.6-1.4,1-2.3,1.3c-0.9,0.3-1.8,0.4-2.8,0.4c-1,0-2-0.1-2.9-0.4s-1.7-0.7-2.3-1.2c-0.7-0.5-1.2-1.2-1.6-2.1
					c-0.4-0.8-0.6-1.8-0.6-2.9c0-1.3,0.3-2.4,1-3.3c0.6-0.9,1.6-1.6,2.8-2.1c-0.9-0.4-1.6-1-2.2-1.8c-0.5-0.8-0.8-1.7-0.8-2.7
					C48.4,198.8,48.5,198.1,48.9,197.4z M51.6,212.8c0.9,0.7,2,1.1,3.3,1.1c0.6,0,1.2-0.1,1.8-0.3c0.5-0.2,1-0.5,1.4-0.9
					c0.4-0.4,0.7-0.8,0.9-1.3c0.2-0.5,0.3-1.1,0.3-1.7c0-0.6-0.1-1.1-0.4-1.6c-0.2-0.5-0.6-0.9-1-1.3c-0.4-0.4-0.9-0.7-1.4-0.9
					c-0.5-0.2-1.1-0.3-1.7-0.3c-0.6,0-1.2,0.1-1.8,0.3c-0.6,0.2-1,0.5-1.5,0.8c-0.4,0.4-0.7,0.8-1,1.3c-0.2,0.5-0.4,1.1-0.4,1.7
					C50.4,211,50.8,212,51.6,212.8z M51.4,201.4c0.2,0.4,0.5,0.8,0.8,1.1c0.3,0.3,0.8,0.5,1.2,0.6c0.5,0.1,1,0.2,1.5,0.2
					c1,0,1.9-0.3,2.6-0.9c0.7-0.6,1-1.5,1-2.6c0-1.1-0.3-1.9-1-2.5c-0.7-0.6-1.5-0.8-2.6-0.8c-0.5,0-1,0.1-1.5,0.2
					c-0.5,0.1-0.9,0.4-1.2,0.6s-0.6,0.6-0.8,1c-0.2,0.4-0.3,0.9-0.3,1.4C51.1,200.4,51.2,200.9,51.4,201.4z"/>
				<path fill="#D1D3D4" d="M64.7,202.7c0-0.9,0.1-1.7,0.3-2.5s0.4-1.6,0.7-2.3c0.3-0.7,0.7-1.4,1.2-1.9s1.2-1,2-1.3
					c0.8-0.3,1.8-0.5,2.9-0.5s2.1,0.2,2.9,0.5c0.8,0.3,1.5,0.8,2,1.3s0.9,1.2,1.2,1.9s0.5,1.5,0.7,2.3s0.3,1.6,0.3,2.5
					c0,0.9,0.1,1.7,0.1,2.5s0,1.6-0.1,2.5c0,0.9-0.1,1.7-0.3,2.5c-0.2,0.8-0.4,1.6-0.7,2.3s-0.7,1.4-1.2,1.9c-0.5,0.5-1.2,1-2,1.3
					s-1.8,0.5-2.9,0.5c-1.1,0-2.1-0.2-2.9-0.5c-0.8-0.3-1.5-0.7-2-1.3c-0.5-0.5-0.9-1.2-1.2-1.9c-0.3-0.7-0.5-1.5-0.7-2.3
					c-0.2-0.8-0.3-1.6-0.3-2.5c0-0.9-0.1-1.7-0.1-2.5S64.6,203.6,64.7,202.7z M67.4,207.9c0.1,1,0.2,1.9,0.5,2.8s0.7,1.6,1.3,2.2
					c0.6,0.6,1.5,0.9,2.6,0.9s1.9-0.3,2.6-0.9c0.6-0.6,1.1-1.4,1.3-2.2s0.4-1.8,0.5-2.8c0.1-1,0.1-1.9,0.1-2.7c0-0.5,0-1.1,0-1.8
					s-0.1-1.3-0.2-1.9c-0.1-0.6-0.2-1.3-0.4-1.9c-0.2-0.6-0.4-1.1-0.8-1.6c-0.3-0.5-0.8-0.8-1.3-1.1c-0.5-0.3-1.1-0.4-1.9-0.4
					c-0.7,0-1.4,0.1-1.9,0.4c-0.5,0.3-0.9,0.7-1.3,1.1c-0.3,0.5-0.6,1-0.8,1.6c-0.2,0.6-0.3,1.2-0.4,1.9c-0.1,0.6-0.1,1.3-0.2,1.9
					s0,1.2,0,1.8C67.3,206,67.4,206.9,67.4,207.9z"/>
				<path fill="#D1D3D4" d="M81.6,202.7c0-0.9,0.1-1.7,0.3-2.5s0.4-1.6,0.7-2.3c0.3-0.7,0.7-1.4,1.2-1.9s1.2-1,2-1.3
					c0.8-0.3,1.8-0.5,2.9-0.5s2.1,0.2,2.9,0.5c0.8,0.3,1.5,0.8,2,1.3s0.9,1.2,1.2,1.9s0.5,1.5,0.7,2.3s0.3,1.6,0.3,2.5
					c0,0.9,0.1,1.7,0.1,2.5s0,1.6-0.1,2.5c0,0.9-0.1,1.7-0.3,2.5c-0.2,0.8-0.4,1.6-0.7,2.3s-0.7,1.4-1.2,1.9c-0.5,0.5-1.2,1-2,1.3
					s-1.8,0.5-2.9,0.5c-1.1,0-2.1-0.2-2.9-0.5c-0.8-0.3-1.5-0.7-2-1.3c-0.5-0.5-0.9-1.2-1.2-1.9c-0.3-0.7-0.5-1.5-0.7-2.3
					c-0.2-0.8-0.3-1.6-0.3-2.5c0-0.9-0.1-1.7-0.1-2.5S81.5,203.6,81.6,202.7z M84.3,207.9c0.1,1,0.2,1.9,0.5,2.8s0.7,1.6,1.3,2.2
					c0.6,0.6,1.5,0.9,2.6,0.9s1.9-0.3,2.6-0.9c0.6-0.6,1.1-1.4,1.3-2.2s0.4-1.8,0.5-2.8c0.1-1,0.1-1.9,0.1-2.7c0-0.5,0-1.1,0-1.8
					s-0.1-1.3-0.2-1.9c-0.1-0.6-0.2-1.3-0.4-1.9c-0.2-0.6-0.4-1.1-0.8-1.6c-0.3-0.5-0.8-0.8-1.3-1.1c-0.5-0.3-1.1-0.4-1.9-0.4
					c-0.7,0-1.4,0.1-1.9,0.4c-0.5,0.3-0.9,0.7-1.3,1.1c-0.3,0.5-0.6,1-0.8,1.6c-0.2,0.6-0.3,1.2-0.4,1.9c-0.1,0.6-0.1,1.3-0.2,1.9
					s0,1.2,0,1.8C84.3,206,84.3,206.9,84.3,207.9z"/>
			</g>
		</g>
		<g>
			<g enable-background="new    ">
				<path fill="#D1D3D4" d="M29.2,126.8v-15.5h-5.6v-2.1c0.7,0,1.4-0.1,2.1-0.2c0.7-0.1,1.3-0.3,1.9-0.6c0.6-0.3,1-0.7,1.4-1.2
					c0.4-0.5,0.6-1.2,0.8-2h2v21.6H29.2z"/>
				<path fill="#D1D3D4" d="M43.8,123.4v3.1c0,1.2-0.3,2.2-0.8,3c-0.5,0.8-1.4,1.4-2.6,1.8v-1.5c0.3-0.1,0.6-0.3,0.9-0.5
					c0.2-0.2,0.4-0.5,0.6-0.8c0.1-0.3,0.2-0.6,0.3-0.8c0.1-0.3,0.1-0.5,0-0.8h-1.8v-3.4H43.8z"/>
				<path fill="#D1D3D4" d="M47.7,113.7c0-0.9,0.1-1.7,0.3-2.5s0.4-1.6,0.7-2.3c0.3-0.7,0.7-1.4,1.2-1.9s1.2-1,2-1.3
					c0.8-0.3,1.8-0.5,2.9-0.5s2.1,0.2,2.9,0.5c0.8,0.3,1.5,0.8,2,1.3s0.9,1.2,1.2,1.9s0.5,1.5,0.7,2.3s0.3,1.6,0.3,2.5
					c0,0.9,0.1,1.7,0.1,2.5s0,1.6-0.1,2.5c0,0.9-0.1,1.7-0.3,2.5c-0.2,0.8-0.4,1.6-0.7,2.3s-0.7,1.4-1.2,1.9c-0.5,0.5-1.2,1-2,1.3
					s-1.8,0.5-2.9,0.5c-1.1,0-2.1-0.2-2.9-0.5c-0.8-0.3-1.5-0.7-2-1.3c-0.5-0.5-0.9-1.2-1.2-1.9c-0.3-0.7-0.5-1.5-0.7-2.3
					c-0.2-0.8-0.3-1.6-0.3-2.5c0-0.9-0.1-1.7-0.1-2.5S47.7,114.6,47.7,113.7z M50.5,118.9c0.1,1,0.2,1.9,0.5,2.8s0.7,1.6,1.3,2.2
					c0.6,0.6,1.5,0.9,2.6,0.9s1.9-0.3,2.6-0.9c0.6-0.6,1.1-1.4,1.3-2.2s0.4-1.8,0.5-2.8c0.1-1,0.1-1.9,0.1-2.7c0-0.5,0-1.1,0-1.8
					s-0.1-1.3-0.2-1.9c-0.1-0.6-0.2-1.3-0.4-1.9c-0.2-0.6-0.4-1.1-0.8-1.6c-0.3-0.5-0.8-0.8-1.3-1.1c-0.5-0.3-1.1-0.4-1.9-0.4
					c-0.7,0-1.4,0.1-1.9,0.4c-0.5,0.3-0.9,0.7-1.3,1.1c-0.3,0.5-0.6,1-0.8,1.6c-0.2,0.6-0.3,1.2-0.4,1.9c-0.1,0.6-0.1,1.3-0.2,1.9
					s0,1.2,0,1.8C50.4,117,50.4,117.9,50.5,118.9z"/>
				<path fill="#D1D3D4" d="M64.7,113.7c0-0.9,0.1-1.7,0.3-2.5s0.4-1.6,0.7-2.3c0.3-0.7,0.7-1.4,1.2-1.9s1.2-1,2-1.3
					c0.8-0.3,1.8-0.5,2.9-0.5s2.1,0.2,2.9,0.5c0.8,0.3,1.5,0.8,2,1.3s0.9,1.2,1.2,1.9s0.5,1.5,0.7,2.3s0.3,1.6,0.3,2.5
					c0,0.9,0.1,1.7,0.1,2.5s0,1.6-0.1,2.5c0,0.9-0.1,1.7-0.3,2.5c-0.2,0.8-0.4,1.6-0.7,2.3s-0.7,1.4-1.2,1.9c-0.5,0.5-1.2,1-2,1.3
					s-1.8,0.5-2.9,0.5c-1.1,0-2.1-0.2-2.9-0.5c-0.8-0.3-1.5-0.7-2-1.3c-0.5-0.5-0.9-1.2-1.2-1.9c-0.3-0.7-0.5-1.5-0.7-2.3
					c-0.2-0.8-0.3-1.6-0.3-2.5c0-0.9-0.1-1.7-0.1-2.5S64.6,114.6,64.7,113.7z M67.4,118.9c0.1,1,0.2,1.9,0.5,2.8s0.7,1.6,1.3,2.2
					c0.6,0.6,1.5,0.9,2.6,0.9s1.9-0.3,2.6-0.9c0.6-0.6,1.1-1.4,1.3-2.2s0.4-1.8,0.5-2.8c0.1-1,0.1-1.9,0.1-2.7c0-0.5,0-1.1,0-1.8
					s-0.1-1.3-0.2-1.9c-0.1-0.6-0.2-1.3-0.4-1.9c-0.2-0.6-0.4-1.1-0.8-1.6c-0.3-0.5-0.8-0.8-1.3-1.1c-0.5-0.3-1.1-0.4-1.9-0.4
					c-0.7,0-1.4,0.1-1.9,0.4c-0.5,0.3-0.9,0.7-1.3,1.1c-0.3,0.5-0.6,1-0.8,1.6c-0.2,0.6-0.3,1.2-0.4,1.9c-0.1,0.6-0.1,1.3-0.2,1.9
					s0,1.2,0,1.8C67.3,117,67.4,117.9,67.4,118.9z"/>
				<path fill="#D1D3D4" d="M81.6,113.7c0-0.9,0.1-1.7,0.3-2.5s0.4-1.6,0.7-2.3c0.3-0.7,0.7-1.4,1.2-1.9s1.2-1,2-1.3
					c0.8-0.3,1.8-0.5,2.9-0.5s2.1,0.2,2.9,0.5c0.8,0.3,1.5,0.8,2,1.3s0.9,1.2,1.2,1.9s0.5,1.5,0.7,2.3s0.3,1.6,0.3,2.5
					c0,0.9,0.1,1.7,0.1,2.5s0,1.6-0.1,2.5c0,0.9-0.1,1.7-0.3,2.5c-0.2,0.8-0.4,1.6-0.7,2.3s-0.7,1.4-1.2,1.9c-0.5,0.5-1.2,1-2,1.3
					s-1.8,0.5-2.9,0.5c-1.1,0-2.1-0.2-2.9-0.5c-0.8-0.3-1.5-0.7-2-1.3c-0.5-0.5-0.9-1.2-1.2-1.9c-0.3-0.7-0.5-1.5-0.7-2.3
					c-0.2-0.8-0.3-1.6-0.3-2.5c0-0.9-0.1-1.7-0.1-2.5S81.5,114.6,81.6,113.7z M84.3,118.9c0.1,1,0.2,1.9,0.5,2.8s0.7,1.6,1.3,2.2
					c0.6,0.6,1.5,0.9,2.6,0.9s1.9-0.3,2.6-0.9c0.6-0.6,1.1-1.4,1.3-2.2s0.4-1.8,0.5-2.8c0.1-1,0.1-1.9,0.1-2.7c0-0.5,0-1.1,0-1.8
					s-0.1-1.3-0.2-1.9c-0.1-0.6-0.2-1.3-0.4-1.9c-0.2-0.6-0.4-1.1-0.8-1.6c-0.3-0.5-0.8-0.8-1.3-1.1c-0.5-0.3-1.1-0.4-1.9-0.4
					c-0.7,0-1.4,0.1-1.9,0.4c-0.5,0.3-0.9,0.7-1.3,1.1c-0.3,0.5-0.6,1-0.8,1.6c-0.2,0.6-0.3,1.2-0.4,1.9c-0.1,0.6-0.1,1.3-0.2,1.9
					s0,1.2,0,1.8C84.3,117,84.3,117.9,84.3,118.9z"/>
			</g>
		</g>
		<g>
			<g enable-background="new    ">
				<path fill="#D1D3D4" d="M8.7,34.4c0.8,0.8,1.8,1.3,3,1.5v-8.1c-1.1-0.3-2-0.6-2.8-0.9S7.5,26.3,7,25.8c-0.5-0.4-0.9-1-1.1-1.6
					c-0.2-0.6-0.4-1.4-0.4-2.3c0-0.9,0.2-1.8,0.5-2.5c0.3-0.8,0.8-1.4,1.3-2c0.6-0.6,1.2-1,2-1.3c0.8-0.3,1.6-0.5,2.5-0.6v-2h1.7v2
					c1.6,0.2,3,0.8,3.9,1.8c1,1,1.7,2.4,2.1,4.2h-2.6c-0.4-2-1.5-3.2-3.4-3.5v7.5l1.8,0.5c0.4,0.1,0.9,0.3,1.4,0.5s1.1,0.6,1.6,1
					c0.5,0.4,0.9,1,1.3,1.7s0.5,1.5,0.5,2.4c0,1-0.2,1.9-0.5,2.6s-0.8,1.4-1.4,2c-0.6,0.6-1.3,1-2.1,1.3c-0.8,0.3-1.7,0.5-2.7,0.6
					v2.5h-1.7v-2.5c-2-0.2-3.6-0.9-4.8-2.1c-1.2-1.2-1.9-2.9-2-5h2.6C7.5,32.5,7.9,33.6,8.7,34.4z M9.2,19c-0.7,0.6-1,1.5-1,2.6
					c0,0.5,0.1,1,0.3,1.4c0.2,0.4,0.4,0.7,0.7,0.9c0.3,0.3,0.7,0.5,1.1,0.7c0.4,0.2,0.9,0.3,1.4,0.5V18C10.7,18.1,9.9,18.4,9.2,19z
					 M15,35.6c0.5-0.2,0.9-0.4,1.2-0.7c0.4-0.3,0.6-0.7,0.8-1.2c0.2-0.5,0.3-1,0.3-1.7c0-0.6-0.1-1.1-0.3-1.5
					c-0.2-0.4-0.5-0.7-0.8-1c-0.3-0.3-0.8-0.5-1.2-0.7c-0.5-0.2-1-0.4-1.6-0.5v7.6C14,35.8,14.5,35.7,15,35.6z"/>
				<path fill="#D1D3D4" d="M29.2,37.8V22.3h-5.6v-2.1c0.7,0,1.4-0.1,2.1-0.2s1.3-0.3,1.9-0.6c0.6-0.3,1-0.7,1.4-1.2
					c0.4-0.5,0.6-1.2,0.8-2h2v21.6H29.2z"/>
				<path fill="#D1D3D4" d="M43.8,34.4v3.1c0,1.2-0.3,2.2-0.8,3c-0.5,0.8-1.4,1.4-2.6,1.8v-1.5c0.3-0.1,0.6-0.3,0.9-0.5
					c0.2-0.2,0.4-0.5,0.6-0.8c0.1-0.3,0.2-0.6,0.3-0.8c0.1-0.3,0.1-0.5,0-0.8h-1.8v-3.4H43.8z"/>
				<path fill="#D1D3D4" d="M48.1,20.8c0.3-0.9,0.7-1.7,1.3-2.4s1.3-1.2,2.2-1.6c0.9-0.4,1.9-0.6,3-0.6c0.9,0,1.8,0.1,2.6,0.4
					c0.8,0.3,1.5,0.7,2.1,1.2c0.6,0.5,1.1,1.2,1.4,1.9c0.4,0.8,0.5,1.7,0.5,2.7c0,1-0.1,1.8-0.4,2.5c-0.3,0.7-0.7,1.4-1.2,2
					c-0.5,0.6-1,1.1-1.7,1.6c-0.6,0.5-1.3,0.9-1.9,1.3c-0.7,0.4-1.3,0.8-2,1.2c-0.7,0.4-1.3,0.8-1.8,1.3c-0.6,0.4-1,0.9-1.4,1.4
					c-0.4,0.5-0.7,1.1-0.8,1.8h11.1v2.3H47.1c0.1-1.3,0.3-2.4,0.7-3.3c0.4-0.9,0.8-1.7,1.4-2.4c0.5-0.7,1.2-1.3,1.9-1.8
					c0.7-0.5,1.4-1,2.2-1.4c0.9-0.6,1.7-1.1,2.4-1.6c0.7-0.5,1.3-1,1.7-1.4c0.5-0.5,0.8-1,1-1.6c0.2-0.6,0.3-1.2,0.3-2
					c0-0.6-0.1-1.1-0.3-1.6s-0.5-0.9-0.9-1.2c-0.4-0.3-0.8-0.6-1.3-0.8c-0.5-0.2-1-0.3-1.6-0.3c-0.8,0-1.4,0.2-1.9,0.5
					c-0.5,0.3-1,0.7-1.3,1.2c-0.3,0.5-0.6,1.1-0.7,1.7c-0.2,0.6-0.2,1.3-0.2,1.9h-2.6C47.7,22.8,47.8,21.8,48.1,20.8z"/>
				<path fill="#D1D3D4" d="M64.7,24.7c0-0.9,0.1-1.7,0.3-2.5c0.2-0.8,0.4-1.6,0.7-2.3c0.3-0.7,0.7-1.4,1.2-1.9c0.5-0.5,1.2-1,2-1.3
					c0.8-0.3,1.8-0.5,2.9-0.5s2.1,0.2,2.9,0.5c0.8,0.3,1.5,0.8,2,1.3c0.5,0.5,0.9,1.2,1.2,1.9s0.5,1.5,0.7,2.3
					c0.2,0.8,0.3,1.6,0.3,2.5s0.1,1.7,0.1,2.5s0,1.6-0.1,2.5s-0.1,1.7-0.3,2.5c-0.2,0.8-0.4,1.6-0.7,2.3s-0.7,1.4-1.2,1.9
					c-0.5,0.5-1.2,1-2,1.3c-0.8,0.3-1.8,0.5-2.9,0.5c-1.1,0-2.1-0.2-2.9-0.5s-1.5-0.7-2-1.3c-0.5-0.5-0.9-1.2-1.2-1.9
					c-0.3-0.7-0.5-1.5-0.7-2.3c-0.2-0.8-0.3-1.6-0.3-2.5c0-0.9-0.1-1.7-0.1-2.5S64.6,25.6,64.7,24.7z M67.4,29.9
					c0.1,1,0.2,1.9,0.5,2.8c0.3,0.9,0.7,1.6,1.3,2.2c0.6,0.6,1.5,0.9,2.6,0.9c1.1,0,1.9-0.3,2.6-0.9c0.6-0.6,1.1-1.4,1.3-2.2
					c0.3-0.9,0.4-1.8,0.5-2.8c0-1,0.1-1.9,0.1-2.7c0-0.5,0-1.1,0-1.8c0-0.6-0.1-1.3-0.2-1.9c-0.1-0.6-0.2-1.3-0.4-1.9
					c-0.2-0.6-0.4-1.1-0.8-1.6c-0.3-0.5-0.8-0.8-1.3-1.1c-0.5-0.3-1.1-0.4-1.9-0.4c-0.7,0-1.3,0.1-1.9,0.4c-0.5,0.3-0.9,0.7-1.3,1.1
					c-0.3,0.5-0.6,1-0.8,1.6c-0.2,0.6-0.3,1.2-0.4,1.9c-0.1,0.6-0.1,1.3-0.2,1.9c0,0.6,0,1.2,0,1.8C67.3,28,67.4,28.9,67.4,29.9z"/>
				<path fill="#D1D3D4" d="M81.6,24.7c0-0.9,0.1-1.7,0.3-2.5c0.2-0.8,0.4-1.6,0.7-2.3c0.3-0.7,0.7-1.4,1.2-1.9c0.5-0.5,1.2-1,2-1.3
					c0.8-0.3,1.8-0.5,2.9-0.5s2.1,0.2,2.9,0.5c0.8,0.3,1.5,0.8,2,1.3c0.5,0.5,0.9,1.2,1.2,1.9s0.5,1.5,0.7,2.3
					c0.2,0.8,0.3,1.6,0.3,2.5s0.1,1.7,0.1,2.5s0,1.6-0.1,2.5s-0.1,1.7-0.3,2.5c-0.2,0.8-0.4,1.6-0.7,2.3s-0.7,1.4-1.2,1.9
					c-0.5,0.5-1.2,1-2,1.3c-0.8,0.3-1.8,0.5-2.9,0.5c-1.1,0-2.1-0.2-2.9-0.5s-1.5-0.7-2-1.3c-0.5-0.5-0.9-1.2-1.2-1.9
					c-0.3-0.7-0.5-1.5-0.7-2.3c-0.2-0.8-0.3-1.6-0.3-2.5c0-0.9-0.1-1.7-0.1-2.5S81.5,25.6,81.6,24.7z M84.3,29.9
					c0.1,1,0.2,1.9,0.5,2.8c0.3,0.9,0.7,1.6,1.3,2.2c0.6,0.6,1.5,0.9,2.6,0.9c1.1,0,1.9-0.3,2.6-0.9c0.6-0.6,1.1-1.4,1.3-2.2
					c0.3-0.9,0.4-1.8,0.5-2.8c0-1,0.1-1.9,0.1-2.7c0-0.5,0-1.1,0-1.8c0-0.6-0.1-1.3-0.2-1.9c-0.1-0.6-0.2-1.3-0.4-1.9
					c-0.2-0.6-0.4-1.1-0.8-1.6c-0.3-0.5-0.8-0.8-1.3-1.1c-0.5-0.3-1.1-0.4-1.9-0.4c-0.7,0-1.3,0.1-1.9,0.4c-0.5,0.3-0.9,0.7-1.3,1.1
					c-0.3,0.5-0.6,1-0.8,1.6c-0.2,0.6-0.3,1.2-0.4,1.9c-0.1,0.6-0.1,1.3-0.2,1.9c0,0.6,0,1.2,0,1.8C84.3,28,84.3,28.9,84.3,29.9z"/>
			</g>
		</g>
	</g>
	<g>
		<g>
			<line fill="none" stroke="#808080" stroke-width="0.5" x1="105" y1="474.1" x2="600" y2="474.1"/>
			<line fill="none" stroke="#808080" stroke-width="0.5" x1="105" y1="384.9" x2="600" y2="384.9"/>
			<line fill="none" stroke="#808080" stroke-width="0.5" x1="105" y1="296.2" x2="600" y2="296.2"/>
			<line fill="none" stroke="#808080" stroke-width="0.5" x1="105" y1="207" x2="600" y2="207"/>
			<line fill="none" stroke="#808080" stroke-width="0.5" x1="105" y1="118.3" x2="600" y2="118.3"/>
			<line fill="none" stroke="#808080" stroke-width="0.5" x1="105" y1="29.1" x2="600" y2="29.1"/>
		</g>
	</g>
</g>
<g>
	<g>
		<g>
			<rect x="122" y="123.5" fill="#BD5E28" width="88.7" height="439.3"/>
			<rect x="245.5" y="113.1" fill="#BD5E28" width="88.7" height="450.2"/>
			<rect x="369.1" y="109.6" fill="#BD5E28" width="88.7" height="453.7"/>
			<rect x="492.6" y="127.9" fill="#BD5E28" width="88.7" height="435.4"/>
		</g>
	</g>
</g>
<g>
	<g>
		<g enable-background="new    ">
			<path fill="#D1D3D4" d="M504.7,585.4c0.3-1,0.8-2,1.5-2.7s1.5-1.4,2.5-1.8c1-0.4,2.1-0.7,3.4-0.7c1,0,1.9,0.2,2.8,0.5
				c0.9,0.3,1.7,0.7,2.3,1.3s1.2,1.3,1.6,2.1c0.4,0.8,0.6,1.8,0.6,2.8c0,1.1-0.2,2-0.5,2.8c-0.3,0.8-0.8,1.5-1.4,2.1
				c-0.6,0.6-1.2,1.1-1.9,1.6c-0.7,0.5-1.4,1-2.2,1.4c-0.7,0.5-1.4,1-2.1,1.5c-0.7,0.5-1.3,1.2-1.8,1.9h10.1v3.7h-15.7
				c0-1.2,0.2-2.3,0.5-3.2c0.4-0.9,0.8-1.7,1.4-2.5c0.6-0.7,1.3-1.4,2.1-2s1.7-1.2,2.6-1.9c0.5-0.3,1-0.7,1.5-1
				c0.5-0.3,1-0.7,1.4-1.1c0.4-0.4,0.8-0.9,1.1-1.4s0.4-1.1,0.4-1.7c0-1-0.3-1.8-0.9-2.4c-0.6-0.6-1.4-0.9-2.3-0.9
				c-0.6,0-1.2,0.1-1.6,0.4c-0.4,0.3-0.8,0.7-1.1,1.2s-0.5,1-0.6,1.6c-0.1,0.6-0.2,1.2-0.2,1.7h-4.1
				C504.3,587.5,504.4,586.4,504.7,585.4z"/>
			<path fill="#D1D3D4" d="M521.4,585.9c0.4-1.4,1-2.5,1.7-3.4c0.7-0.9,1.5-1.5,2.5-1.8c0.9-0.4,1.9-0.5,3-0.5c1.1,0,2.1,0.2,3,0.5
				c0.9,0.4,1.8,1,2.5,1.8c0.7,0.9,1.3,2,1.7,3.4c0.4,1.4,0.6,3.2,0.6,5.2c0,2.1-0.2,3.9-0.6,5.3s-1,2.6-1.7,3.4
				c-0.7,0.9-1.6,1.5-2.5,1.8c-0.9,0.4-2,0.5-3,0.5c-1.1,0-2.1-0.2-3-0.5c-0.9-0.4-1.8-1-2.5-1.8c-0.7-0.9-1.3-2-1.7-3.4
				c-0.4-1.4-0.6-3.2-0.6-5.3C520.8,589.1,521,587.3,521.4,585.9z M525.1,593.3c0,0.9,0.2,1.7,0.4,2.5c0.2,0.8,0.6,1.5,1,2.1
				s1.1,0.9,2,0.9c0.9,0,1.6-0.3,2.1-0.9c0.5-0.6,0.8-1.3,1-2.1c0.2-0.8,0.3-1.6,0.4-2.5c0-0.9,0.1-1.6,0.1-2.2c0-0.4,0-0.8,0-1.3
				c0-0.5-0.1-1.1-0.1-1.6c-0.1-0.5-0.2-1.1-0.3-1.6c-0.1-0.5-0.3-1-0.6-1.4c-0.3-0.4-0.6-0.8-1-1s-0.9-0.4-1.5-0.4
				s-1.1,0.1-1.5,0.4s-0.7,0.6-1,1s-0.5,0.9-0.6,1.4c-0.1,0.5-0.2,1.1-0.3,1.6c-0.1,0.5-0.1,1.1-0.1,1.6c0,0.5,0,1,0,1.3
				C525.1,591.7,525.1,592.5,525.1,593.3z"/>
			<path fill="#D1D3D4" d="M544.7,601.9v-13.8h-5.4v-3.3c0.8,0,1.5,0,2.2-0.2s1.3-0.4,1.9-0.7c0.6-0.3,1-0.8,1.4-1.3
				c0.4-0.5,0.6-1.2,0.8-2h3.4v21.3H544.7z"/>
			<path fill="#D1D3D4" d="M554.5,596.9v-4l9.3-12.4h3.9v12.8h2.8v3.6h-2.8v4.9h-4.1v-4.9H554.5z M563.4,586l-5.5,7.4h5.6L563.4,586
				L563.4,586z"/>
		</g>
	</g>
	<g>
		<g enable-background="new    ">
			<path fill="#D1D3D4" d="M381.3,585.4c0.3-1,0.8-2,1.5-2.7c0.6-0.8,1.5-1.4,2.5-1.8c1-0.4,2.1-0.7,3.4-0.7c1,0,1.9,0.2,2.8,0.5
				c0.9,0.3,1.7,0.7,2.3,1.3s1.2,1.3,1.6,2.1c0.4,0.8,0.6,1.8,0.6,2.8c0,1.1-0.2,2-0.5,2.8c-0.3,0.8-0.8,1.5-1.4,2.1
				c-0.6,0.6-1.2,1.1-1.9,1.6c-0.7,0.5-1.4,1-2.2,1.4c-0.7,0.5-1.4,1-2.1,1.5c-0.7,0.5-1.3,1.2-1.8,1.9H396v3.7h-15.7
				c0-1.2,0.2-2.3,0.5-3.2c0.4-0.9,0.8-1.7,1.4-2.5s1.3-1.4,2.1-2s1.7-1.2,2.6-1.9c0.5-0.3,1-0.7,1.5-1c0.5-0.3,1-0.7,1.4-1.1
				c0.4-0.4,0.8-0.9,1.1-1.4c0.3-0.5,0.4-1.1,0.4-1.7c0-1-0.3-1.8-0.9-2.4c-0.6-0.6-1.4-0.9-2.3-0.9c-0.6,0-1.2,0.1-1.6,0.4
				c-0.4,0.3-0.8,0.7-1.1,1.2s-0.5,1-0.6,1.6c-0.1,0.6-0.2,1.2-0.2,1.7h-4.1C380.8,587.5,380.9,586.4,381.3,585.4z"/>
			<path fill="#D1D3D4" d="M397.9,585.9c0.4-1.4,1-2.5,1.7-3.4c0.7-0.9,1.5-1.5,2.5-1.8s1.9-0.5,3-0.5c1.1,0,2.1,0.2,3,0.5
				c0.9,0.4,1.8,1,2.5,1.8c0.7,0.9,1.3,2,1.7,3.4c0.4,1.4,0.6,3.2,0.6,5.2c0,2.1-0.2,3.9-0.6,5.3c-0.4,1.4-1,2.6-1.7,3.4
				c-0.7,0.9-1.6,1.5-2.5,1.8c-0.9,0.4-2,0.5-3,0.5c-1.1,0-2.1-0.2-3-0.5s-1.8-1-2.5-1.8c-0.7-0.9-1.3-2-1.7-3.4
				c-0.4-1.4-0.6-3.2-0.6-5.3C397.3,589.1,397.5,587.3,397.9,585.9z M401.7,593.3c0,0.9,0.2,1.7,0.4,2.5c0.2,0.8,0.6,1.5,1,2.1
				s1.1,0.9,2,0.9c0.9,0,1.6-0.3,2.1-0.9s0.8-1.3,1-2.1c0.2-0.8,0.3-1.6,0.4-2.5c0-0.9,0.1-1.6,0.1-2.2c0-0.4,0-0.8,0-1.3
				s-0.1-1.1-0.1-1.6c-0.1-0.5-0.2-1.1-0.3-1.6c-0.1-0.5-0.3-1-0.6-1.4s-0.6-0.8-1-1s-0.9-0.4-1.5-0.4c-0.6,0-1.1,0.1-1.5,0.4
				c-0.4,0.3-0.7,0.6-1,1s-0.5,0.9-0.6,1.4c-0.1,0.5-0.2,1.1-0.3,1.6c-0.1,0.5-0.1,1.1-0.1,1.6s0,1,0,1.3
				C401.6,591.7,401.6,592.5,401.7,593.3z"/>
			<path fill="#D1D3D4" d="M421.2,601.9v-13.8h-5.4v-3.3c0.8,0,1.5,0,2.2-0.2c0.7-0.1,1.3-0.4,1.9-0.7c0.6-0.3,1-0.8,1.4-1.3
				c0.4-0.5,0.6-1.2,0.8-2h3.4v21.3H421.2z"/>
			<path fill="#D1D3D4" d="M438.9,589.2c0.5,0,1-0.2,1.5-0.4c0.5-0.2,0.8-0.5,1.1-0.8c0.3-0.4,0.4-0.9,0.4-1.5
				c0-0.9-0.3-1.6-0.9-2.1c-0.6-0.5-1.3-0.7-2.1-0.7c-1.1,0-1.9,0.4-2.5,1.1c-0.6,0.7-0.8,1.6-0.8,2.7h-4.1c0-1.1,0.2-2.1,0.6-3
				c0.4-0.9,0.9-1.7,1.5-2.3c0.6-0.7,1.4-1.2,2.3-1.5c0.9-0.4,1.9-0.5,3-0.5c0.9,0,1.7,0.1,2.6,0.4c0.9,0.3,1.6,0.6,2.3,1.1
				s1.2,1.1,1.7,1.9s0.6,1.6,0.6,2.5c0,1-0.2,1.9-0.7,2.7c-0.5,0.8-1.2,1.3-2.2,1.6v0.1c1.2,0.3,2.1,0.8,2.8,1.7
				c0.7,0.9,1,1.9,1,3.1c0,1.1-0.2,2.1-0.7,3s-1,1.6-1.8,2.2c-0.7,0.6-1.6,1-2.5,1.3c-1,0.3-1.9,0.5-3,0.5c-1.2,0-2.3-0.2-3.3-0.5
				c-1-0.3-1.8-0.8-2.5-1.5c-0.7-0.7-1.2-1.5-1.6-2.4c-0.4-1-0.6-2.1-0.5-3.3h4.1c0,0.6,0.1,1.1,0.3,1.6c0.2,0.5,0.4,1,0.7,1.3
				c0.3,0.4,0.7,0.7,1.1,0.9c0.5,0.2,1,0.3,1.6,0.3c1,0,1.8-0.3,2.5-0.9c0.7-0.6,1-1.4,1-2.5c0-0.8-0.2-1.4-0.5-1.9
				c-0.3-0.4-0.7-0.7-1.2-0.9c-0.5-0.2-1-0.3-1.6-0.3c-0.6,0-1.1,0-1.7,0v-3C437.9,589.2,438.4,589.2,438.9,589.2z"/>
		</g>
	</g>
	<g>
		<g enable-background="new    ">
			<path fill="#D1D3D4" d="M257.8,585.4c0.3-1,0.8-2,1.5-2.7c0.6-0.8,1.5-1.4,2.5-1.8c1-0.4,2.1-0.7,3.4-0.7c1,0,1.9,0.2,2.8,0.5
				c0.9,0.3,1.7,0.7,2.3,1.3s1.2,1.3,1.6,2.1c0.4,0.8,0.6,1.8,0.6,2.8c0,1.1-0.2,2-0.5,2.8c-0.3,0.8-0.8,1.5-1.4,2.1
				c-0.6,0.6-1.2,1.1-1.9,1.6c-0.7,0.5-1.4,1-2.2,1.4c-0.7,0.5-1.4,1-2.1,1.5c-0.7,0.5-1.3,1.2-1.8,1.9h10.1v3.7h-15.7
				c0-1.2,0.2-2.3,0.5-3.2c0.4-0.9,0.8-1.7,1.4-2.5s1.3-1.4,2.1-2s1.7-1.2,2.6-1.9c0.5-0.3,1-0.7,1.5-1c0.5-0.3,1-0.7,1.4-1.1
				c0.4-0.4,0.8-0.9,1.1-1.4c0.3-0.5,0.4-1.1,0.4-1.7c0-1-0.3-1.8-0.9-2.4c-0.6-0.6-1.4-0.9-2.3-0.9c-0.6,0-1.2,0.1-1.6,0.4
				c-0.4,0.3-0.8,0.7-1.1,1.2s-0.5,1-0.6,1.6c-0.1,0.6-0.2,1.2-0.2,1.7h-4.1C257.3,587.5,257.5,586.4,257.8,585.4z"/>
			<path fill="#D1D3D4" d="M274.4,585.9c0.4-1.4,1-2.5,1.7-3.4c0.7-0.9,1.5-1.5,2.5-1.8s1.9-0.5,3-0.5c1.1,0,2.1,0.2,3,0.5
				c0.9,0.4,1.8,1,2.5,1.8c0.7,0.9,1.3,2,1.7,3.4c0.4,1.4,0.6,3.2,0.6,5.2c0,2.1-0.2,3.9-0.6,5.3c-0.4,1.4-1,2.6-1.7,3.4
				c-0.7,0.9-1.6,1.5-2.5,1.8c-0.9,0.4-2,0.5-3,0.5c-1.1,0-2.1-0.2-3-0.5s-1.8-1-2.5-1.8c-0.7-0.9-1.3-2-1.7-3.4
				c-0.4-1.4-0.6-3.2-0.6-5.3C273.8,589.1,274,587.3,274.4,585.9z M278.2,593.3c0,0.9,0.2,1.7,0.4,2.5c0.2,0.8,0.6,1.5,1,2.1
				s1.1,0.9,2,0.9c0.9,0,1.6-0.3,2.1-0.9c0.5-0.6,0.8-1.3,1-2.1c0.2-0.8,0.3-1.6,0.4-2.5c0-0.9,0.1-1.6,0.1-2.2c0-0.4,0-0.8,0-1.3
				s-0.1-1.1-0.1-1.6c-0.1-0.5-0.2-1.1-0.3-1.6c-0.1-0.5-0.3-1-0.6-1.4c-0.3-0.4-0.6-0.8-1-1s-0.9-0.4-1.5-0.4
				c-0.6,0-1.1,0.1-1.5,0.4c-0.4,0.3-0.7,0.6-1,1c-0.3,0.4-0.5,0.9-0.6,1.4c-0.1,0.5-0.2,1.1-0.3,1.6c-0.1,0.5-0.1,1.1-0.1,1.6
				s0,1,0,1.3C278.1,591.7,278.2,592.5,278.2,593.3z"/>
			<path fill="#D1D3D4" d="M297.7,601.9v-13.8h-5.4v-3.3c0.8,0,1.5,0,2.2-0.2s1.3-0.4,1.9-0.7c0.6-0.3,1-0.8,1.4-1.3
				c0.4-0.5,0.6-1.2,0.8-2h3.4v21.3H297.7z"/>
			<path fill="#D1D3D4" d="M308.6,585.4c0.3-1,0.8-2,1.5-2.7c0.6-0.8,1.5-1.4,2.5-1.8c1-0.4,2.1-0.7,3.4-0.7c1,0,1.9,0.2,2.8,0.5
				c0.9,0.3,1.7,0.7,2.3,1.3s1.2,1.3,1.6,2.1c0.4,0.8,0.6,1.8,0.6,2.8c0,1.1-0.2,2-0.5,2.8c-0.3,0.8-0.8,1.5-1.4,2.1
				c-0.6,0.6-1.2,1.1-1.9,1.6c-0.7,0.5-1.4,1-2.2,1.4c-0.7,0.5-1.4,1-2.1,1.5c-0.7,0.5-1.3,1.2-1.8,1.9h10.1v3.7h-15.7
				c0-1.2,0.2-2.3,0.5-3.2c0.4-0.9,0.8-1.7,1.4-2.5s1.3-1.4,2.1-2s1.7-1.2,2.6-1.9c0.5-0.3,1-0.7,1.5-1c0.5-0.3,1-0.7,1.4-1.1
				c0.4-0.4,0.8-0.9,1.1-1.4c0.3-0.5,0.4-1.1,0.4-1.7c0-1-0.3-1.8-0.9-2.4c-0.6-0.6-1.4-0.9-2.3-0.9c-0.6,0-1.2,0.1-1.6,0.4
				c-0.4,0.3-0.8,0.7-1.1,1.2s-0.5,1-0.6,1.6c-0.1,0.6-0.2,1.2-0.2,1.7h-4.1C308.1,587.5,308.3,586.4,308.6,585.4z"/>
		</g>
	</g>
	<g>
		<g enable-background="new    ">
			<path fill="#D1D3D4" d="M134.3,585.4c0.3-1,0.8-2,1.5-2.7c0.6-0.8,1.5-1.4,2.5-1.8c1-0.4,2.1-0.7,3.4-0.7c1,0,1.9,0.2,2.8,0.5
				c0.9,0.3,1.7,0.7,2.3,1.3s1.2,1.3,1.6,2.1c0.4,0.8,0.6,1.8,0.6,2.8c0,1.1-0.2,2-0.5,2.8c-0.3,0.8-0.8,1.5-1.4,2.1
				c-0.6,0.6-1.2,1.1-1.9,1.6c-0.7,0.5-1.4,1-2.2,1.4c-0.7,0.5-1.4,1-2.1,1.5c-0.7,0.5-1.3,1.2-1.8,1.9h10.1v3.7h-15.7
				c0-1.2,0.2-2.3,0.5-3.2c0.4-0.9,0.8-1.7,1.4-2.5s1.3-1.4,2.1-2s1.7-1.2,2.6-1.9c0.5-0.3,1-0.7,1.5-1c0.5-0.3,1-0.7,1.4-1.1
				c0.4-0.4,0.8-0.9,1.1-1.4c0.3-0.5,0.4-1.1,0.4-1.7c0-1-0.3-1.8-0.9-2.4c-0.6-0.6-1.4-0.9-2.3-0.9c-0.6,0-1.2,0.1-1.6,0.4
				c-0.4,0.3-0.8,0.7-1.1,1.2s-0.5,1-0.6,1.6c-0.1,0.6-0.2,1.2-0.2,1.7h-4.1C133.9,587.5,134,586.4,134.3,585.4z"/>
			<path fill="#D1D3D4" d="M151,585.9c0.4-1.4,1-2.5,1.7-3.4c0.7-0.9,1.5-1.5,2.5-1.8s1.9-0.5,3-0.5c1.1,0,2.1,0.2,3,0.5
				c0.9,0.4,1.8,1,2.5,1.8c0.7,0.9,1.3,2,1.7,3.4c0.4,1.4,0.6,3.2,0.6,5.2c0,2.1-0.2,3.9-0.6,5.3c-0.4,1.4-1,2.6-1.7,3.4
				c-0.7,0.9-1.6,1.5-2.5,1.8c-0.9,0.4-2,0.5-3,0.5c-1.1,0-2.1-0.2-3-0.5s-1.8-1-2.5-1.8c-0.7-0.9-1.3-2-1.7-3.4
				c-0.4-1.4-0.6-3.2-0.6-5.3C150.3,589.1,150.5,587.3,151,585.9z M154.7,593.3c0,0.9,0.2,1.7,0.4,2.5c0.2,0.8,0.6,1.5,1,2.1
				s1.1,0.9,2,0.9c0.9,0,1.6-0.3,2.1-0.9c0.5-0.6,0.8-1.3,1-2.1c0.2-0.8,0.3-1.6,0.4-2.5c0-0.9,0.1-1.6,0.1-2.2c0-0.4,0-0.8,0-1.3
				s-0.1-1.1-0.1-1.6c-0.1-0.5-0.2-1.1-0.3-1.6c-0.1-0.5-0.3-1-0.6-1.4c-0.3-0.4-0.6-0.8-1-1s-0.9-0.4-1.5-0.4
				c-0.6,0-1.1,0.1-1.5,0.4c-0.4,0.3-0.7,0.6-1,1c-0.3,0.4-0.5,0.9-0.6,1.4c-0.1,0.5-0.2,1.1-0.3,1.6c-0.1,0.5-0.1,1.1-0.1,1.6
				s0,1,0,1.3C154.7,591.7,154.7,592.5,154.7,593.3z"/>
			<path fill="#D1D3D4" d="M174.2,601.9v-13.8h-5.4v-3.3c0.8,0,1.5,0,2.2-0.2s1.3-0.4,1.9-0.7c0.6-0.3,1-0.8,1.4-1.3
				c0.4-0.5,0.6-1.2,0.8-2h3.4v21.3H174.2z"/>
			<path fill="#D1D3D4" d="M191.2,601.9v-13.8h-5.4v-3.3c0.8,0,1.5,0,2.2-0.2s1.3-0.4,1.9-0.7c0.6-0.3,1-0.8,1.4-1.3
				c0.4-0.5,0.6-1.2,0.8-2h3.4v21.3H191.2z"/>
		</g>
	</g>
</g>
<g>
	<line fill="none" stroke="#808080" x1="105" y1="563.3" x2="598.7" y2="563.3"/>
</g>
<text transform="matrix(1 0 0 1 208.9774 -1819.1597)" font-family="'SunST-Bold'" font-size="32.6226">$978.3</text>
<g>
	<g>
		<g>
			<text transform="matrix(1 0 0 1 -200.531 -1355.0995)" fill="#666666" font-family="'SunST-Regular'" font-size="30.4478">0</text>
		</g>
		<g>
			<text transform="matrix(1 0 0 1 -230.9779 -1444.1006)" fill="#666666" font-family="'SunST-Regular'" font-size="30.4478">200</text>
		</g>
		<g>
			<text transform="matrix(1 0 0 1 -230.9779 -1533.1003)" fill="#666666" font-family="'SunST-Regular'" font-size="30.4478">400</text>
		</g>
		<g>
			<text transform="matrix(1 0 0 1 -230.9779 -1622.0979)" fill="#666666" font-family="'SunST-Regular'" font-size="30.4478">600</text>
		</g>
		<g>
			<text transform="matrix(1 0 0 1 -230.9779 -1711.1008)" fill="#666666" font-family="'SunST-Regular'" font-size="30.4478">800</text>
		</g>
		<g>
			<text transform="matrix(1 0 0 1 -255.5186 -1800.1006)" fill="#666666" font-family="'SunST-Regular'" font-size="30.4478">1,000</text>
		</g>
		<g>
			<text transform="matrix(1 0 0 1 -270.7438 -1889.0981)" fill="#666666" font-family="'SunST-Regular'" font-size="30.4478">$1,200</text>
		</g>
	</g>
	<g>
		<g>
			<line fill="none" stroke="#000000" stroke-miterlimit="10" x1="-177.4" y1="-1363.6" x2="-165.3" y2="-1363.6"/>
			<line fill="none" stroke="#808080" stroke-width="0.5" x1="-177.4" y1="-1452.8" x2="317.5" y2="-1452.8"/>
			<line fill="none" stroke="#808080" stroke-width="0.5" x1="-177.4" y1="-1542" x2="317.5" y2="-1542"/>
			<line fill="none" stroke="#808080" stroke-width="0.5" x1="-177.4" y1="-1630.7" x2="317.5" y2="-1630.7"/>
			<line fill="none" stroke="#808080" stroke-width="0.5" x1="-177.4" y1="-1719.9" x2="317.5" y2="-1719.9"/>
			<line fill="none" stroke="#808080" stroke-width="0.5" x1="-177.4" y1="-1808.6" x2="317.5" y2="-1808.6"/>
			<line fill="none" stroke="#808080" stroke-width="0.5" x1="-177.4" y1="-1897.8" x2="317.5" y2="-1897.8"/>
		</g>
	</g>
</g>
<g>
	<g>
		<g>
			<rect x="-160.5" y="-1803.4" fill="#BD5E28" width="88.7" height="439.3"/>
			<rect x="-36.9" y="-1813.8" fill="#BD5E28" width="88.7" height="450.2"/>
			<rect x="86.6" y="-1817.3" fill="#BD5E28" width="88.7" height="453.7"/>
			<rect x="210.1" y="-1799" fill="#BD5E28" width="88.7" height="435.4"/>
		</g>
	</g>
</g>
<g>
	<g>
		<text transform="matrix(1 0 0 1 224.1158 -1325.0286)" fill="#4D4D4D" font-family="'SunST-Bold'" font-size="30.4478">2014</text>
	</g>
	<g>
		<text transform="matrix(1 0 0 1 100.6436 -1325.0286)" fill="#4D4D4D" font-family="'SunST-Bold'" font-size="30.4478">2013</text>
	</g>
	<g>
		<text transform="matrix(1 0 0 1 -22.8303 -1325.0286)" fill="#4D4D4D" font-family="'SunST-Bold'" font-size="30.4478">2012</text>
	</g>
	<g>
		<text transform="matrix(1 0 0 1 -146.3044 -1325.0286)" fill="#4D4D4D" font-family="'SunST-Bold'" font-size="30.4478">2011</text>
	</g>
</g>
<g>
	<line fill="none" stroke="#000000" stroke-width="0.5" stroke-miterlimit="10" x1="-177.4" y1="-1363.6" x2="316.2" y2="-1363.6"/>
</g>
</svg>
