<svg version="1.1" id="Layer_1" xmlns="http://www.w3.org/2000/svg" xmlns:xlink="http://www.w3.org/1999/xlink" x="0px" y="0px"
	 viewBox="0 0 145.8 140.7" enable-background="new 0 0 145.8 140.7" xml:space="preserve">
<text transform="matrix(1 0 0 1 114.2339 24.7711)" fill="#FFFFFF" font-family="'HelveticaNeue-Bold'" font-size="7.5">$978.3</text>
<g>
	<g>
		<g>
			<text transform="matrix(1 0 0 1 20.7003 131.4597)" fill="#D1D3D4" font-family="'HelveticaNeue'" font-size="7">0</text>
		</g>
		<g>
			<text transform="matrix(1 0 0 1 12.9166 110.9978)" fill="#D1D3D4" font-family="'HelveticaNeue'" font-size="7">200</text>
		</g>
		<g>
			<text transform="matrix(1 0 0 1 12.9166 90.5369)" fill="#D1D3D4" font-family="'HelveticaNeue'" font-size="7">400</text>
		</g>
		<g>
			<text transform="matrix(1 0 0 1 12.9166 70.0759)" fill="#D1D3D4" font-family="'HelveticaNeue'" font-size="7">600</text>
		</g>
		<g>
			<text transform="matrix(1 0 0 1 12.9166 49.614)" fill="#D1D3D4" font-family="'HelveticaNeue'" font-size="7">800</text>
		</g>
		<g>
			<text transform="matrix(1 0 0 1 7.0782 29.1531)" fill="#D1D3D4" font-family="'HelveticaNeue'" font-size="7">1,000</text>
		</g>
		<g>
			<text transform="matrix(1 0 0 1 3.1866 8.6921)" fill="#D1D3D4" font-family="'HelveticaNeue'" font-size="7">$1,200</text>
		</g>
	</g>
	<g>
		<g>
			<line fill="none" stroke="#000000" stroke-miterlimit="10" x1="26.4" y1="129.5" x2="29.2" y2="129.5"/>
			<line fill="none" stroke="#808080" stroke-width="0.5" x1="26.4" y1="109" x2="140.2" y2="109"/>
			<line fill="none" stroke="#808080" stroke-width="0.5" x1="26.4" y1="88.5" x2="140.2" y2="88.5"/>
			<line fill="none" stroke="#808080" stroke-width="0.5" x1="26.4" y1="68.1" x2="140.2" y2="68.1"/>
			<line fill="none" stroke="#808080" stroke-width="0.5" x1="26.4" y1="47.6" x2="140.2" y2="47.6"/>
			<line fill="none" stroke="#808080" stroke-width="0.5" x1="26.4" y1="27.2" x2="140.2" y2="27.2"/>
			<line fill="none" stroke="#808080" stroke-width="0.5" x1="26.4" y1="6.7" x2="140.2" y2="6.7"/>
		</g>
		<g>
		</g>
	</g>
</g>
<g>
	<g>
		<g>
			<rect x="30.3" y="28.4" fill="#BD5E28" width="20.4" height="101"/>
			<rect x="58.7" y="26" fill="#BD5E28" width="20.4" height="103.5"/>
			<rect x="87.1" y="25.2" fill="#BD5E28" width="20.4" height="104.3"/>
			<rect x="115.5" y="29.4" fill="#BD5E28" width="20.4" height="100.1"/>
		</g>
	</g>
</g>
<g>
	<g>
		<text transform="matrix(1 0 0 1 117.9352 138.3728)" fill="#D1D3D4" font-family="'HelveticaNeue-Bold'" font-size="7">2014</text>
	</g>
	<g>
		<text transform="matrix(1 0 0 1 89.5484 138.3728)" fill="#D1D3D4" font-family="'HelveticaNeue-Bold'" font-size="7">2013</text>
	</g>
	<g>
		<text transform="matrix(1 0 0 1 61.1617 138.3728)" fill="#D1D3D4" font-family="'HelveticaNeue-Bold'" font-size="7">2012</text>
	</g>
	<g>
		<text transform="matrix(1 0 0 1 32.775 138.3728)" fill="#D1D3D4" font-family="'HelveticaNeue-Bold'" font-size="7">2011</text>
	</g>
</g>
<g>
	<line fill="none" stroke="#000000" stroke-width="0.5" stroke-miterlimit="10" x1="26.4" y1="129.5" x2="139.9" y2="129.5"/>
</g>
</svg>
